G04 #@! TF.GenerationSoftware,KiCad,Pcbnew,5.1.2-f72e74a~84~ubuntu18.04.1*
G04 #@! TF.CreationDate,2019-05-25T15:58:10+08:00*
G04 #@! TF.ProjectId,power-board-tryout,706f7765-722d-4626-9f61-72642d747279,rev?*
G04 #@! TF.SameCoordinates,Original*
G04 #@! TF.FileFunction,Copper,L2,Bot*
G04 #@! TF.FilePolarity,Positive*
%FSLAX46Y46*%
G04 Gerber Fmt 4.6, Leading zero omitted, Abs format (unit mm)*
G04 Created by KiCad (PCBNEW 5.1.2-f72e74a~84~ubuntu18.04.1) date 2019-05-25 15:58:10*
%MOMM*%
%LPD*%
G04 APERTURE LIST*
%ADD10O,3.000000X2.000000*%
%ADD11R,3.000000X2.000000*%
%ADD12O,1.700000X1.700000*%
%ADD13R,1.700000X1.700000*%
%ADD14R,1.500000X1.200000*%
%ADD15C,1.000000*%
%ADD16C,0.600000*%
%ADD17C,1.200000*%
%ADD18C,0.800000*%
%ADD19C,1.000000*%
%ADD20C,0.400000*%
%ADD21C,0.254000*%
G04 APERTURE END LIST*
D10*
X65729000Y-113396000D03*
D11*
X65729000Y-126604000D03*
D10*
X84271000Y-113396000D03*
D11*
X84271000Y-126604000D03*
X84271000Y-115936000D03*
X65729000Y-115936000D03*
D10*
X65729000Y-124064000D03*
X84271000Y-124064000D03*
X65729000Y-93396000D03*
D11*
X65729000Y-106604000D03*
D10*
X84271000Y-93396000D03*
D11*
X84271000Y-106604000D03*
X84271000Y-95936000D03*
X65729000Y-95936000D03*
D10*
X65729000Y-104064000D03*
X84271000Y-104064000D03*
X65729000Y-73396000D03*
D11*
X65729000Y-86604000D03*
D10*
X84271000Y-73396000D03*
D11*
X84271000Y-86604000D03*
X84271000Y-75936000D03*
X65729000Y-75936000D03*
D10*
X65729000Y-84064000D03*
X84271000Y-84064000D03*
X65729000Y-53396000D03*
D11*
X65729000Y-66604000D03*
D10*
X84271000Y-53396000D03*
D11*
X84271000Y-66604000D03*
X84271000Y-55936000D03*
X65729000Y-55936000D03*
D10*
X65729000Y-64064000D03*
X84271000Y-64064000D03*
D12*
X100400000Y-138740000D03*
D13*
X100400000Y-136200000D03*
D12*
X57400000Y-136140000D03*
D13*
X57400000Y-133600000D03*
D14*
X86323999Y-139300000D03*
X86323999Y-138411000D03*
X86323999Y-140189000D03*
X85307999Y-139300000D03*
X85307999Y-138411000D03*
X85307999Y-140189000D03*
X84291999Y-139300000D03*
X84291999Y-138411000D03*
X84291999Y-140189000D03*
X83275999Y-138411000D03*
X83275999Y-139300000D03*
X83275999Y-140189000D03*
D12*
X110000000Y-117540000D03*
D13*
X110000000Y-115000000D03*
D12*
X110000000Y-97540000D03*
D13*
X110000000Y-95000000D03*
D12*
X110000000Y-77540000D03*
D13*
X110000000Y-75000000D03*
D12*
X110000000Y-57540000D03*
D13*
X110000000Y-55000000D03*
D12*
X55000000Y-67620000D03*
X55000000Y-65080000D03*
X55000000Y-62540000D03*
D13*
X55000000Y-60000000D03*
D15*
X96100000Y-55000000D03*
X103987500Y-54987500D03*
X100000000Y-59062500D03*
X105050000Y-59950000D03*
X106025000Y-55000000D03*
X96050000Y-75000000D03*
X103975000Y-75000000D03*
X100000000Y-79062500D03*
X106025000Y-75000000D03*
X105025000Y-79975000D03*
X100000000Y-99062500D03*
D16*
X95850000Y-95000000D03*
D15*
X103975000Y-95000000D03*
X106025000Y-95000000D03*
X105000000Y-98975000D03*
X96050000Y-115000000D03*
X100000000Y-120000500D03*
X103975000Y-115000000D03*
X105000000Y-117950000D03*
X106025000Y-115000000D03*
X90000000Y-69275000D03*
X105000000Y-62050000D03*
X100000000Y-60937500D03*
X95000000Y-85000000D03*
X95000000Y-107500000D03*
X95000000Y-127500000D03*
D17*
X65729000Y-133936000D03*
X74825000Y-134300000D03*
D15*
X80599999Y-142900000D03*
X83625000Y-133700000D03*
X90000000Y-71050000D03*
X100000000Y-80937500D03*
X105000000Y-82050000D03*
X90000000Y-89275000D03*
X90000000Y-91050000D03*
X90000000Y-109275000D03*
X99962500Y-100937500D03*
X104987500Y-101012500D03*
X105000000Y-120000000D03*
X100000000Y-121875500D03*
X90000000Y-111050000D03*
X90000000Y-129275000D03*
X96837500Y-136200000D03*
D18*
X103987500Y-54987500D02*
X103975000Y-55000000D01*
X100000000Y-55900000D02*
X100912500Y-54987500D01*
X100912500Y-54987500D02*
X103280394Y-54987500D01*
X103280394Y-54987500D02*
X103987500Y-54987500D01*
X103987500Y-53112500D02*
X103987500Y-54987500D01*
X104600000Y-52500000D02*
X103987500Y-53112500D01*
X109500000Y-52500000D02*
X104600000Y-52500000D01*
X110000000Y-55000000D02*
X110000000Y-53000000D01*
X110000000Y-53000000D02*
X109500000Y-52500000D01*
X99100000Y-55000000D02*
X100000000Y-55900000D01*
X99100000Y-55000000D02*
X96100000Y-55000000D01*
X100000000Y-59062500D02*
X100000000Y-59062500D01*
X100000000Y-59062500D02*
X100000000Y-55900000D01*
X106025000Y-58975000D02*
X105050000Y-59950000D01*
X106025000Y-55000000D02*
X106025000Y-55000000D01*
X105050000Y-59950000D02*
X105000000Y-60000000D01*
X106025000Y-55000000D02*
X106025000Y-58975000D01*
X108749700Y-75000000D02*
X107645400Y-73895700D01*
X107645400Y-73895700D02*
X105079300Y-73895700D01*
X105079300Y-73895700D02*
X103975000Y-75000000D01*
X110000000Y-75000000D02*
X108749700Y-75000000D01*
X98600000Y-75000000D02*
X96350000Y-75000000D01*
X100000000Y-76400000D02*
X98600000Y-75000000D01*
X100000000Y-76600000D02*
X100000000Y-76400000D01*
X100000000Y-79062500D02*
X100000000Y-79062500D01*
X101400000Y-75000000D02*
X100000000Y-76400000D01*
X103975000Y-75000000D02*
X101400000Y-75000000D01*
X103975000Y-75000000D02*
X103975000Y-75000000D01*
X100000000Y-79062500D02*
X100000000Y-76600000D01*
X98600000Y-75000000D02*
X96050000Y-75000000D01*
X106025000Y-75000000D02*
X106025000Y-75000000D01*
X106025000Y-78975000D02*
X105025000Y-79975000D01*
X106025000Y-75000000D02*
X106025000Y-78975000D01*
X105025000Y-79975000D02*
X105000000Y-80000000D01*
X103975000Y-95000000D02*
X101000000Y-95000000D01*
X101000000Y-95000000D02*
X100150000Y-95850000D01*
X100150000Y-95850000D02*
X100150000Y-98912500D01*
X100150000Y-98912500D02*
X100000000Y-99062500D01*
X100150000Y-95850000D02*
X100150000Y-95750000D01*
X100150000Y-95750000D02*
X99400000Y-95000000D01*
X103975000Y-95000000D02*
X103975000Y-95000000D01*
X99400000Y-95000000D02*
X97450000Y-95000000D01*
X97450000Y-95000000D02*
X95850000Y-95000000D01*
X97450000Y-95000000D02*
X96250000Y-95000000D01*
X110000000Y-93350000D02*
X109650000Y-93000000D01*
X110000000Y-95000000D02*
X110000000Y-93350000D01*
X109650000Y-93000000D02*
X104650000Y-93000000D01*
X104650000Y-93000000D02*
X103975000Y-93675000D01*
X103975000Y-93675000D02*
X103975000Y-95000000D01*
X106025000Y-95000000D02*
X106025000Y-95000000D01*
X106025000Y-97950000D02*
X105000000Y-98975000D01*
X106025000Y-95000000D02*
X106025000Y-97950000D01*
X105000000Y-98975000D02*
X105000000Y-98975000D01*
X104800000Y-112850000D02*
X103975000Y-113675000D01*
X110000000Y-115000000D02*
X110000000Y-113750000D01*
X109100000Y-112850000D02*
X104800000Y-112850000D01*
X110000000Y-113750000D02*
X109100000Y-112850000D01*
X103975000Y-113675000D02*
X103975000Y-114325000D01*
X103975000Y-114325000D02*
X103975000Y-115000000D01*
X103975000Y-114325000D02*
X103200000Y-115100000D01*
X100050000Y-119950500D02*
X100000000Y-120000500D01*
X100050000Y-115100000D02*
X100050000Y-119950500D01*
X103200000Y-115100000D02*
X100050000Y-115100000D01*
X103975000Y-115000000D02*
X103975000Y-115000000D01*
X98000000Y-115000000D02*
X96050000Y-115000000D01*
X98100000Y-115100000D02*
X98000000Y-115000000D01*
X100050000Y-115100000D02*
X98100000Y-115100000D01*
X98100000Y-115100000D02*
X97007106Y-115100000D01*
X106025000Y-115000000D02*
X106025000Y-115000000D01*
X106025000Y-116925000D02*
X105000000Y-117950000D01*
X105000000Y-117950000D02*
X105000000Y-117950000D01*
X106025000Y-115000000D02*
X106025000Y-116925000D01*
X84271000Y-53396000D02*
X84271000Y-55936000D01*
X84271000Y-57336000D02*
X90000000Y-63065000D01*
X90000000Y-63065000D02*
X90000000Y-69275000D01*
X84271000Y-55936000D02*
X84271000Y-57336000D01*
X110000000Y-57540000D02*
X110000000Y-60300000D01*
X108250000Y-62050000D02*
X105000000Y-62050000D01*
X110000000Y-60300000D02*
X108250000Y-62050000D01*
X105000000Y-62050000D02*
X105000000Y-62050000D01*
X100000000Y-60937500D02*
X100000000Y-60937500D01*
X90000000Y-69275000D02*
X90000000Y-69275000D01*
X92162500Y-60937500D02*
X100000000Y-60937500D01*
X90000000Y-69275000D02*
X90000000Y-63100000D01*
X90000000Y-63100000D02*
X92162500Y-60937500D01*
X103300000Y-62050000D02*
X105000000Y-62050000D01*
X100000000Y-60937500D02*
X102187500Y-60937500D01*
X102187500Y-60937500D02*
X103300000Y-62050000D01*
D19*
X65729000Y-115936000D02*
X65729000Y-113396000D01*
X65729000Y-73396000D02*
X65729000Y-75936000D01*
X55000000Y-65769700D02*
X55235500Y-65769700D01*
X55235500Y-65769700D02*
X55925200Y-65080000D01*
X55000000Y-67620000D02*
X55000000Y-65769700D01*
X55000000Y-65080000D02*
X55925200Y-65080000D01*
X65729000Y-95936000D02*
X63228700Y-95936000D01*
X62364000Y-115936000D02*
X60000000Y-118300000D01*
X65729000Y-115936000D02*
X62364000Y-115936000D01*
X60000000Y-118300000D02*
X60000000Y-128207000D01*
X60000000Y-128207000D02*
X65729000Y-133936000D01*
X65729000Y-53396000D02*
X65729000Y-55936000D01*
X62664000Y-55936000D02*
X65729000Y-55936000D01*
X61300000Y-57300000D02*
X62664000Y-55936000D01*
X55000000Y-65080000D02*
X59420000Y-65080000D01*
X61300000Y-63200000D02*
X61300000Y-57300000D01*
X59420000Y-65080000D02*
X61300000Y-63200000D01*
X62336000Y-115936000D02*
X65729000Y-115936000D01*
X60000000Y-113600000D02*
X62336000Y-115936000D01*
X60000000Y-97500000D02*
X60000000Y-113600000D01*
X63228700Y-95936000D02*
X61564000Y-95936000D01*
X61564000Y-95936000D02*
X60000000Y-97500000D01*
X65729000Y-93396000D02*
X65729000Y-95936000D01*
X60000000Y-94372000D02*
X61564000Y-95936000D01*
X60000000Y-89200000D02*
X60000000Y-94372000D01*
X60000000Y-73396000D02*
X60000000Y-75936000D01*
X60000000Y-75000000D02*
X60936000Y-75936000D01*
X65729000Y-75936000D02*
X60936000Y-75936000D01*
X60936000Y-75936000D02*
X60000000Y-75936000D01*
X60000000Y-76872000D02*
X60936000Y-75936000D01*
X60000000Y-80000000D02*
X60000000Y-76872000D01*
X60000000Y-75936000D02*
X60000000Y-80000000D01*
X60000000Y-80000000D02*
X60000000Y-89200000D01*
X60000000Y-74000000D02*
X60000000Y-69500000D01*
X60000000Y-73396000D02*
X60000000Y-74000000D01*
X60000000Y-74000000D02*
X60000000Y-75000000D01*
X58120000Y-67620000D02*
X55000000Y-67620000D01*
X60000000Y-69500000D02*
X58120000Y-67620000D01*
X65729000Y-133936000D02*
X74461000Y-133936000D01*
X74461000Y-133936000D02*
X74825000Y-134300000D01*
X83275999Y-138411000D02*
X86323999Y-138411000D01*
X86323999Y-138411000D02*
X86323999Y-140189000D01*
X86323999Y-140189000D02*
X83275999Y-140189000D01*
X83275999Y-140189000D02*
X83275999Y-138411000D01*
X83275999Y-139300000D02*
X86323999Y-139300000D01*
D18*
X65729000Y-106604000D02*
X66679200Y-106604000D01*
X65729000Y-104064000D02*
X66679200Y-104064000D01*
X66679200Y-104064000D02*
X66679200Y-106604000D01*
X66204100Y-86604000D02*
X66679200Y-86604000D01*
X65729000Y-86604000D02*
X66204100Y-86604000D01*
X65729000Y-84064000D02*
X66679200Y-84064000D01*
X66679200Y-84064000D02*
X66679200Y-86604000D01*
X55000000Y-60000000D02*
X55000000Y-62540000D01*
X65729000Y-64064000D02*
X65729000Y-66604000D01*
X65729000Y-82264000D02*
X65729000Y-84064000D01*
X65729000Y-64064000D02*
X65729000Y-65864000D01*
X70000000Y-77993000D02*
X65729000Y-82264000D01*
X65729000Y-126604000D02*
X65729000Y-124064000D01*
X65729000Y-121871000D02*
X65729000Y-124064000D01*
X70000000Y-117600000D02*
X65729000Y-121871000D01*
X65729000Y-129029000D02*
X65729000Y-126604000D01*
X70000000Y-115800000D02*
X70000000Y-113500000D01*
X70000000Y-115800000D02*
X70000000Y-117600000D01*
X65729000Y-109229000D02*
X65729000Y-106604000D01*
X70000000Y-113500000D02*
X65729000Y-109229000D01*
X65729000Y-102071000D02*
X65729000Y-104064000D01*
X70000000Y-97800000D02*
X65729000Y-102071000D01*
X70000000Y-96200000D02*
X70000000Y-92900000D01*
X70000000Y-96200000D02*
X70000000Y-97800000D01*
X65729000Y-88629000D02*
X65729000Y-86604000D01*
X70000000Y-92900000D02*
X65729000Y-88629000D01*
X70000000Y-72675000D02*
X65729000Y-68404000D01*
X70000000Y-74800000D02*
X70000000Y-72675000D01*
X65729000Y-68404000D02*
X65729000Y-66604000D01*
X70000000Y-74800000D02*
X70000000Y-77993000D01*
D20*
X80599999Y-142900000D02*
X80600000Y-136725000D01*
X80600000Y-136725000D02*
X83625000Y-133700000D01*
D18*
X67600000Y-130900000D02*
X65729000Y-129029000D01*
X74300000Y-130900000D02*
X71100000Y-130900000D01*
X75500000Y-132100000D02*
X74300000Y-130900000D01*
X71100000Y-130900000D02*
X67600000Y-130900000D01*
X83625000Y-133700000D02*
X82025000Y-132100000D01*
X82025000Y-132100000D02*
X75500000Y-132100000D01*
X84271000Y-75936000D02*
X87764000Y-75936000D01*
X87764000Y-75936000D02*
X90000000Y-73700000D01*
X90000000Y-73700000D02*
X90000000Y-71300000D01*
X84271000Y-75936000D02*
X84271000Y-73396000D01*
X87904000Y-73396000D02*
X90000000Y-71300000D01*
X84271000Y-73396000D02*
X87904000Y-73396000D01*
X110000000Y-77540000D02*
X110000000Y-81550000D01*
X109500000Y-82050000D02*
X106450000Y-82050000D01*
X110000000Y-81550000D02*
X109500000Y-82050000D01*
X106450000Y-82050000D02*
X105000000Y-82050000D01*
X105000000Y-82050000D02*
X105000000Y-87150000D01*
X92125000Y-87150000D02*
X90000000Y-89275000D01*
X105000000Y-87150000D02*
X92125000Y-87150000D01*
X99837500Y-81100000D02*
X100000000Y-80937500D01*
X90000000Y-81100000D02*
X99837500Y-81100000D01*
X90000000Y-71300000D02*
X90000000Y-81100000D01*
X90000000Y-81100000D02*
X90000000Y-89275000D01*
X100000000Y-80937500D02*
X100000000Y-80937500D01*
X105000000Y-82050000D02*
X105000000Y-82050000D01*
X90000000Y-89275000D02*
X90000000Y-89275000D01*
X90000000Y-71300000D02*
X90000000Y-71050000D01*
X84271000Y-93396000D02*
X84271000Y-95936000D01*
X88204000Y-93396000D02*
X90000000Y-91600000D01*
X84271000Y-93396000D02*
X88204000Y-93396000D01*
X108125000Y-109275000D02*
X110000000Y-107400000D01*
X90000000Y-109275000D02*
X108125000Y-109275000D01*
X90000000Y-109275000D02*
X90000000Y-109275000D01*
X90000000Y-93500000D02*
X90000000Y-100600000D01*
X90000000Y-100600000D02*
X90000000Y-101050000D01*
X90000000Y-101050000D02*
X90000000Y-109275000D01*
X104912500Y-100937500D02*
X104987500Y-101012500D01*
X90112500Y-100937500D02*
X99962500Y-100937500D01*
X90000000Y-101050000D02*
X90112500Y-100937500D01*
X109812500Y-100937500D02*
X110000000Y-100750000D01*
X104912500Y-100937500D02*
X109812500Y-100937500D01*
X110000000Y-97540000D02*
X110000000Y-100750000D01*
X110000000Y-100750000D02*
X110000000Y-107400000D01*
X99962500Y-100937500D02*
X104912500Y-100937500D01*
X104987500Y-101012500D02*
X105000000Y-101025000D01*
X90000000Y-95936000D02*
X90000000Y-93500000D01*
X84271000Y-95936000D02*
X90000000Y-95936000D01*
X90000000Y-92150000D02*
X90000000Y-91050000D01*
X90000000Y-93500000D02*
X90000000Y-92150000D01*
X90000000Y-92150000D02*
X90000000Y-91600000D01*
X100000000Y-121875500D02*
X103124500Y-121875500D01*
X103124500Y-121875500D02*
X105000000Y-120000000D01*
X90000000Y-113800000D02*
X90000000Y-111300000D01*
X90000000Y-129275000D02*
X107325000Y-129275000D01*
X110000000Y-126600000D02*
X107325000Y-129275000D01*
X110000000Y-117540000D02*
X110000000Y-126600000D01*
X99974500Y-121850000D02*
X100000000Y-121875500D01*
X90000000Y-121850000D02*
X99974500Y-121850000D01*
X90000000Y-113800000D02*
X90000000Y-121850000D01*
X90000000Y-121850000D02*
X90000000Y-129275000D01*
X100000000Y-121875500D02*
X103124500Y-121875500D01*
X103124500Y-121875500D02*
X105000000Y-120000000D01*
X107540000Y-120000000D02*
X110000000Y-117540000D01*
X105000000Y-120000000D02*
X107540000Y-120000000D01*
X90000000Y-129275000D02*
X90000000Y-129275000D01*
X90000000Y-115936000D02*
X90000000Y-113800000D01*
X84271000Y-115936000D02*
X90000000Y-115936000D01*
X84271000Y-113396000D02*
X90000000Y-113396000D01*
X84271000Y-113396000D02*
X84271000Y-115936000D01*
X90000000Y-112000000D02*
X90000000Y-111050000D01*
X90000000Y-113396000D02*
X90000000Y-112000000D01*
X90000000Y-112000000D02*
X90000000Y-111300000D01*
X84271000Y-64064000D02*
X84271000Y-66604000D01*
X84271000Y-84064000D02*
X84271000Y-86604000D01*
X84271000Y-104064000D02*
X84271000Y-106604000D01*
X84271000Y-124064000D02*
X84271000Y-126604000D01*
D20*
X100400000Y-136200000D02*
X96837500Y-136200000D01*
D21*
G36*
X145768083Y-50731173D02*
G01*
X146511891Y-50934656D01*
X147207905Y-51266638D01*
X147834130Y-51716626D01*
X148370777Y-52270403D01*
X148800871Y-52910451D01*
X149110829Y-53616553D01*
X149292065Y-54371457D01*
X149340001Y-55024220D01*
X149340000Y-144970608D01*
X149268827Y-145768083D01*
X149065344Y-146511890D01*
X148733363Y-147207904D01*
X148283374Y-147834130D01*
X147729597Y-148370777D01*
X147089549Y-148800871D01*
X146383447Y-149110829D01*
X145628543Y-149292065D01*
X144975793Y-149340000D01*
X55029392Y-149340000D01*
X54231917Y-149268827D01*
X53488110Y-149065344D01*
X52792096Y-148733363D01*
X52165870Y-148283374D01*
X51629223Y-147729597D01*
X51199129Y-147089549D01*
X50889171Y-146383447D01*
X50707935Y-145628543D01*
X50660000Y-144975793D01*
X50660000Y-144706791D01*
X52023000Y-144706791D01*
X52023000Y-145293209D01*
X52137405Y-145868359D01*
X52361817Y-146410138D01*
X52687613Y-146897727D01*
X53102273Y-147312387D01*
X53589862Y-147638183D01*
X54131641Y-147862595D01*
X54706791Y-147977000D01*
X55293209Y-147977000D01*
X55868359Y-147862595D01*
X56410138Y-147638183D01*
X56897727Y-147312387D01*
X57312387Y-146897727D01*
X57638183Y-146410138D01*
X57862595Y-145868359D01*
X57977000Y-145293209D01*
X57977000Y-144706791D01*
X142023000Y-144706791D01*
X142023000Y-145293209D01*
X142137405Y-145868359D01*
X142361817Y-146410138D01*
X142687613Y-146897727D01*
X143102273Y-147312387D01*
X143589862Y-147638183D01*
X144131641Y-147862595D01*
X144706791Y-147977000D01*
X145293209Y-147977000D01*
X145868359Y-147862595D01*
X146410138Y-147638183D01*
X146897727Y-147312387D01*
X147312387Y-146897727D01*
X147638183Y-146410138D01*
X147862595Y-145868359D01*
X147977000Y-145293209D01*
X147977000Y-144706791D01*
X147862595Y-144131641D01*
X147638183Y-143589862D01*
X147312387Y-143102273D01*
X146897727Y-142687613D01*
X146410138Y-142361817D01*
X145868359Y-142137405D01*
X145293209Y-142023000D01*
X144706791Y-142023000D01*
X144131641Y-142137405D01*
X143589862Y-142361817D01*
X143102273Y-142687613D01*
X142687613Y-143102273D01*
X142361817Y-143589862D01*
X142137405Y-144131641D01*
X142023000Y-144706791D01*
X57977000Y-144706791D01*
X57862595Y-144131641D01*
X57638183Y-143589862D01*
X57312387Y-143102273D01*
X56897727Y-142687613D01*
X56410138Y-142361817D01*
X55868359Y-142137405D01*
X55293209Y-142023000D01*
X54706791Y-142023000D01*
X54131641Y-142137405D01*
X53589862Y-142361817D01*
X53102273Y-142687613D01*
X52687613Y-143102273D01*
X52361817Y-143589862D01*
X52137405Y-144131641D01*
X52023000Y-144706791D01*
X50660000Y-144706791D01*
X50660000Y-136496890D01*
X55958524Y-136496890D01*
X56003175Y-136644099D01*
X56128359Y-136906920D01*
X56302412Y-137140269D01*
X56518645Y-137335178D01*
X56768748Y-137484157D01*
X57043109Y-137581481D01*
X57273000Y-137460814D01*
X57273000Y-136267000D01*
X57527000Y-136267000D01*
X57527000Y-137460814D01*
X57756891Y-137581481D01*
X58031252Y-137484157D01*
X58281355Y-137335178D01*
X58497588Y-137140269D01*
X58671641Y-136906920D01*
X58796825Y-136644099D01*
X58841476Y-136496890D01*
X58720155Y-136267000D01*
X57527000Y-136267000D01*
X57273000Y-136267000D01*
X56079845Y-136267000D01*
X55958524Y-136496890D01*
X50660000Y-136496890D01*
X50660000Y-132750000D01*
X55911928Y-132750000D01*
X55911928Y-134450000D01*
X55924188Y-134574482D01*
X55960498Y-134694180D01*
X56019463Y-134804494D01*
X56098815Y-134901185D01*
X56195506Y-134980537D01*
X56305820Y-135039502D01*
X56386466Y-135063966D01*
X56302412Y-135139731D01*
X56128359Y-135373080D01*
X56003175Y-135635901D01*
X55958524Y-135783110D01*
X56079845Y-136013000D01*
X57273000Y-136013000D01*
X57273000Y-135993000D01*
X57527000Y-135993000D01*
X57527000Y-136013000D01*
X58720155Y-136013000D01*
X58841476Y-135783110D01*
X58796825Y-135635901D01*
X58671641Y-135373080D01*
X58497588Y-135139731D01*
X58413534Y-135063966D01*
X58494180Y-135039502D01*
X58604494Y-134980537D01*
X58701185Y-134901185D01*
X58780537Y-134804494D01*
X58839502Y-134694180D01*
X58875812Y-134574482D01*
X58888072Y-134450000D01*
X58888072Y-132750000D01*
X58875812Y-132625518D01*
X58839502Y-132505820D01*
X58780537Y-132395506D01*
X58701185Y-132298815D01*
X58604494Y-132219463D01*
X58494180Y-132160498D01*
X58374482Y-132124188D01*
X58250000Y-132111928D01*
X56550000Y-132111928D01*
X56425518Y-132124188D01*
X56305820Y-132160498D01*
X56195506Y-132219463D01*
X56098815Y-132298815D01*
X56019463Y-132395506D01*
X55960498Y-132505820D01*
X55924188Y-132625518D01*
X55911928Y-132750000D01*
X50660000Y-132750000D01*
X50660000Y-116936000D01*
X63590928Y-116936000D01*
X63603188Y-117060482D01*
X63639498Y-117180180D01*
X63698463Y-117290494D01*
X63777815Y-117387185D01*
X63874506Y-117466537D01*
X63984820Y-117525502D01*
X64104518Y-117561812D01*
X64229000Y-117574072D01*
X65443250Y-117571000D01*
X65602000Y-117412250D01*
X65602000Y-116063000D01*
X65856000Y-116063000D01*
X65856000Y-117412250D01*
X66014750Y-117571000D01*
X67229000Y-117574072D01*
X67353482Y-117561812D01*
X67473180Y-117525502D01*
X67583494Y-117466537D01*
X67680185Y-117387185D01*
X67759537Y-117290494D01*
X67818502Y-117180180D01*
X67854812Y-117060482D01*
X67867072Y-116936000D01*
X67864000Y-116221750D01*
X67705250Y-116063000D01*
X65856000Y-116063000D01*
X65602000Y-116063000D01*
X63752750Y-116063000D01*
X63594000Y-116221750D01*
X63590928Y-116936000D01*
X50660000Y-116936000D01*
X50660000Y-114936000D01*
X63590928Y-114936000D01*
X63594000Y-115650250D01*
X63752750Y-115809000D01*
X65602000Y-115809000D01*
X65602000Y-113523000D01*
X65856000Y-113523000D01*
X65856000Y-115809000D01*
X67705250Y-115809000D01*
X67864000Y-115650250D01*
X67867072Y-114936000D01*
X67854812Y-114811518D01*
X67818502Y-114691820D01*
X67759537Y-114581506D01*
X67680185Y-114484815D01*
X67583494Y-114405463D01*
X67533353Y-114378662D01*
X67659010Y-114198761D01*
X67788144Y-113904355D01*
X67819124Y-113776434D01*
X67699777Y-113523000D01*
X65856000Y-113523000D01*
X65602000Y-113523000D01*
X63758223Y-113523000D01*
X63638876Y-113776434D01*
X63669856Y-113904355D01*
X63798990Y-114198761D01*
X63924647Y-114378662D01*
X63874506Y-114405463D01*
X63777815Y-114484815D01*
X63698463Y-114581506D01*
X63639498Y-114691820D01*
X63603188Y-114811518D01*
X63590928Y-114936000D01*
X50660000Y-114936000D01*
X50660000Y-113015566D01*
X63638876Y-113015566D01*
X63758223Y-113269000D01*
X65602000Y-113269000D01*
X65602000Y-111761000D01*
X65102000Y-111761000D01*
X64785468Y-111817193D01*
X64485980Y-111934058D01*
X64215046Y-112107105D01*
X63983078Y-112329683D01*
X63798990Y-112593239D01*
X63669856Y-112887645D01*
X63638876Y-113015566D01*
X50660000Y-113015566D01*
X50660000Y-96936000D01*
X63590928Y-96936000D01*
X63603188Y-97060482D01*
X63639498Y-97180180D01*
X63698463Y-97290494D01*
X63777815Y-97387185D01*
X63874506Y-97466537D01*
X63984820Y-97525502D01*
X64104518Y-97561812D01*
X64229000Y-97574072D01*
X65443250Y-97571000D01*
X65602000Y-97412250D01*
X65602000Y-96063000D01*
X65856000Y-96063000D01*
X65856000Y-97412250D01*
X66014750Y-97571000D01*
X67229000Y-97574072D01*
X67353482Y-97561812D01*
X67473180Y-97525502D01*
X67583494Y-97466537D01*
X67680185Y-97387185D01*
X67759537Y-97290494D01*
X67818502Y-97180180D01*
X67854812Y-97060482D01*
X67867072Y-96936000D01*
X67864000Y-96221750D01*
X67705250Y-96063000D01*
X65856000Y-96063000D01*
X65602000Y-96063000D01*
X63752750Y-96063000D01*
X63594000Y-96221750D01*
X63590928Y-96936000D01*
X50660000Y-96936000D01*
X50660000Y-94936000D01*
X63590928Y-94936000D01*
X63594000Y-95650250D01*
X63752750Y-95809000D01*
X65602000Y-95809000D01*
X65602000Y-93523000D01*
X65856000Y-93523000D01*
X65856000Y-95809000D01*
X67705250Y-95809000D01*
X67864000Y-95650250D01*
X67867072Y-94936000D01*
X67854812Y-94811518D01*
X67818502Y-94691820D01*
X67759537Y-94581506D01*
X67680185Y-94484815D01*
X67583494Y-94405463D01*
X67533353Y-94378662D01*
X67659010Y-94198761D01*
X67788144Y-93904355D01*
X67819124Y-93776434D01*
X67699777Y-93523000D01*
X65856000Y-93523000D01*
X65602000Y-93523000D01*
X63758223Y-93523000D01*
X63638876Y-93776434D01*
X63669856Y-93904355D01*
X63798990Y-94198761D01*
X63924647Y-94378662D01*
X63874506Y-94405463D01*
X63777815Y-94484815D01*
X63698463Y-94581506D01*
X63639498Y-94691820D01*
X63603188Y-94811518D01*
X63590928Y-94936000D01*
X50660000Y-94936000D01*
X50660000Y-93015566D01*
X63638876Y-93015566D01*
X63758223Y-93269000D01*
X65602000Y-93269000D01*
X65602000Y-91761000D01*
X65856000Y-91761000D01*
X65856000Y-93269000D01*
X67699777Y-93269000D01*
X67819124Y-93015566D01*
X67788144Y-92887645D01*
X67659010Y-92593239D01*
X67474922Y-92329683D01*
X67242954Y-92107105D01*
X66972020Y-91934058D01*
X66672532Y-91817193D01*
X66356000Y-91761000D01*
X65856000Y-91761000D01*
X65602000Y-91761000D01*
X65102000Y-91761000D01*
X64785468Y-91817193D01*
X64485980Y-91934058D01*
X64215046Y-92107105D01*
X63983078Y-92329683D01*
X63798990Y-92593239D01*
X63669856Y-92887645D01*
X63638876Y-93015566D01*
X50660000Y-93015566D01*
X50660000Y-76936000D01*
X63590928Y-76936000D01*
X63603188Y-77060482D01*
X63639498Y-77180180D01*
X63698463Y-77290494D01*
X63777815Y-77387185D01*
X63874506Y-77466537D01*
X63984820Y-77525502D01*
X64104518Y-77561812D01*
X64229000Y-77574072D01*
X65443250Y-77571000D01*
X65602000Y-77412250D01*
X65602000Y-76063000D01*
X65856000Y-76063000D01*
X65856000Y-77412250D01*
X66014750Y-77571000D01*
X67229000Y-77574072D01*
X67353482Y-77561812D01*
X67473180Y-77525502D01*
X67583494Y-77466537D01*
X67680185Y-77387185D01*
X67759537Y-77290494D01*
X67818502Y-77180180D01*
X67854812Y-77060482D01*
X67867072Y-76936000D01*
X67864000Y-76221750D01*
X67705250Y-76063000D01*
X65856000Y-76063000D01*
X65602000Y-76063000D01*
X63752750Y-76063000D01*
X63594000Y-76221750D01*
X63590928Y-76936000D01*
X50660000Y-76936000D01*
X50660000Y-74936000D01*
X63590928Y-74936000D01*
X63594000Y-75650250D01*
X63752750Y-75809000D01*
X65602000Y-75809000D01*
X65602000Y-73523000D01*
X65856000Y-73523000D01*
X65856000Y-75809000D01*
X67705250Y-75809000D01*
X67864000Y-75650250D01*
X67867072Y-74936000D01*
X67854812Y-74811518D01*
X67818502Y-74691820D01*
X67759537Y-74581506D01*
X67680185Y-74484815D01*
X67583494Y-74405463D01*
X67533353Y-74378662D01*
X67659010Y-74198761D01*
X67788144Y-73904355D01*
X67819124Y-73776434D01*
X67699777Y-73523000D01*
X65856000Y-73523000D01*
X65602000Y-73523000D01*
X63758223Y-73523000D01*
X63638876Y-73776434D01*
X63669856Y-73904355D01*
X63798990Y-74198761D01*
X63924647Y-74378662D01*
X63874506Y-74405463D01*
X63777815Y-74484815D01*
X63698463Y-74581506D01*
X63639498Y-74691820D01*
X63603188Y-74811518D01*
X63590928Y-74936000D01*
X50660000Y-74936000D01*
X50660000Y-73015566D01*
X63638876Y-73015566D01*
X63758223Y-73269000D01*
X65602000Y-73269000D01*
X65602000Y-71761000D01*
X65856000Y-71761000D01*
X65856000Y-73269000D01*
X67699777Y-73269000D01*
X67819124Y-73015566D01*
X67788144Y-72887645D01*
X67659010Y-72593239D01*
X67474922Y-72329683D01*
X67242954Y-72107105D01*
X66972020Y-71934058D01*
X66672532Y-71817193D01*
X66356000Y-71761000D01*
X65856000Y-71761000D01*
X65602000Y-71761000D01*
X65102000Y-71761000D01*
X64785468Y-71817193D01*
X64485980Y-71934058D01*
X64215046Y-72107105D01*
X63983078Y-72329683D01*
X63798990Y-72593239D01*
X63669856Y-72887645D01*
X63638876Y-73015566D01*
X50660000Y-73015566D01*
X50660000Y-67976890D01*
X53558524Y-67976890D01*
X53603175Y-68124099D01*
X53728359Y-68386920D01*
X53902412Y-68620269D01*
X54118645Y-68815178D01*
X54368748Y-68964157D01*
X54643109Y-69061481D01*
X54873000Y-68940814D01*
X54873000Y-67747000D01*
X55127000Y-67747000D01*
X55127000Y-68940814D01*
X55356891Y-69061481D01*
X55631252Y-68964157D01*
X55881355Y-68815178D01*
X56097588Y-68620269D01*
X56271641Y-68386920D01*
X56396825Y-68124099D01*
X56441476Y-67976890D01*
X56320155Y-67747000D01*
X55127000Y-67747000D01*
X54873000Y-67747000D01*
X53679845Y-67747000D01*
X53558524Y-67976890D01*
X50660000Y-67976890D01*
X50660000Y-65436890D01*
X53558524Y-65436890D01*
X53603175Y-65584099D01*
X53728359Y-65846920D01*
X53902412Y-66080269D01*
X54118645Y-66275178D01*
X54244255Y-66350000D01*
X54118645Y-66424822D01*
X53902412Y-66619731D01*
X53728359Y-66853080D01*
X53603175Y-67115901D01*
X53558524Y-67263110D01*
X53679845Y-67493000D01*
X54873000Y-67493000D01*
X54873000Y-65207000D01*
X55127000Y-65207000D01*
X55127000Y-67493000D01*
X56320155Y-67493000D01*
X56441476Y-67263110D01*
X56396825Y-67115901D01*
X56271641Y-66853080D01*
X56097588Y-66619731D01*
X55881355Y-66424822D01*
X55755745Y-66350000D01*
X55881355Y-66275178D01*
X56097588Y-66080269D01*
X56271641Y-65846920D01*
X56396825Y-65584099D01*
X56441476Y-65436890D01*
X56320155Y-65207000D01*
X55127000Y-65207000D01*
X54873000Y-65207000D01*
X53679845Y-65207000D01*
X53558524Y-65436890D01*
X50660000Y-65436890D01*
X50660000Y-62540000D01*
X53507815Y-62540000D01*
X53536487Y-62831111D01*
X53621401Y-63111034D01*
X53759294Y-63369014D01*
X53944866Y-63595134D01*
X54170986Y-63780706D01*
X54235523Y-63815201D01*
X54118645Y-63884822D01*
X53902412Y-64079731D01*
X53728359Y-64313080D01*
X53603175Y-64575901D01*
X53558524Y-64723110D01*
X53679845Y-64953000D01*
X54873000Y-64953000D01*
X54873000Y-64933000D01*
X55127000Y-64933000D01*
X55127000Y-64953000D01*
X56320155Y-64953000D01*
X56441476Y-64723110D01*
X56396825Y-64575901D01*
X56271641Y-64313080D01*
X56097588Y-64079731D01*
X56080136Y-64064000D01*
X63586089Y-64064000D01*
X63617657Y-64384516D01*
X63711148Y-64692715D01*
X63862969Y-64976752D01*
X63921655Y-65048261D01*
X63874506Y-65073463D01*
X63777815Y-65152815D01*
X63698463Y-65249506D01*
X63639498Y-65359820D01*
X63603188Y-65479518D01*
X63590928Y-65604000D01*
X63590928Y-67604000D01*
X63603188Y-67728482D01*
X63639498Y-67848180D01*
X63698463Y-67958494D01*
X63777815Y-68055185D01*
X63874506Y-68134537D01*
X63984820Y-68193502D01*
X64104518Y-68229812D01*
X64229000Y-68242072D01*
X64694000Y-68242072D01*
X64694000Y-68353172D01*
X64688994Y-68404000D01*
X64694000Y-68454828D01*
X64694000Y-68454837D01*
X64708976Y-68606894D01*
X64768159Y-68801992D01*
X64864266Y-68981797D01*
X64993604Y-69139396D01*
X65033097Y-69171807D01*
X68965001Y-73103712D01*
X68965000Y-74749162D01*
X68965000Y-74749163D01*
X68965001Y-77564288D01*
X65033097Y-81496193D01*
X64993604Y-81528604D01*
X64864266Y-81686203D01*
X64768159Y-81866008D01*
X64708976Y-82061106D01*
X64694000Y-82213163D01*
X64694000Y-82213172D01*
X64688994Y-82264000D01*
X64694000Y-82314828D01*
X64694000Y-82517720D01*
X64600285Y-82546148D01*
X64316248Y-82697969D01*
X64067286Y-82902286D01*
X63862969Y-83151248D01*
X63711148Y-83435285D01*
X63617657Y-83743484D01*
X63586089Y-84064000D01*
X63617657Y-84384516D01*
X63711148Y-84692715D01*
X63862969Y-84976752D01*
X63921655Y-85048261D01*
X63874506Y-85073463D01*
X63777815Y-85152815D01*
X63698463Y-85249506D01*
X63639498Y-85359820D01*
X63603188Y-85479518D01*
X63590928Y-85604000D01*
X63590928Y-87604000D01*
X63603188Y-87728482D01*
X63639498Y-87848180D01*
X63698463Y-87958494D01*
X63777815Y-88055185D01*
X63874506Y-88134537D01*
X63984820Y-88193502D01*
X64104518Y-88229812D01*
X64229000Y-88242072D01*
X64694000Y-88242072D01*
X64694000Y-88578172D01*
X64688994Y-88629000D01*
X64694000Y-88679828D01*
X64694000Y-88679837D01*
X64708976Y-88831894D01*
X64768159Y-89026992D01*
X64864266Y-89206797D01*
X64993604Y-89364396D01*
X65033097Y-89396807D01*
X68965001Y-93328712D01*
X68965000Y-96149162D01*
X68965000Y-96149163D01*
X68965001Y-97371288D01*
X65033097Y-101303193D01*
X64993604Y-101335604D01*
X64864266Y-101493203D01*
X64768159Y-101673008D01*
X64708976Y-101868106D01*
X64694000Y-102020163D01*
X64694000Y-102020172D01*
X64688994Y-102071000D01*
X64694000Y-102121828D01*
X64694000Y-102517720D01*
X64600285Y-102546148D01*
X64316248Y-102697969D01*
X64067286Y-102902286D01*
X63862969Y-103151248D01*
X63711148Y-103435285D01*
X63617657Y-103743484D01*
X63586089Y-104064000D01*
X63617657Y-104384516D01*
X63711148Y-104692715D01*
X63862969Y-104976752D01*
X63921655Y-105048261D01*
X63874506Y-105073463D01*
X63777815Y-105152815D01*
X63698463Y-105249506D01*
X63639498Y-105359820D01*
X63603188Y-105479518D01*
X63590928Y-105604000D01*
X63590928Y-107604000D01*
X63603188Y-107728482D01*
X63639498Y-107848180D01*
X63698463Y-107958494D01*
X63777815Y-108055185D01*
X63874506Y-108134537D01*
X63984820Y-108193502D01*
X64104518Y-108229812D01*
X64229000Y-108242072D01*
X64694000Y-108242072D01*
X64694000Y-109178172D01*
X64688994Y-109229000D01*
X64694000Y-109279828D01*
X64694000Y-109279837D01*
X64708976Y-109431894D01*
X64768159Y-109626992D01*
X64864266Y-109806797D01*
X64993604Y-109964396D01*
X65033097Y-109996807D01*
X66969277Y-111932988D01*
X66672532Y-111817193D01*
X66356000Y-111761000D01*
X65856000Y-111761000D01*
X65856000Y-113269000D01*
X67699777Y-113269000D01*
X67819124Y-113015566D01*
X67788144Y-112887645D01*
X67682045Y-112645756D01*
X68965001Y-113928712D01*
X68965000Y-115749162D01*
X68965000Y-115749163D01*
X68965001Y-117171288D01*
X65033097Y-121103193D01*
X64993604Y-121135604D01*
X64864266Y-121293203D01*
X64768159Y-121473008D01*
X64708976Y-121668106D01*
X64694000Y-121820163D01*
X64694000Y-121820172D01*
X64688994Y-121871000D01*
X64694000Y-121921828D01*
X64694000Y-122517720D01*
X64600285Y-122546148D01*
X64316248Y-122697969D01*
X64067286Y-122902286D01*
X63862969Y-123151248D01*
X63711148Y-123435285D01*
X63617657Y-123743484D01*
X63586089Y-124064000D01*
X63617657Y-124384516D01*
X63711148Y-124692715D01*
X63862969Y-124976752D01*
X63921655Y-125048261D01*
X63874506Y-125073463D01*
X63777815Y-125152815D01*
X63698463Y-125249506D01*
X63639498Y-125359820D01*
X63603188Y-125479518D01*
X63590928Y-125604000D01*
X63590928Y-127604000D01*
X63603188Y-127728482D01*
X63639498Y-127848180D01*
X63698463Y-127958494D01*
X63777815Y-128055185D01*
X63874506Y-128134537D01*
X63984820Y-128193502D01*
X64104518Y-128229812D01*
X64229000Y-128242072D01*
X64694000Y-128242072D01*
X64694000Y-128978172D01*
X64688994Y-129029000D01*
X64694000Y-129079828D01*
X64694000Y-129079837D01*
X64708976Y-129231894D01*
X64768159Y-129426992D01*
X64864266Y-129606797D01*
X64993604Y-129764396D01*
X65033097Y-129796807D01*
X66832196Y-131595907D01*
X66864604Y-131635396D01*
X66904092Y-131667803D01*
X67022202Y-131764734D01*
X67202006Y-131860841D01*
X67247415Y-131874615D01*
X67397105Y-131920024D01*
X67549162Y-131935000D01*
X67549165Y-131935000D01*
X67600000Y-131940007D01*
X67650835Y-131935000D01*
X73871290Y-131935000D01*
X74732196Y-132795907D01*
X74764604Y-132835396D01*
X74804092Y-132867803D01*
X74922202Y-132964734D01*
X74944178Y-132976480D01*
X75102007Y-133060841D01*
X75297105Y-133120024D01*
X75449162Y-133135000D01*
X75449171Y-133135000D01*
X75499999Y-133140006D01*
X75550827Y-133135000D01*
X81596290Y-133135000D01*
X82302711Y-133841421D01*
X80038574Y-136105559D01*
X80006710Y-136131709D01*
X79980562Y-136163571D01*
X79902364Y-136258855D01*
X79824828Y-136403914D01*
X79777082Y-136561312D01*
X79760960Y-136725000D01*
X79765001Y-136766028D01*
X79764999Y-142129868D01*
X79718387Y-142176480D01*
X79594175Y-142362376D01*
X79508616Y-142568933D01*
X79464999Y-142788212D01*
X79464999Y-143011788D01*
X79508616Y-143231067D01*
X79594175Y-143437624D01*
X79718387Y-143623520D01*
X79876479Y-143781612D01*
X80062375Y-143905824D01*
X80268932Y-143991383D01*
X80488211Y-144035000D01*
X80711787Y-144035000D01*
X80931066Y-143991383D01*
X81137623Y-143905824D01*
X81323519Y-143781612D01*
X81481611Y-143623520D01*
X81605823Y-143437624D01*
X81691382Y-143231067D01*
X81734999Y-143011788D01*
X81734999Y-142788212D01*
X81691382Y-142568933D01*
X81605823Y-142362376D01*
X81481611Y-142176480D01*
X81434998Y-142129867D01*
X81434999Y-137811000D01*
X81887927Y-137811000D01*
X81890999Y-138125250D01*
X82047656Y-138281907D01*
X81995462Y-138345506D01*
X81936497Y-138455820D01*
X81900187Y-138575518D01*
X81887927Y-138700000D01*
X81889447Y-138855500D01*
X81887927Y-139011000D01*
X81900187Y-139135482D01*
X81936497Y-139255180D01*
X81960454Y-139300000D01*
X81936497Y-139344820D01*
X81900187Y-139464518D01*
X81887927Y-139589000D01*
X81889447Y-139744500D01*
X81887927Y-139900000D01*
X81900187Y-140024482D01*
X81936497Y-140144180D01*
X81995462Y-140254494D01*
X82047656Y-140318093D01*
X81890999Y-140474750D01*
X81887927Y-140789000D01*
X81900187Y-140913482D01*
X81936497Y-141033180D01*
X81995462Y-141143494D01*
X82074814Y-141240185D01*
X82171505Y-141319537D01*
X82281819Y-141378502D01*
X82401517Y-141414812D01*
X82525999Y-141427072D01*
X82990249Y-141424000D01*
X83136539Y-141277710D01*
X83187505Y-141319537D01*
X83297819Y-141378502D01*
X83417517Y-141414812D01*
X83541999Y-141427072D01*
X83783999Y-141425471D01*
X84025999Y-141427072D01*
X84150481Y-141414812D01*
X84270179Y-141378502D01*
X84291999Y-141366839D01*
X84313819Y-141378502D01*
X84433517Y-141414812D01*
X84557999Y-141427072D01*
X84799999Y-141425471D01*
X85041999Y-141427072D01*
X85166481Y-141414812D01*
X85286179Y-141378502D01*
X85307999Y-141366839D01*
X85329819Y-141378502D01*
X85449517Y-141414812D01*
X85573999Y-141427072D01*
X85815999Y-141425471D01*
X86057999Y-141427072D01*
X86182481Y-141414812D01*
X86302179Y-141378502D01*
X86412493Y-141319537D01*
X86463459Y-141277710D01*
X86609749Y-141424000D01*
X87073999Y-141427072D01*
X87198481Y-141414812D01*
X87318179Y-141378502D01*
X87428493Y-141319537D01*
X87525184Y-141240185D01*
X87604536Y-141143494D01*
X87663501Y-141033180D01*
X87699811Y-140913482D01*
X87712071Y-140789000D01*
X87708999Y-140474750D01*
X87552342Y-140318093D01*
X87604536Y-140254494D01*
X87663501Y-140144180D01*
X87699811Y-140024482D01*
X87712071Y-139900000D01*
X87710551Y-139744500D01*
X87712071Y-139589000D01*
X87699811Y-139464518D01*
X87663501Y-139344820D01*
X87639544Y-139300000D01*
X87663501Y-139255180D01*
X87699811Y-139135482D01*
X87703611Y-139096890D01*
X98958524Y-139096890D01*
X99003175Y-139244099D01*
X99128359Y-139506920D01*
X99302412Y-139740269D01*
X99518645Y-139935178D01*
X99768748Y-140084157D01*
X100043109Y-140181481D01*
X100273000Y-140060814D01*
X100273000Y-138867000D01*
X100527000Y-138867000D01*
X100527000Y-140060814D01*
X100756891Y-140181481D01*
X101031252Y-140084157D01*
X101281355Y-139935178D01*
X101497588Y-139740269D01*
X101671641Y-139506920D01*
X101796825Y-139244099D01*
X101841476Y-139096890D01*
X101720155Y-138867000D01*
X100527000Y-138867000D01*
X100273000Y-138867000D01*
X99079845Y-138867000D01*
X98958524Y-139096890D01*
X87703611Y-139096890D01*
X87712071Y-139011000D01*
X87710551Y-138855500D01*
X87712071Y-138700000D01*
X87699811Y-138575518D01*
X87663501Y-138455820D01*
X87604536Y-138345506D01*
X87552342Y-138281907D01*
X87708999Y-138125250D01*
X87712071Y-137811000D01*
X87699811Y-137686518D01*
X87663501Y-137566820D01*
X87604536Y-137456506D01*
X87525184Y-137359815D01*
X87428493Y-137280463D01*
X87318179Y-137221498D01*
X87198481Y-137185188D01*
X87073999Y-137172928D01*
X86609749Y-137176000D01*
X86463459Y-137322290D01*
X86412493Y-137280463D01*
X86302179Y-137221498D01*
X86182481Y-137185188D01*
X86057999Y-137172928D01*
X85815999Y-137174529D01*
X85573999Y-137172928D01*
X85449517Y-137185188D01*
X85329819Y-137221498D01*
X85307999Y-137233161D01*
X85286179Y-137221498D01*
X85166481Y-137185188D01*
X85041999Y-137172928D01*
X84799999Y-137174529D01*
X84557999Y-137172928D01*
X84433517Y-137185188D01*
X84313819Y-137221498D01*
X84291999Y-137233161D01*
X84270179Y-137221498D01*
X84150481Y-137185188D01*
X84025999Y-137172928D01*
X83783999Y-137174529D01*
X83541999Y-137172928D01*
X83417517Y-137185188D01*
X83297819Y-137221498D01*
X83187505Y-137280463D01*
X83136539Y-137322290D01*
X82990249Y-137176000D01*
X82525999Y-137172928D01*
X82401517Y-137185188D01*
X82281819Y-137221498D01*
X82171505Y-137280463D01*
X82074814Y-137359815D01*
X81995462Y-137456506D01*
X81936497Y-137566820D01*
X81900187Y-137686518D01*
X81887927Y-137811000D01*
X81434999Y-137811000D01*
X81435000Y-137070867D01*
X82417655Y-136088212D01*
X95702500Y-136088212D01*
X95702500Y-136311788D01*
X95746117Y-136531067D01*
X95831676Y-136737624D01*
X95955888Y-136923520D01*
X96113980Y-137081612D01*
X96299876Y-137205824D01*
X96506433Y-137291383D01*
X96725712Y-137335000D01*
X96949288Y-137335000D01*
X97168567Y-137291383D01*
X97375124Y-137205824D01*
X97561020Y-137081612D01*
X97607632Y-137035000D01*
X98911928Y-137035000D01*
X98911928Y-137050000D01*
X98924188Y-137174482D01*
X98960498Y-137294180D01*
X99019463Y-137404494D01*
X99098815Y-137501185D01*
X99195506Y-137580537D01*
X99305820Y-137639502D01*
X99386466Y-137663966D01*
X99302412Y-137739731D01*
X99128359Y-137973080D01*
X99003175Y-138235901D01*
X98958524Y-138383110D01*
X99079845Y-138613000D01*
X100273000Y-138613000D01*
X100273000Y-138593000D01*
X100527000Y-138593000D01*
X100527000Y-138613000D01*
X101720155Y-138613000D01*
X101841476Y-138383110D01*
X101796825Y-138235901D01*
X101671641Y-137973080D01*
X101497588Y-137739731D01*
X101413534Y-137663966D01*
X101494180Y-137639502D01*
X101604494Y-137580537D01*
X101701185Y-137501185D01*
X101780537Y-137404494D01*
X101839502Y-137294180D01*
X101875812Y-137174482D01*
X101888072Y-137050000D01*
X101888072Y-135350000D01*
X101875812Y-135225518D01*
X101839502Y-135105820D01*
X101780537Y-134995506D01*
X101701185Y-134898815D01*
X101604494Y-134819463D01*
X101494180Y-134760498D01*
X101374482Y-134724188D01*
X101250000Y-134711928D01*
X99550000Y-134711928D01*
X99425518Y-134724188D01*
X99305820Y-134760498D01*
X99195506Y-134819463D01*
X99098815Y-134898815D01*
X99019463Y-134995506D01*
X98960498Y-135105820D01*
X98924188Y-135225518D01*
X98911928Y-135350000D01*
X98911928Y-135365000D01*
X97607632Y-135365000D01*
X97561020Y-135318388D01*
X97375124Y-135194176D01*
X97168567Y-135108617D01*
X96949288Y-135065000D01*
X96725712Y-135065000D01*
X96506433Y-135108617D01*
X96299876Y-135194176D01*
X96113980Y-135318388D01*
X95955888Y-135476480D01*
X95831676Y-135662376D01*
X95746117Y-135868933D01*
X95702500Y-136088212D01*
X82417655Y-136088212D01*
X83670868Y-134835000D01*
X83736788Y-134835000D01*
X83956067Y-134791383D01*
X84162624Y-134705824D01*
X84348520Y-134581612D01*
X84506612Y-134423520D01*
X84630824Y-134237624D01*
X84716383Y-134031067D01*
X84760000Y-133811788D01*
X84760000Y-133588212D01*
X84716383Y-133368933D01*
X84630824Y-133162376D01*
X84506612Y-132976480D01*
X84348520Y-132818388D01*
X84162624Y-132694176D01*
X84026504Y-132637793D01*
X82792807Y-131404097D01*
X82760396Y-131364604D01*
X82602797Y-131235266D01*
X82422993Y-131139159D01*
X82227895Y-131079976D01*
X82075838Y-131065000D01*
X82075828Y-131065000D01*
X82025000Y-131059994D01*
X81974172Y-131065000D01*
X75928711Y-131065000D01*
X75067807Y-130204097D01*
X75035396Y-130164604D01*
X74877797Y-130035266D01*
X74697993Y-129939159D01*
X74502895Y-129879976D01*
X74350838Y-129865000D01*
X74350828Y-129865000D01*
X74300000Y-129859994D01*
X74249172Y-129865000D01*
X68028711Y-129865000D01*
X66764000Y-128600290D01*
X66764000Y-128242072D01*
X67229000Y-128242072D01*
X67353482Y-128229812D01*
X67473180Y-128193502D01*
X67583494Y-128134537D01*
X67680185Y-128055185D01*
X67759537Y-127958494D01*
X67818502Y-127848180D01*
X67854812Y-127728482D01*
X67867072Y-127604000D01*
X67867072Y-125604000D01*
X67854812Y-125479518D01*
X67818502Y-125359820D01*
X67759537Y-125249506D01*
X67680185Y-125152815D01*
X67583494Y-125073463D01*
X67536345Y-125048261D01*
X67595031Y-124976752D01*
X67746852Y-124692715D01*
X67840343Y-124384516D01*
X67871911Y-124064000D01*
X82128089Y-124064000D01*
X82159657Y-124384516D01*
X82253148Y-124692715D01*
X82404969Y-124976752D01*
X82463655Y-125048261D01*
X82416506Y-125073463D01*
X82319815Y-125152815D01*
X82240463Y-125249506D01*
X82181498Y-125359820D01*
X82145188Y-125479518D01*
X82132928Y-125604000D01*
X82132928Y-127604000D01*
X82145188Y-127728482D01*
X82181498Y-127848180D01*
X82240463Y-127958494D01*
X82319815Y-128055185D01*
X82416506Y-128134537D01*
X82526820Y-128193502D01*
X82646518Y-128229812D01*
X82771000Y-128242072D01*
X85771000Y-128242072D01*
X85895482Y-128229812D01*
X86015180Y-128193502D01*
X86125494Y-128134537D01*
X86222185Y-128055185D01*
X86301537Y-127958494D01*
X86360502Y-127848180D01*
X86396812Y-127728482D01*
X86409072Y-127604000D01*
X86409072Y-125604000D01*
X86396812Y-125479518D01*
X86360502Y-125359820D01*
X86301537Y-125249506D01*
X86222185Y-125152815D01*
X86125494Y-125073463D01*
X86078345Y-125048261D01*
X86137031Y-124976752D01*
X86288852Y-124692715D01*
X86382343Y-124384516D01*
X86413911Y-124064000D01*
X86382343Y-123743484D01*
X86288852Y-123435285D01*
X86137031Y-123151248D01*
X85932714Y-122902286D01*
X85683752Y-122697969D01*
X85399715Y-122546148D01*
X85091516Y-122452657D01*
X84851322Y-122429000D01*
X83690678Y-122429000D01*
X83450484Y-122452657D01*
X83142285Y-122546148D01*
X82858248Y-122697969D01*
X82609286Y-122902286D01*
X82404969Y-123151248D01*
X82253148Y-123435285D01*
X82159657Y-123743484D01*
X82128089Y-124064000D01*
X67871911Y-124064000D01*
X67840343Y-123743484D01*
X67746852Y-123435285D01*
X67595031Y-123151248D01*
X67390714Y-122902286D01*
X67141752Y-122697969D01*
X66857715Y-122546148D01*
X66764000Y-122517720D01*
X66764000Y-122299710D01*
X70695908Y-118367803D01*
X70735396Y-118335396D01*
X70817044Y-118235908D01*
X70864734Y-118177798D01*
X70960840Y-117997994D01*
X70960841Y-117997993D01*
X71020024Y-117802895D01*
X71035000Y-117650838D01*
X71035000Y-117650829D01*
X71040006Y-117600001D01*
X71035000Y-117549173D01*
X71035000Y-113550827D01*
X71040006Y-113499999D01*
X71035000Y-113449171D01*
X71035000Y-113449162D01*
X71020024Y-113297105D01*
X70960841Y-113102007D01*
X70895142Y-112979093D01*
X70864734Y-112922202D01*
X70767803Y-112804092D01*
X70735396Y-112764604D01*
X70695908Y-112732197D01*
X66764000Y-108800290D01*
X66764000Y-108242072D01*
X67229000Y-108242072D01*
X67353482Y-108229812D01*
X67473180Y-108193502D01*
X67583494Y-108134537D01*
X67680185Y-108055185D01*
X67759537Y-107958494D01*
X67818502Y-107848180D01*
X67854812Y-107728482D01*
X67867072Y-107604000D01*
X67867072Y-105604000D01*
X67854812Y-105479518D01*
X67818502Y-105359820D01*
X67759537Y-105249506D01*
X67714200Y-105194263D01*
X67714200Y-104753803D01*
X67746852Y-104692715D01*
X67840343Y-104384516D01*
X67871911Y-104064000D01*
X82128089Y-104064000D01*
X82159657Y-104384516D01*
X82253148Y-104692715D01*
X82404969Y-104976752D01*
X82463655Y-105048261D01*
X82416506Y-105073463D01*
X82319815Y-105152815D01*
X82240463Y-105249506D01*
X82181498Y-105359820D01*
X82145188Y-105479518D01*
X82132928Y-105604000D01*
X82132928Y-107604000D01*
X82145188Y-107728482D01*
X82181498Y-107848180D01*
X82240463Y-107958494D01*
X82319815Y-108055185D01*
X82416506Y-108134537D01*
X82526820Y-108193502D01*
X82646518Y-108229812D01*
X82771000Y-108242072D01*
X85771000Y-108242072D01*
X85895482Y-108229812D01*
X86015180Y-108193502D01*
X86125494Y-108134537D01*
X86222185Y-108055185D01*
X86301537Y-107958494D01*
X86360502Y-107848180D01*
X86396812Y-107728482D01*
X86409072Y-107604000D01*
X86409072Y-105604000D01*
X86396812Y-105479518D01*
X86360502Y-105359820D01*
X86301537Y-105249506D01*
X86222185Y-105152815D01*
X86125494Y-105073463D01*
X86078345Y-105048261D01*
X86137031Y-104976752D01*
X86288852Y-104692715D01*
X86382343Y-104384516D01*
X86413911Y-104064000D01*
X86382343Y-103743484D01*
X86288852Y-103435285D01*
X86137031Y-103151248D01*
X85932714Y-102902286D01*
X85683752Y-102697969D01*
X85399715Y-102546148D01*
X85091516Y-102452657D01*
X84851322Y-102429000D01*
X83690678Y-102429000D01*
X83450484Y-102452657D01*
X83142285Y-102546148D01*
X82858248Y-102697969D01*
X82609286Y-102902286D01*
X82404969Y-103151248D01*
X82253148Y-103435285D01*
X82159657Y-103743484D01*
X82128089Y-104064000D01*
X67871911Y-104064000D01*
X67840343Y-103743484D01*
X67746852Y-103435285D01*
X67595031Y-103151248D01*
X67390714Y-102902286D01*
X67141752Y-102697969D01*
X66857715Y-102546148D01*
X66764000Y-102517720D01*
X66764000Y-102499710D01*
X70695908Y-98567803D01*
X70735396Y-98535396D01*
X70815839Y-98437376D01*
X70864734Y-98377798D01*
X70932252Y-98251480D01*
X70960841Y-98197993D01*
X71020024Y-98002895D01*
X71035000Y-97850838D01*
X71035000Y-97850829D01*
X71040006Y-97800001D01*
X71035000Y-97749173D01*
X71035000Y-92950827D01*
X71040006Y-92899999D01*
X71035000Y-92849171D01*
X71035000Y-92849162D01*
X71020024Y-92697105D01*
X70960841Y-92502007D01*
X70893476Y-92375976D01*
X70864734Y-92322202D01*
X70767803Y-92204092D01*
X70735396Y-92164604D01*
X70695908Y-92132197D01*
X66805782Y-88242072D01*
X67229000Y-88242072D01*
X67353482Y-88229812D01*
X67473180Y-88193502D01*
X67583494Y-88134537D01*
X67680185Y-88055185D01*
X67759537Y-87958494D01*
X67818502Y-87848180D01*
X67854812Y-87728482D01*
X67867072Y-87604000D01*
X67867072Y-85604000D01*
X67854812Y-85479518D01*
X67818502Y-85359820D01*
X67759537Y-85249506D01*
X67714200Y-85194263D01*
X67714200Y-84753803D01*
X67746852Y-84692715D01*
X67840343Y-84384516D01*
X67871911Y-84064000D01*
X82128089Y-84064000D01*
X82159657Y-84384516D01*
X82253148Y-84692715D01*
X82404969Y-84976752D01*
X82463655Y-85048261D01*
X82416506Y-85073463D01*
X82319815Y-85152815D01*
X82240463Y-85249506D01*
X82181498Y-85359820D01*
X82145188Y-85479518D01*
X82132928Y-85604000D01*
X82132928Y-87604000D01*
X82145188Y-87728482D01*
X82181498Y-87848180D01*
X82240463Y-87958494D01*
X82319815Y-88055185D01*
X82416506Y-88134537D01*
X82526820Y-88193502D01*
X82646518Y-88229812D01*
X82771000Y-88242072D01*
X85771000Y-88242072D01*
X85895482Y-88229812D01*
X86015180Y-88193502D01*
X86125494Y-88134537D01*
X86222185Y-88055185D01*
X86301537Y-87958494D01*
X86360502Y-87848180D01*
X86396812Y-87728482D01*
X86409072Y-87604000D01*
X86409072Y-85604000D01*
X86396812Y-85479518D01*
X86360502Y-85359820D01*
X86301537Y-85249506D01*
X86222185Y-85152815D01*
X86125494Y-85073463D01*
X86078345Y-85048261D01*
X86137031Y-84976752D01*
X86288852Y-84692715D01*
X86382343Y-84384516D01*
X86413911Y-84064000D01*
X86382343Y-83743484D01*
X86288852Y-83435285D01*
X86137031Y-83151248D01*
X85932714Y-82902286D01*
X85683752Y-82697969D01*
X85399715Y-82546148D01*
X85091516Y-82452657D01*
X84851322Y-82429000D01*
X83690678Y-82429000D01*
X83450484Y-82452657D01*
X83142285Y-82546148D01*
X82858248Y-82697969D01*
X82609286Y-82902286D01*
X82404969Y-83151248D01*
X82253148Y-83435285D01*
X82159657Y-83743484D01*
X82128089Y-84064000D01*
X67871911Y-84064000D01*
X67840343Y-83743484D01*
X67746852Y-83435285D01*
X67595031Y-83151248D01*
X67390714Y-82902286D01*
X67141752Y-82697969D01*
X66892154Y-82564556D01*
X70695908Y-78760803D01*
X70735396Y-78728396D01*
X70767803Y-78688908D01*
X70864734Y-78570798D01*
X70916104Y-78474691D01*
X70960841Y-78390993D01*
X71020024Y-78195895D01*
X71035000Y-78043838D01*
X71035000Y-78043829D01*
X71040006Y-77993001D01*
X71035000Y-77942173D01*
X71035000Y-72725827D01*
X71040006Y-72674999D01*
X71035000Y-72624171D01*
X71035000Y-72624162D01*
X71020024Y-72472105D01*
X70960841Y-72277007D01*
X70870027Y-72107105D01*
X70864734Y-72097202D01*
X70767803Y-71979092D01*
X70735396Y-71939604D01*
X70695908Y-71907197D01*
X67030782Y-68242072D01*
X67229000Y-68242072D01*
X67353482Y-68229812D01*
X67473180Y-68193502D01*
X67583494Y-68134537D01*
X67680185Y-68055185D01*
X67759537Y-67958494D01*
X67818502Y-67848180D01*
X67854812Y-67728482D01*
X67867072Y-67604000D01*
X67867072Y-65604000D01*
X67854812Y-65479518D01*
X67818502Y-65359820D01*
X67759537Y-65249506D01*
X67680185Y-65152815D01*
X67583494Y-65073463D01*
X67536345Y-65048261D01*
X67595031Y-64976752D01*
X67746852Y-64692715D01*
X67840343Y-64384516D01*
X67871911Y-64064000D01*
X82128089Y-64064000D01*
X82159657Y-64384516D01*
X82253148Y-64692715D01*
X82404969Y-64976752D01*
X82463655Y-65048261D01*
X82416506Y-65073463D01*
X82319815Y-65152815D01*
X82240463Y-65249506D01*
X82181498Y-65359820D01*
X82145188Y-65479518D01*
X82132928Y-65604000D01*
X82132928Y-67604000D01*
X82145188Y-67728482D01*
X82181498Y-67848180D01*
X82240463Y-67958494D01*
X82319815Y-68055185D01*
X82416506Y-68134537D01*
X82526820Y-68193502D01*
X82646518Y-68229812D01*
X82771000Y-68242072D01*
X85771000Y-68242072D01*
X85895482Y-68229812D01*
X86015180Y-68193502D01*
X86125494Y-68134537D01*
X86222185Y-68055185D01*
X86301537Y-67958494D01*
X86360502Y-67848180D01*
X86396812Y-67728482D01*
X86409072Y-67604000D01*
X86409072Y-65604000D01*
X86396812Y-65479518D01*
X86360502Y-65359820D01*
X86301537Y-65249506D01*
X86222185Y-65152815D01*
X86125494Y-65073463D01*
X86078345Y-65048261D01*
X86137031Y-64976752D01*
X86288852Y-64692715D01*
X86382343Y-64384516D01*
X86413911Y-64064000D01*
X86382343Y-63743484D01*
X86288852Y-63435285D01*
X86137031Y-63151248D01*
X85932714Y-62902286D01*
X85683752Y-62697969D01*
X85399715Y-62546148D01*
X85091516Y-62452657D01*
X84851322Y-62429000D01*
X83690678Y-62429000D01*
X83450484Y-62452657D01*
X83142285Y-62546148D01*
X82858248Y-62697969D01*
X82609286Y-62902286D01*
X82404969Y-63151248D01*
X82253148Y-63435285D01*
X82159657Y-63743484D01*
X82128089Y-64064000D01*
X67871911Y-64064000D01*
X67840343Y-63743484D01*
X67746852Y-63435285D01*
X67595031Y-63151248D01*
X67390714Y-62902286D01*
X67141752Y-62697969D01*
X66857715Y-62546148D01*
X66549516Y-62452657D01*
X66309322Y-62429000D01*
X65148678Y-62429000D01*
X64908484Y-62452657D01*
X64600285Y-62546148D01*
X64316248Y-62697969D01*
X64067286Y-62902286D01*
X63862969Y-63151248D01*
X63711148Y-63435285D01*
X63617657Y-63743484D01*
X63586089Y-64064000D01*
X56080136Y-64064000D01*
X55881355Y-63884822D01*
X55764477Y-63815201D01*
X55829014Y-63780706D01*
X56055134Y-63595134D01*
X56240706Y-63369014D01*
X56378599Y-63111034D01*
X56463513Y-62831111D01*
X56492185Y-62540000D01*
X56463513Y-62248889D01*
X56378599Y-61968966D01*
X56240706Y-61710986D01*
X56055134Y-61484866D01*
X56035000Y-61468342D01*
X56035000Y-61457454D01*
X56094180Y-61439502D01*
X56204494Y-61380537D01*
X56301185Y-61301185D01*
X56380537Y-61204494D01*
X56439502Y-61094180D01*
X56475812Y-60974482D01*
X56488072Y-60850000D01*
X56488072Y-59150000D01*
X56475812Y-59025518D01*
X56439502Y-58905820D01*
X56380537Y-58795506D01*
X56301185Y-58698815D01*
X56204494Y-58619463D01*
X56094180Y-58560498D01*
X55974482Y-58524188D01*
X55850000Y-58511928D01*
X54150000Y-58511928D01*
X54025518Y-58524188D01*
X53905820Y-58560498D01*
X53795506Y-58619463D01*
X53698815Y-58698815D01*
X53619463Y-58795506D01*
X53560498Y-58905820D01*
X53524188Y-59025518D01*
X53511928Y-59150000D01*
X53511928Y-60850000D01*
X53524188Y-60974482D01*
X53560498Y-61094180D01*
X53619463Y-61204494D01*
X53698815Y-61301185D01*
X53795506Y-61380537D01*
X53905820Y-61439502D01*
X53965001Y-61457454D01*
X53965001Y-61468342D01*
X53944866Y-61484866D01*
X53759294Y-61710986D01*
X53621401Y-61968966D01*
X53536487Y-62248889D01*
X53507815Y-62540000D01*
X50660000Y-62540000D01*
X50660000Y-55029392D01*
X50688791Y-54706791D01*
X52023000Y-54706791D01*
X52023000Y-55293209D01*
X52137405Y-55868359D01*
X52361817Y-56410138D01*
X52687613Y-56897727D01*
X53102273Y-57312387D01*
X53589862Y-57638183D01*
X54131641Y-57862595D01*
X54706791Y-57977000D01*
X55293209Y-57977000D01*
X55868359Y-57862595D01*
X56410138Y-57638183D01*
X56897727Y-57312387D01*
X57274114Y-56936000D01*
X63590928Y-56936000D01*
X63603188Y-57060482D01*
X63639498Y-57180180D01*
X63698463Y-57290494D01*
X63777815Y-57387185D01*
X63874506Y-57466537D01*
X63984820Y-57525502D01*
X64104518Y-57561812D01*
X64229000Y-57574072D01*
X65443250Y-57571000D01*
X65602000Y-57412250D01*
X65602000Y-56063000D01*
X65856000Y-56063000D01*
X65856000Y-57412250D01*
X66014750Y-57571000D01*
X67229000Y-57574072D01*
X67353482Y-57561812D01*
X67473180Y-57525502D01*
X67583494Y-57466537D01*
X67680185Y-57387185D01*
X67759537Y-57290494D01*
X67818502Y-57180180D01*
X67854812Y-57060482D01*
X67867072Y-56936000D01*
X67864000Y-56221750D01*
X67705250Y-56063000D01*
X65856000Y-56063000D01*
X65602000Y-56063000D01*
X63752750Y-56063000D01*
X63594000Y-56221750D01*
X63590928Y-56936000D01*
X57274114Y-56936000D01*
X57312387Y-56897727D01*
X57638183Y-56410138D01*
X57862595Y-55868359D01*
X57977000Y-55293209D01*
X57977000Y-54936000D01*
X63590928Y-54936000D01*
X63594000Y-55650250D01*
X63752750Y-55809000D01*
X65602000Y-55809000D01*
X65602000Y-53523000D01*
X65856000Y-53523000D01*
X65856000Y-55809000D01*
X67705250Y-55809000D01*
X67864000Y-55650250D01*
X67867072Y-54936000D01*
X67854812Y-54811518D01*
X67818502Y-54691820D01*
X67759537Y-54581506D01*
X67680185Y-54484815D01*
X67583494Y-54405463D01*
X67533353Y-54378662D01*
X67659010Y-54198761D01*
X67788144Y-53904355D01*
X67819124Y-53776434D01*
X67699777Y-53523000D01*
X65856000Y-53523000D01*
X65602000Y-53523000D01*
X63758223Y-53523000D01*
X63638876Y-53776434D01*
X63669856Y-53904355D01*
X63798990Y-54198761D01*
X63924647Y-54378662D01*
X63874506Y-54405463D01*
X63777815Y-54484815D01*
X63698463Y-54581506D01*
X63639498Y-54691820D01*
X63603188Y-54811518D01*
X63590928Y-54936000D01*
X57977000Y-54936000D01*
X57977000Y-54706791D01*
X57862595Y-54131641D01*
X57638183Y-53589862D01*
X57508649Y-53396000D01*
X82128089Y-53396000D01*
X82159657Y-53716516D01*
X82253148Y-54024715D01*
X82404969Y-54308752D01*
X82463655Y-54380261D01*
X82416506Y-54405463D01*
X82319815Y-54484815D01*
X82240463Y-54581506D01*
X82181498Y-54691820D01*
X82145188Y-54811518D01*
X82132928Y-54936000D01*
X82132928Y-56936000D01*
X82145188Y-57060482D01*
X82181498Y-57180180D01*
X82240463Y-57290494D01*
X82319815Y-57387185D01*
X82416506Y-57466537D01*
X82526820Y-57525502D01*
X82646518Y-57561812D01*
X82771000Y-57574072D01*
X83261648Y-57574072D01*
X83310160Y-57733993D01*
X83406266Y-57913797D01*
X83503197Y-58031907D01*
X83535605Y-58071396D01*
X83575093Y-58103803D01*
X88965000Y-63493711D01*
X88965001Y-66178519D01*
X88965000Y-68807813D01*
X88908617Y-68943933D01*
X88865000Y-69163212D01*
X88865000Y-69386788D01*
X88908617Y-69606067D01*
X88994176Y-69812624D01*
X89118388Y-69998520D01*
X89276480Y-70156612D01*
X89285292Y-70162500D01*
X89276480Y-70168388D01*
X89118388Y-70326480D01*
X88994176Y-70512376D01*
X88908617Y-70718933D01*
X88865000Y-70938212D01*
X88865000Y-70971289D01*
X87475290Y-72361000D01*
X86036705Y-72361000D01*
X85932714Y-72234286D01*
X85683752Y-72029969D01*
X85399715Y-71878148D01*
X85091516Y-71784657D01*
X84851322Y-71761000D01*
X83690678Y-71761000D01*
X83450484Y-71784657D01*
X83142285Y-71878148D01*
X82858248Y-72029969D01*
X82609286Y-72234286D01*
X82404969Y-72483248D01*
X82253148Y-72767285D01*
X82159657Y-73075484D01*
X82128089Y-73396000D01*
X82159657Y-73716516D01*
X82253148Y-74024715D01*
X82404969Y-74308752D01*
X82463655Y-74380261D01*
X82416506Y-74405463D01*
X82319815Y-74484815D01*
X82240463Y-74581506D01*
X82181498Y-74691820D01*
X82145188Y-74811518D01*
X82132928Y-74936000D01*
X82132928Y-76936000D01*
X82145188Y-77060482D01*
X82181498Y-77180180D01*
X82240463Y-77290494D01*
X82319815Y-77387185D01*
X82416506Y-77466537D01*
X82526820Y-77525502D01*
X82646518Y-77561812D01*
X82771000Y-77574072D01*
X85771000Y-77574072D01*
X85895482Y-77561812D01*
X86015180Y-77525502D01*
X86125494Y-77466537D01*
X86222185Y-77387185D01*
X86301537Y-77290494D01*
X86360502Y-77180180D01*
X86396812Y-77060482D01*
X86405625Y-76971000D01*
X87713172Y-76971000D01*
X87764000Y-76976006D01*
X87814828Y-76971000D01*
X87814838Y-76971000D01*
X87966895Y-76956024D01*
X88161993Y-76896841D01*
X88341797Y-76800734D01*
X88499396Y-76671396D01*
X88531807Y-76631903D01*
X88965000Y-76198710D01*
X88965001Y-81049152D01*
X88959993Y-81100000D01*
X88965000Y-81150838D01*
X88965001Y-88807811D01*
X88908617Y-88943933D01*
X88865000Y-89163212D01*
X88865000Y-89386788D01*
X88908617Y-89606067D01*
X88994176Y-89812624D01*
X89118388Y-89998520D01*
X89276480Y-90156612D01*
X89285292Y-90162500D01*
X89276480Y-90168388D01*
X89118388Y-90326480D01*
X88994176Y-90512376D01*
X88908617Y-90718933D01*
X88865000Y-90938212D01*
X88865000Y-91161788D01*
X88883167Y-91253122D01*
X87775290Y-92361000D01*
X86036705Y-92361000D01*
X85932714Y-92234286D01*
X85683752Y-92029969D01*
X85399715Y-91878148D01*
X85091516Y-91784657D01*
X84851322Y-91761000D01*
X83690678Y-91761000D01*
X83450484Y-91784657D01*
X83142285Y-91878148D01*
X82858248Y-92029969D01*
X82609286Y-92234286D01*
X82404969Y-92483248D01*
X82253148Y-92767285D01*
X82159657Y-93075484D01*
X82128089Y-93396000D01*
X82159657Y-93716516D01*
X82253148Y-94024715D01*
X82404969Y-94308752D01*
X82463655Y-94380261D01*
X82416506Y-94405463D01*
X82319815Y-94484815D01*
X82240463Y-94581506D01*
X82181498Y-94691820D01*
X82145188Y-94811518D01*
X82132928Y-94936000D01*
X82132928Y-96936000D01*
X82145188Y-97060482D01*
X82181498Y-97180180D01*
X82240463Y-97290494D01*
X82319815Y-97387185D01*
X82416506Y-97466537D01*
X82526820Y-97525502D01*
X82646518Y-97561812D01*
X82771000Y-97574072D01*
X85771000Y-97574072D01*
X85895482Y-97561812D01*
X86015180Y-97525502D01*
X86125494Y-97466537D01*
X86222185Y-97387185D01*
X86301537Y-97290494D01*
X86360502Y-97180180D01*
X86396812Y-97060482D01*
X86405625Y-96971000D01*
X88965000Y-96971000D01*
X88965001Y-100549153D01*
X88965000Y-100549163D01*
X88965000Y-100999172D01*
X88959994Y-101050000D01*
X88965000Y-101100828D01*
X88965001Y-108807811D01*
X88908617Y-108943933D01*
X88865000Y-109163212D01*
X88865000Y-109386788D01*
X88908617Y-109606067D01*
X88994176Y-109812624D01*
X89118388Y-109998520D01*
X89276480Y-110156612D01*
X89285292Y-110162500D01*
X89276480Y-110168388D01*
X89118388Y-110326480D01*
X88994176Y-110512376D01*
X88908617Y-110718933D01*
X88865000Y-110938212D01*
X88865000Y-111161788D01*
X88908617Y-111381067D01*
X88965000Y-111517187D01*
X88965000Y-112050837D01*
X88965001Y-112050844D01*
X88965001Y-112361000D01*
X86036705Y-112361000D01*
X85932714Y-112234286D01*
X85683752Y-112029969D01*
X85399715Y-111878148D01*
X85091516Y-111784657D01*
X84851322Y-111761000D01*
X83690678Y-111761000D01*
X83450484Y-111784657D01*
X83142285Y-111878148D01*
X82858248Y-112029969D01*
X82609286Y-112234286D01*
X82404969Y-112483248D01*
X82253148Y-112767285D01*
X82159657Y-113075484D01*
X82128089Y-113396000D01*
X82159657Y-113716516D01*
X82253148Y-114024715D01*
X82404969Y-114308752D01*
X82463655Y-114380261D01*
X82416506Y-114405463D01*
X82319815Y-114484815D01*
X82240463Y-114581506D01*
X82181498Y-114691820D01*
X82145188Y-114811518D01*
X82132928Y-114936000D01*
X82132928Y-116936000D01*
X82145188Y-117060482D01*
X82181498Y-117180180D01*
X82240463Y-117290494D01*
X82319815Y-117387185D01*
X82416506Y-117466537D01*
X82526820Y-117525502D01*
X82646518Y-117561812D01*
X82771000Y-117574072D01*
X85771000Y-117574072D01*
X85895482Y-117561812D01*
X86015180Y-117525502D01*
X86125494Y-117466537D01*
X86222185Y-117387185D01*
X86301537Y-117290494D01*
X86360502Y-117180180D01*
X86396812Y-117060482D01*
X86405625Y-116971000D01*
X88965000Y-116971000D01*
X88965001Y-121799152D01*
X88959993Y-121850000D01*
X88965000Y-121900838D01*
X88965001Y-128807811D01*
X88908617Y-128943933D01*
X88865000Y-129163212D01*
X88865000Y-129386788D01*
X88908617Y-129606067D01*
X88994176Y-129812624D01*
X89118388Y-129998520D01*
X89276480Y-130156612D01*
X89462376Y-130280824D01*
X89668933Y-130366383D01*
X89888212Y-130410000D01*
X90111788Y-130410000D01*
X90331067Y-130366383D01*
X90467187Y-130310000D01*
X107274172Y-130310000D01*
X107325000Y-130315006D01*
X107375828Y-130310000D01*
X107375838Y-130310000D01*
X107527895Y-130295024D01*
X107722993Y-130235841D01*
X107902797Y-130139734D01*
X108060396Y-130010396D01*
X108092807Y-129970903D01*
X110695908Y-127367803D01*
X110735396Y-127335396D01*
X110767803Y-127295908D01*
X110864734Y-127177798D01*
X110960840Y-126997994D01*
X110960841Y-126997993D01*
X111020024Y-126802895D01*
X111035000Y-126650838D01*
X111035000Y-126650829D01*
X111040006Y-126600001D01*
X111035000Y-126549173D01*
X111035000Y-118611658D01*
X111055134Y-118595134D01*
X111240706Y-118369014D01*
X111378599Y-118111034D01*
X111463513Y-117831111D01*
X111492185Y-117540000D01*
X111463513Y-117248889D01*
X111378599Y-116968966D01*
X111240706Y-116710986D01*
X111055134Y-116484866D01*
X111025313Y-116460393D01*
X111094180Y-116439502D01*
X111204494Y-116380537D01*
X111301185Y-116301185D01*
X111380537Y-116204494D01*
X111439502Y-116094180D01*
X111475812Y-115974482D01*
X111488072Y-115850000D01*
X111488072Y-114150000D01*
X111475812Y-114025518D01*
X111439502Y-113905820D01*
X111380537Y-113795506D01*
X111301185Y-113698815D01*
X111204494Y-113619463D01*
X111094180Y-113560498D01*
X111016983Y-113537081D01*
X110960841Y-113352007D01*
X110905245Y-113247994D01*
X110864734Y-113172202D01*
X110767803Y-113054092D01*
X110735396Y-113014604D01*
X110695908Y-112982197D01*
X109867807Y-112154097D01*
X109835396Y-112114604D01*
X109677797Y-111985266D01*
X109497993Y-111889159D01*
X109302895Y-111829976D01*
X109150838Y-111815000D01*
X109150828Y-111815000D01*
X109100000Y-111809994D01*
X109049172Y-111815000D01*
X104850827Y-111815000D01*
X104799999Y-111809994D01*
X104749171Y-111815000D01*
X104749162Y-111815000D01*
X104597105Y-111829976D01*
X104402007Y-111889159D01*
X104322583Y-111931612D01*
X104222202Y-111985266D01*
X104104092Y-112082197D01*
X104064604Y-112114604D01*
X104032197Y-112154092D01*
X103279097Y-112907193D01*
X103239604Y-112939604D01*
X103110266Y-113097203D01*
X103014159Y-113277008D01*
X102954976Y-113472106D01*
X102940000Y-113624163D01*
X102940000Y-113624172D01*
X102934994Y-113675000D01*
X102940000Y-113725828D01*
X102940000Y-113896289D01*
X102771290Y-114065000D01*
X100100838Y-114065000D01*
X100050000Y-114059993D01*
X99999162Y-114065000D01*
X98446338Y-114065000D01*
X98397993Y-114039159D01*
X98202895Y-113979976D01*
X98050838Y-113965000D01*
X98050828Y-113965000D01*
X98000000Y-113959994D01*
X97949172Y-113965000D01*
X96517187Y-113965000D01*
X96381067Y-113908617D01*
X96161788Y-113865000D01*
X95938212Y-113865000D01*
X95718933Y-113908617D01*
X95512376Y-113994176D01*
X95326480Y-114118388D01*
X95168388Y-114276480D01*
X95044176Y-114462376D01*
X94958617Y-114668933D01*
X94915000Y-114888212D01*
X94915000Y-115111788D01*
X94958617Y-115331067D01*
X95044176Y-115537624D01*
X95168388Y-115723520D01*
X95326480Y-115881612D01*
X95512376Y-116005824D01*
X95718933Y-116091383D01*
X95938212Y-116135000D01*
X96161788Y-116135000D01*
X96381067Y-116091383D01*
X96517187Y-116035000D01*
X96560768Y-116035000D01*
X96609113Y-116060841D01*
X96804211Y-116120024D01*
X96956268Y-116135000D01*
X98049171Y-116135000D01*
X98099999Y-116140006D01*
X98150827Y-116135000D01*
X99015000Y-116135000D01*
X99015001Y-119431709D01*
X98994176Y-119462876D01*
X98908617Y-119669433D01*
X98865000Y-119888712D01*
X98865000Y-120112288D01*
X98908617Y-120331567D01*
X98994176Y-120538124D01*
X99118388Y-120724020D01*
X99209368Y-120815000D01*
X91035000Y-120815000D01*
X91035000Y-115986837D01*
X91040007Y-115936000D01*
X91035000Y-115885162D01*
X91035000Y-113446837D01*
X91040007Y-113396000D01*
X91035000Y-113345162D01*
X91035000Y-111517187D01*
X91091383Y-111381067D01*
X91135000Y-111161788D01*
X91135000Y-110938212D01*
X91091383Y-110718933D01*
X91005824Y-110512376D01*
X90881612Y-110326480D01*
X90865132Y-110310000D01*
X108074172Y-110310000D01*
X108125000Y-110315006D01*
X108175828Y-110310000D01*
X108175838Y-110310000D01*
X108327895Y-110295024D01*
X108522993Y-110235841D01*
X108702797Y-110139734D01*
X108860396Y-110010396D01*
X108892807Y-109970903D01*
X110695908Y-108167803D01*
X110735396Y-108135396D01*
X110767803Y-108095908D01*
X110864734Y-107977798D01*
X110916104Y-107881691D01*
X110960841Y-107797993D01*
X111020024Y-107602895D01*
X111035000Y-107450838D01*
X111035000Y-107450829D01*
X111040006Y-107400001D01*
X111035000Y-107349173D01*
X111035000Y-100800829D01*
X111040006Y-100750001D01*
X111035000Y-100699173D01*
X111035000Y-98611658D01*
X111055134Y-98595134D01*
X111240706Y-98369014D01*
X111378599Y-98111034D01*
X111463513Y-97831111D01*
X111492185Y-97540000D01*
X111463513Y-97248889D01*
X111378599Y-96968966D01*
X111240706Y-96710986D01*
X111055134Y-96484866D01*
X111025313Y-96460393D01*
X111094180Y-96439502D01*
X111204494Y-96380537D01*
X111301185Y-96301185D01*
X111380537Y-96204494D01*
X111439502Y-96094180D01*
X111475812Y-95974482D01*
X111488072Y-95850000D01*
X111488072Y-94150000D01*
X111475812Y-94025518D01*
X111439502Y-93905820D01*
X111380537Y-93795506D01*
X111301185Y-93698815D01*
X111204494Y-93619463D01*
X111094180Y-93560498D01*
X111035000Y-93542546D01*
X111035000Y-93400835D01*
X111040007Y-93350000D01*
X111034885Y-93297993D01*
X111020024Y-93147105D01*
X110960841Y-92952007D01*
X110864734Y-92772203D01*
X110735396Y-92614604D01*
X110695903Y-92582193D01*
X110417807Y-92304097D01*
X110385396Y-92264604D01*
X110227797Y-92135266D01*
X110047993Y-92039159D01*
X109852895Y-91979976D01*
X109700838Y-91965000D01*
X109700828Y-91965000D01*
X109650000Y-91959994D01*
X109599172Y-91965000D01*
X104700827Y-91965000D01*
X104649999Y-91959994D01*
X104599171Y-91965000D01*
X104599162Y-91965000D01*
X104447105Y-91979976D01*
X104252007Y-92039159D01*
X104220829Y-92055824D01*
X104072202Y-92135266D01*
X104011602Y-92185000D01*
X103914604Y-92264604D01*
X103882193Y-92304097D01*
X103279097Y-92907193D01*
X103239604Y-92939604D01*
X103110266Y-93097203D01*
X103014159Y-93277008D01*
X102954976Y-93472106D01*
X102940000Y-93624163D01*
X102940000Y-93624172D01*
X102934994Y-93675000D01*
X102940000Y-93725829D01*
X102940000Y-93965000D01*
X101050835Y-93965000D01*
X101000000Y-93959993D01*
X100949165Y-93965000D01*
X100949162Y-93965000D01*
X100797105Y-93979976D01*
X100665086Y-94020024D01*
X100602006Y-94039159D01*
X100422202Y-94135266D01*
X100378156Y-94171414D01*
X100264604Y-94264604D01*
X100232197Y-94304092D01*
X100200000Y-94336289D01*
X100167807Y-94304097D01*
X100135396Y-94264604D01*
X99977797Y-94135266D01*
X99797993Y-94039159D01*
X99602895Y-93979976D01*
X99450838Y-93965000D01*
X99450828Y-93965000D01*
X99400000Y-93959994D01*
X99349172Y-93965000D01*
X95799162Y-93965000D01*
X95647105Y-93979976D01*
X95452007Y-94039159D01*
X95272203Y-94135266D01*
X95114604Y-94264604D01*
X94985266Y-94422203D01*
X94889159Y-94602007D01*
X94829976Y-94797105D01*
X94809993Y-95000000D01*
X94829976Y-95202895D01*
X94889159Y-95397993D01*
X94985266Y-95577797D01*
X95114604Y-95735396D01*
X95272203Y-95864734D01*
X95452007Y-95960841D01*
X95647105Y-96020024D01*
X95799162Y-96035000D01*
X98971290Y-96035000D01*
X99115000Y-96178711D01*
X99115001Y-98344049D01*
X98994176Y-98524876D01*
X98908617Y-98731433D01*
X98865000Y-98950712D01*
X98865000Y-99174288D01*
X98908617Y-99393567D01*
X98994176Y-99600124D01*
X99118388Y-99786020D01*
X99234868Y-99902500D01*
X91035000Y-99902500D01*
X91035000Y-95986837D01*
X91040007Y-95936000D01*
X91035000Y-95885162D01*
X91035000Y-91650835D01*
X91040007Y-91600000D01*
X91035000Y-91549162D01*
X91035000Y-91517187D01*
X91091383Y-91381067D01*
X91135000Y-91161788D01*
X91135000Y-90938212D01*
X91091383Y-90718933D01*
X91005824Y-90512376D01*
X90881612Y-90326480D01*
X90723520Y-90168388D01*
X90714708Y-90162500D01*
X90723520Y-90156612D01*
X90881612Y-89998520D01*
X91005824Y-89812624D01*
X91062207Y-89676503D01*
X92553711Y-88185000D01*
X104949162Y-88185000D01*
X105000000Y-88190007D01*
X105202895Y-88170024D01*
X105397993Y-88110841D01*
X105577797Y-88014734D01*
X105735396Y-87885396D01*
X105864734Y-87727797D01*
X105960841Y-87547993D01*
X106020024Y-87352895D01*
X106035000Y-87200838D01*
X106040007Y-87150000D01*
X106035000Y-87099162D01*
X106035000Y-83085000D01*
X109449172Y-83085000D01*
X109500000Y-83090006D01*
X109550828Y-83085000D01*
X109550838Y-83085000D01*
X109702895Y-83070024D01*
X109897993Y-83010841D01*
X110077797Y-82914734D01*
X110235396Y-82785396D01*
X110267807Y-82745903D01*
X110695903Y-82317807D01*
X110735396Y-82285396D01*
X110864734Y-82127797D01*
X110960841Y-81947993D01*
X111020024Y-81752895D01*
X111035000Y-81600838D01*
X111035000Y-81600835D01*
X111040007Y-81550000D01*
X111035000Y-81499165D01*
X111035000Y-78611658D01*
X111055134Y-78595134D01*
X111240706Y-78369014D01*
X111378599Y-78111034D01*
X111463513Y-77831111D01*
X111492185Y-77540000D01*
X111463513Y-77248889D01*
X111378599Y-76968966D01*
X111240706Y-76710986D01*
X111055134Y-76484866D01*
X111025313Y-76460393D01*
X111094180Y-76439502D01*
X111204494Y-76380537D01*
X111301185Y-76301185D01*
X111380537Y-76204494D01*
X111439502Y-76094180D01*
X111475812Y-75974482D01*
X111488072Y-75850000D01*
X111488072Y-74150000D01*
X111475812Y-74025518D01*
X111439502Y-73905820D01*
X111380537Y-73795506D01*
X111301185Y-73698815D01*
X111204494Y-73619463D01*
X111094180Y-73560498D01*
X110974482Y-73524188D01*
X110850000Y-73511928D01*
X109150000Y-73511928D01*
X109025518Y-73524188D01*
X108905820Y-73560498D01*
X108819857Y-73606447D01*
X108413207Y-73199797D01*
X108380796Y-73160304D01*
X108223197Y-73030966D01*
X108043393Y-72934859D01*
X107848295Y-72875676D01*
X107696238Y-72860700D01*
X107696228Y-72860700D01*
X107645400Y-72855694D01*
X107594572Y-72860700D01*
X105130127Y-72860700D01*
X105079299Y-72855694D01*
X105028471Y-72860700D01*
X105028462Y-72860700D01*
X104876405Y-72875676D01*
X104681307Y-72934859D01*
X104625658Y-72964604D01*
X104501502Y-73030966D01*
X104390330Y-73122203D01*
X104343904Y-73160304D01*
X104311497Y-73199792D01*
X103573497Y-73937793D01*
X103507813Y-73965000D01*
X101450835Y-73965000D01*
X101400000Y-73959993D01*
X101349164Y-73965000D01*
X101349162Y-73965000D01*
X101197105Y-73979976D01*
X101002007Y-74039159D01*
X100954403Y-74064604D01*
X100822202Y-74135266D01*
X100744834Y-74198761D01*
X100664604Y-74264604D01*
X100632197Y-74304092D01*
X100000000Y-74936289D01*
X99367807Y-74304097D01*
X99335396Y-74264604D01*
X99177797Y-74135266D01*
X98997993Y-74039159D01*
X98802895Y-73979976D01*
X98650838Y-73965000D01*
X98650828Y-73965000D01*
X98600000Y-73959994D01*
X98549172Y-73965000D01*
X96517187Y-73965000D01*
X96381067Y-73908617D01*
X96161788Y-73865000D01*
X95938212Y-73865000D01*
X95718933Y-73908617D01*
X95512376Y-73994176D01*
X95326480Y-74118388D01*
X95168388Y-74276480D01*
X95044176Y-74462376D01*
X94958617Y-74668933D01*
X94915000Y-74888212D01*
X94915000Y-75111788D01*
X94958617Y-75331067D01*
X95044176Y-75537624D01*
X95168388Y-75723520D01*
X95326480Y-75881612D01*
X95512376Y-76005824D01*
X95718933Y-76091383D01*
X95938212Y-76135000D01*
X96161788Y-76135000D01*
X96381067Y-76091383D01*
X96517187Y-76035000D01*
X98171290Y-76035000D01*
X98965001Y-76828712D01*
X98965000Y-78595312D01*
X98908617Y-78731433D01*
X98865000Y-78950712D01*
X98865000Y-79174288D01*
X98908617Y-79393567D01*
X98994176Y-79600124D01*
X99118388Y-79786020D01*
X99276480Y-79944112D01*
X99360122Y-80000000D01*
X99276480Y-80055888D01*
X99267368Y-80065000D01*
X91035000Y-80065000D01*
X91035000Y-73750835D01*
X91040007Y-73700000D01*
X91035000Y-73649165D01*
X91035000Y-71517187D01*
X91091383Y-71381067D01*
X91135000Y-71161788D01*
X91135000Y-70938212D01*
X91091383Y-70718933D01*
X91005824Y-70512376D01*
X90881612Y-70326480D01*
X90723520Y-70168388D01*
X90714708Y-70162500D01*
X90723520Y-70156612D01*
X90881612Y-69998520D01*
X91005824Y-69812624D01*
X91091383Y-69606067D01*
X91135000Y-69386788D01*
X91135000Y-69163212D01*
X91091383Y-68943933D01*
X91035000Y-68807813D01*
X91035000Y-63528710D01*
X92591211Y-61972500D01*
X99532813Y-61972500D01*
X99668933Y-62028883D01*
X99888212Y-62072500D01*
X100111788Y-62072500D01*
X100331067Y-62028883D01*
X100467187Y-61972500D01*
X101758790Y-61972500D01*
X102532197Y-62745908D01*
X102564604Y-62785396D01*
X102604092Y-62817803D01*
X102722202Y-62914734D01*
X102902006Y-63010841D01*
X102945363Y-63023993D01*
X103097105Y-63070024D01*
X103249162Y-63085000D01*
X103249165Y-63085000D01*
X103300000Y-63090007D01*
X103350835Y-63085000D01*
X104532813Y-63085000D01*
X104668933Y-63141383D01*
X104888212Y-63185000D01*
X105111788Y-63185000D01*
X105331067Y-63141383D01*
X105467187Y-63085000D01*
X108199172Y-63085000D01*
X108250000Y-63090006D01*
X108300828Y-63085000D01*
X108300838Y-63085000D01*
X108452895Y-63070024D01*
X108647993Y-63010841D01*
X108827797Y-62914734D01*
X108985396Y-62785396D01*
X109017807Y-62745903D01*
X110695908Y-61067803D01*
X110735396Y-61035396D01*
X110789046Y-60970023D01*
X110864734Y-60877798D01*
X110923527Y-60767803D01*
X110960841Y-60697993D01*
X111020024Y-60502895D01*
X111035000Y-60350838D01*
X111035000Y-60350835D01*
X111040007Y-60300000D01*
X111035000Y-60249165D01*
X111035000Y-58611658D01*
X111055134Y-58595134D01*
X111240706Y-58369014D01*
X111378599Y-58111034D01*
X111463513Y-57831111D01*
X111492185Y-57540000D01*
X111463513Y-57248889D01*
X111378599Y-56968966D01*
X111240706Y-56710986D01*
X111055134Y-56484866D01*
X111025313Y-56460393D01*
X111094180Y-56439502D01*
X111204494Y-56380537D01*
X111301185Y-56301185D01*
X111380537Y-56204494D01*
X111439502Y-56094180D01*
X111475812Y-55974482D01*
X111488072Y-55850000D01*
X111488072Y-54706791D01*
X142023000Y-54706791D01*
X142023000Y-55293209D01*
X142137405Y-55868359D01*
X142361817Y-56410138D01*
X142687613Y-56897727D01*
X143102273Y-57312387D01*
X143589862Y-57638183D01*
X144131641Y-57862595D01*
X144706791Y-57977000D01*
X145293209Y-57977000D01*
X145868359Y-57862595D01*
X146410138Y-57638183D01*
X146897727Y-57312387D01*
X147312387Y-56897727D01*
X147638183Y-56410138D01*
X147862595Y-55868359D01*
X147977000Y-55293209D01*
X147977000Y-54706791D01*
X147862595Y-54131641D01*
X147638183Y-53589862D01*
X147312387Y-53102273D01*
X146897727Y-52687613D01*
X146410138Y-52361817D01*
X145868359Y-52137405D01*
X145293209Y-52023000D01*
X144706791Y-52023000D01*
X144131641Y-52137405D01*
X143589862Y-52361817D01*
X143102273Y-52687613D01*
X142687613Y-53102273D01*
X142361817Y-53589862D01*
X142137405Y-54131641D01*
X142023000Y-54706791D01*
X111488072Y-54706791D01*
X111488072Y-54150000D01*
X111475812Y-54025518D01*
X111439502Y-53905820D01*
X111380537Y-53795506D01*
X111301185Y-53698815D01*
X111204494Y-53619463D01*
X111094180Y-53560498D01*
X111035000Y-53542546D01*
X111035000Y-53050835D01*
X111040007Y-53000000D01*
X111030790Y-52906417D01*
X111020024Y-52797105D01*
X110960841Y-52602007D01*
X110864734Y-52422203D01*
X110735396Y-52264604D01*
X110695903Y-52232193D01*
X110267807Y-51804097D01*
X110235396Y-51764604D01*
X110077797Y-51635266D01*
X109897993Y-51539159D01*
X109702895Y-51479976D01*
X109550838Y-51465000D01*
X109550828Y-51465000D01*
X109500000Y-51459994D01*
X109449172Y-51465000D01*
X104650835Y-51465000D01*
X104600000Y-51459993D01*
X104549165Y-51465000D01*
X104549162Y-51465000D01*
X104397105Y-51479976D01*
X104202007Y-51539159D01*
X104180436Y-51550689D01*
X104022202Y-51635266D01*
X103992878Y-51659332D01*
X103864604Y-51764604D01*
X103832193Y-51804097D01*
X103291597Y-52344693D01*
X103252104Y-52377104D01*
X103122766Y-52534703D01*
X103026659Y-52714508D01*
X102967476Y-52909606D01*
X102952500Y-53061663D01*
X102952500Y-53061672D01*
X102947494Y-53112500D01*
X102952500Y-53163328D01*
X102952500Y-53952500D01*
X100963335Y-53952500D01*
X100912500Y-53947493D01*
X100861664Y-53952500D01*
X100861662Y-53952500D01*
X100709605Y-53967476D01*
X100514507Y-54026659D01*
X100486160Y-54041811D01*
X100334702Y-54122766D01*
X100216592Y-54219697D01*
X100177104Y-54252104D01*
X100144697Y-54291592D01*
X100000000Y-54436290D01*
X99867807Y-54304097D01*
X99835396Y-54264604D01*
X99677797Y-54135266D01*
X99497993Y-54039159D01*
X99302895Y-53979976D01*
X99150838Y-53965000D01*
X99150828Y-53965000D01*
X99100000Y-53959994D01*
X99049172Y-53965000D01*
X96567187Y-53965000D01*
X96431067Y-53908617D01*
X96211788Y-53865000D01*
X95988212Y-53865000D01*
X95768933Y-53908617D01*
X95562376Y-53994176D01*
X95376480Y-54118388D01*
X95218388Y-54276480D01*
X95094176Y-54462376D01*
X95008617Y-54668933D01*
X94965000Y-54888212D01*
X94965000Y-55111788D01*
X95008617Y-55331067D01*
X95094176Y-55537624D01*
X95218388Y-55723520D01*
X95376480Y-55881612D01*
X95562376Y-56005824D01*
X95768933Y-56091383D01*
X95988212Y-56135000D01*
X96211788Y-56135000D01*
X96431067Y-56091383D01*
X96567187Y-56035000D01*
X98671290Y-56035000D01*
X98965001Y-56328712D01*
X98965000Y-58595312D01*
X98908617Y-58731433D01*
X98865000Y-58950712D01*
X98865000Y-59174288D01*
X98908617Y-59393567D01*
X98994176Y-59600124D01*
X99118388Y-59786020D01*
X99234868Y-59902500D01*
X92213335Y-59902500D01*
X92162500Y-59897493D01*
X92111665Y-59902500D01*
X92111662Y-59902500D01*
X91959605Y-59917476D01*
X91764507Y-59976659D01*
X91720839Y-60000000D01*
X91584702Y-60072766D01*
X91466592Y-60169697D01*
X91427104Y-60202104D01*
X91394697Y-60241592D01*
X90017500Y-61618789D01*
X85945384Y-57546674D01*
X86015180Y-57525502D01*
X86125494Y-57466537D01*
X86222185Y-57387185D01*
X86301537Y-57290494D01*
X86360502Y-57180180D01*
X86396812Y-57060482D01*
X86409072Y-56936000D01*
X86409072Y-54936000D01*
X86396812Y-54811518D01*
X86360502Y-54691820D01*
X86301537Y-54581506D01*
X86222185Y-54484815D01*
X86125494Y-54405463D01*
X86078345Y-54380261D01*
X86137031Y-54308752D01*
X86288852Y-54024715D01*
X86382343Y-53716516D01*
X86413911Y-53396000D01*
X86382343Y-53075484D01*
X86288852Y-52767285D01*
X86137031Y-52483248D01*
X85932714Y-52234286D01*
X85683752Y-52029969D01*
X85399715Y-51878148D01*
X85091516Y-51784657D01*
X84851322Y-51761000D01*
X83690678Y-51761000D01*
X83450484Y-51784657D01*
X83142285Y-51878148D01*
X82858248Y-52029969D01*
X82609286Y-52234286D01*
X82404969Y-52483248D01*
X82253148Y-52767285D01*
X82159657Y-53075484D01*
X82128089Y-53396000D01*
X57508649Y-53396000D01*
X57312387Y-53102273D01*
X57225680Y-53015566D01*
X63638876Y-53015566D01*
X63758223Y-53269000D01*
X65602000Y-53269000D01*
X65602000Y-51761000D01*
X65856000Y-51761000D01*
X65856000Y-53269000D01*
X67699777Y-53269000D01*
X67819124Y-53015566D01*
X67788144Y-52887645D01*
X67659010Y-52593239D01*
X67474922Y-52329683D01*
X67242954Y-52107105D01*
X66972020Y-51934058D01*
X66672532Y-51817193D01*
X66356000Y-51761000D01*
X65856000Y-51761000D01*
X65602000Y-51761000D01*
X65102000Y-51761000D01*
X64785468Y-51817193D01*
X64485980Y-51934058D01*
X64215046Y-52107105D01*
X63983078Y-52329683D01*
X63798990Y-52593239D01*
X63669856Y-52887645D01*
X63638876Y-53015566D01*
X57225680Y-53015566D01*
X56897727Y-52687613D01*
X56410138Y-52361817D01*
X55868359Y-52137405D01*
X55293209Y-52023000D01*
X54706791Y-52023000D01*
X54131641Y-52137405D01*
X53589862Y-52361817D01*
X53102273Y-52687613D01*
X52687613Y-53102273D01*
X52361817Y-53589862D01*
X52137405Y-54131641D01*
X52023000Y-54706791D01*
X50688791Y-54706791D01*
X50731173Y-54231917D01*
X50934656Y-53488109D01*
X51266638Y-52792095D01*
X51716626Y-52165870D01*
X52270403Y-51629223D01*
X52910451Y-51199129D01*
X53616553Y-50889171D01*
X54371457Y-50707935D01*
X55024207Y-50660000D01*
X144970608Y-50660000D01*
X145768083Y-50731173D01*
X145768083Y-50731173D01*
G37*
X145768083Y-50731173D02*
X146511891Y-50934656D01*
X147207905Y-51266638D01*
X147834130Y-51716626D01*
X148370777Y-52270403D01*
X148800871Y-52910451D01*
X149110829Y-53616553D01*
X149292065Y-54371457D01*
X149340001Y-55024220D01*
X149340000Y-144970608D01*
X149268827Y-145768083D01*
X149065344Y-146511890D01*
X148733363Y-147207904D01*
X148283374Y-147834130D01*
X147729597Y-148370777D01*
X147089549Y-148800871D01*
X146383447Y-149110829D01*
X145628543Y-149292065D01*
X144975793Y-149340000D01*
X55029392Y-149340000D01*
X54231917Y-149268827D01*
X53488110Y-149065344D01*
X52792096Y-148733363D01*
X52165870Y-148283374D01*
X51629223Y-147729597D01*
X51199129Y-147089549D01*
X50889171Y-146383447D01*
X50707935Y-145628543D01*
X50660000Y-144975793D01*
X50660000Y-144706791D01*
X52023000Y-144706791D01*
X52023000Y-145293209D01*
X52137405Y-145868359D01*
X52361817Y-146410138D01*
X52687613Y-146897727D01*
X53102273Y-147312387D01*
X53589862Y-147638183D01*
X54131641Y-147862595D01*
X54706791Y-147977000D01*
X55293209Y-147977000D01*
X55868359Y-147862595D01*
X56410138Y-147638183D01*
X56897727Y-147312387D01*
X57312387Y-146897727D01*
X57638183Y-146410138D01*
X57862595Y-145868359D01*
X57977000Y-145293209D01*
X57977000Y-144706791D01*
X142023000Y-144706791D01*
X142023000Y-145293209D01*
X142137405Y-145868359D01*
X142361817Y-146410138D01*
X142687613Y-146897727D01*
X143102273Y-147312387D01*
X143589862Y-147638183D01*
X144131641Y-147862595D01*
X144706791Y-147977000D01*
X145293209Y-147977000D01*
X145868359Y-147862595D01*
X146410138Y-147638183D01*
X146897727Y-147312387D01*
X147312387Y-146897727D01*
X147638183Y-146410138D01*
X147862595Y-145868359D01*
X147977000Y-145293209D01*
X147977000Y-144706791D01*
X147862595Y-144131641D01*
X147638183Y-143589862D01*
X147312387Y-143102273D01*
X146897727Y-142687613D01*
X146410138Y-142361817D01*
X145868359Y-142137405D01*
X145293209Y-142023000D01*
X144706791Y-142023000D01*
X144131641Y-142137405D01*
X143589862Y-142361817D01*
X143102273Y-142687613D01*
X142687613Y-143102273D01*
X142361817Y-143589862D01*
X142137405Y-144131641D01*
X142023000Y-144706791D01*
X57977000Y-144706791D01*
X57862595Y-144131641D01*
X57638183Y-143589862D01*
X57312387Y-143102273D01*
X56897727Y-142687613D01*
X56410138Y-142361817D01*
X55868359Y-142137405D01*
X55293209Y-142023000D01*
X54706791Y-142023000D01*
X54131641Y-142137405D01*
X53589862Y-142361817D01*
X53102273Y-142687613D01*
X52687613Y-143102273D01*
X52361817Y-143589862D01*
X52137405Y-144131641D01*
X52023000Y-144706791D01*
X50660000Y-144706791D01*
X50660000Y-136496890D01*
X55958524Y-136496890D01*
X56003175Y-136644099D01*
X56128359Y-136906920D01*
X56302412Y-137140269D01*
X56518645Y-137335178D01*
X56768748Y-137484157D01*
X57043109Y-137581481D01*
X57273000Y-137460814D01*
X57273000Y-136267000D01*
X57527000Y-136267000D01*
X57527000Y-137460814D01*
X57756891Y-137581481D01*
X58031252Y-137484157D01*
X58281355Y-137335178D01*
X58497588Y-137140269D01*
X58671641Y-136906920D01*
X58796825Y-136644099D01*
X58841476Y-136496890D01*
X58720155Y-136267000D01*
X57527000Y-136267000D01*
X57273000Y-136267000D01*
X56079845Y-136267000D01*
X55958524Y-136496890D01*
X50660000Y-136496890D01*
X50660000Y-132750000D01*
X55911928Y-132750000D01*
X55911928Y-134450000D01*
X55924188Y-134574482D01*
X55960498Y-134694180D01*
X56019463Y-134804494D01*
X56098815Y-134901185D01*
X56195506Y-134980537D01*
X56305820Y-135039502D01*
X56386466Y-135063966D01*
X56302412Y-135139731D01*
X56128359Y-135373080D01*
X56003175Y-135635901D01*
X55958524Y-135783110D01*
X56079845Y-136013000D01*
X57273000Y-136013000D01*
X57273000Y-135993000D01*
X57527000Y-135993000D01*
X57527000Y-136013000D01*
X58720155Y-136013000D01*
X58841476Y-135783110D01*
X58796825Y-135635901D01*
X58671641Y-135373080D01*
X58497588Y-135139731D01*
X58413534Y-135063966D01*
X58494180Y-135039502D01*
X58604494Y-134980537D01*
X58701185Y-134901185D01*
X58780537Y-134804494D01*
X58839502Y-134694180D01*
X58875812Y-134574482D01*
X58888072Y-134450000D01*
X58888072Y-132750000D01*
X58875812Y-132625518D01*
X58839502Y-132505820D01*
X58780537Y-132395506D01*
X58701185Y-132298815D01*
X58604494Y-132219463D01*
X58494180Y-132160498D01*
X58374482Y-132124188D01*
X58250000Y-132111928D01*
X56550000Y-132111928D01*
X56425518Y-132124188D01*
X56305820Y-132160498D01*
X56195506Y-132219463D01*
X56098815Y-132298815D01*
X56019463Y-132395506D01*
X55960498Y-132505820D01*
X55924188Y-132625518D01*
X55911928Y-132750000D01*
X50660000Y-132750000D01*
X50660000Y-116936000D01*
X63590928Y-116936000D01*
X63603188Y-117060482D01*
X63639498Y-117180180D01*
X63698463Y-117290494D01*
X63777815Y-117387185D01*
X63874506Y-117466537D01*
X63984820Y-117525502D01*
X64104518Y-117561812D01*
X64229000Y-117574072D01*
X65443250Y-117571000D01*
X65602000Y-117412250D01*
X65602000Y-116063000D01*
X65856000Y-116063000D01*
X65856000Y-117412250D01*
X66014750Y-117571000D01*
X67229000Y-117574072D01*
X67353482Y-117561812D01*
X67473180Y-117525502D01*
X67583494Y-117466537D01*
X67680185Y-117387185D01*
X67759537Y-117290494D01*
X67818502Y-117180180D01*
X67854812Y-117060482D01*
X67867072Y-116936000D01*
X67864000Y-116221750D01*
X67705250Y-116063000D01*
X65856000Y-116063000D01*
X65602000Y-116063000D01*
X63752750Y-116063000D01*
X63594000Y-116221750D01*
X63590928Y-116936000D01*
X50660000Y-116936000D01*
X50660000Y-114936000D01*
X63590928Y-114936000D01*
X63594000Y-115650250D01*
X63752750Y-115809000D01*
X65602000Y-115809000D01*
X65602000Y-113523000D01*
X65856000Y-113523000D01*
X65856000Y-115809000D01*
X67705250Y-115809000D01*
X67864000Y-115650250D01*
X67867072Y-114936000D01*
X67854812Y-114811518D01*
X67818502Y-114691820D01*
X67759537Y-114581506D01*
X67680185Y-114484815D01*
X67583494Y-114405463D01*
X67533353Y-114378662D01*
X67659010Y-114198761D01*
X67788144Y-113904355D01*
X67819124Y-113776434D01*
X67699777Y-113523000D01*
X65856000Y-113523000D01*
X65602000Y-113523000D01*
X63758223Y-113523000D01*
X63638876Y-113776434D01*
X63669856Y-113904355D01*
X63798990Y-114198761D01*
X63924647Y-114378662D01*
X63874506Y-114405463D01*
X63777815Y-114484815D01*
X63698463Y-114581506D01*
X63639498Y-114691820D01*
X63603188Y-114811518D01*
X63590928Y-114936000D01*
X50660000Y-114936000D01*
X50660000Y-113015566D01*
X63638876Y-113015566D01*
X63758223Y-113269000D01*
X65602000Y-113269000D01*
X65602000Y-111761000D01*
X65102000Y-111761000D01*
X64785468Y-111817193D01*
X64485980Y-111934058D01*
X64215046Y-112107105D01*
X63983078Y-112329683D01*
X63798990Y-112593239D01*
X63669856Y-112887645D01*
X63638876Y-113015566D01*
X50660000Y-113015566D01*
X50660000Y-96936000D01*
X63590928Y-96936000D01*
X63603188Y-97060482D01*
X63639498Y-97180180D01*
X63698463Y-97290494D01*
X63777815Y-97387185D01*
X63874506Y-97466537D01*
X63984820Y-97525502D01*
X64104518Y-97561812D01*
X64229000Y-97574072D01*
X65443250Y-97571000D01*
X65602000Y-97412250D01*
X65602000Y-96063000D01*
X65856000Y-96063000D01*
X65856000Y-97412250D01*
X66014750Y-97571000D01*
X67229000Y-97574072D01*
X67353482Y-97561812D01*
X67473180Y-97525502D01*
X67583494Y-97466537D01*
X67680185Y-97387185D01*
X67759537Y-97290494D01*
X67818502Y-97180180D01*
X67854812Y-97060482D01*
X67867072Y-96936000D01*
X67864000Y-96221750D01*
X67705250Y-96063000D01*
X65856000Y-96063000D01*
X65602000Y-96063000D01*
X63752750Y-96063000D01*
X63594000Y-96221750D01*
X63590928Y-96936000D01*
X50660000Y-96936000D01*
X50660000Y-94936000D01*
X63590928Y-94936000D01*
X63594000Y-95650250D01*
X63752750Y-95809000D01*
X65602000Y-95809000D01*
X65602000Y-93523000D01*
X65856000Y-93523000D01*
X65856000Y-95809000D01*
X67705250Y-95809000D01*
X67864000Y-95650250D01*
X67867072Y-94936000D01*
X67854812Y-94811518D01*
X67818502Y-94691820D01*
X67759537Y-94581506D01*
X67680185Y-94484815D01*
X67583494Y-94405463D01*
X67533353Y-94378662D01*
X67659010Y-94198761D01*
X67788144Y-93904355D01*
X67819124Y-93776434D01*
X67699777Y-93523000D01*
X65856000Y-93523000D01*
X65602000Y-93523000D01*
X63758223Y-93523000D01*
X63638876Y-93776434D01*
X63669856Y-93904355D01*
X63798990Y-94198761D01*
X63924647Y-94378662D01*
X63874506Y-94405463D01*
X63777815Y-94484815D01*
X63698463Y-94581506D01*
X63639498Y-94691820D01*
X63603188Y-94811518D01*
X63590928Y-94936000D01*
X50660000Y-94936000D01*
X50660000Y-93015566D01*
X63638876Y-93015566D01*
X63758223Y-93269000D01*
X65602000Y-93269000D01*
X65602000Y-91761000D01*
X65856000Y-91761000D01*
X65856000Y-93269000D01*
X67699777Y-93269000D01*
X67819124Y-93015566D01*
X67788144Y-92887645D01*
X67659010Y-92593239D01*
X67474922Y-92329683D01*
X67242954Y-92107105D01*
X66972020Y-91934058D01*
X66672532Y-91817193D01*
X66356000Y-91761000D01*
X65856000Y-91761000D01*
X65602000Y-91761000D01*
X65102000Y-91761000D01*
X64785468Y-91817193D01*
X64485980Y-91934058D01*
X64215046Y-92107105D01*
X63983078Y-92329683D01*
X63798990Y-92593239D01*
X63669856Y-92887645D01*
X63638876Y-93015566D01*
X50660000Y-93015566D01*
X50660000Y-76936000D01*
X63590928Y-76936000D01*
X63603188Y-77060482D01*
X63639498Y-77180180D01*
X63698463Y-77290494D01*
X63777815Y-77387185D01*
X63874506Y-77466537D01*
X63984820Y-77525502D01*
X64104518Y-77561812D01*
X64229000Y-77574072D01*
X65443250Y-77571000D01*
X65602000Y-77412250D01*
X65602000Y-76063000D01*
X65856000Y-76063000D01*
X65856000Y-77412250D01*
X66014750Y-77571000D01*
X67229000Y-77574072D01*
X67353482Y-77561812D01*
X67473180Y-77525502D01*
X67583494Y-77466537D01*
X67680185Y-77387185D01*
X67759537Y-77290494D01*
X67818502Y-77180180D01*
X67854812Y-77060482D01*
X67867072Y-76936000D01*
X67864000Y-76221750D01*
X67705250Y-76063000D01*
X65856000Y-76063000D01*
X65602000Y-76063000D01*
X63752750Y-76063000D01*
X63594000Y-76221750D01*
X63590928Y-76936000D01*
X50660000Y-76936000D01*
X50660000Y-74936000D01*
X63590928Y-74936000D01*
X63594000Y-75650250D01*
X63752750Y-75809000D01*
X65602000Y-75809000D01*
X65602000Y-73523000D01*
X65856000Y-73523000D01*
X65856000Y-75809000D01*
X67705250Y-75809000D01*
X67864000Y-75650250D01*
X67867072Y-74936000D01*
X67854812Y-74811518D01*
X67818502Y-74691820D01*
X67759537Y-74581506D01*
X67680185Y-74484815D01*
X67583494Y-74405463D01*
X67533353Y-74378662D01*
X67659010Y-74198761D01*
X67788144Y-73904355D01*
X67819124Y-73776434D01*
X67699777Y-73523000D01*
X65856000Y-73523000D01*
X65602000Y-73523000D01*
X63758223Y-73523000D01*
X63638876Y-73776434D01*
X63669856Y-73904355D01*
X63798990Y-74198761D01*
X63924647Y-74378662D01*
X63874506Y-74405463D01*
X63777815Y-74484815D01*
X63698463Y-74581506D01*
X63639498Y-74691820D01*
X63603188Y-74811518D01*
X63590928Y-74936000D01*
X50660000Y-74936000D01*
X50660000Y-73015566D01*
X63638876Y-73015566D01*
X63758223Y-73269000D01*
X65602000Y-73269000D01*
X65602000Y-71761000D01*
X65856000Y-71761000D01*
X65856000Y-73269000D01*
X67699777Y-73269000D01*
X67819124Y-73015566D01*
X67788144Y-72887645D01*
X67659010Y-72593239D01*
X67474922Y-72329683D01*
X67242954Y-72107105D01*
X66972020Y-71934058D01*
X66672532Y-71817193D01*
X66356000Y-71761000D01*
X65856000Y-71761000D01*
X65602000Y-71761000D01*
X65102000Y-71761000D01*
X64785468Y-71817193D01*
X64485980Y-71934058D01*
X64215046Y-72107105D01*
X63983078Y-72329683D01*
X63798990Y-72593239D01*
X63669856Y-72887645D01*
X63638876Y-73015566D01*
X50660000Y-73015566D01*
X50660000Y-67976890D01*
X53558524Y-67976890D01*
X53603175Y-68124099D01*
X53728359Y-68386920D01*
X53902412Y-68620269D01*
X54118645Y-68815178D01*
X54368748Y-68964157D01*
X54643109Y-69061481D01*
X54873000Y-68940814D01*
X54873000Y-67747000D01*
X55127000Y-67747000D01*
X55127000Y-68940814D01*
X55356891Y-69061481D01*
X55631252Y-68964157D01*
X55881355Y-68815178D01*
X56097588Y-68620269D01*
X56271641Y-68386920D01*
X56396825Y-68124099D01*
X56441476Y-67976890D01*
X56320155Y-67747000D01*
X55127000Y-67747000D01*
X54873000Y-67747000D01*
X53679845Y-67747000D01*
X53558524Y-67976890D01*
X50660000Y-67976890D01*
X50660000Y-65436890D01*
X53558524Y-65436890D01*
X53603175Y-65584099D01*
X53728359Y-65846920D01*
X53902412Y-66080269D01*
X54118645Y-66275178D01*
X54244255Y-66350000D01*
X54118645Y-66424822D01*
X53902412Y-66619731D01*
X53728359Y-66853080D01*
X53603175Y-67115901D01*
X53558524Y-67263110D01*
X53679845Y-67493000D01*
X54873000Y-67493000D01*
X54873000Y-65207000D01*
X55127000Y-65207000D01*
X55127000Y-67493000D01*
X56320155Y-67493000D01*
X56441476Y-67263110D01*
X56396825Y-67115901D01*
X56271641Y-66853080D01*
X56097588Y-66619731D01*
X55881355Y-66424822D01*
X55755745Y-66350000D01*
X55881355Y-66275178D01*
X56097588Y-66080269D01*
X56271641Y-65846920D01*
X56396825Y-65584099D01*
X56441476Y-65436890D01*
X56320155Y-65207000D01*
X55127000Y-65207000D01*
X54873000Y-65207000D01*
X53679845Y-65207000D01*
X53558524Y-65436890D01*
X50660000Y-65436890D01*
X50660000Y-62540000D01*
X53507815Y-62540000D01*
X53536487Y-62831111D01*
X53621401Y-63111034D01*
X53759294Y-63369014D01*
X53944866Y-63595134D01*
X54170986Y-63780706D01*
X54235523Y-63815201D01*
X54118645Y-63884822D01*
X53902412Y-64079731D01*
X53728359Y-64313080D01*
X53603175Y-64575901D01*
X53558524Y-64723110D01*
X53679845Y-64953000D01*
X54873000Y-64953000D01*
X54873000Y-64933000D01*
X55127000Y-64933000D01*
X55127000Y-64953000D01*
X56320155Y-64953000D01*
X56441476Y-64723110D01*
X56396825Y-64575901D01*
X56271641Y-64313080D01*
X56097588Y-64079731D01*
X56080136Y-64064000D01*
X63586089Y-64064000D01*
X63617657Y-64384516D01*
X63711148Y-64692715D01*
X63862969Y-64976752D01*
X63921655Y-65048261D01*
X63874506Y-65073463D01*
X63777815Y-65152815D01*
X63698463Y-65249506D01*
X63639498Y-65359820D01*
X63603188Y-65479518D01*
X63590928Y-65604000D01*
X63590928Y-67604000D01*
X63603188Y-67728482D01*
X63639498Y-67848180D01*
X63698463Y-67958494D01*
X63777815Y-68055185D01*
X63874506Y-68134537D01*
X63984820Y-68193502D01*
X64104518Y-68229812D01*
X64229000Y-68242072D01*
X64694000Y-68242072D01*
X64694000Y-68353172D01*
X64688994Y-68404000D01*
X64694000Y-68454828D01*
X64694000Y-68454837D01*
X64708976Y-68606894D01*
X64768159Y-68801992D01*
X64864266Y-68981797D01*
X64993604Y-69139396D01*
X65033097Y-69171807D01*
X68965001Y-73103712D01*
X68965000Y-74749162D01*
X68965000Y-74749163D01*
X68965001Y-77564288D01*
X65033097Y-81496193D01*
X64993604Y-81528604D01*
X64864266Y-81686203D01*
X64768159Y-81866008D01*
X64708976Y-82061106D01*
X64694000Y-82213163D01*
X64694000Y-82213172D01*
X64688994Y-82264000D01*
X64694000Y-82314828D01*
X64694000Y-82517720D01*
X64600285Y-82546148D01*
X64316248Y-82697969D01*
X64067286Y-82902286D01*
X63862969Y-83151248D01*
X63711148Y-83435285D01*
X63617657Y-83743484D01*
X63586089Y-84064000D01*
X63617657Y-84384516D01*
X63711148Y-84692715D01*
X63862969Y-84976752D01*
X63921655Y-85048261D01*
X63874506Y-85073463D01*
X63777815Y-85152815D01*
X63698463Y-85249506D01*
X63639498Y-85359820D01*
X63603188Y-85479518D01*
X63590928Y-85604000D01*
X63590928Y-87604000D01*
X63603188Y-87728482D01*
X63639498Y-87848180D01*
X63698463Y-87958494D01*
X63777815Y-88055185D01*
X63874506Y-88134537D01*
X63984820Y-88193502D01*
X64104518Y-88229812D01*
X64229000Y-88242072D01*
X64694000Y-88242072D01*
X64694000Y-88578172D01*
X64688994Y-88629000D01*
X64694000Y-88679828D01*
X64694000Y-88679837D01*
X64708976Y-88831894D01*
X64768159Y-89026992D01*
X64864266Y-89206797D01*
X64993604Y-89364396D01*
X65033097Y-89396807D01*
X68965001Y-93328712D01*
X68965000Y-96149162D01*
X68965000Y-96149163D01*
X68965001Y-97371288D01*
X65033097Y-101303193D01*
X64993604Y-101335604D01*
X64864266Y-101493203D01*
X64768159Y-101673008D01*
X64708976Y-101868106D01*
X64694000Y-102020163D01*
X64694000Y-102020172D01*
X64688994Y-102071000D01*
X64694000Y-102121828D01*
X64694000Y-102517720D01*
X64600285Y-102546148D01*
X64316248Y-102697969D01*
X64067286Y-102902286D01*
X63862969Y-103151248D01*
X63711148Y-103435285D01*
X63617657Y-103743484D01*
X63586089Y-104064000D01*
X63617657Y-104384516D01*
X63711148Y-104692715D01*
X63862969Y-104976752D01*
X63921655Y-105048261D01*
X63874506Y-105073463D01*
X63777815Y-105152815D01*
X63698463Y-105249506D01*
X63639498Y-105359820D01*
X63603188Y-105479518D01*
X63590928Y-105604000D01*
X63590928Y-107604000D01*
X63603188Y-107728482D01*
X63639498Y-107848180D01*
X63698463Y-107958494D01*
X63777815Y-108055185D01*
X63874506Y-108134537D01*
X63984820Y-108193502D01*
X64104518Y-108229812D01*
X64229000Y-108242072D01*
X64694000Y-108242072D01*
X64694000Y-109178172D01*
X64688994Y-109229000D01*
X64694000Y-109279828D01*
X64694000Y-109279837D01*
X64708976Y-109431894D01*
X64768159Y-109626992D01*
X64864266Y-109806797D01*
X64993604Y-109964396D01*
X65033097Y-109996807D01*
X66969277Y-111932988D01*
X66672532Y-111817193D01*
X66356000Y-111761000D01*
X65856000Y-111761000D01*
X65856000Y-113269000D01*
X67699777Y-113269000D01*
X67819124Y-113015566D01*
X67788144Y-112887645D01*
X67682045Y-112645756D01*
X68965001Y-113928712D01*
X68965000Y-115749162D01*
X68965000Y-115749163D01*
X68965001Y-117171288D01*
X65033097Y-121103193D01*
X64993604Y-121135604D01*
X64864266Y-121293203D01*
X64768159Y-121473008D01*
X64708976Y-121668106D01*
X64694000Y-121820163D01*
X64694000Y-121820172D01*
X64688994Y-121871000D01*
X64694000Y-121921828D01*
X64694000Y-122517720D01*
X64600285Y-122546148D01*
X64316248Y-122697969D01*
X64067286Y-122902286D01*
X63862969Y-123151248D01*
X63711148Y-123435285D01*
X63617657Y-123743484D01*
X63586089Y-124064000D01*
X63617657Y-124384516D01*
X63711148Y-124692715D01*
X63862969Y-124976752D01*
X63921655Y-125048261D01*
X63874506Y-125073463D01*
X63777815Y-125152815D01*
X63698463Y-125249506D01*
X63639498Y-125359820D01*
X63603188Y-125479518D01*
X63590928Y-125604000D01*
X63590928Y-127604000D01*
X63603188Y-127728482D01*
X63639498Y-127848180D01*
X63698463Y-127958494D01*
X63777815Y-128055185D01*
X63874506Y-128134537D01*
X63984820Y-128193502D01*
X64104518Y-128229812D01*
X64229000Y-128242072D01*
X64694000Y-128242072D01*
X64694000Y-128978172D01*
X64688994Y-129029000D01*
X64694000Y-129079828D01*
X64694000Y-129079837D01*
X64708976Y-129231894D01*
X64768159Y-129426992D01*
X64864266Y-129606797D01*
X64993604Y-129764396D01*
X65033097Y-129796807D01*
X66832196Y-131595907D01*
X66864604Y-131635396D01*
X66904092Y-131667803D01*
X67022202Y-131764734D01*
X67202006Y-131860841D01*
X67247415Y-131874615D01*
X67397105Y-131920024D01*
X67549162Y-131935000D01*
X67549165Y-131935000D01*
X67600000Y-131940007D01*
X67650835Y-131935000D01*
X73871290Y-131935000D01*
X74732196Y-132795907D01*
X74764604Y-132835396D01*
X74804092Y-132867803D01*
X74922202Y-132964734D01*
X74944178Y-132976480D01*
X75102007Y-133060841D01*
X75297105Y-133120024D01*
X75449162Y-133135000D01*
X75449171Y-133135000D01*
X75499999Y-133140006D01*
X75550827Y-133135000D01*
X81596290Y-133135000D01*
X82302711Y-133841421D01*
X80038574Y-136105559D01*
X80006710Y-136131709D01*
X79980562Y-136163571D01*
X79902364Y-136258855D01*
X79824828Y-136403914D01*
X79777082Y-136561312D01*
X79760960Y-136725000D01*
X79765001Y-136766028D01*
X79764999Y-142129868D01*
X79718387Y-142176480D01*
X79594175Y-142362376D01*
X79508616Y-142568933D01*
X79464999Y-142788212D01*
X79464999Y-143011788D01*
X79508616Y-143231067D01*
X79594175Y-143437624D01*
X79718387Y-143623520D01*
X79876479Y-143781612D01*
X80062375Y-143905824D01*
X80268932Y-143991383D01*
X80488211Y-144035000D01*
X80711787Y-144035000D01*
X80931066Y-143991383D01*
X81137623Y-143905824D01*
X81323519Y-143781612D01*
X81481611Y-143623520D01*
X81605823Y-143437624D01*
X81691382Y-143231067D01*
X81734999Y-143011788D01*
X81734999Y-142788212D01*
X81691382Y-142568933D01*
X81605823Y-142362376D01*
X81481611Y-142176480D01*
X81434998Y-142129867D01*
X81434999Y-137811000D01*
X81887927Y-137811000D01*
X81890999Y-138125250D01*
X82047656Y-138281907D01*
X81995462Y-138345506D01*
X81936497Y-138455820D01*
X81900187Y-138575518D01*
X81887927Y-138700000D01*
X81889447Y-138855500D01*
X81887927Y-139011000D01*
X81900187Y-139135482D01*
X81936497Y-139255180D01*
X81960454Y-139300000D01*
X81936497Y-139344820D01*
X81900187Y-139464518D01*
X81887927Y-139589000D01*
X81889447Y-139744500D01*
X81887927Y-139900000D01*
X81900187Y-140024482D01*
X81936497Y-140144180D01*
X81995462Y-140254494D01*
X82047656Y-140318093D01*
X81890999Y-140474750D01*
X81887927Y-140789000D01*
X81900187Y-140913482D01*
X81936497Y-141033180D01*
X81995462Y-141143494D01*
X82074814Y-141240185D01*
X82171505Y-141319537D01*
X82281819Y-141378502D01*
X82401517Y-141414812D01*
X82525999Y-141427072D01*
X82990249Y-141424000D01*
X83136539Y-141277710D01*
X83187505Y-141319537D01*
X83297819Y-141378502D01*
X83417517Y-141414812D01*
X83541999Y-141427072D01*
X83783999Y-141425471D01*
X84025999Y-141427072D01*
X84150481Y-141414812D01*
X84270179Y-141378502D01*
X84291999Y-141366839D01*
X84313819Y-141378502D01*
X84433517Y-141414812D01*
X84557999Y-141427072D01*
X84799999Y-141425471D01*
X85041999Y-141427072D01*
X85166481Y-141414812D01*
X85286179Y-141378502D01*
X85307999Y-141366839D01*
X85329819Y-141378502D01*
X85449517Y-141414812D01*
X85573999Y-141427072D01*
X85815999Y-141425471D01*
X86057999Y-141427072D01*
X86182481Y-141414812D01*
X86302179Y-141378502D01*
X86412493Y-141319537D01*
X86463459Y-141277710D01*
X86609749Y-141424000D01*
X87073999Y-141427072D01*
X87198481Y-141414812D01*
X87318179Y-141378502D01*
X87428493Y-141319537D01*
X87525184Y-141240185D01*
X87604536Y-141143494D01*
X87663501Y-141033180D01*
X87699811Y-140913482D01*
X87712071Y-140789000D01*
X87708999Y-140474750D01*
X87552342Y-140318093D01*
X87604536Y-140254494D01*
X87663501Y-140144180D01*
X87699811Y-140024482D01*
X87712071Y-139900000D01*
X87710551Y-139744500D01*
X87712071Y-139589000D01*
X87699811Y-139464518D01*
X87663501Y-139344820D01*
X87639544Y-139300000D01*
X87663501Y-139255180D01*
X87699811Y-139135482D01*
X87703611Y-139096890D01*
X98958524Y-139096890D01*
X99003175Y-139244099D01*
X99128359Y-139506920D01*
X99302412Y-139740269D01*
X99518645Y-139935178D01*
X99768748Y-140084157D01*
X100043109Y-140181481D01*
X100273000Y-140060814D01*
X100273000Y-138867000D01*
X100527000Y-138867000D01*
X100527000Y-140060814D01*
X100756891Y-140181481D01*
X101031252Y-140084157D01*
X101281355Y-139935178D01*
X101497588Y-139740269D01*
X101671641Y-139506920D01*
X101796825Y-139244099D01*
X101841476Y-139096890D01*
X101720155Y-138867000D01*
X100527000Y-138867000D01*
X100273000Y-138867000D01*
X99079845Y-138867000D01*
X98958524Y-139096890D01*
X87703611Y-139096890D01*
X87712071Y-139011000D01*
X87710551Y-138855500D01*
X87712071Y-138700000D01*
X87699811Y-138575518D01*
X87663501Y-138455820D01*
X87604536Y-138345506D01*
X87552342Y-138281907D01*
X87708999Y-138125250D01*
X87712071Y-137811000D01*
X87699811Y-137686518D01*
X87663501Y-137566820D01*
X87604536Y-137456506D01*
X87525184Y-137359815D01*
X87428493Y-137280463D01*
X87318179Y-137221498D01*
X87198481Y-137185188D01*
X87073999Y-137172928D01*
X86609749Y-137176000D01*
X86463459Y-137322290D01*
X86412493Y-137280463D01*
X86302179Y-137221498D01*
X86182481Y-137185188D01*
X86057999Y-137172928D01*
X85815999Y-137174529D01*
X85573999Y-137172928D01*
X85449517Y-137185188D01*
X85329819Y-137221498D01*
X85307999Y-137233161D01*
X85286179Y-137221498D01*
X85166481Y-137185188D01*
X85041999Y-137172928D01*
X84799999Y-137174529D01*
X84557999Y-137172928D01*
X84433517Y-137185188D01*
X84313819Y-137221498D01*
X84291999Y-137233161D01*
X84270179Y-137221498D01*
X84150481Y-137185188D01*
X84025999Y-137172928D01*
X83783999Y-137174529D01*
X83541999Y-137172928D01*
X83417517Y-137185188D01*
X83297819Y-137221498D01*
X83187505Y-137280463D01*
X83136539Y-137322290D01*
X82990249Y-137176000D01*
X82525999Y-137172928D01*
X82401517Y-137185188D01*
X82281819Y-137221498D01*
X82171505Y-137280463D01*
X82074814Y-137359815D01*
X81995462Y-137456506D01*
X81936497Y-137566820D01*
X81900187Y-137686518D01*
X81887927Y-137811000D01*
X81434999Y-137811000D01*
X81435000Y-137070867D01*
X82417655Y-136088212D01*
X95702500Y-136088212D01*
X95702500Y-136311788D01*
X95746117Y-136531067D01*
X95831676Y-136737624D01*
X95955888Y-136923520D01*
X96113980Y-137081612D01*
X96299876Y-137205824D01*
X96506433Y-137291383D01*
X96725712Y-137335000D01*
X96949288Y-137335000D01*
X97168567Y-137291383D01*
X97375124Y-137205824D01*
X97561020Y-137081612D01*
X97607632Y-137035000D01*
X98911928Y-137035000D01*
X98911928Y-137050000D01*
X98924188Y-137174482D01*
X98960498Y-137294180D01*
X99019463Y-137404494D01*
X99098815Y-137501185D01*
X99195506Y-137580537D01*
X99305820Y-137639502D01*
X99386466Y-137663966D01*
X99302412Y-137739731D01*
X99128359Y-137973080D01*
X99003175Y-138235901D01*
X98958524Y-138383110D01*
X99079845Y-138613000D01*
X100273000Y-138613000D01*
X100273000Y-138593000D01*
X100527000Y-138593000D01*
X100527000Y-138613000D01*
X101720155Y-138613000D01*
X101841476Y-138383110D01*
X101796825Y-138235901D01*
X101671641Y-137973080D01*
X101497588Y-137739731D01*
X101413534Y-137663966D01*
X101494180Y-137639502D01*
X101604494Y-137580537D01*
X101701185Y-137501185D01*
X101780537Y-137404494D01*
X101839502Y-137294180D01*
X101875812Y-137174482D01*
X101888072Y-137050000D01*
X101888072Y-135350000D01*
X101875812Y-135225518D01*
X101839502Y-135105820D01*
X101780537Y-134995506D01*
X101701185Y-134898815D01*
X101604494Y-134819463D01*
X101494180Y-134760498D01*
X101374482Y-134724188D01*
X101250000Y-134711928D01*
X99550000Y-134711928D01*
X99425518Y-134724188D01*
X99305820Y-134760498D01*
X99195506Y-134819463D01*
X99098815Y-134898815D01*
X99019463Y-134995506D01*
X98960498Y-135105820D01*
X98924188Y-135225518D01*
X98911928Y-135350000D01*
X98911928Y-135365000D01*
X97607632Y-135365000D01*
X97561020Y-135318388D01*
X97375124Y-135194176D01*
X97168567Y-135108617D01*
X96949288Y-135065000D01*
X96725712Y-135065000D01*
X96506433Y-135108617D01*
X96299876Y-135194176D01*
X96113980Y-135318388D01*
X95955888Y-135476480D01*
X95831676Y-135662376D01*
X95746117Y-135868933D01*
X95702500Y-136088212D01*
X82417655Y-136088212D01*
X83670868Y-134835000D01*
X83736788Y-134835000D01*
X83956067Y-134791383D01*
X84162624Y-134705824D01*
X84348520Y-134581612D01*
X84506612Y-134423520D01*
X84630824Y-134237624D01*
X84716383Y-134031067D01*
X84760000Y-133811788D01*
X84760000Y-133588212D01*
X84716383Y-133368933D01*
X84630824Y-133162376D01*
X84506612Y-132976480D01*
X84348520Y-132818388D01*
X84162624Y-132694176D01*
X84026504Y-132637793D01*
X82792807Y-131404097D01*
X82760396Y-131364604D01*
X82602797Y-131235266D01*
X82422993Y-131139159D01*
X82227895Y-131079976D01*
X82075838Y-131065000D01*
X82075828Y-131065000D01*
X82025000Y-131059994D01*
X81974172Y-131065000D01*
X75928711Y-131065000D01*
X75067807Y-130204097D01*
X75035396Y-130164604D01*
X74877797Y-130035266D01*
X74697993Y-129939159D01*
X74502895Y-129879976D01*
X74350838Y-129865000D01*
X74350828Y-129865000D01*
X74300000Y-129859994D01*
X74249172Y-129865000D01*
X68028711Y-129865000D01*
X66764000Y-128600290D01*
X66764000Y-128242072D01*
X67229000Y-128242072D01*
X67353482Y-128229812D01*
X67473180Y-128193502D01*
X67583494Y-128134537D01*
X67680185Y-128055185D01*
X67759537Y-127958494D01*
X67818502Y-127848180D01*
X67854812Y-127728482D01*
X67867072Y-127604000D01*
X67867072Y-125604000D01*
X67854812Y-125479518D01*
X67818502Y-125359820D01*
X67759537Y-125249506D01*
X67680185Y-125152815D01*
X67583494Y-125073463D01*
X67536345Y-125048261D01*
X67595031Y-124976752D01*
X67746852Y-124692715D01*
X67840343Y-124384516D01*
X67871911Y-124064000D01*
X82128089Y-124064000D01*
X82159657Y-124384516D01*
X82253148Y-124692715D01*
X82404969Y-124976752D01*
X82463655Y-125048261D01*
X82416506Y-125073463D01*
X82319815Y-125152815D01*
X82240463Y-125249506D01*
X82181498Y-125359820D01*
X82145188Y-125479518D01*
X82132928Y-125604000D01*
X82132928Y-127604000D01*
X82145188Y-127728482D01*
X82181498Y-127848180D01*
X82240463Y-127958494D01*
X82319815Y-128055185D01*
X82416506Y-128134537D01*
X82526820Y-128193502D01*
X82646518Y-128229812D01*
X82771000Y-128242072D01*
X85771000Y-128242072D01*
X85895482Y-128229812D01*
X86015180Y-128193502D01*
X86125494Y-128134537D01*
X86222185Y-128055185D01*
X86301537Y-127958494D01*
X86360502Y-127848180D01*
X86396812Y-127728482D01*
X86409072Y-127604000D01*
X86409072Y-125604000D01*
X86396812Y-125479518D01*
X86360502Y-125359820D01*
X86301537Y-125249506D01*
X86222185Y-125152815D01*
X86125494Y-125073463D01*
X86078345Y-125048261D01*
X86137031Y-124976752D01*
X86288852Y-124692715D01*
X86382343Y-124384516D01*
X86413911Y-124064000D01*
X86382343Y-123743484D01*
X86288852Y-123435285D01*
X86137031Y-123151248D01*
X85932714Y-122902286D01*
X85683752Y-122697969D01*
X85399715Y-122546148D01*
X85091516Y-122452657D01*
X84851322Y-122429000D01*
X83690678Y-122429000D01*
X83450484Y-122452657D01*
X83142285Y-122546148D01*
X82858248Y-122697969D01*
X82609286Y-122902286D01*
X82404969Y-123151248D01*
X82253148Y-123435285D01*
X82159657Y-123743484D01*
X82128089Y-124064000D01*
X67871911Y-124064000D01*
X67840343Y-123743484D01*
X67746852Y-123435285D01*
X67595031Y-123151248D01*
X67390714Y-122902286D01*
X67141752Y-122697969D01*
X66857715Y-122546148D01*
X66764000Y-122517720D01*
X66764000Y-122299710D01*
X70695908Y-118367803D01*
X70735396Y-118335396D01*
X70817044Y-118235908D01*
X70864734Y-118177798D01*
X70960840Y-117997994D01*
X70960841Y-117997993D01*
X71020024Y-117802895D01*
X71035000Y-117650838D01*
X71035000Y-117650829D01*
X71040006Y-117600001D01*
X71035000Y-117549173D01*
X71035000Y-113550827D01*
X71040006Y-113499999D01*
X71035000Y-113449171D01*
X71035000Y-113449162D01*
X71020024Y-113297105D01*
X70960841Y-113102007D01*
X70895142Y-112979093D01*
X70864734Y-112922202D01*
X70767803Y-112804092D01*
X70735396Y-112764604D01*
X70695908Y-112732197D01*
X66764000Y-108800290D01*
X66764000Y-108242072D01*
X67229000Y-108242072D01*
X67353482Y-108229812D01*
X67473180Y-108193502D01*
X67583494Y-108134537D01*
X67680185Y-108055185D01*
X67759537Y-107958494D01*
X67818502Y-107848180D01*
X67854812Y-107728482D01*
X67867072Y-107604000D01*
X67867072Y-105604000D01*
X67854812Y-105479518D01*
X67818502Y-105359820D01*
X67759537Y-105249506D01*
X67714200Y-105194263D01*
X67714200Y-104753803D01*
X67746852Y-104692715D01*
X67840343Y-104384516D01*
X67871911Y-104064000D01*
X82128089Y-104064000D01*
X82159657Y-104384516D01*
X82253148Y-104692715D01*
X82404969Y-104976752D01*
X82463655Y-105048261D01*
X82416506Y-105073463D01*
X82319815Y-105152815D01*
X82240463Y-105249506D01*
X82181498Y-105359820D01*
X82145188Y-105479518D01*
X82132928Y-105604000D01*
X82132928Y-107604000D01*
X82145188Y-107728482D01*
X82181498Y-107848180D01*
X82240463Y-107958494D01*
X82319815Y-108055185D01*
X82416506Y-108134537D01*
X82526820Y-108193502D01*
X82646518Y-108229812D01*
X82771000Y-108242072D01*
X85771000Y-108242072D01*
X85895482Y-108229812D01*
X86015180Y-108193502D01*
X86125494Y-108134537D01*
X86222185Y-108055185D01*
X86301537Y-107958494D01*
X86360502Y-107848180D01*
X86396812Y-107728482D01*
X86409072Y-107604000D01*
X86409072Y-105604000D01*
X86396812Y-105479518D01*
X86360502Y-105359820D01*
X86301537Y-105249506D01*
X86222185Y-105152815D01*
X86125494Y-105073463D01*
X86078345Y-105048261D01*
X86137031Y-104976752D01*
X86288852Y-104692715D01*
X86382343Y-104384516D01*
X86413911Y-104064000D01*
X86382343Y-103743484D01*
X86288852Y-103435285D01*
X86137031Y-103151248D01*
X85932714Y-102902286D01*
X85683752Y-102697969D01*
X85399715Y-102546148D01*
X85091516Y-102452657D01*
X84851322Y-102429000D01*
X83690678Y-102429000D01*
X83450484Y-102452657D01*
X83142285Y-102546148D01*
X82858248Y-102697969D01*
X82609286Y-102902286D01*
X82404969Y-103151248D01*
X82253148Y-103435285D01*
X82159657Y-103743484D01*
X82128089Y-104064000D01*
X67871911Y-104064000D01*
X67840343Y-103743484D01*
X67746852Y-103435285D01*
X67595031Y-103151248D01*
X67390714Y-102902286D01*
X67141752Y-102697969D01*
X66857715Y-102546148D01*
X66764000Y-102517720D01*
X66764000Y-102499710D01*
X70695908Y-98567803D01*
X70735396Y-98535396D01*
X70815839Y-98437376D01*
X70864734Y-98377798D01*
X70932252Y-98251480D01*
X70960841Y-98197993D01*
X71020024Y-98002895D01*
X71035000Y-97850838D01*
X71035000Y-97850829D01*
X71040006Y-97800001D01*
X71035000Y-97749173D01*
X71035000Y-92950827D01*
X71040006Y-92899999D01*
X71035000Y-92849171D01*
X71035000Y-92849162D01*
X71020024Y-92697105D01*
X70960841Y-92502007D01*
X70893476Y-92375976D01*
X70864734Y-92322202D01*
X70767803Y-92204092D01*
X70735396Y-92164604D01*
X70695908Y-92132197D01*
X66805782Y-88242072D01*
X67229000Y-88242072D01*
X67353482Y-88229812D01*
X67473180Y-88193502D01*
X67583494Y-88134537D01*
X67680185Y-88055185D01*
X67759537Y-87958494D01*
X67818502Y-87848180D01*
X67854812Y-87728482D01*
X67867072Y-87604000D01*
X67867072Y-85604000D01*
X67854812Y-85479518D01*
X67818502Y-85359820D01*
X67759537Y-85249506D01*
X67714200Y-85194263D01*
X67714200Y-84753803D01*
X67746852Y-84692715D01*
X67840343Y-84384516D01*
X67871911Y-84064000D01*
X82128089Y-84064000D01*
X82159657Y-84384516D01*
X82253148Y-84692715D01*
X82404969Y-84976752D01*
X82463655Y-85048261D01*
X82416506Y-85073463D01*
X82319815Y-85152815D01*
X82240463Y-85249506D01*
X82181498Y-85359820D01*
X82145188Y-85479518D01*
X82132928Y-85604000D01*
X82132928Y-87604000D01*
X82145188Y-87728482D01*
X82181498Y-87848180D01*
X82240463Y-87958494D01*
X82319815Y-88055185D01*
X82416506Y-88134537D01*
X82526820Y-88193502D01*
X82646518Y-88229812D01*
X82771000Y-88242072D01*
X85771000Y-88242072D01*
X85895482Y-88229812D01*
X86015180Y-88193502D01*
X86125494Y-88134537D01*
X86222185Y-88055185D01*
X86301537Y-87958494D01*
X86360502Y-87848180D01*
X86396812Y-87728482D01*
X86409072Y-87604000D01*
X86409072Y-85604000D01*
X86396812Y-85479518D01*
X86360502Y-85359820D01*
X86301537Y-85249506D01*
X86222185Y-85152815D01*
X86125494Y-85073463D01*
X86078345Y-85048261D01*
X86137031Y-84976752D01*
X86288852Y-84692715D01*
X86382343Y-84384516D01*
X86413911Y-84064000D01*
X86382343Y-83743484D01*
X86288852Y-83435285D01*
X86137031Y-83151248D01*
X85932714Y-82902286D01*
X85683752Y-82697969D01*
X85399715Y-82546148D01*
X85091516Y-82452657D01*
X84851322Y-82429000D01*
X83690678Y-82429000D01*
X83450484Y-82452657D01*
X83142285Y-82546148D01*
X82858248Y-82697969D01*
X82609286Y-82902286D01*
X82404969Y-83151248D01*
X82253148Y-83435285D01*
X82159657Y-83743484D01*
X82128089Y-84064000D01*
X67871911Y-84064000D01*
X67840343Y-83743484D01*
X67746852Y-83435285D01*
X67595031Y-83151248D01*
X67390714Y-82902286D01*
X67141752Y-82697969D01*
X66892154Y-82564556D01*
X70695908Y-78760803D01*
X70735396Y-78728396D01*
X70767803Y-78688908D01*
X70864734Y-78570798D01*
X70916104Y-78474691D01*
X70960841Y-78390993D01*
X71020024Y-78195895D01*
X71035000Y-78043838D01*
X71035000Y-78043829D01*
X71040006Y-77993001D01*
X71035000Y-77942173D01*
X71035000Y-72725827D01*
X71040006Y-72674999D01*
X71035000Y-72624171D01*
X71035000Y-72624162D01*
X71020024Y-72472105D01*
X70960841Y-72277007D01*
X70870027Y-72107105D01*
X70864734Y-72097202D01*
X70767803Y-71979092D01*
X70735396Y-71939604D01*
X70695908Y-71907197D01*
X67030782Y-68242072D01*
X67229000Y-68242072D01*
X67353482Y-68229812D01*
X67473180Y-68193502D01*
X67583494Y-68134537D01*
X67680185Y-68055185D01*
X67759537Y-67958494D01*
X67818502Y-67848180D01*
X67854812Y-67728482D01*
X67867072Y-67604000D01*
X67867072Y-65604000D01*
X67854812Y-65479518D01*
X67818502Y-65359820D01*
X67759537Y-65249506D01*
X67680185Y-65152815D01*
X67583494Y-65073463D01*
X67536345Y-65048261D01*
X67595031Y-64976752D01*
X67746852Y-64692715D01*
X67840343Y-64384516D01*
X67871911Y-64064000D01*
X82128089Y-64064000D01*
X82159657Y-64384516D01*
X82253148Y-64692715D01*
X82404969Y-64976752D01*
X82463655Y-65048261D01*
X82416506Y-65073463D01*
X82319815Y-65152815D01*
X82240463Y-65249506D01*
X82181498Y-65359820D01*
X82145188Y-65479518D01*
X82132928Y-65604000D01*
X82132928Y-67604000D01*
X82145188Y-67728482D01*
X82181498Y-67848180D01*
X82240463Y-67958494D01*
X82319815Y-68055185D01*
X82416506Y-68134537D01*
X82526820Y-68193502D01*
X82646518Y-68229812D01*
X82771000Y-68242072D01*
X85771000Y-68242072D01*
X85895482Y-68229812D01*
X86015180Y-68193502D01*
X86125494Y-68134537D01*
X86222185Y-68055185D01*
X86301537Y-67958494D01*
X86360502Y-67848180D01*
X86396812Y-67728482D01*
X86409072Y-67604000D01*
X86409072Y-65604000D01*
X86396812Y-65479518D01*
X86360502Y-65359820D01*
X86301537Y-65249506D01*
X86222185Y-65152815D01*
X86125494Y-65073463D01*
X86078345Y-65048261D01*
X86137031Y-64976752D01*
X86288852Y-64692715D01*
X86382343Y-64384516D01*
X86413911Y-64064000D01*
X86382343Y-63743484D01*
X86288852Y-63435285D01*
X86137031Y-63151248D01*
X85932714Y-62902286D01*
X85683752Y-62697969D01*
X85399715Y-62546148D01*
X85091516Y-62452657D01*
X84851322Y-62429000D01*
X83690678Y-62429000D01*
X83450484Y-62452657D01*
X83142285Y-62546148D01*
X82858248Y-62697969D01*
X82609286Y-62902286D01*
X82404969Y-63151248D01*
X82253148Y-63435285D01*
X82159657Y-63743484D01*
X82128089Y-64064000D01*
X67871911Y-64064000D01*
X67840343Y-63743484D01*
X67746852Y-63435285D01*
X67595031Y-63151248D01*
X67390714Y-62902286D01*
X67141752Y-62697969D01*
X66857715Y-62546148D01*
X66549516Y-62452657D01*
X66309322Y-62429000D01*
X65148678Y-62429000D01*
X64908484Y-62452657D01*
X64600285Y-62546148D01*
X64316248Y-62697969D01*
X64067286Y-62902286D01*
X63862969Y-63151248D01*
X63711148Y-63435285D01*
X63617657Y-63743484D01*
X63586089Y-64064000D01*
X56080136Y-64064000D01*
X55881355Y-63884822D01*
X55764477Y-63815201D01*
X55829014Y-63780706D01*
X56055134Y-63595134D01*
X56240706Y-63369014D01*
X56378599Y-63111034D01*
X56463513Y-62831111D01*
X56492185Y-62540000D01*
X56463513Y-62248889D01*
X56378599Y-61968966D01*
X56240706Y-61710986D01*
X56055134Y-61484866D01*
X56035000Y-61468342D01*
X56035000Y-61457454D01*
X56094180Y-61439502D01*
X56204494Y-61380537D01*
X56301185Y-61301185D01*
X56380537Y-61204494D01*
X56439502Y-61094180D01*
X56475812Y-60974482D01*
X56488072Y-60850000D01*
X56488072Y-59150000D01*
X56475812Y-59025518D01*
X56439502Y-58905820D01*
X56380537Y-58795506D01*
X56301185Y-58698815D01*
X56204494Y-58619463D01*
X56094180Y-58560498D01*
X55974482Y-58524188D01*
X55850000Y-58511928D01*
X54150000Y-58511928D01*
X54025518Y-58524188D01*
X53905820Y-58560498D01*
X53795506Y-58619463D01*
X53698815Y-58698815D01*
X53619463Y-58795506D01*
X53560498Y-58905820D01*
X53524188Y-59025518D01*
X53511928Y-59150000D01*
X53511928Y-60850000D01*
X53524188Y-60974482D01*
X53560498Y-61094180D01*
X53619463Y-61204494D01*
X53698815Y-61301185D01*
X53795506Y-61380537D01*
X53905820Y-61439502D01*
X53965001Y-61457454D01*
X53965001Y-61468342D01*
X53944866Y-61484866D01*
X53759294Y-61710986D01*
X53621401Y-61968966D01*
X53536487Y-62248889D01*
X53507815Y-62540000D01*
X50660000Y-62540000D01*
X50660000Y-55029392D01*
X50688791Y-54706791D01*
X52023000Y-54706791D01*
X52023000Y-55293209D01*
X52137405Y-55868359D01*
X52361817Y-56410138D01*
X52687613Y-56897727D01*
X53102273Y-57312387D01*
X53589862Y-57638183D01*
X54131641Y-57862595D01*
X54706791Y-57977000D01*
X55293209Y-57977000D01*
X55868359Y-57862595D01*
X56410138Y-57638183D01*
X56897727Y-57312387D01*
X57274114Y-56936000D01*
X63590928Y-56936000D01*
X63603188Y-57060482D01*
X63639498Y-57180180D01*
X63698463Y-57290494D01*
X63777815Y-57387185D01*
X63874506Y-57466537D01*
X63984820Y-57525502D01*
X64104518Y-57561812D01*
X64229000Y-57574072D01*
X65443250Y-57571000D01*
X65602000Y-57412250D01*
X65602000Y-56063000D01*
X65856000Y-56063000D01*
X65856000Y-57412250D01*
X66014750Y-57571000D01*
X67229000Y-57574072D01*
X67353482Y-57561812D01*
X67473180Y-57525502D01*
X67583494Y-57466537D01*
X67680185Y-57387185D01*
X67759537Y-57290494D01*
X67818502Y-57180180D01*
X67854812Y-57060482D01*
X67867072Y-56936000D01*
X67864000Y-56221750D01*
X67705250Y-56063000D01*
X65856000Y-56063000D01*
X65602000Y-56063000D01*
X63752750Y-56063000D01*
X63594000Y-56221750D01*
X63590928Y-56936000D01*
X57274114Y-56936000D01*
X57312387Y-56897727D01*
X57638183Y-56410138D01*
X57862595Y-55868359D01*
X57977000Y-55293209D01*
X57977000Y-54936000D01*
X63590928Y-54936000D01*
X63594000Y-55650250D01*
X63752750Y-55809000D01*
X65602000Y-55809000D01*
X65602000Y-53523000D01*
X65856000Y-53523000D01*
X65856000Y-55809000D01*
X67705250Y-55809000D01*
X67864000Y-55650250D01*
X67867072Y-54936000D01*
X67854812Y-54811518D01*
X67818502Y-54691820D01*
X67759537Y-54581506D01*
X67680185Y-54484815D01*
X67583494Y-54405463D01*
X67533353Y-54378662D01*
X67659010Y-54198761D01*
X67788144Y-53904355D01*
X67819124Y-53776434D01*
X67699777Y-53523000D01*
X65856000Y-53523000D01*
X65602000Y-53523000D01*
X63758223Y-53523000D01*
X63638876Y-53776434D01*
X63669856Y-53904355D01*
X63798990Y-54198761D01*
X63924647Y-54378662D01*
X63874506Y-54405463D01*
X63777815Y-54484815D01*
X63698463Y-54581506D01*
X63639498Y-54691820D01*
X63603188Y-54811518D01*
X63590928Y-54936000D01*
X57977000Y-54936000D01*
X57977000Y-54706791D01*
X57862595Y-54131641D01*
X57638183Y-53589862D01*
X57508649Y-53396000D01*
X82128089Y-53396000D01*
X82159657Y-53716516D01*
X82253148Y-54024715D01*
X82404969Y-54308752D01*
X82463655Y-54380261D01*
X82416506Y-54405463D01*
X82319815Y-54484815D01*
X82240463Y-54581506D01*
X82181498Y-54691820D01*
X82145188Y-54811518D01*
X82132928Y-54936000D01*
X82132928Y-56936000D01*
X82145188Y-57060482D01*
X82181498Y-57180180D01*
X82240463Y-57290494D01*
X82319815Y-57387185D01*
X82416506Y-57466537D01*
X82526820Y-57525502D01*
X82646518Y-57561812D01*
X82771000Y-57574072D01*
X83261648Y-57574072D01*
X83310160Y-57733993D01*
X83406266Y-57913797D01*
X83503197Y-58031907D01*
X83535605Y-58071396D01*
X83575093Y-58103803D01*
X88965000Y-63493711D01*
X88965001Y-66178519D01*
X88965000Y-68807813D01*
X88908617Y-68943933D01*
X88865000Y-69163212D01*
X88865000Y-69386788D01*
X88908617Y-69606067D01*
X88994176Y-69812624D01*
X89118388Y-69998520D01*
X89276480Y-70156612D01*
X89285292Y-70162500D01*
X89276480Y-70168388D01*
X89118388Y-70326480D01*
X88994176Y-70512376D01*
X88908617Y-70718933D01*
X88865000Y-70938212D01*
X88865000Y-70971289D01*
X87475290Y-72361000D01*
X86036705Y-72361000D01*
X85932714Y-72234286D01*
X85683752Y-72029969D01*
X85399715Y-71878148D01*
X85091516Y-71784657D01*
X84851322Y-71761000D01*
X83690678Y-71761000D01*
X83450484Y-71784657D01*
X83142285Y-71878148D01*
X82858248Y-72029969D01*
X82609286Y-72234286D01*
X82404969Y-72483248D01*
X82253148Y-72767285D01*
X82159657Y-73075484D01*
X82128089Y-73396000D01*
X82159657Y-73716516D01*
X82253148Y-74024715D01*
X82404969Y-74308752D01*
X82463655Y-74380261D01*
X82416506Y-74405463D01*
X82319815Y-74484815D01*
X82240463Y-74581506D01*
X82181498Y-74691820D01*
X82145188Y-74811518D01*
X82132928Y-74936000D01*
X82132928Y-76936000D01*
X82145188Y-77060482D01*
X82181498Y-77180180D01*
X82240463Y-77290494D01*
X82319815Y-77387185D01*
X82416506Y-77466537D01*
X82526820Y-77525502D01*
X82646518Y-77561812D01*
X82771000Y-77574072D01*
X85771000Y-77574072D01*
X85895482Y-77561812D01*
X86015180Y-77525502D01*
X86125494Y-77466537D01*
X86222185Y-77387185D01*
X86301537Y-77290494D01*
X86360502Y-77180180D01*
X86396812Y-77060482D01*
X86405625Y-76971000D01*
X87713172Y-76971000D01*
X87764000Y-76976006D01*
X87814828Y-76971000D01*
X87814838Y-76971000D01*
X87966895Y-76956024D01*
X88161993Y-76896841D01*
X88341797Y-76800734D01*
X88499396Y-76671396D01*
X88531807Y-76631903D01*
X88965000Y-76198710D01*
X88965001Y-81049152D01*
X88959993Y-81100000D01*
X88965000Y-81150838D01*
X88965001Y-88807811D01*
X88908617Y-88943933D01*
X88865000Y-89163212D01*
X88865000Y-89386788D01*
X88908617Y-89606067D01*
X88994176Y-89812624D01*
X89118388Y-89998520D01*
X89276480Y-90156612D01*
X89285292Y-90162500D01*
X89276480Y-90168388D01*
X89118388Y-90326480D01*
X88994176Y-90512376D01*
X88908617Y-90718933D01*
X88865000Y-90938212D01*
X88865000Y-91161788D01*
X88883167Y-91253122D01*
X87775290Y-92361000D01*
X86036705Y-92361000D01*
X85932714Y-92234286D01*
X85683752Y-92029969D01*
X85399715Y-91878148D01*
X85091516Y-91784657D01*
X84851322Y-91761000D01*
X83690678Y-91761000D01*
X83450484Y-91784657D01*
X83142285Y-91878148D01*
X82858248Y-92029969D01*
X82609286Y-92234286D01*
X82404969Y-92483248D01*
X82253148Y-92767285D01*
X82159657Y-93075484D01*
X82128089Y-93396000D01*
X82159657Y-93716516D01*
X82253148Y-94024715D01*
X82404969Y-94308752D01*
X82463655Y-94380261D01*
X82416506Y-94405463D01*
X82319815Y-94484815D01*
X82240463Y-94581506D01*
X82181498Y-94691820D01*
X82145188Y-94811518D01*
X82132928Y-94936000D01*
X82132928Y-96936000D01*
X82145188Y-97060482D01*
X82181498Y-97180180D01*
X82240463Y-97290494D01*
X82319815Y-97387185D01*
X82416506Y-97466537D01*
X82526820Y-97525502D01*
X82646518Y-97561812D01*
X82771000Y-97574072D01*
X85771000Y-97574072D01*
X85895482Y-97561812D01*
X86015180Y-97525502D01*
X86125494Y-97466537D01*
X86222185Y-97387185D01*
X86301537Y-97290494D01*
X86360502Y-97180180D01*
X86396812Y-97060482D01*
X86405625Y-96971000D01*
X88965000Y-96971000D01*
X88965001Y-100549153D01*
X88965000Y-100549163D01*
X88965000Y-100999172D01*
X88959994Y-101050000D01*
X88965000Y-101100828D01*
X88965001Y-108807811D01*
X88908617Y-108943933D01*
X88865000Y-109163212D01*
X88865000Y-109386788D01*
X88908617Y-109606067D01*
X88994176Y-109812624D01*
X89118388Y-109998520D01*
X89276480Y-110156612D01*
X89285292Y-110162500D01*
X89276480Y-110168388D01*
X89118388Y-110326480D01*
X88994176Y-110512376D01*
X88908617Y-110718933D01*
X88865000Y-110938212D01*
X88865000Y-111161788D01*
X88908617Y-111381067D01*
X88965000Y-111517187D01*
X88965000Y-112050837D01*
X88965001Y-112050844D01*
X88965001Y-112361000D01*
X86036705Y-112361000D01*
X85932714Y-112234286D01*
X85683752Y-112029969D01*
X85399715Y-111878148D01*
X85091516Y-111784657D01*
X84851322Y-111761000D01*
X83690678Y-111761000D01*
X83450484Y-111784657D01*
X83142285Y-111878148D01*
X82858248Y-112029969D01*
X82609286Y-112234286D01*
X82404969Y-112483248D01*
X82253148Y-112767285D01*
X82159657Y-113075484D01*
X82128089Y-113396000D01*
X82159657Y-113716516D01*
X82253148Y-114024715D01*
X82404969Y-114308752D01*
X82463655Y-114380261D01*
X82416506Y-114405463D01*
X82319815Y-114484815D01*
X82240463Y-114581506D01*
X82181498Y-114691820D01*
X82145188Y-114811518D01*
X82132928Y-114936000D01*
X82132928Y-116936000D01*
X82145188Y-117060482D01*
X82181498Y-117180180D01*
X82240463Y-117290494D01*
X82319815Y-117387185D01*
X82416506Y-117466537D01*
X82526820Y-117525502D01*
X82646518Y-117561812D01*
X82771000Y-117574072D01*
X85771000Y-117574072D01*
X85895482Y-117561812D01*
X86015180Y-117525502D01*
X86125494Y-117466537D01*
X86222185Y-117387185D01*
X86301537Y-117290494D01*
X86360502Y-117180180D01*
X86396812Y-117060482D01*
X86405625Y-116971000D01*
X88965000Y-116971000D01*
X88965001Y-121799152D01*
X88959993Y-121850000D01*
X88965000Y-121900838D01*
X88965001Y-128807811D01*
X88908617Y-128943933D01*
X88865000Y-129163212D01*
X88865000Y-129386788D01*
X88908617Y-129606067D01*
X88994176Y-129812624D01*
X89118388Y-129998520D01*
X89276480Y-130156612D01*
X89462376Y-130280824D01*
X89668933Y-130366383D01*
X89888212Y-130410000D01*
X90111788Y-130410000D01*
X90331067Y-130366383D01*
X90467187Y-130310000D01*
X107274172Y-130310000D01*
X107325000Y-130315006D01*
X107375828Y-130310000D01*
X107375838Y-130310000D01*
X107527895Y-130295024D01*
X107722993Y-130235841D01*
X107902797Y-130139734D01*
X108060396Y-130010396D01*
X108092807Y-129970903D01*
X110695908Y-127367803D01*
X110735396Y-127335396D01*
X110767803Y-127295908D01*
X110864734Y-127177798D01*
X110960840Y-126997994D01*
X110960841Y-126997993D01*
X111020024Y-126802895D01*
X111035000Y-126650838D01*
X111035000Y-126650829D01*
X111040006Y-126600001D01*
X111035000Y-126549173D01*
X111035000Y-118611658D01*
X111055134Y-118595134D01*
X111240706Y-118369014D01*
X111378599Y-118111034D01*
X111463513Y-117831111D01*
X111492185Y-117540000D01*
X111463513Y-117248889D01*
X111378599Y-116968966D01*
X111240706Y-116710986D01*
X111055134Y-116484866D01*
X111025313Y-116460393D01*
X111094180Y-116439502D01*
X111204494Y-116380537D01*
X111301185Y-116301185D01*
X111380537Y-116204494D01*
X111439502Y-116094180D01*
X111475812Y-115974482D01*
X111488072Y-115850000D01*
X111488072Y-114150000D01*
X111475812Y-114025518D01*
X111439502Y-113905820D01*
X111380537Y-113795506D01*
X111301185Y-113698815D01*
X111204494Y-113619463D01*
X111094180Y-113560498D01*
X111016983Y-113537081D01*
X110960841Y-113352007D01*
X110905245Y-113247994D01*
X110864734Y-113172202D01*
X110767803Y-113054092D01*
X110735396Y-113014604D01*
X110695908Y-112982197D01*
X109867807Y-112154097D01*
X109835396Y-112114604D01*
X109677797Y-111985266D01*
X109497993Y-111889159D01*
X109302895Y-111829976D01*
X109150838Y-111815000D01*
X109150828Y-111815000D01*
X109100000Y-111809994D01*
X109049172Y-111815000D01*
X104850827Y-111815000D01*
X104799999Y-111809994D01*
X104749171Y-111815000D01*
X104749162Y-111815000D01*
X104597105Y-111829976D01*
X104402007Y-111889159D01*
X104322583Y-111931612D01*
X104222202Y-111985266D01*
X104104092Y-112082197D01*
X104064604Y-112114604D01*
X104032197Y-112154092D01*
X103279097Y-112907193D01*
X103239604Y-112939604D01*
X103110266Y-113097203D01*
X103014159Y-113277008D01*
X102954976Y-113472106D01*
X102940000Y-113624163D01*
X102940000Y-113624172D01*
X102934994Y-113675000D01*
X102940000Y-113725828D01*
X102940000Y-113896289D01*
X102771290Y-114065000D01*
X100100838Y-114065000D01*
X100050000Y-114059993D01*
X99999162Y-114065000D01*
X98446338Y-114065000D01*
X98397993Y-114039159D01*
X98202895Y-113979976D01*
X98050838Y-113965000D01*
X98050828Y-113965000D01*
X98000000Y-113959994D01*
X97949172Y-113965000D01*
X96517187Y-113965000D01*
X96381067Y-113908617D01*
X96161788Y-113865000D01*
X95938212Y-113865000D01*
X95718933Y-113908617D01*
X95512376Y-113994176D01*
X95326480Y-114118388D01*
X95168388Y-114276480D01*
X95044176Y-114462376D01*
X94958617Y-114668933D01*
X94915000Y-114888212D01*
X94915000Y-115111788D01*
X94958617Y-115331067D01*
X95044176Y-115537624D01*
X95168388Y-115723520D01*
X95326480Y-115881612D01*
X95512376Y-116005824D01*
X95718933Y-116091383D01*
X95938212Y-116135000D01*
X96161788Y-116135000D01*
X96381067Y-116091383D01*
X96517187Y-116035000D01*
X96560768Y-116035000D01*
X96609113Y-116060841D01*
X96804211Y-116120024D01*
X96956268Y-116135000D01*
X98049171Y-116135000D01*
X98099999Y-116140006D01*
X98150827Y-116135000D01*
X99015000Y-116135000D01*
X99015001Y-119431709D01*
X98994176Y-119462876D01*
X98908617Y-119669433D01*
X98865000Y-119888712D01*
X98865000Y-120112288D01*
X98908617Y-120331567D01*
X98994176Y-120538124D01*
X99118388Y-120724020D01*
X99209368Y-120815000D01*
X91035000Y-120815000D01*
X91035000Y-115986837D01*
X91040007Y-115936000D01*
X91035000Y-115885162D01*
X91035000Y-113446837D01*
X91040007Y-113396000D01*
X91035000Y-113345162D01*
X91035000Y-111517187D01*
X91091383Y-111381067D01*
X91135000Y-111161788D01*
X91135000Y-110938212D01*
X91091383Y-110718933D01*
X91005824Y-110512376D01*
X90881612Y-110326480D01*
X90865132Y-110310000D01*
X108074172Y-110310000D01*
X108125000Y-110315006D01*
X108175828Y-110310000D01*
X108175838Y-110310000D01*
X108327895Y-110295024D01*
X108522993Y-110235841D01*
X108702797Y-110139734D01*
X108860396Y-110010396D01*
X108892807Y-109970903D01*
X110695908Y-108167803D01*
X110735396Y-108135396D01*
X110767803Y-108095908D01*
X110864734Y-107977798D01*
X110916104Y-107881691D01*
X110960841Y-107797993D01*
X111020024Y-107602895D01*
X111035000Y-107450838D01*
X111035000Y-107450829D01*
X111040006Y-107400001D01*
X111035000Y-107349173D01*
X111035000Y-100800829D01*
X111040006Y-100750001D01*
X111035000Y-100699173D01*
X111035000Y-98611658D01*
X111055134Y-98595134D01*
X111240706Y-98369014D01*
X111378599Y-98111034D01*
X111463513Y-97831111D01*
X111492185Y-97540000D01*
X111463513Y-97248889D01*
X111378599Y-96968966D01*
X111240706Y-96710986D01*
X111055134Y-96484866D01*
X111025313Y-96460393D01*
X111094180Y-96439502D01*
X111204494Y-96380537D01*
X111301185Y-96301185D01*
X111380537Y-96204494D01*
X111439502Y-96094180D01*
X111475812Y-95974482D01*
X111488072Y-95850000D01*
X111488072Y-94150000D01*
X111475812Y-94025518D01*
X111439502Y-93905820D01*
X111380537Y-93795506D01*
X111301185Y-93698815D01*
X111204494Y-93619463D01*
X111094180Y-93560498D01*
X111035000Y-93542546D01*
X111035000Y-93400835D01*
X111040007Y-93350000D01*
X111034885Y-93297993D01*
X111020024Y-93147105D01*
X110960841Y-92952007D01*
X110864734Y-92772203D01*
X110735396Y-92614604D01*
X110695903Y-92582193D01*
X110417807Y-92304097D01*
X110385396Y-92264604D01*
X110227797Y-92135266D01*
X110047993Y-92039159D01*
X109852895Y-91979976D01*
X109700838Y-91965000D01*
X109700828Y-91965000D01*
X109650000Y-91959994D01*
X109599172Y-91965000D01*
X104700827Y-91965000D01*
X104649999Y-91959994D01*
X104599171Y-91965000D01*
X104599162Y-91965000D01*
X104447105Y-91979976D01*
X104252007Y-92039159D01*
X104220829Y-92055824D01*
X104072202Y-92135266D01*
X104011602Y-92185000D01*
X103914604Y-92264604D01*
X103882193Y-92304097D01*
X103279097Y-92907193D01*
X103239604Y-92939604D01*
X103110266Y-93097203D01*
X103014159Y-93277008D01*
X102954976Y-93472106D01*
X102940000Y-93624163D01*
X102940000Y-93624172D01*
X102934994Y-93675000D01*
X102940000Y-93725829D01*
X102940000Y-93965000D01*
X101050835Y-93965000D01*
X101000000Y-93959993D01*
X100949165Y-93965000D01*
X100949162Y-93965000D01*
X100797105Y-93979976D01*
X100665086Y-94020024D01*
X100602006Y-94039159D01*
X100422202Y-94135266D01*
X100378156Y-94171414D01*
X100264604Y-94264604D01*
X100232197Y-94304092D01*
X100200000Y-94336289D01*
X100167807Y-94304097D01*
X100135396Y-94264604D01*
X99977797Y-94135266D01*
X99797993Y-94039159D01*
X99602895Y-93979976D01*
X99450838Y-93965000D01*
X99450828Y-93965000D01*
X99400000Y-93959994D01*
X99349172Y-93965000D01*
X95799162Y-93965000D01*
X95647105Y-93979976D01*
X95452007Y-94039159D01*
X95272203Y-94135266D01*
X95114604Y-94264604D01*
X94985266Y-94422203D01*
X94889159Y-94602007D01*
X94829976Y-94797105D01*
X94809993Y-95000000D01*
X94829976Y-95202895D01*
X94889159Y-95397993D01*
X94985266Y-95577797D01*
X95114604Y-95735396D01*
X95272203Y-95864734D01*
X95452007Y-95960841D01*
X95647105Y-96020024D01*
X95799162Y-96035000D01*
X98971290Y-96035000D01*
X99115000Y-96178711D01*
X99115001Y-98344049D01*
X98994176Y-98524876D01*
X98908617Y-98731433D01*
X98865000Y-98950712D01*
X98865000Y-99174288D01*
X98908617Y-99393567D01*
X98994176Y-99600124D01*
X99118388Y-99786020D01*
X99234868Y-99902500D01*
X91035000Y-99902500D01*
X91035000Y-95986837D01*
X91040007Y-95936000D01*
X91035000Y-95885162D01*
X91035000Y-91650835D01*
X91040007Y-91600000D01*
X91035000Y-91549162D01*
X91035000Y-91517187D01*
X91091383Y-91381067D01*
X91135000Y-91161788D01*
X91135000Y-90938212D01*
X91091383Y-90718933D01*
X91005824Y-90512376D01*
X90881612Y-90326480D01*
X90723520Y-90168388D01*
X90714708Y-90162500D01*
X90723520Y-90156612D01*
X90881612Y-89998520D01*
X91005824Y-89812624D01*
X91062207Y-89676503D01*
X92553711Y-88185000D01*
X104949162Y-88185000D01*
X105000000Y-88190007D01*
X105202895Y-88170024D01*
X105397993Y-88110841D01*
X105577797Y-88014734D01*
X105735396Y-87885396D01*
X105864734Y-87727797D01*
X105960841Y-87547993D01*
X106020024Y-87352895D01*
X106035000Y-87200838D01*
X106040007Y-87150000D01*
X106035000Y-87099162D01*
X106035000Y-83085000D01*
X109449172Y-83085000D01*
X109500000Y-83090006D01*
X109550828Y-83085000D01*
X109550838Y-83085000D01*
X109702895Y-83070024D01*
X109897993Y-83010841D01*
X110077797Y-82914734D01*
X110235396Y-82785396D01*
X110267807Y-82745903D01*
X110695903Y-82317807D01*
X110735396Y-82285396D01*
X110864734Y-82127797D01*
X110960841Y-81947993D01*
X111020024Y-81752895D01*
X111035000Y-81600838D01*
X111035000Y-81600835D01*
X111040007Y-81550000D01*
X111035000Y-81499165D01*
X111035000Y-78611658D01*
X111055134Y-78595134D01*
X111240706Y-78369014D01*
X111378599Y-78111034D01*
X111463513Y-77831111D01*
X111492185Y-77540000D01*
X111463513Y-77248889D01*
X111378599Y-76968966D01*
X111240706Y-76710986D01*
X111055134Y-76484866D01*
X111025313Y-76460393D01*
X111094180Y-76439502D01*
X111204494Y-76380537D01*
X111301185Y-76301185D01*
X111380537Y-76204494D01*
X111439502Y-76094180D01*
X111475812Y-75974482D01*
X111488072Y-75850000D01*
X111488072Y-74150000D01*
X111475812Y-74025518D01*
X111439502Y-73905820D01*
X111380537Y-73795506D01*
X111301185Y-73698815D01*
X111204494Y-73619463D01*
X111094180Y-73560498D01*
X110974482Y-73524188D01*
X110850000Y-73511928D01*
X109150000Y-73511928D01*
X109025518Y-73524188D01*
X108905820Y-73560498D01*
X108819857Y-73606447D01*
X108413207Y-73199797D01*
X108380796Y-73160304D01*
X108223197Y-73030966D01*
X108043393Y-72934859D01*
X107848295Y-72875676D01*
X107696238Y-72860700D01*
X107696228Y-72860700D01*
X107645400Y-72855694D01*
X107594572Y-72860700D01*
X105130127Y-72860700D01*
X105079299Y-72855694D01*
X105028471Y-72860700D01*
X105028462Y-72860700D01*
X104876405Y-72875676D01*
X104681307Y-72934859D01*
X104625658Y-72964604D01*
X104501502Y-73030966D01*
X104390330Y-73122203D01*
X104343904Y-73160304D01*
X104311497Y-73199792D01*
X103573497Y-73937793D01*
X103507813Y-73965000D01*
X101450835Y-73965000D01*
X101400000Y-73959993D01*
X101349164Y-73965000D01*
X101349162Y-73965000D01*
X101197105Y-73979976D01*
X101002007Y-74039159D01*
X100954403Y-74064604D01*
X100822202Y-74135266D01*
X100744834Y-74198761D01*
X100664604Y-74264604D01*
X100632197Y-74304092D01*
X100000000Y-74936289D01*
X99367807Y-74304097D01*
X99335396Y-74264604D01*
X99177797Y-74135266D01*
X98997993Y-74039159D01*
X98802895Y-73979976D01*
X98650838Y-73965000D01*
X98650828Y-73965000D01*
X98600000Y-73959994D01*
X98549172Y-73965000D01*
X96517187Y-73965000D01*
X96381067Y-73908617D01*
X96161788Y-73865000D01*
X95938212Y-73865000D01*
X95718933Y-73908617D01*
X95512376Y-73994176D01*
X95326480Y-74118388D01*
X95168388Y-74276480D01*
X95044176Y-74462376D01*
X94958617Y-74668933D01*
X94915000Y-74888212D01*
X94915000Y-75111788D01*
X94958617Y-75331067D01*
X95044176Y-75537624D01*
X95168388Y-75723520D01*
X95326480Y-75881612D01*
X95512376Y-76005824D01*
X95718933Y-76091383D01*
X95938212Y-76135000D01*
X96161788Y-76135000D01*
X96381067Y-76091383D01*
X96517187Y-76035000D01*
X98171290Y-76035000D01*
X98965001Y-76828712D01*
X98965000Y-78595312D01*
X98908617Y-78731433D01*
X98865000Y-78950712D01*
X98865000Y-79174288D01*
X98908617Y-79393567D01*
X98994176Y-79600124D01*
X99118388Y-79786020D01*
X99276480Y-79944112D01*
X99360122Y-80000000D01*
X99276480Y-80055888D01*
X99267368Y-80065000D01*
X91035000Y-80065000D01*
X91035000Y-73750835D01*
X91040007Y-73700000D01*
X91035000Y-73649165D01*
X91035000Y-71517187D01*
X91091383Y-71381067D01*
X91135000Y-71161788D01*
X91135000Y-70938212D01*
X91091383Y-70718933D01*
X91005824Y-70512376D01*
X90881612Y-70326480D01*
X90723520Y-70168388D01*
X90714708Y-70162500D01*
X90723520Y-70156612D01*
X90881612Y-69998520D01*
X91005824Y-69812624D01*
X91091383Y-69606067D01*
X91135000Y-69386788D01*
X91135000Y-69163212D01*
X91091383Y-68943933D01*
X91035000Y-68807813D01*
X91035000Y-63528710D01*
X92591211Y-61972500D01*
X99532813Y-61972500D01*
X99668933Y-62028883D01*
X99888212Y-62072500D01*
X100111788Y-62072500D01*
X100331067Y-62028883D01*
X100467187Y-61972500D01*
X101758790Y-61972500D01*
X102532197Y-62745908D01*
X102564604Y-62785396D01*
X102604092Y-62817803D01*
X102722202Y-62914734D01*
X102902006Y-63010841D01*
X102945363Y-63023993D01*
X103097105Y-63070024D01*
X103249162Y-63085000D01*
X103249165Y-63085000D01*
X103300000Y-63090007D01*
X103350835Y-63085000D01*
X104532813Y-63085000D01*
X104668933Y-63141383D01*
X104888212Y-63185000D01*
X105111788Y-63185000D01*
X105331067Y-63141383D01*
X105467187Y-63085000D01*
X108199172Y-63085000D01*
X108250000Y-63090006D01*
X108300828Y-63085000D01*
X108300838Y-63085000D01*
X108452895Y-63070024D01*
X108647993Y-63010841D01*
X108827797Y-62914734D01*
X108985396Y-62785396D01*
X109017807Y-62745903D01*
X110695908Y-61067803D01*
X110735396Y-61035396D01*
X110789046Y-60970023D01*
X110864734Y-60877798D01*
X110923527Y-60767803D01*
X110960841Y-60697993D01*
X111020024Y-60502895D01*
X111035000Y-60350838D01*
X111035000Y-60350835D01*
X111040007Y-60300000D01*
X111035000Y-60249165D01*
X111035000Y-58611658D01*
X111055134Y-58595134D01*
X111240706Y-58369014D01*
X111378599Y-58111034D01*
X111463513Y-57831111D01*
X111492185Y-57540000D01*
X111463513Y-57248889D01*
X111378599Y-56968966D01*
X111240706Y-56710986D01*
X111055134Y-56484866D01*
X111025313Y-56460393D01*
X111094180Y-56439502D01*
X111204494Y-56380537D01*
X111301185Y-56301185D01*
X111380537Y-56204494D01*
X111439502Y-56094180D01*
X111475812Y-55974482D01*
X111488072Y-55850000D01*
X111488072Y-54706791D01*
X142023000Y-54706791D01*
X142023000Y-55293209D01*
X142137405Y-55868359D01*
X142361817Y-56410138D01*
X142687613Y-56897727D01*
X143102273Y-57312387D01*
X143589862Y-57638183D01*
X144131641Y-57862595D01*
X144706791Y-57977000D01*
X145293209Y-57977000D01*
X145868359Y-57862595D01*
X146410138Y-57638183D01*
X146897727Y-57312387D01*
X147312387Y-56897727D01*
X147638183Y-56410138D01*
X147862595Y-55868359D01*
X147977000Y-55293209D01*
X147977000Y-54706791D01*
X147862595Y-54131641D01*
X147638183Y-53589862D01*
X147312387Y-53102273D01*
X146897727Y-52687613D01*
X146410138Y-52361817D01*
X145868359Y-52137405D01*
X145293209Y-52023000D01*
X144706791Y-52023000D01*
X144131641Y-52137405D01*
X143589862Y-52361817D01*
X143102273Y-52687613D01*
X142687613Y-53102273D01*
X142361817Y-53589862D01*
X142137405Y-54131641D01*
X142023000Y-54706791D01*
X111488072Y-54706791D01*
X111488072Y-54150000D01*
X111475812Y-54025518D01*
X111439502Y-53905820D01*
X111380537Y-53795506D01*
X111301185Y-53698815D01*
X111204494Y-53619463D01*
X111094180Y-53560498D01*
X111035000Y-53542546D01*
X111035000Y-53050835D01*
X111040007Y-53000000D01*
X111030790Y-52906417D01*
X111020024Y-52797105D01*
X110960841Y-52602007D01*
X110864734Y-52422203D01*
X110735396Y-52264604D01*
X110695903Y-52232193D01*
X110267807Y-51804097D01*
X110235396Y-51764604D01*
X110077797Y-51635266D01*
X109897993Y-51539159D01*
X109702895Y-51479976D01*
X109550838Y-51465000D01*
X109550828Y-51465000D01*
X109500000Y-51459994D01*
X109449172Y-51465000D01*
X104650835Y-51465000D01*
X104600000Y-51459993D01*
X104549165Y-51465000D01*
X104549162Y-51465000D01*
X104397105Y-51479976D01*
X104202007Y-51539159D01*
X104180436Y-51550689D01*
X104022202Y-51635266D01*
X103992878Y-51659332D01*
X103864604Y-51764604D01*
X103832193Y-51804097D01*
X103291597Y-52344693D01*
X103252104Y-52377104D01*
X103122766Y-52534703D01*
X103026659Y-52714508D01*
X102967476Y-52909606D01*
X102952500Y-53061663D01*
X102952500Y-53061672D01*
X102947494Y-53112500D01*
X102952500Y-53163328D01*
X102952500Y-53952500D01*
X100963335Y-53952500D01*
X100912500Y-53947493D01*
X100861664Y-53952500D01*
X100861662Y-53952500D01*
X100709605Y-53967476D01*
X100514507Y-54026659D01*
X100486160Y-54041811D01*
X100334702Y-54122766D01*
X100216592Y-54219697D01*
X100177104Y-54252104D01*
X100144697Y-54291592D01*
X100000000Y-54436290D01*
X99867807Y-54304097D01*
X99835396Y-54264604D01*
X99677797Y-54135266D01*
X99497993Y-54039159D01*
X99302895Y-53979976D01*
X99150838Y-53965000D01*
X99150828Y-53965000D01*
X99100000Y-53959994D01*
X99049172Y-53965000D01*
X96567187Y-53965000D01*
X96431067Y-53908617D01*
X96211788Y-53865000D01*
X95988212Y-53865000D01*
X95768933Y-53908617D01*
X95562376Y-53994176D01*
X95376480Y-54118388D01*
X95218388Y-54276480D01*
X95094176Y-54462376D01*
X95008617Y-54668933D01*
X94965000Y-54888212D01*
X94965000Y-55111788D01*
X95008617Y-55331067D01*
X95094176Y-55537624D01*
X95218388Y-55723520D01*
X95376480Y-55881612D01*
X95562376Y-56005824D01*
X95768933Y-56091383D01*
X95988212Y-56135000D01*
X96211788Y-56135000D01*
X96431067Y-56091383D01*
X96567187Y-56035000D01*
X98671290Y-56035000D01*
X98965001Y-56328712D01*
X98965000Y-58595312D01*
X98908617Y-58731433D01*
X98865000Y-58950712D01*
X98865000Y-59174288D01*
X98908617Y-59393567D01*
X98994176Y-59600124D01*
X99118388Y-59786020D01*
X99234868Y-59902500D01*
X92213335Y-59902500D01*
X92162500Y-59897493D01*
X92111665Y-59902500D01*
X92111662Y-59902500D01*
X91959605Y-59917476D01*
X91764507Y-59976659D01*
X91720839Y-60000000D01*
X91584702Y-60072766D01*
X91466592Y-60169697D01*
X91427104Y-60202104D01*
X91394697Y-60241592D01*
X90017500Y-61618789D01*
X85945384Y-57546674D01*
X86015180Y-57525502D01*
X86125494Y-57466537D01*
X86222185Y-57387185D01*
X86301537Y-57290494D01*
X86360502Y-57180180D01*
X86396812Y-57060482D01*
X86409072Y-56936000D01*
X86409072Y-54936000D01*
X86396812Y-54811518D01*
X86360502Y-54691820D01*
X86301537Y-54581506D01*
X86222185Y-54484815D01*
X86125494Y-54405463D01*
X86078345Y-54380261D01*
X86137031Y-54308752D01*
X86288852Y-54024715D01*
X86382343Y-53716516D01*
X86413911Y-53396000D01*
X86382343Y-53075484D01*
X86288852Y-52767285D01*
X86137031Y-52483248D01*
X85932714Y-52234286D01*
X85683752Y-52029969D01*
X85399715Y-51878148D01*
X85091516Y-51784657D01*
X84851322Y-51761000D01*
X83690678Y-51761000D01*
X83450484Y-51784657D01*
X83142285Y-51878148D01*
X82858248Y-52029969D01*
X82609286Y-52234286D01*
X82404969Y-52483248D01*
X82253148Y-52767285D01*
X82159657Y-53075484D01*
X82128089Y-53396000D01*
X57508649Y-53396000D01*
X57312387Y-53102273D01*
X57225680Y-53015566D01*
X63638876Y-53015566D01*
X63758223Y-53269000D01*
X65602000Y-53269000D01*
X65602000Y-51761000D01*
X65856000Y-51761000D01*
X65856000Y-53269000D01*
X67699777Y-53269000D01*
X67819124Y-53015566D01*
X67788144Y-52887645D01*
X67659010Y-52593239D01*
X67474922Y-52329683D01*
X67242954Y-52107105D01*
X66972020Y-51934058D01*
X66672532Y-51817193D01*
X66356000Y-51761000D01*
X65856000Y-51761000D01*
X65602000Y-51761000D01*
X65102000Y-51761000D01*
X64785468Y-51817193D01*
X64485980Y-51934058D01*
X64215046Y-52107105D01*
X63983078Y-52329683D01*
X63798990Y-52593239D01*
X63669856Y-52887645D01*
X63638876Y-53015566D01*
X57225680Y-53015566D01*
X56897727Y-52687613D01*
X56410138Y-52361817D01*
X55868359Y-52137405D01*
X55293209Y-52023000D01*
X54706791Y-52023000D01*
X54131641Y-52137405D01*
X53589862Y-52361817D01*
X53102273Y-52687613D01*
X52687613Y-53102273D01*
X52361817Y-53589862D01*
X52137405Y-54131641D01*
X52023000Y-54706791D01*
X50688791Y-54706791D01*
X50731173Y-54231917D01*
X50934656Y-53488109D01*
X51266638Y-52792095D01*
X51716626Y-52165870D01*
X52270403Y-51629223D01*
X52910451Y-51199129D01*
X53616553Y-50889171D01*
X54371457Y-50707935D01*
X55024207Y-50660000D01*
X144970608Y-50660000D01*
X145768083Y-50731173D01*
G36*
X108965001Y-126171288D02*
G01*
X106896290Y-128240000D01*
X91035000Y-128240000D01*
X91035000Y-122885000D01*
X99471251Y-122885000D01*
X99668933Y-122966883D01*
X99888212Y-123010500D01*
X100111788Y-123010500D01*
X100331067Y-122966883D01*
X100467187Y-122910500D01*
X103073672Y-122910500D01*
X103124500Y-122915506D01*
X103175328Y-122910500D01*
X103175338Y-122910500D01*
X103327395Y-122895524D01*
X103522493Y-122836341D01*
X103702297Y-122740234D01*
X103859896Y-122610896D01*
X103892307Y-122571403D01*
X105401504Y-121062207D01*
X105467187Y-121035000D01*
X107489172Y-121035000D01*
X107540000Y-121040006D01*
X107590828Y-121035000D01*
X107590838Y-121035000D01*
X107742895Y-121020024D01*
X107937993Y-120960841D01*
X108117797Y-120864734D01*
X108275396Y-120735396D01*
X108307807Y-120695903D01*
X108965000Y-120038710D01*
X108965001Y-126171288D01*
X108965001Y-126171288D01*
G37*
X108965001Y-126171288D02*
X106896290Y-128240000D01*
X91035000Y-128240000D01*
X91035000Y-122885000D01*
X99471251Y-122885000D01*
X99668933Y-122966883D01*
X99888212Y-123010500D01*
X100111788Y-123010500D01*
X100331067Y-122966883D01*
X100467187Y-122910500D01*
X103073672Y-122910500D01*
X103124500Y-122915506D01*
X103175328Y-122910500D01*
X103175338Y-122910500D01*
X103327395Y-122895524D01*
X103522493Y-122836341D01*
X103702297Y-122740234D01*
X103859896Y-122610896D01*
X103892307Y-122571403D01*
X105401504Y-121062207D01*
X105467187Y-121035000D01*
X107489172Y-121035000D01*
X107540000Y-121040006D01*
X107590828Y-121035000D01*
X107590838Y-121035000D01*
X107742895Y-121020024D01*
X107937993Y-120960841D01*
X108117797Y-120864734D01*
X108275396Y-120735396D01*
X108307807Y-120695903D01*
X108965000Y-120038710D01*
X108965001Y-126171288D01*
G36*
X99631433Y-102028883D02*
G01*
X99850712Y-102072500D01*
X100074288Y-102072500D01*
X100293567Y-102028883D01*
X100429687Y-101972500D01*
X104381296Y-101972500D01*
X104449876Y-102018324D01*
X104656433Y-102103883D01*
X104875712Y-102147500D01*
X105099288Y-102147500D01*
X105318567Y-102103883D01*
X105525124Y-102018324D01*
X105593704Y-101972500D01*
X108965000Y-101972500D01*
X108965001Y-106971288D01*
X107696290Y-108240000D01*
X91035000Y-108240000D01*
X91035000Y-101972500D01*
X99495313Y-101972500D01*
X99631433Y-102028883D01*
X99631433Y-102028883D01*
G37*
X99631433Y-102028883D02*
X99850712Y-102072500D01*
X100074288Y-102072500D01*
X100293567Y-102028883D01*
X100429687Y-101972500D01*
X104381296Y-101972500D01*
X104449876Y-102018324D01*
X104656433Y-102103883D01*
X104875712Y-102147500D01*
X105099288Y-102147500D01*
X105318567Y-102103883D01*
X105525124Y-102018324D01*
X105593704Y-101972500D01*
X108965000Y-101972500D01*
X108965001Y-106971288D01*
X107696290Y-108240000D01*
X91035000Y-108240000D01*
X91035000Y-101972500D01*
X99495313Y-101972500D01*
X99631433Y-102028883D01*
G36*
X104990001Y-78546288D02*
G01*
X104623497Y-78912793D01*
X104487376Y-78969176D01*
X104301480Y-79093388D01*
X104143388Y-79251480D01*
X104019176Y-79437376D01*
X103933617Y-79643933D01*
X103890000Y-79863212D01*
X103890000Y-80086788D01*
X103933617Y-80306067D01*
X104019176Y-80512624D01*
X104143388Y-80698520D01*
X104301480Y-80856612D01*
X104487376Y-80980824D01*
X104551348Y-81007322D01*
X104462376Y-81044176D01*
X104276480Y-81168388D01*
X104118388Y-81326480D01*
X103994176Y-81512376D01*
X103908617Y-81718933D01*
X103865000Y-81938212D01*
X103865000Y-82161788D01*
X103908617Y-82381067D01*
X103965000Y-82517187D01*
X103965001Y-86115000D01*
X92175835Y-86115000D01*
X92125000Y-86109993D01*
X92074165Y-86115000D01*
X92074162Y-86115000D01*
X91922105Y-86129976D01*
X91727007Y-86189159D01*
X91695487Y-86206007D01*
X91547202Y-86285266D01*
X91429092Y-86382197D01*
X91389604Y-86414604D01*
X91357197Y-86454092D01*
X91035000Y-86776289D01*
X91035000Y-82135000D01*
X99786672Y-82135000D01*
X99837500Y-82140006D01*
X99888328Y-82135000D01*
X99888338Y-82135000D01*
X100040395Y-82120024D01*
X100235493Y-82060841D01*
X100274073Y-82040220D01*
X100331067Y-82028883D01*
X100537624Y-81943324D01*
X100723520Y-81819112D01*
X100881612Y-81661020D01*
X101005824Y-81475124D01*
X101091383Y-81268567D01*
X101135000Y-81049288D01*
X101135000Y-80825712D01*
X101091383Y-80606433D01*
X101005824Y-80399876D01*
X100881612Y-80213980D01*
X100723520Y-80055888D01*
X100639878Y-80000000D01*
X100723520Y-79944112D01*
X100881612Y-79786020D01*
X101005824Y-79600124D01*
X101091383Y-79393567D01*
X101135000Y-79174288D01*
X101135000Y-78950712D01*
X101091383Y-78731433D01*
X101035000Y-78595313D01*
X101035000Y-76828710D01*
X101828711Y-76035000D01*
X103507813Y-76035000D01*
X103643933Y-76091383D01*
X103863212Y-76135000D01*
X104086788Y-76135000D01*
X104306067Y-76091383D01*
X104512624Y-76005824D01*
X104698520Y-75881612D01*
X104856612Y-75723520D01*
X104980824Y-75537624D01*
X104990000Y-75515471D01*
X104990001Y-78546288D01*
X104990001Y-78546288D01*
G37*
X104990001Y-78546288D02*
X104623497Y-78912793D01*
X104487376Y-78969176D01*
X104301480Y-79093388D01*
X104143388Y-79251480D01*
X104019176Y-79437376D01*
X103933617Y-79643933D01*
X103890000Y-79863212D01*
X103890000Y-80086788D01*
X103933617Y-80306067D01*
X104019176Y-80512624D01*
X104143388Y-80698520D01*
X104301480Y-80856612D01*
X104487376Y-80980824D01*
X104551348Y-81007322D01*
X104462376Y-81044176D01*
X104276480Y-81168388D01*
X104118388Y-81326480D01*
X103994176Y-81512376D01*
X103908617Y-81718933D01*
X103865000Y-81938212D01*
X103865000Y-82161788D01*
X103908617Y-82381067D01*
X103965000Y-82517187D01*
X103965001Y-86115000D01*
X92175835Y-86115000D01*
X92125000Y-86109993D01*
X92074165Y-86115000D01*
X92074162Y-86115000D01*
X91922105Y-86129976D01*
X91727007Y-86189159D01*
X91695487Y-86206007D01*
X91547202Y-86285266D01*
X91429092Y-86382197D01*
X91389604Y-86414604D01*
X91357197Y-86454092D01*
X91035000Y-86776289D01*
X91035000Y-82135000D01*
X99786672Y-82135000D01*
X99837500Y-82140006D01*
X99888328Y-82135000D01*
X99888338Y-82135000D01*
X100040395Y-82120024D01*
X100235493Y-82060841D01*
X100274073Y-82040220D01*
X100331067Y-82028883D01*
X100537624Y-81943324D01*
X100723520Y-81819112D01*
X100881612Y-81661020D01*
X101005824Y-81475124D01*
X101091383Y-81268567D01*
X101135000Y-81049288D01*
X101135000Y-80825712D01*
X101091383Y-80606433D01*
X101005824Y-80399876D01*
X100881612Y-80213980D01*
X100723520Y-80055888D01*
X100639878Y-80000000D01*
X100723520Y-79944112D01*
X100881612Y-79786020D01*
X101005824Y-79600124D01*
X101091383Y-79393567D01*
X101135000Y-79174288D01*
X101135000Y-78950712D01*
X101091383Y-78731433D01*
X101035000Y-78595313D01*
X101035000Y-76828710D01*
X101828711Y-76035000D01*
X103507813Y-76035000D01*
X103643933Y-76091383D01*
X103863212Y-76135000D01*
X104086788Y-76135000D01*
X104306067Y-76091383D01*
X104512624Y-76005824D01*
X104698520Y-75881612D01*
X104856612Y-75723520D01*
X104980824Y-75537624D01*
X104990000Y-75515471D01*
X104990001Y-78546288D01*
M02*
