G04 #@! TF.GenerationSoftware,KiCad,Pcbnew,5.1.2-f72e74a~84~ubuntu18.04.1*
G04 #@! TF.CreationDate,2019-05-25T15:58:10+08:00*
G04 #@! TF.ProjectId,power-board-tryout,706f7765-722d-4626-9f61-72642d747279,rev?*
G04 #@! TF.SameCoordinates,Original*
G04 #@! TF.FileFunction,Soldermask,Top*
G04 #@! TF.FilePolarity,Negative*
%FSLAX46Y46*%
G04 Gerber Fmt 4.6, Leading zero omitted, Abs format (unit mm)*
G04 Created by KiCad (PCBNEW 5.1.2-f72e74a~84~ubuntu18.04.1) date 2019-05-25 15:58:10*
%MOMM*%
%LPD*%
G04 APERTURE LIST*
%ADD10C,1.200000*%
%ADD11C,0.100000*%
G04 APERTURE END LIST*
D10*
X56905000Y-55000000D02*
G75*
G03X56905000Y-55000000I-1905000J0D01*
G01*
X146905000Y-55000000D02*
G75*
G03X146905000Y-55000000I-1905000J0D01*
G01*
X56905000Y-145000000D02*
G75*
G03X56905000Y-145000000I-1905000J0D01*
G01*
X146905000Y-145000000D02*
G75*
G03X146905000Y-145000000I-1905000J0D01*
G01*
D11*
G36*
X145831313Y-142259523D02*
G01*
X146349980Y-142474362D01*
X146504871Y-142577857D01*
X146816769Y-142786260D01*
X147213740Y-143183231D01*
X147422143Y-143495129D01*
X147525638Y-143650020D01*
X147740477Y-144168687D01*
X147850000Y-144719298D01*
X147850000Y-145280702D01*
X147740477Y-145831313D01*
X147525638Y-146349980D01*
X147442791Y-146473969D01*
X147213740Y-146816769D01*
X146816769Y-147213740D01*
X146504871Y-147422143D01*
X146349980Y-147525638D01*
X145831313Y-147740477D01*
X145280702Y-147850000D01*
X144719298Y-147850000D01*
X144168687Y-147740477D01*
X143650020Y-147525638D01*
X143495129Y-147422143D01*
X143183231Y-147213740D01*
X142786260Y-146816769D01*
X142557209Y-146473969D01*
X142474362Y-146349980D01*
X142259523Y-145831313D01*
X142150000Y-145280702D01*
X142150000Y-144719298D01*
X142259523Y-144168687D01*
X142474362Y-143650020D01*
X142577857Y-143495129D01*
X142786260Y-143183231D01*
X143183231Y-142786260D01*
X143495129Y-142577857D01*
X143650020Y-142474362D01*
X144168687Y-142259523D01*
X144719298Y-142150000D01*
X145280702Y-142150000D01*
X145831313Y-142259523D01*
X145831313Y-142259523D01*
G37*
G36*
X55831313Y-142259523D02*
G01*
X56349980Y-142474362D01*
X56504871Y-142577857D01*
X56816769Y-142786260D01*
X57213740Y-143183231D01*
X57422143Y-143495129D01*
X57525638Y-143650020D01*
X57740477Y-144168687D01*
X57850000Y-144719298D01*
X57850000Y-145280702D01*
X57740477Y-145831313D01*
X57525638Y-146349980D01*
X57442791Y-146473969D01*
X57213740Y-146816769D01*
X56816769Y-147213740D01*
X56504871Y-147422143D01*
X56349980Y-147525638D01*
X55831313Y-147740477D01*
X55280702Y-147850000D01*
X54719298Y-147850000D01*
X54168687Y-147740477D01*
X53650020Y-147525638D01*
X53495129Y-147422143D01*
X53183231Y-147213740D01*
X52786260Y-146816769D01*
X52557209Y-146473969D01*
X52474362Y-146349980D01*
X52259523Y-145831313D01*
X52150000Y-145280702D01*
X52150000Y-144719298D01*
X52259523Y-144168687D01*
X52474362Y-143650020D01*
X52577857Y-143495129D01*
X52786260Y-143183231D01*
X53183231Y-142786260D01*
X53495129Y-142577857D01*
X53650020Y-142474362D01*
X54168687Y-142259523D01*
X54719298Y-142150000D01*
X55280702Y-142150000D01*
X55831313Y-142259523D01*
X55831313Y-142259523D01*
G37*
G36*
X82564499Y-145403445D02*
G01*
X82601995Y-145414820D01*
X82636554Y-145433292D01*
X82666847Y-145458153D01*
X82691708Y-145488446D01*
X82710180Y-145523005D01*
X82721555Y-145560501D01*
X82726000Y-145605638D01*
X82726000Y-146344362D01*
X82721555Y-146389499D01*
X82710180Y-146426995D01*
X82691708Y-146461554D01*
X82666847Y-146491847D01*
X82636554Y-146516708D01*
X82601995Y-146535180D01*
X82564499Y-146546555D01*
X82519362Y-146551000D01*
X81880638Y-146551000D01*
X81835501Y-146546555D01*
X81798005Y-146535180D01*
X81763446Y-146516708D01*
X81733153Y-146491847D01*
X81708292Y-146461554D01*
X81689820Y-146426995D01*
X81678445Y-146389499D01*
X81674000Y-146344362D01*
X81674000Y-145605638D01*
X81678445Y-145560501D01*
X81689820Y-145523005D01*
X81708292Y-145488446D01*
X81733153Y-145458153D01*
X81763446Y-145433292D01*
X81798005Y-145414820D01*
X81835501Y-145403445D01*
X81880638Y-145399000D01*
X82519362Y-145399000D01*
X82564499Y-145403445D01*
X82564499Y-145403445D01*
G37*
G36*
X84164499Y-145403445D02*
G01*
X84201995Y-145414820D01*
X84236554Y-145433292D01*
X84266847Y-145458153D01*
X84291708Y-145488446D01*
X84310180Y-145523005D01*
X84321555Y-145560501D01*
X84326000Y-145605638D01*
X84326000Y-146344362D01*
X84321555Y-146389499D01*
X84310180Y-146426995D01*
X84291708Y-146461554D01*
X84266847Y-146491847D01*
X84236554Y-146516708D01*
X84201995Y-146535180D01*
X84164499Y-146546555D01*
X84119362Y-146551000D01*
X83480638Y-146551000D01*
X83435501Y-146546555D01*
X83398005Y-146535180D01*
X83363446Y-146516708D01*
X83333153Y-146491847D01*
X83308292Y-146461554D01*
X83289820Y-146426995D01*
X83278445Y-146389499D01*
X83274000Y-146344362D01*
X83274000Y-145605638D01*
X83278445Y-145560501D01*
X83289820Y-145523005D01*
X83308292Y-145488446D01*
X83333153Y-145458153D01*
X83363446Y-145433292D01*
X83398005Y-145414820D01*
X83435501Y-145403445D01*
X83480638Y-145399000D01*
X84119362Y-145399000D01*
X84164499Y-145403445D01*
X84164499Y-145403445D01*
G37*
G36*
X87364499Y-145403445D02*
G01*
X87401995Y-145414820D01*
X87436554Y-145433292D01*
X87466847Y-145458153D01*
X87491708Y-145488446D01*
X87510180Y-145523005D01*
X87521555Y-145560501D01*
X87526000Y-145605638D01*
X87526000Y-146344362D01*
X87521555Y-146389499D01*
X87510180Y-146426995D01*
X87491708Y-146461554D01*
X87466847Y-146491847D01*
X87436554Y-146516708D01*
X87401995Y-146535180D01*
X87364499Y-146546555D01*
X87319362Y-146551000D01*
X86680638Y-146551000D01*
X86635501Y-146546555D01*
X86598005Y-146535180D01*
X86563446Y-146516708D01*
X86533153Y-146491847D01*
X86508292Y-146461554D01*
X86489820Y-146426995D01*
X86478445Y-146389499D01*
X86474000Y-146344362D01*
X86474000Y-145605638D01*
X86478445Y-145560501D01*
X86489820Y-145523005D01*
X86508292Y-145488446D01*
X86533153Y-145458153D01*
X86563446Y-145433292D01*
X86598005Y-145414820D01*
X86635501Y-145403445D01*
X86680638Y-145399000D01*
X87319362Y-145399000D01*
X87364499Y-145403445D01*
X87364499Y-145403445D01*
G37*
G36*
X85764499Y-145403445D02*
G01*
X85801995Y-145414820D01*
X85836554Y-145433292D01*
X85866847Y-145458153D01*
X85891708Y-145488446D01*
X85910180Y-145523005D01*
X85921555Y-145560501D01*
X85926000Y-145605638D01*
X85926000Y-146344362D01*
X85921555Y-146389499D01*
X85910180Y-146426995D01*
X85891708Y-146461554D01*
X85866847Y-146491847D01*
X85836554Y-146516708D01*
X85801995Y-146535180D01*
X85764499Y-146546555D01*
X85719362Y-146551000D01*
X85080638Y-146551000D01*
X85035501Y-146546555D01*
X84998005Y-146535180D01*
X84963446Y-146516708D01*
X84933153Y-146491847D01*
X84908292Y-146461554D01*
X84889820Y-146426995D01*
X84878445Y-146389499D01*
X84874000Y-146344362D01*
X84874000Y-145605638D01*
X84878445Y-145560501D01*
X84889820Y-145523005D01*
X84908292Y-145488446D01*
X84933153Y-145458153D01*
X84963446Y-145433292D01*
X84998005Y-145414820D01*
X85035501Y-145403445D01*
X85080638Y-145399000D01*
X85719362Y-145399000D01*
X85764499Y-145403445D01*
X85764499Y-145403445D01*
G37*
G36*
X88964499Y-145403445D02*
G01*
X89001995Y-145414820D01*
X89036554Y-145433292D01*
X89066847Y-145458153D01*
X89091708Y-145488446D01*
X89110180Y-145523005D01*
X89121555Y-145560501D01*
X89126000Y-145605638D01*
X89126000Y-146344362D01*
X89121555Y-146389499D01*
X89110180Y-146426995D01*
X89091708Y-146461554D01*
X89066847Y-146491847D01*
X89036554Y-146516708D01*
X89001995Y-146535180D01*
X88964499Y-146546555D01*
X88919362Y-146551000D01*
X88280638Y-146551000D01*
X88235501Y-146546555D01*
X88198005Y-146535180D01*
X88163446Y-146516708D01*
X88133153Y-146491847D01*
X88108292Y-146461554D01*
X88089820Y-146426995D01*
X88078445Y-146389499D01*
X88074000Y-146344362D01*
X88074000Y-145605638D01*
X88078445Y-145560501D01*
X88089820Y-145523005D01*
X88108292Y-145488446D01*
X88133153Y-145458153D01*
X88163446Y-145433292D01*
X88198005Y-145414820D01*
X88235501Y-145403445D01*
X88280638Y-145399000D01*
X88919362Y-145399000D01*
X88964499Y-145403445D01*
X88964499Y-145403445D01*
G37*
G36*
X87364499Y-143653445D02*
G01*
X87401995Y-143664820D01*
X87436554Y-143683292D01*
X87466847Y-143708153D01*
X87491708Y-143738446D01*
X87510180Y-143773005D01*
X87521555Y-143810501D01*
X87526000Y-143855638D01*
X87526000Y-144594362D01*
X87521555Y-144639499D01*
X87510180Y-144676995D01*
X87491708Y-144711554D01*
X87466847Y-144741847D01*
X87436554Y-144766708D01*
X87401995Y-144785180D01*
X87364499Y-144796555D01*
X87319362Y-144801000D01*
X86680638Y-144801000D01*
X86635501Y-144796555D01*
X86598005Y-144785180D01*
X86563446Y-144766708D01*
X86533153Y-144741847D01*
X86508292Y-144711554D01*
X86489820Y-144676995D01*
X86478445Y-144639499D01*
X86474000Y-144594362D01*
X86474000Y-143855638D01*
X86478445Y-143810501D01*
X86489820Y-143773005D01*
X86508292Y-143738446D01*
X86533153Y-143708153D01*
X86563446Y-143683292D01*
X86598005Y-143664820D01*
X86635501Y-143653445D01*
X86680638Y-143649000D01*
X87319362Y-143649000D01*
X87364499Y-143653445D01*
X87364499Y-143653445D01*
G37*
G36*
X82564499Y-143653445D02*
G01*
X82601995Y-143664820D01*
X82636554Y-143683292D01*
X82666847Y-143708153D01*
X82691708Y-143738446D01*
X82710180Y-143773005D01*
X82721555Y-143810501D01*
X82726000Y-143855638D01*
X82726000Y-144594362D01*
X82721555Y-144639499D01*
X82710180Y-144676995D01*
X82691708Y-144711554D01*
X82666847Y-144741847D01*
X82636554Y-144766708D01*
X82601995Y-144785180D01*
X82564499Y-144796555D01*
X82519362Y-144801000D01*
X81880638Y-144801000D01*
X81835501Y-144796555D01*
X81798005Y-144785180D01*
X81763446Y-144766708D01*
X81733153Y-144741847D01*
X81708292Y-144711554D01*
X81689820Y-144676995D01*
X81678445Y-144639499D01*
X81674000Y-144594362D01*
X81674000Y-143855638D01*
X81678445Y-143810501D01*
X81689820Y-143773005D01*
X81708292Y-143738446D01*
X81733153Y-143708153D01*
X81763446Y-143683292D01*
X81798005Y-143664820D01*
X81835501Y-143653445D01*
X81880638Y-143649000D01*
X82519362Y-143649000D01*
X82564499Y-143653445D01*
X82564499Y-143653445D01*
G37*
G36*
X84164499Y-143653445D02*
G01*
X84201995Y-143664820D01*
X84236554Y-143683292D01*
X84266847Y-143708153D01*
X84291708Y-143738446D01*
X84310180Y-143773005D01*
X84321555Y-143810501D01*
X84326000Y-143855638D01*
X84326000Y-144594362D01*
X84321555Y-144639499D01*
X84310180Y-144676995D01*
X84291708Y-144711554D01*
X84266847Y-144741847D01*
X84236554Y-144766708D01*
X84201995Y-144785180D01*
X84164499Y-144796555D01*
X84119362Y-144801000D01*
X83480638Y-144801000D01*
X83435501Y-144796555D01*
X83398005Y-144785180D01*
X83363446Y-144766708D01*
X83333153Y-144741847D01*
X83308292Y-144711554D01*
X83289820Y-144676995D01*
X83278445Y-144639499D01*
X83274000Y-144594362D01*
X83274000Y-143855638D01*
X83278445Y-143810501D01*
X83289820Y-143773005D01*
X83308292Y-143738446D01*
X83333153Y-143708153D01*
X83363446Y-143683292D01*
X83398005Y-143664820D01*
X83435501Y-143653445D01*
X83480638Y-143649000D01*
X84119362Y-143649000D01*
X84164499Y-143653445D01*
X84164499Y-143653445D01*
G37*
G36*
X88964499Y-143653445D02*
G01*
X89001995Y-143664820D01*
X89036554Y-143683292D01*
X89066847Y-143708153D01*
X89091708Y-143738446D01*
X89110180Y-143773005D01*
X89121555Y-143810501D01*
X89126000Y-143855638D01*
X89126000Y-144594362D01*
X89121555Y-144639499D01*
X89110180Y-144676995D01*
X89091708Y-144711554D01*
X89066847Y-144741847D01*
X89036554Y-144766708D01*
X89001995Y-144785180D01*
X88964499Y-144796555D01*
X88919362Y-144801000D01*
X88280638Y-144801000D01*
X88235501Y-144796555D01*
X88198005Y-144785180D01*
X88163446Y-144766708D01*
X88133153Y-144741847D01*
X88108292Y-144711554D01*
X88089820Y-144676995D01*
X88078445Y-144639499D01*
X88074000Y-144594362D01*
X88074000Y-143855638D01*
X88078445Y-143810501D01*
X88089820Y-143773005D01*
X88108292Y-143738446D01*
X88133153Y-143708153D01*
X88163446Y-143683292D01*
X88198005Y-143664820D01*
X88235501Y-143653445D01*
X88280638Y-143649000D01*
X88919362Y-143649000D01*
X88964499Y-143653445D01*
X88964499Y-143653445D01*
G37*
G36*
X85764499Y-143653445D02*
G01*
X85801995Y-143664820D01*
X85836554Y-143683292D01*
X85866847Y-143708153D01*
X85891708Y-143738446D01*
X85910180Y-143773005D01*
X85921555Y-143810501D01*
X85926000Y-143855638D01*
X85926000Y-144594362D01*
X85921555Y-144639499D01*
X85910180Y-144676995D01*
X85891708Y-144711554D01*
X85866847Y-144741847D01*
X85836554Y-144766708D01*
X85801995Y-144785180D01*
X85764499Y-144796555D01*
X85719362Y-144801000D01*
X85080638Y-144801000D01*
X85035501Y-144796555D01*
X84998005Y-144785180D01*
X84963446Y-144766708D01*
X84933153Y-144741847D01*
X84908292Y-144711554D01*
X84889820Y-144676995D01*
X84878445Y-144639499D01*
X84874000Y-144594362D01*
X84874000Y-143855638D01*
X84878445Y-143810501D01*
X84889820Y-143773005D01*
X84908292Y-143738446D01*
X84933153Y-143708153D01*
X84963446Y-143683292D01*
X84998005Y-143664820D01*
X85035501Y-143653445D01*
X85080638Y-143649000D01*
X85719362Y-143649000D01*
X85764499Y-143653445D01*
X85764499Y-143653445D01*
G37*
G36*
X70101000Y-144001000D02*
G01*
X62699000Y-144001000D01*
X62699000Y-141299000D01*
X70101000Y-141299000D01*
X70101000Y-144001000D01*
X70101000Y-144001000D01*
G37*
G36*
X87055999Y-142826000D02*
G01*
X86353999Y-142826000D01*
X86353999Y-141174000D01*
X87055999Y-141174000D01*
X87055999Y-142826000D01*
X87055999Y-142826000D01*
G37*
G36*
X83245999Y-142826000D02*
G01*
X82543999Y-142826000D01*
X82543999Y-141174000D01*
X83245999Y-141174000D01*
X83245999Y-142826000D01*
X83245999Y-142826000D01*
G37*
G36*
X84515999Y-142826000D02*
G01*
X83813999Y-142826000D01*
X83813999Y-141174000D01*
X84515999Y-141174000D01*
X84515999Y-142826000D01*
X84515999Y-142826000D01*
G37*
G36*
X85785999Y-142826000D02*
G01*
X85083999Y-142826000D01*
X85083999Y-141174000D01*
X85785999Y-141174000D01*
X85785999Y-142826000D01*
X85785999Y-142826000D01*
G37*
G36*
X89139499Y-141778444D02*
G01*
X89176995Y-141789819D01*
X89211554Y-141808291D01*
X89241847Y-141833152D01*
X89266708Y-141863445D01*
X89285180Y-141898004D01*
X89296555Y-141935500D01*
X89301000Y-141980637D01*
X89301000Y-142619361D01*
X89296555Y-142664498D01*
X89285180Y-142701994D01*
X89266708Y-142736553D01*
X89241847Y-142766846D01*
X89211554Y-142791707D01*
X89176995Y-142810179D01*
X89139499Y-142821554D01*
X89094362Y-142825999D01*
X88355638Y-142825999D01*
X88310501Y-142821554D01*
X88273005Y-142810179D01*
X88238446Y-142791707D01*
X88208153Y-142766846D01*
X88183292Y-142736553D01*
X88164820Y-142701994D01*
X88153445Y-142664498D01*
X88149000Y-142619361D01*
X88149000Y-141980637D01*
X88153445Y-141935500D01*
X88164820Y-141898004D01*
X88183292Y-141863445D01*
X88208153Y-141833152D01*
X88238446Y-141808291D01*
X88273005Y-141789819D01*
X88310501Y-141778444D01*
X88355638Y-141773999D01*
X89094362Y-141773999D01*
X89139499Y-141778444D01*
X89139499Y-141778444D01*
G37*
G36*
X90889499Y-141778444D02*
G01*
X90926995Y-141789819D01*
X90961554Y-141808291D01*
X90991847Y-141833152D01*
X91016708Y-141863445D01*
X91035180Y-141898004D01*
X91046555Y-141935500D01*
X91051000Y-141980637D01*
X91051000Y-142619361D01*
X91046555Y-142664498D01*
X91035180Y-142701994D01*
X91016708Y-142736553D01*
X90991847Y-142766846D01*
X90961554Y-142791707D01*
X90926995Y-142810179D01*
X90889499Y-142821554D01*
X90844362Y-142825999D01*
X90105638Y-142825999D01*
X90060501Y-142821554D01*
X90023005Y-142810179D01*
X89988446Y-142791707D01*
X89958153Y-142766846D01*
X89933292Y-142736553D01*
X89914820Y-142701994D01*
X89903445Y-142664498D01*
X89899000Y-142619361D01*
X89899000Y-141980637D01*
X89903445Y-141935500D01*
X89914820Y-141898004D01*
X89933292Y-141863445D01*
X89958153Y-141833152D01*
X89988446Y-141808291D01*
X90023005Y-141789819D01*
X90060501Y-141778444D01*
X90105638Y-141773999D01*
X90844362Y-141773999D01*
X90889499Y-141778444D01*
X90889499Y-141778444D01*
G37*
G36*
X96338674Y-140553465D02*
G01*
X96376367Y-140564899D01*
X96411103Y-140583466D01*
X96441548Y-140608452D01*
X96466534Y-140638897D01*
X96485101Y-140673633D01*
X96496535Y-140711326D01*
X96501000Y-140756661D01*
X96501000Y-141593339D01*
X96496535Y-141638674D01*
X96485101Y-141676367D01*
X96466534Y-141711103D01*
X96441548Y-141741548D01*
X96411103Y-141766534D01*
X96376367Y-141785101D01*
X96338674Y-141796535D01*
X96293339Y-141801000D01*
X95206661Y-141801000D01*
X95161326Y-141796535D01*
X95123633Y-141785101D01*
X95088897Y-141766534D01*
X95058452Y-141741548D01*
X95033466Y-141711103D01*
X95014899Y-141676367D01*
X95003465Y-141638674D01*
X94999000Y-141593339D01*
X94999000Y-140756661D01*
X95003465Y-140711326D01*
X95014899Y-140673633D01*
X95033466Y-140638897D01*
X95058452Y-140608452D01*
X95088897Y-140583466D01*
X95123633Y-140564899D01*
X95161326Y-140553465D01*
X95206661Y-140549000D01*
X96293339Y-140549000D01*
X96338674Y-140553465D01*
X96338674Y-140553465D01*
G37*
G36*
X87124999Y-140840000D02*
G01*
X82474999Y-140840000D01*
X82474999Y-137760000D01*
X87124999Y-137760000D01*
X87124999Y-140840000D01*
X87124999Y-140840000D01*
G37*
G36*
X81164499Y-139403445D02*
G01*
X81201995Y-139414820D01*
X81236554Y-139433292D01*
X81266847Y-139458153D01*
X81291708Y-139488446D01*
X81310180Y-139523005D01*
X81321555Y-139560501D01*
X81326000Y-139605638D01*
X81326000Y-140344362D01*
X81321555Y-140389499D01*
X81310180Y-140426995D01*
X81291708Y-140461554D01*
X81266847Y-140491847D01*
X81236554Y-140516708D01*
X81201995Y-140535180D01*
X81164499Y-140546555D01*
X81119362Y-140551000D01*
X80480638Y-140551000D01*
X80435501Y-140546555D01*
X80398005Y-140535180D01*
X80363446Y-140516708D01*
X80333153Y-140491847D01*
X80308292Y-140461554D01*
X80289820Y-140426995D01*
X80278445Y-140389499D01*
X80274000Y-140344362D01*
X80274000Y-139605638D01*
X80278445Y-139560501D01*
X80289820Y-139523005D01*
X80308292Y-139488446D01*
X80333153Y-139458153D01*
X80363446Y-139433292D01*
X80398005Y-139414820D01*
X80435501Y-139403445D01*
X80480638Y-139399000D01*
X81119362Y-139399000D01*
X81164499Y-139403445D01*
X81164499Y-139403445D01*
G37*
G36*
X78451000Y-140451000D02*
G01*
X77149000Y-140451000D01*
X77149000Y-139449000D01*
X78451000Y-139449000D01*
X78451000Y-140451000D01*
X78451000Y-140451000D01*
G37*
G36*
X96338674Y-138503465D02*
G01*
X96376367Y-138514899D01*
X96411103Y-138533466D01*
X96441548Y-138558452D01*
X96466534Y-138588897D01*
X96485101Y-138623633D01*
X96496535Y-138661326D01*
X96501000Y-138706661D01*
X96501000Y-139543339D01*
X96496535Y-139588674D01*
X96485101Y-139626367D01*
X96466534Y-139661103D01*
X96441548Y-139691548D01*
X96411103Y-139716534D01*
X96376367Y-139735101D01*
X96338674Y-139746535D01*
X96293339Y-139751000D01*
X95206661Y-139751000D01*
X95161326Y-139746535D01*
X95123633Y-139735101D01*
X95088897Y-139716534D01*
X95058452Y-139691548D01*
X95033466Y-139661103D01*
X95014899Y-139626367D01*
X95003465Y-139588674D01*
X94999000Y-139543339D01*
X94999000Y-138706661D01*
X95003465Y-138661326D01*
X95014899Y-138623633D01*
X95033466Y-138588897D01*
X95058452Y-138558452D01*
X95088897Y-138533466D01*
X95123633Y-138514899D01*
X95161326Y-138503465D01*
X95206661Y-138499000D01*
X96293339Y-138499000D01*
X96338674Y-138503465D01*
X96338674Y-138503465D01*
G37*
G36*
X100510442Y-137845518D02*
G01*
X100576627Y-137852037D01*
X100746466Y-137903557D01*
X100902991Y-137987222D01*
X100938729Y-138016552D01*
X101040186Y-138099814D01*
X101123448Y-138201271D01*
X101152778Y-138237009D01*
X101236443Y-138393534D01*
X101287963Y-138563373D01*
X101305359Y-138740000D01*
X101287963Y-138916627D01*
X101236443Y-139086466D01*
X101152778Y-139242991D01*
X101123448Y-139278729D01*
X101040186Y-139380186D01*
X100938729Y-139463448D01*
X100902991Y-139492778D01*
X100746466Y-139576443D01*
X100576627Y-139627963D01*
X100510442Y-139634482D01*
X100444260Y-139641000D01*
X100355740Y-139641000D01*
X100289558Y-139634482D01*
X100223373Y-139627963D01*
X100053534Y-139576443D01*
X99897009Y-139492778D01*
X99861271Y-139463448D01*
X99759814Y-139380186D01*
X99676552Y-139278729D01*
X99647222Y-139242991D01*
X99563557Y-139086466D01*
X99512037Y-138916627D01*
X99494641Y-138740000D01*
X99512037Y-138563373D01*
X99563557Y-138393534D01*
X99647222Y-138237009D01*
X99676552Y-138201271D01*
X99759814Y-138099814D01*
X99861271Y-138016552D01*
X99897009Y-137987222D01*
X100053534Y-137903557D01*
X100223373Y-137852037D01*
X100289558Y-137845518D01*
X100355740Y-137839000D01*
X100444260Y-137839000D01*
X100510442Y-137845518D01*
X100510442Y-137845518D01*
G37*
G36*
X70101000Y-139301000D02*
G01*
X62699000Y-139301000D01*
X62699000Y-136599000D01*
X70101000Y-136599000D01*
X70101000Y-139301000D01*
X70101000Y-139301000D01*
G37*
G36*
X81164499Y-137653445D02*
G01*
X81201995Y-137664820D01*
X81236554Y-137683292D01*
X81266847Y-137708153D01*
X81291708Y-137738446D01*
X81310180Y-137773005D01*
X81321555Y-137810501D01*
X81326000Y-137855638D01*
X81326000Y-138594362D01*
X81321555Y-138639499D01*
X81310180Y-138676995D01*
X81291708Y-138711554D01*
X81266847Y-138741847D01*
X81236554Y-138766708D01*
X81201995Y-138785180D01*
X81164499Y-138796555D01*
X81119362Y-138801000D01*
X80480638Y-138801000D01*
X80435501Y-138796555D01*
X80398005Y-138785180D01*
X80363446Y-138766708D01*
X80333153Y-138741847D01*
X80308292Y-138711554D01*
X80289820Y-138676995D01*
X80278445Y-138639499D01*
X80274000Y-138594362D01*
X80274000Y-137855638D01*
X80278445Y-137810501D01*
X80289820Y-137773005D01*
X80308292Y-137738446D01*
X80333153Y-137708153D01*
X80363446Y-137683292D01*
X80398005Y-137664820D01*
X80435501Y-137653445D01*
X80480638Y-137649000D01*
X81119362Y-137649000D01*
X81164499Y-137653445D01*
X81164499Y-137653445D01*
G37*
G36*
X73238674Y-135953465D02*
G01*
X73276367Y-135964899D01*
X73311103Y-135983466D01*
X73341548Y-136008452D01*
X73366534Y-136038897D01*
X73385101Y-136073633D01*
X73396535Y-136111326D01*
X73401000Y-136156661D01*
X73401000Y-137243339D01*
X73396535Y-137288674D01*
X73385101Y-137326367D01*
X73366534Y-137361103D01*
X73341548Y-137391548D01*
X73311103Y-137416534D01*
X73276367Y-137435101D01*
X73238674Y-137446535D01*
X73193339Y-137451000D01*
X72356661Y-137451000D01*
X72311326Y-137446535D01*
X72273633Y-137435101D01*
X72238897Y-137416534D01*
X72208452Y-137391548D01*
X72183466Y-137361103D01*
X72164899Y-137326367D01*
X72153465Y-137288674D01*
X72149000Y-137243339D01*
X72149000Y-136156661D01*
X72153465Y-136111326D01*
X72164899Y-136073633D01*
X72183466Y-136038897D01*
X72208452Y-136008452D01*
X72238897Y-135983466D01*
X72273633Y-135964899D01*
X72311326Y-135953465D01*
X72356661Y-135949000D01*
X73193339Y-135949000D01*
X73238674Y-135953465D01*
X73238674Y-135953465D01*
G37*
G36*
X75288674Y-135953465D02*
G01*
X75326367Y-135964899D01*
X75361103Y-135983466D01*
X75391548Y-136008452D01*
X75416534Y-136038897D01*
X75435101Y-136073633D01*
X75446535Y-136111326D01*
X75451000Y-136156661D01*
X75451000Y-137243339D01*
X75446535Y-137288674D01*
X75435101Y-137326367D01*
X75416534Y-137361103D01*
X75391548Y-137391548D01*
X75361103Y-137416534D01*
X75326367Y-137435101D01*
X75288674Y-137446535D01*
X75243339Y-137451000D01*
X74406661Y-137451000D01*
X74361326Y-137446535D01*
X74323633Y-137435101D01*
X74288897Y-137416534D01*
X74258452Y-137391548D01*
X74233466Y-137361103D01*
X74214899Y-137326367D01*
X74203465Y-137288674D01*
X74199000Y-137243339D01*
X74199000Y-136156661D01*
X74203465Y-136111326D01*
X74214899Y-136073633D01*
X74233466Y-136038897D01*
X74258452Y-136008452D01*
X74288897Y-135983466D01*
X74323633Y-135964899D01*
X74361326Y-135953465D01*
X74406661Y-135949000D01*
X75243339Y-135949000D01*
X75288674Y-135953465D01*
X75288674Y-135953465D01*
G37*
G36*
X85785999Y-137426000D02*
G01*
X85083999Y-137426000D01*
X85083999Y-135774000D01*
X85785999Y-135774000D01*
X85785999Y-137426000D01*
X85785999Y-137426000D01*
G37*
G36*
X84515999Y-137426000D02*
G01*
X83813999Y-137426000D01*
X83813999Y-135774000D01*
X84515999Y-135774000D01*
X84515999Y-137426000D01*
X84515999Y-137426000D01*
G37*
G36*
X87055999Y-137426000D02*
G01*
X86353999Y-137426000D01*
X86353999Y-135774000D01*
X87055999Y-135774000D01*
X87055999Y-137426000D01*
X87055999Y-137426000D01*
G37*
G36*
X83245999Y-137426000D02*
G01*
X82543999Y-137426000D01*
X82543999Y-135774000D01*
X83245999Y-135774000D01*
X83245999Y-137426000D01*
X83245999Y-137426000D01*
G37*
G36*
X78451000Y-137151000D02*
G01*
X77149000Y-137151000D01*
X77149000Y-136149000D01*
X78451000Y-136149000D01*
X78451000Y-137151000D01*
X78451000Y-137151000D01*
G37*
G36*
X101301000Y-137101000D02*
G01*
X99499000Y-137101000D01*
X99499000Y-135299000D01*
X101301000Y-135299000D01*
X101301000Y-137101000D01*
X101301000Y-137101000D01*
G37*
G36*
X57510443Y-135245519D02*
G01*
X57576627Y-135252037D01*
X57746466Y-135303557D01*
X57902991Y-135387222D01*
X57938729Y-135416552D01*
X58040186Y-135499814D01*
X58123448Y-135601271D01*
X58152778Y-135637009D01*
X58236443Y-135793534D01*
X58287963Y-135963373D01*
X58305359Y-136140000D01*
X58287963Y-136316627D01*
X58236443Y-136486466D01*
X58152778Y-136642991D01*
X58123448Y-136678729D01*
X58040186Y-136780186D01*
X57977857Y-136831337D01*
X57902991Y-136892778D01*
X57746466Y-136976443D01*
X57576627Y-137027963D01*
X57510442Y-137034482D01*
X57444260Y-137041000D01*
X57355740Y-137041000D01*
X57289558Y-137034482D01*
X57223373Y-137027963D01*
X57053534Y-136976443D01*
X56897009Y-136892778D01*
X56822143Y-136831337D01*
X56759814Y-136780186D01*
X56676552Y-136678729D01*
X56647222Y-136642991D01*
X56563557Y-136486466D01*
X56512037Y-136316627D01*
X56494641Y-136140000D01*
X56512037Y-135963373D01*
X56563557Y-135793534D01*
X56647222Y-135637009D01*
X56676552Y-135601271D01*
X56759814Y-135499814D01*
X56861271Y-135416552D01*
X56897009Y-135387222D01*
X57053534Y-135303557D01*
X57223373Y-135252037D01*
X57289557Y-135245519D01*
X57355740Y-135239000D01*
X57444260Y-135239000D01*
X57510443Y-135245519D01*
X57510443Y-135245519D01*
G37*
G36*
X95334468Y-135453565D02*
G01*
X95373138Y-135465296D01*
X95408777Y-135484346D01*
X95440017Y-135509983D01*
X95465654Y-135541223D01*
X95484704Y-135576862D01*
X95496435Y-135615532D01*
X95501000Y-135661888D01*
X95501000Y-136738112D01*
X95496435Y-136784468D01*
X95484704Y-136823138D01*
X95465654Y-136858777D01*
X95440017Y-136890017D01*
X95408777Y-136915654D01*
X95373138Y-136934704D01*
X95334468Y-136946435D01*
X95288112Y-136951000D01*
X94636888Y-136951000D01*
X94590532Y-136946435D01*
X94551862Y-136934704D01*
X94516223Y-136915654D01*
X94484983Y-136890017D01*
X94459346Y-136858777D01*
X94440296Y-136823138D01*
X94428565Y-136784468D01*
X94424000Y-136738112D01*
X94424000Y-135661888D01*
X94428565Y-135615532D01*
X94440296Y-135576862D01*
X94459346Y-135541223D01*
X94484983Y-135509983D01*
X94516223Y-135484346D01*
X94551862Y-135465296D01*
X94590532Y-135453565D01*
X94636888Y-135449000D01*
X95288112Y-135449000D01*
X95334468Y-135453565D01*
X95334468Y-135453565D01*
G37*
G36*
X97209468Y-135453565D02*
G01*
X97248138Y-135465296D01*
X97283777Y-135484346D01*
X97315017Y-135509983D01*
X97340654Y-135541223D01*
X97359704Y-135576862D01*
X97371435Y-135615532D01*
X97376000Y-135661888D01*
X97376000Y-136738112D01*
X97371435Y-136784468D01*
X97359704Y-136823138D01*
X97340654Y-136858777D01*
X97315017Y-136890017D01*
X97283777Y-136915654D01*
X97248138Y-136934704D01*
X97209468Y-136946435D01*
X97163112Y-136951000D01*
X96511888Y-136951000D01*
X96465532Y-136946435D01*
X96426862Y-136934704D01*
X96391223Y-136915654D01*
X96359983Y-136890017D01*
X96334346Y-136858777D01*
X96315296Y-136823138D01*
X96303565Y-136784468D01*
X96299000Y-136738112D01*
X96299000Y-135661888D01*
X96303565Y-135615532D01*
X96315296Y-135576862D01*
X96334346Y-135541223D01*
X96359983Y-135509983D01*
X96391223Y-135484346D01*
X96426862Y-135465296D01*
X96465532Y-135453565D01*
X96511888Y-135449000D01*
X97163112Y-135449000D01*
X97209468Y-135453565D01*
X97209468Y-135453565D01*
G37*
G36*
X75288674Y-133553465D02*
G01*
X75326367Y-133564899D01*
X75361103Y-133583466D01*
X75391548Y-133608452D01*
X75416534Y-133638897D01*
X75435101Y-133673633D01*
X75446535Y-133711326D01*
X75451000Y-133756661D01*
X75451000Y-134843339D01*
X75446535Y-134888674D01*
X75435101Y-134926367D01*
X75416534Y-134961103D01*
X75391548Y-134991548D01*
X75361103Y-135016534D01*
X75326367Y-135035101D01*
X75288674Y-135046535D01*
X75243339Y-135051000D01*
X74406661Y-135051000D01*
X74361326Y-135046535D01*
X74323633Y-135035101D01*
X74288897Y-135016534D01*
X74258452Y-134991548D01*
X74233466Y-134961103D01*
X74214899Y-134926367D01*
X74203465Y-134888674D01*
X74199000Y-134843339D01*
X74199000Y-133756661D01*
X74203465Y-133711326D01*
X74214899Y-133673633D01*
X74233466Y-133638897D01*
X74258452Y-133608452D01*
X74288897Y-133583466D01*
X74323633Y-133564899D01*
X74361326Y-133553465D01*
X74406661Y-133549000D01*
X75243339Y-133549000D01*
X75288674Y-133553465D01*
X75288674Y-133553465D01*
G37*
G36*
X73238674Y-133553465D02*
G01*
X73276367Y-133564899D01*
X73311103Y-133583466D01*
X73341548Y-133608452D01*
X73366534Y-133638897D01*
X73385101Y-133673633D01*
X73396535Y-133711326D01*
X73401000Y-133756661D01*
X73401000Y-134843339D01*
X73396535Y-134888674D01*
X73385101Y-134926367D01*
X73366534Y-134961103D01*
X73341548Y-134991548D01*
X73311103Y-135016534D01*
X73276367Y-135035101D01*
X73238674Y-135046535D01*
X73193339Y-135051000D01*
X72356661Y-135051000D01*
X72311326Y-135046535D01*
X72273633Y-135035101D01*
X72238897Y-135016534D01*
X72208452Y-134991548D01*
X72183466Y-134961103D01*
X72164899Y-134926367D01*
X72153465Y-134888674D01*
X72149000Y-134843339D01*
X72149000Y-133756661D01*
X72153465Y-133711326D01*
X72164899Y-133673633D01*
X72183466Y-133638897D01*
X72208452Y-133608452D01*
X72238897Y-133583466D01*
X72273633Y-133564899D01*
X72311326Y-133553465D01*
X72356661Y-133549000D01*
X73193339Y-133549000D01*
X73238674Y-133553465D01*
X73238674Y-133553465D01*
G37*
G36*
X58301000Y-134501000D02*
G01*
X56499000Y-134501000D01*
X56499000Y-132699000D01*
X58301000Y-132699000D01*
X58301000Y-134501000D01*
X58301000Y-134501000D01*
G37*
G36*
X84088673Y-132953465D02*
G01*
X84126366Y-132964899D01*
X84161102Y-132983466D01*
X84191547Y-133008452D01*
X84216533Y-133038897D01*
X84235100Y-133073633D01*
X84246534Y-133111326D01*
X84250999Y-133156661D01*
X84250999Y-134243339D01*
X84246534Y-134288674D01*
X84235100Y-134326367D01*
X84216533Y-134361103D01*
X84191547Y-134391548D01*
X84161102Y-134416534D01*
X84126366Y-134435101D01*
X84088673Y-134446535D01*
X84043338Y-134451000D01*
X83206660Y-134451000D01*
X83161325Y-134446535D01*
X83123632Y-134435101D01*
X83088896Y-134416534D01*
X83058451Y-134391548D01*
X83033465Y-134361103D01*
X83014898Y-134326367D01*
X83003464Y-134288674D01*
X82998999Y-134243339D01*
X82998999Y-133156661D01*
X83003464Y-133111326D01*
X83014898Y-133073633D01*
X83033465Y-133038897D01*
X83058451Y-133008452D01*
X83088896Y-132983466D01*
X83123632Y-132964899D01*
X83161325Y-132953465D01*
X83206660Y-132949000D01*
X84043338Y-132949000D01*
X84088673Y-132953465D01*
X84088673Y-132953465D01*
G37*
G36*
X82038673Y-132953465D02*
G01*
X82076366Y-132964899D01*
X82111102Y-132983466D01*
X82141547Y-133008452D01*
X82166533Y-133038897D01*
X82185100Y-133073633D01*
X82196534Y-133111326D01*
X82200999Y-133156661D01*
X82200999Y-134243339D01*
X82196534Y-134288674D01*
X82185100Y-134326367D01*
X82166533Y-134361103D01*
X82141547Y-134391548D01*
X82111102Y-134416534D01*
X82076366Y-134435101D01*
X82038673Y-134446535D01*
X81993338Y-134451000D01*
X81156660Y-134451000D01*
X81111325Y-134446535D01*
X81073632Y-134435101D01*
X81038896Y-134416534D01*
X81008451Y-134391548D01*
X80983465Y-134361103D01*
X80964898Y-134326367D01*
X80953464Y-134288674D01*
X80948999Y-134243339D01*
X80948999Y-133156661D01*
X80953464Y-133111326D01*
X80964898Y-133073633D01*
X80983465Y-133038897D01*
X81008451Y-133008452D01*
X81038896Y-132983466D01*
X81073632Y-132964899D01*
X81111325Y-132953465D01*
X81156660Y-132949000D01*
X81993338Y-132949000D01*
X82038673Y-132953465D01*
X82038673Y-132953465D01*
G37*
G36*
X88289499Y-133378445D02*
G01*
X88326995Y-133389820D01*
X88361554Y-133408292D01*
X88391847Y-133433153D01*
X88416708Y-133463446D01*
X88435180Y-133498005D01*
X88446555Y-133535501D01*
X88451000Y-133580638D01*
X88451000Y-134219362D01*
X88446555Y-134264499D01*
X88435180Y-134301995D01*
X88416708Y-134336554D01*
X88391847Y-134366847D01*
X88361554Y-134391708D01*
X88326995Y-134410180D01*
X88289499Y-134421555D01*
X88244362Y-134426000D01*
X87505638Y-134426000D01*
X87460501Y-134421555D01*
X87423005Y-134410180D01*
X87388446Y-134391708D01*
X87358153Y-134366847D01*
X87333292Y-134336554D01*
X87314820Y-134301995D01*
X87303445Y-134264499D01*
X87299000Y-134219362D01*
X87299000Y-133580638D01*
X87303445Y-133535501D01*
X87314820Y-133498005D01*
X87333292Y-133463446D01*
X87358153Y-133433153D01*
X87388446Y-133408292D01*
X87423005Y-133389820D01*
X87460501Y-133378445D01*
X87505638Y-133374000D01*
X88244362Y-133374000D01*
X88289499Y-133378445D01*
X88289499Y-133378445D01*
G37*
G36*
X86539499Y-133378445D02*
G01*
X86576995Y-133389820D01*
X86611554Y-133408292D01*
X86641847Y-133433153D01*
X86666708Y-133463446D01*
X86685180Y-133498005D01*
X86696555Y-133535501D01*
X86701000Y-133580638D01*
X86701000Y-134219362D01*
X86696555Y-134264499D01*
X86685180Y-134301995D01*
X86666708Y-134336554D01*
X86641847Y-134366847D01*
X86611554Y-134391708D01*
X86576995Y-134410180D01*
X86539499Y-134421555D01*
X86494362Y-134426000D01*
X85755638Y-134426000D01*
X85710501Y-134421555D01*
X85673005Y-134410180D01*
X85638446Y-134391708D01*
X85608153Y-134366847D01*
X85583292Y-134336554D01*
X85564820Y-134301995D01*
X85553445Y-134264499D01*
X85549000Y-134219362D01*
X85549000Y-133580638D01*
X85553445Y-133535501D01*
X85564820Y-133498005D01*
X85583292Y-133463446D01*
X85608153Y-133433153D01*
X85638446Y-133408292D01*
X85673005Y-133389820D01*
X85710501Y-133378445D01*
X85755638Y-133374000D01*
X86494362Y-133374000D01*
X86539499Y-133378445D01*
X86539499Y-133378445D01*
G37*
G36*
X67280000Y-127655000D02*
G01*
X64178000Y-127655000D01*
X64178000Y-125553000D01*
X67280000Y-125553000D01*
X67280000Y-127655000D01*
X67280000Y-127655000D01*
G37*
G36*
X85822000Y-127655000D02*
G01*
X82720000Y-127655000D01*
X82720000Y-125553000D01*
X85822000Y-125553000D01*
X85822000Y-127655000D01*
X85822000Y-127655000D01*
G37*
G36*
X66332097Y-123018069D02*
G01*
X66435032Y-123028207D01*
X66633146Y-123088305D01*
X66633149Y-123088306D01*
X66729975Y-123140061D01*
X66815729Y-123185897D01*
X66975765Y-123317235D01*
X67107103Y-123477271D01*
X67152939Y-123563025D01*
X67204694Y-123659851D01*
X67204695Y-123659854D01*
X67264793Y-123857968D01*
X67285085Y-124064000D01*
X67264793Y-124270032D01*
X67204695Y-124468146D01*
X67204694Y-124468149D01*
X67152939Y-124564975D01*
X67107103Y-124650729D01*
X66975765Y-124810765D01*
X66815729Y-124942103D01*
X66729975Y-124987939D01*
X66633149Y-125039694D01*
X66633146Y-125039695D01*
X66435032Y-125099793D01*
X66332097Y-125109931D01*
X66280631Y-125115000D01*
X65177369Y-125115000D01*
X65125903Y-125109931D01*
X65022968Y-125099793D01*
X64824854Y-125039695D01*
X64824851Y-125039694D01*
X64728025Y-124987939D01*
X64642271Y-124942103D01*
X64482235Y-124810765D01*
X64350897Y-124650729D01*
X64305061Y-124564975D01*
X64253306Y-124468149D01*
X64253305Y-124468146D01*
X64193207Y-124270032D01*
X64172915Y-124064000D01*
X64193207Y-123857968D01*
X64253305Y-123659854D01*
X64253306Y-123659851D01*
X64305061Y-123563025D01*
X64350897Y-123477271D01*
X64482235Y-123317235D01*
X64642271Y-123185897D01*
X64728025Y-123140061D01*
X64824851Y-123088306D01*
X64824854Y-123088305D01*
X65022968Y-123028207D01*
X65125903Y-123018069D01*
X65177369Y-123013000D01*
X66280631Y-123013000D01*
X66332097Y-123018069D01*
X66332097Y-123018069D01*
G37*
G36*
X84874097Y-123018069D02*
G01*
X84977032Y-123028207D01*
X85175146Y-123088305D01*
X85175149Y-123088306D01*
X85271975Y-123140061D01*
X85357729Y-123185897D01*
X85517765Y-123317235D01*
X85649103Y-123477271D01*
X85694939Y-123563025D01*
X85746694Y-123659851D01*
X85746695Y-123659854D01*
X85806793Y-123857968D01*
X85827085Y-124064000D01*
X85806793Y-124270032D01*
X85746695Y-124468146D01*
X85746694Y-124468149D01*
X85694939Y-124564975D01*
X85649103Y-124650729D01*
X85517765Y-124810765D01*
X85357729Y-124942103D01*
X85271975Y-124987939D01*
X85175149Y-125039694D01*
X85175146Y-125039695D01*
X84977032Y-125099793D01*
X84874097Y-125109931D01*
X84822631Y-125115000D01*
X83719369Y-125115000D01*
X83667903Y-125109931D01*
X83564968Y-125099793D01*
X83366854Y-125039695D01*
X83366851Y-125039694D01*
X83270025Y-124987939D01*
X83184271Y-124942103D01*
X83024235Y-124810765D01*
X82892897Y-124650729D01*
X82847061Y-124564975D01*
X82795306Y-124468149D01*
X82795305Y-124468146D01*
X82735207Y-124270032D01*
X82714915Y-124064000D01*
X82735207Y-123857968D01*
X82795305Y-123659854D01*
X82795306Y-123659851D01*
X82847061Y-123563025D01*
X82892897Y-123477271D01*
X83024235Y-123317235D01*
X83184271Y-123185897D01*
X83270025Y-123140061D01*
X83366851Y-123088306D01*
X83366854Y-123088305D01*
X83564968Y-123028207D01*
X83667903Y-123018069D01*
X83719369Y-123013000D01*
X84822631Y-123013000D01*
X84874097Y-123018069D01*
X84874097Y-123018069D01*
G37*
G36*
X100584468Y-121341565D02*
G01*
X100623138Y-121353296D01*
X100658777Y-121372346D01*
X100690017Y-121397983D01*
X100715654Y-121429223D01*
X100734704Y-121464862D01*
X100746435Y-121503532D01*
X100751000Y-121549888D01*
X100751000Y-122201112D01*
X100746435Y-122247468D01*
X100734704Y-122286138D01*
X100715654Y-122321777D01*
X100690017Y-122353017D01*
X100658777Y-122378654D01*
X100623138Y-122397704D01*
X100584468Y-122409435D01*
X100538112Y-122414000D01*
X99461888Y-122414000D01*
X99415532Y-122409435D01*
X99376862Y-122397704D01*
X99341223Y-122378654D01*
X99309983Y-122353017D01*
X99284346Y-122321777D01*
X99265296Y-122286138D01*
X99253565Y-122247468D01*
X99249000Y-122201112D01*
X99249000Y-121549888D01*
X99253565Y-121503532D01*
X99265296Y-121464862D01*
X99284346Y-121429223D01*
X99309983Y-121397983D01*
X99341223Y-121372346D01*
X99376862Y-121353296D01*
X99415532Y-121341565D01*
X99461888Y-121337000D01*
X100538112Y-121337000D01*
X100584468Y-121341565D01*
X100584468Y-121341565D01*
G37*
G36*
X105588674Y-119378465D02*
G01*
X105626367Y-119389899D01*
X105661103Y-119408466D01*
X105691548Y-119433452D01*
X105716534Y-119463897D01*
X105735101Y-119498633D01*
X105746535Y-119536326D01*
X105751000Y-119581661D01*
X105751000Y-120418339D01*
X105746535Y-120463674D01*
X105735101Y-120501367D01*
X105716534Y-120536103D01*
X105691548Y-120566548D01*
X105661103Y-120591534D01*
X105626367Y-120610101D01*
X105588674Y-120621535D01*
X105543339Y-120626000D01*
X104456661Y-120626000D01*
X104411326Y-120621535D01*
X104373633Y-120610101D01*
X104338897Y-120591534D01*
X104308452Y-120566548D01*
X104283466Y-120536103D01*
X104264899Y-120501367D01*
X104253465Y-120463674D01*
X104249000Y-120418339D01*
X104249000Y-119581661D01*
X104253465Y-119536326D01*
X104264899Y-119498633D01*
X104283466Y-119463897D01*
X104308452Y-119433452D01*
X104338897Y-119408466D01*
X104373633Y-119389899D01*
X104411326Y-119378465D01*
X104456661Y-119374000D01*
X105543339Y-119374000D01*
X105588674Y-119378465D01*
X105588674Y-119378465D01*
G37*
G36*
X100584468Y-119466565D02*
G01*
X100623138Y-119478296D01*
X100658777Y-119497346D01*
X100690017Y-119522983D01*
X100715654Y-119554223D01*
X100734704Y-119589862D01*
X100746435Y-119628532D01*
X100751000Y-119674888D01*
X100751000Y-120326112D01*
X100746435Y-120372468D01*
X100734704Y-120411138D01*
X100715654Y-120446777D01*
X100690017Y-120478017D01*
X100658777Y-120503654D01*
X100623138Y-120522704D01*
X100584468Y-120534435D01*
X100538112Y-120539000D01*
X99461888Y-120539000D01*
X99415532Y-120534435D01*
X99376862Y-120522704D01*
X99341223Y-120503654D01*
X99309983Y-120478017D01*
X99284346Y-120446777D01*
X99265296Y-120411138D01*
X99253565Y-120372468D01*
X99249000Y-120326112D01*
X99249000Y-119674888D01*
X99253565Y-119628532D01*
X99265296Y-119589862D01*
X99284346Y-119554223D01*
X99309983Y-119522983D01*
X99341223Y-119497346D01*
X99376862Y-119478296D01*
X99415532Y-119466565D01*
X99461888Y-119462000D01*
X100538112Y-119462000D01*
X100584468Y-119466565D01*
X100584468Y-119466565D01*
G37*
G36*
X105588674Y-117328465D02*
G01*
X105626367Y-117339899D01*
X105661103Y-117358466D01*
X105691548Y-117383452D01*
X105716534Y-117413897D01*
X105735101Y-117448633D01*
X105746535Y-117486326D01*
X105751000Y-117531661D01*
X105751000Y-118368339D01*
X105746535Y-118413674D01*
X105735101Y-118451367D01*
X105716534Y-118486103D01*
X105691548Y-118516548D01*
X105661103Y-118541534D01*
X105626367Y-118560101D01*
X105588674Y-118571535D01*
X105543339Y-118576000D01*
X104456661Y-118576000D01*
X104411326Y-118571535D01*
X104373633Y-118560101D01*
X104338897Y-118541534D01*
X104308452Y-118516548D01*
X104283466Y-118486103D01*
X104264899Y-118451367D01*
X104253465Y-118413674D01*
X104249000Y-118368339D01*
X104249000Y-117531661D01*
X104253465Y-117486326D01*
X104264899Y-117448633D01*
X104283466Y-117413897D01*
X104308452Y-117383452D01*
X104338897Y-117358466D01*
X104373633Y-117339899D01*
X104411326Y-117328465D01*
X104456661Y-117324000D01*
X105543339Y-117324000D01*
X105588674Y-117328465D01*
X105588674Y-117328465D01*
G37*
G36*
X110110442Y-116645518D02*
G01*
X110176627Y-116652037D01*
X110346466Y-116703557D01*
X110502991Y-116787222D01*
X110538729Y-116816552D01*
X110640186Y-116899814D01*
X110723448Y-117001271D01*
X110752778Y-117037009D01*
X110836443Y-117193534D01*
X110887963Y-117363373D01*
X110905359Y-117540000D01*
X110887963Y-117716627D01*
X110836443Y-117886466D01*
X110752778Y-118042991D01*
X110723448Y-118078729D01*
X110640186Y-118180186D01*
X110538729Y-118263448D01*
X110502991Y-118292778D01*
X110502989Y-118292779D01*
X110361628Y-118368339D01*
X110346466Y-118376443D01*
X110176627Y-118427963D01*
X110110442Y-118434482D01*
X110044260Y-118441000D01*
X109955740Y-118441000D01*
X109889558Y-118434482D01*
X109823373Y-118427963D01*
X109653534Y-118376443D01*
X109638373Y-118368339D01*
X109497011Y-118292779D01*
X109497009Y-118292778D01*
X109461271Y-118263448D01*
X109359814Y-118180186D01*
X109276552Y-118078729D01*
X109247222Y-118042991D01*
X109163557Y-117886466D01*
X109112037Y-117716627D01*
X109094641Y-117540000D01*
X109112037Y-117363373D01*
X109163557Y-117193534D01*
X109247222Y-117037009D01*
X109276552Y-117001271D01*
X109359814Y-116899814D01*
X109461271Y-116816552D01*
X109497009Y-116787222D01*
X109653534Y-116703557D01*
X109823373Y-116652037D01*
X109889558Y-116645518D01*
X109955740Y-116639000D01*
X110044260Y-116639000D01*
X110110442Y-116645518D01*
X110110442Y-116645518D01*
G37*
G36*
X67280000Y-116987000D02*
G01*
X64178000Y-116987000D01*
X64178000Y-114885000D01*
X67280000Y-114885000D01*
X67280000Y-116987000D01*
X67280000Y-116987000D01*
G37*
G36*
X85822000Y-116987000D02*
G01*
X82720000Y-116987000D01*
X82720000Y-114885000D01*
X85822000Y-114885000D01*
X85822000Y-116987000D01*
X85822000Y-116987000D01*
G37*
G36*
X110901000Y-115901000D02*
G01*
X109099000Y-115901000D01*
X109099000Y-114099000D01*
X110901000Y-114099000D01*
X110901000Y-115901000D01*
X110901000Y-115901000D01*
G37*
G36*
X94784999Y-114199737D02*
G01*
X94794608Y-114202652D01*
X94803472Y-114207390D01*
X94811212Y-114213742D01*
X94811213Y-114213743D01*
X94811237Y-114213763D01*
X94817640Y-114221573D01*
X94817677Y-114221628D01*
X94825480Y-114231147D01*
X94825511Y-114231122D01*
X94836853Y-114244972D01*
X94855779Y-114260537D01*
X94877377Y-114272111D01*
X94900819Y-114279249D01*
X94925202Y-114281676D01*
X94949591Y-114279300D01*
X94973047Y-114272211D01*
X94994670Y-114260682D01*
X95013628Y-114245157D01*
X95029193Y-114226231D01*
X95031029Y-114223175D01*
X95032418Y-114221486D01*
X95032419Y-114221484D01*
X95038801Y-114213725D01*
X95046573Y-114207360D01*
X95046575Y-114207358D01*
X95055399Y-114202654D01*
X95055438Y-114202633D01*
X95065055Y-114199727D01*
X95065085Y-114199718D01*
X95081113Y-114198148D01*
X96218860Y-114198148D01*
X96234999Y-114199737D01*
X96244608Y-114202652D01*
X96253472Y-114207390D01*
X96261237Y-114213763D01*
X96267610Y-114221528D01*
X96272348Y-114230392D01*
X96275263Y-114240001D01*
X96276852Y-114256140D01*
X96276852Y-115743860D01*
X96275263Y-115759999D01*
X96272348Y-115769608D01*
X96267610Y-115778472D01*
X96261237Y-115786237D01*
X96253472Y-115792610D01*
X96244608Y-115797348D01*
X96234999Y-115800263D01*
X96218860Y-115801852D01*
X95081140Y-115801852D01*
X95065001Y-115800263D01*
X95055392Y-115797348D01*
X95046528Y-115792610D01*
X95038763Y-115786237D01*
X95028116Y-115773263D01*
X95021947Y-115764032D01*
X95004619Y-115746706D01*
X94984244Y-115733093D01*
X94961605Y-115723717D01*
X94937572Y-115718937D01*
X94913068Y-115718938D01*
X94889035Y-115723720D01*
X94866396Y-115733098D01*
X94846022Y-115746713D01*
X94828696Y-115764041D01*
X94821825Y-115773317D01*
X94817640Y-115778427D01*
X94811275Y-115786199D01*
X94803516Y-115792581D01*
X94794661Y-115797326D01*
X94791623Y-115798251D01*
X94785085Y-115800242D01*
X94785082Y-115800242D01*
X94785050Y-115800252D01*
X94775000Y-115801247D01*
X94774935Y-115801247D01*
X94768825Y-115801852D01*
X93781140Y-115801852D01*
X93765001Y-115800263D01*
X93755392Y-115797348D01*
X93746528Y-115792610D01*
X93738763Y-115786237D01*
X93732390Y-115778472D01*
X93727652Y-115769608D01*
X93724737Y-115759999D01*
X93723148Y-115743860D01*
X93723148Y-114256140D01*
X93724737Y-114240001D01*
X93727652Y-114230392D01*
X93732390Y-114221528D01*
X93738763Y-114213763D01*
X93746528Y-114207390D01*
X93755392Y-114202652D01*
X93765001Y-114199737D01*
X93781140Y-114198148D01*
X94768860Y-114198148D01*
X94784999Y-114199737D01*
X94784999Y-114199737D01*
G37*
G36*
X106309468Y-114253565D02*
G01*
X106348138Y-114265296D01*
X106383777Y-114284346D01*
X106415017Y-114309983D01*
X106440654Y-114341223D01*
X106459704Y-114376862D01*
X106471435Y-114415532D01*
X106476000Y-114461888D01*
X106476000Y-115538112D01*
X106471435Y-115584468D01*
X106459704Y-115623138D01*
X106440654Y-115658777D01*
X106415017Y-115690017D01*
X106383777Y-115715654D01*
X106348138Y-115734704D01*
X106309468Y-115746435D01*
X106263112Y-115751000D01*
X105611888Y-115751000D01*
X105565532Y-115746435D01*
X105526862Y-115734704D01*
X105491223Y-115715654D01*
X105459983Y-115690017D01*
X105434346Y-115658777D01*
X105415296Y-115623138D01*
X105403565Y-115584468D01*
X105399000Y-115538112D01*
X105399000Y-114461888D01*
X105403565Y-114415532D01*
X105415296Y-114376862D01*
X105434346Y-114341223D01*
X105459983Y-114309983D01*
X105491223Y-114284346D01*
X105526862Y-114265296D01*
X105565532Y-114253565D01*
X105611888Y-114249000D01*
X106263112Y-114249000D01*
X106309468Y-114253565D01*
X106309468Y-114253565D01*
G37*
G36*
X104434468Y-114253565D02*
G01*
X104473138Y-114265296D01*
X104508777Y-114284346D01*
X104540017Y-114309983D01*
X104565654Y-114341223D01*
X104584704Y-114376862D01*
X104596435Y-114415532D01*
X104601000Y-114461888D01*
X104601000Y-115538112D01*
X104596435Y-115584468D01*
X104584704Y-115623138D01*
X104565654Y-115658777D01*
X104540017Y-115690017D01*
X104508777Y-115715654D01*
X104473138Y-115734704D01*
X104434468Y-115746435D01*
X104388112Y-115751000D01*
X103736888Y-115751000D01*
X103690532Y-115746435D01*
X103651862Y-115734704D01*
X103616223Y-115715654D01*
X103584983Y-115690017D01*
X103559346Y-115658777D01*
X103540296Y-115623138D01*
X103528565Y-115584468D01*
X103524000Y-115538112D01*
X103524000Y-114461888D01*
X103528565Y-114415532D01*
X103540296Y-114376862D01*
X103559346Y-114341223D01*
X103584983Y-114309983D01*
X103616223Y-114284346D01*
X103651862Y-114265296D01*
X103690532Y-114253565D01*
X103736888Y-114249000D01*
X104388112Y-114249000D01*
X104434468Y-114253565D01*
X104434468Y-114253565D01*
G37*
G36*
X66332097Y-112350069D02*
G01*
X66435032Y-112360207D01*
X66633146Y-112420305D01*
X66633149Y-112420306D01*
X66729975Y-112472061D01*
X66815729Y-112517897D01*
X66975765Y-112649235D01*
X67107103Y-112809271D01*
X67152939Y-112895025D01*
X67204694Y-112991851D01*
X67204695Y-112991854D01*
X67264793Y-113189968D01*
X67285085Y-113396000D01*
X67264793Y-113602032D01*
X67204695Y-113800146D01*
X67204694Y-113800149D01*
X67152939Y-113896975D01*
X67107103Y-113982729D01*
X66975765Y-114142765D01*
X66815729Y-114274103D01*
X66748602Y-114309983D01*
X66633149Y-114371694D01*
X66633146Y-114371695D01*
X66435032Y-114431793D01*
X66332097Y-114441931D01*
X66280631Y-114447000D01*
X65177369Y-114447000D01*
X65125903Y-114441931D01*
X65022968Y-114431793D01*
X64824854Y-114371695D01*
X64824851Y-114371694D01*
X64709398Y-114309983D01*
X64642271Y-114274103D01*
X64482235Y-114142765D01*
X64350897Y-113982729D01*
X64305061Y-113896975D01*
X64253306Y-113800149D01*
X64253305Y-113800146D01*
X64193207Y-113602032D01*
X64172915Y-113396000D01*
X64193207Y-113189968D01*
X64253305Y-112991854D01*
X64253306Y-112991851D01*
X64305061Y-112895025D01*
X64350897Y-112809271D01*
X64482235Y-112649235D01*
X64642271Y-112517897D01*
X64728025Y-112472061D01*
X64824851Y-112420306D01*
X64824854Y-112420305D01*
X65022968Y-112360207D01*
X65125903Y-112350069D01*
X65177369Y-112345000D01*
X66280631Y-112345000D01*
X66332097Y-112350069D01*
X66332097Y-112350069D01*
G37*
G36*
X84874097Y-112350069D02*
G01*
X84977032Y-112360207D01*
X85175146Y-112420305D01*
X85175149Y-112420306D01*
X85271975Y-112472061D01*
X85357729Y-112517897D01*
X85517765Y-112649235D01*
X85649103Y-112809271D01*
X85694939Y-112895025D01*
X85746694Y-112991851D01*
X85746695Y-112991854D01*
X85806793Y-113189968D01*
X85827085Y-113396000D01*
X85806793Y-113602032D01*
X85746695Y-113800146D01*
X85746694Y-113800149D01*
X85694939Y-113896975D01*
X85649103Y-113982729D01*
X85517765Y-114142765D01*
X85357729Y-114274103D01*
X85290602Y-114309983D01*
X85175149Y-114371694D01*
X85175146Y-114371695D01*
X84977032Y-114431793D01*
X84874097Y-114441931D01*
X84822631Y-114447000D01*
X83719369Y-114447000D01*
X83667903Y-114441931D01*
X83564968Y-114431793D01*
X83366854Y-114371695D01*
X83366851Y-114371694D01*
X83251398Y-114309983D01*
X83184271Y-114274103D01*
X83024235Y-114142765D01*
X82892897Y-113982729D01*
X82847061Y-113896975D01*
X82795306Y-113800149D01*
X82795305Y-113800146D01*
X82735207Y-113602032D01*
X82714915Y-113396000D01*
X82735207Y-113189968D01*
X82795305Y-112991854D01*
X82795306Y-112991851D01*
X82847061Y-112895025D01*
X82892897Y-112809271D01*
X83024235Y-112649235D01*
X83184271Y-112517897D01*
X83270025Y-112472061D01*
X83366851Y-112420306D01*
X83366854Y-112420305D01*
X83564968Y-112360207D01*
X83667903Y-112350069D01*
X83719369Y-112345000D01*
X84822631Y-112345000D01*
X84874097Y-112350069D01*
X84874097Y-112350069D01*
G37*
G36*
X90759999Y-108724737D02*
G01*
X90769608Y-108727652D01*
X90778472Y-108732390D01*
X90786237Y-108738763D01*
X90792610Y-108746528D01*
X90797348Y-108755392D01*
X90800263Y-108765001D01*
X90801852Y-108781140D01*
X90801852Y-109768860D01*
X90800263Y-109784999D01*
X90797348Y-109794608D01*
X90792610Y-109803472D01*
X90786258Y-109811212D01*
X90786237Y-109811237D01*
X90778427Y-109817640D01*
X90778372Y-109817677D01*
X90768853Y-109825480D01*
X90768878Y-109825511D01*
X90755028Y-109836853D01*
X90739463Y-109855779D01*
X90727889Y-109877377D01*
X90720751Y-109900819D01*
X90718324Y-109925202D01*
X90720700Y-109949591D01*
X90727789Y-109973047D01*
X90739318Y-109994670D01*
X90754843Y-110013628D01*
X90773769Y-110029193D01*
X90776825Y-110031029D01*
X90778514Y-110032418D01*
X90778516Y-110032419D01*
X90784712Y-110037515D01*
X90786274Y-110038800D01*
X90792642Y-110046575D01*
X90795791Y-110052483D01*
X90797367Y-110055438D01*
X90800257Y-110065001D01*
X90800282Y-110065085D01*
X90801852Y-110081113D01*
X90801852Y-111218860D01*
X90800263Y-111234999D01*
X90797348Y-111244608D01*
X90792610Y-111253472D01*
X90786237Y-111261237D01*
X90778472Y-111267610D01*
X90769608Y-111272348D01*
X90759999Y-111275263D01*
X90743860Y-111276852D01*
X89256140Y-111276852D01*
X89240001Y-111275263D01*
X89230392Y-111272348D01*
X89221528Y-111267610D01*
X89213763Y-111261237D01*
X89207390Y-111253472D01*
X89202652Y-111244608D01*
X89199737Y-111234999D01*
X89198148Y-111218860D01*
X89198148Y-110081140D01*
X89199737Y-110065001D01*
X89202652Y-110055392D01*
X89207390Y-110046528D01*
X89213763Y-110038763D01*
X89226737Y-110028116D01*
X89235968Y-110021947D01*
X89253294Y-110004619D01*
X89266907Y-109984244D01*
X89276283Y-109961605D01*
X89281063Y-109937572D01*
X89281062Y-109913068D01*
X89276280Y-109889035D01*
X89266902Y-109866396D01*
X89253287Y-109846022D01*
X89235959Y-109828696D01*
X89226683Y-109821825D01*
X89213800Y-109811274D01*
X89212668Y-109809897D01*
X89207419Y-109803516D01*
X89202674Y-109794661D01*
X89201749Y-109791623D01*
X89199758Y-109785085D01*
X89199758Y-109785082D01*
X89199748Y-109785050D01*
X89198753Y-109775000D01*
X89198753Y-109774935D01*
X89198148Y-109768825D01*
X89198148Y-108781140D01*
X89199737Y-108765001D01*
X89202652Y-108755392D01*
X89207390Y-108746528D01*
X89213763Y-108738763D01*
X89221528Y-108732390D01*
X89230392Y-108727652D01*
X89240001Y-108724737D01*
X89256140Y-108723148D01*
X90743860Y-108723148D01*
X90759999Y-108724737D01*
X90759999Y-108724737D01*
G37*
G36*
X85822000Y-107655000D02*
G01*
X82720000Y-107655000D01*
X82720000Y-105553000D01*
X85822000Y-105553000D01*
X85822000Y-107655000D01*
X85822000Y-107655000D01*
G37*
G36*
X67280000Y-107655000D02*
G01*
X64178000Y-107655000D01*
X64178000Y-105553000D01*
X67280000Y-105553000D01*
X67280000Y-107655000D01*
X67280000Y-107655000D01*
G37*
G36*
X66332097Y-103018069D02*
G01*
X66435032Y-103028207D01*
X66633146Y-103088305D01*
X66633149Y-103088306D01*
X66729975Y-103140061D01*
X66815729Y-103185897D01*
X66975765Y-103317235D01*
X67107103Y-103477271D01*
X67152939Y-103563025D01*
X67204694Y-103659851D01*
X67204695Y-103659854D01*
X67264793Y-103857968D01*
X67285085Y-104064000D01*
X67264793Y-104270032D01*
X67204695Y-104468146D01*
X67204694Y-104468149D01*
X67152939Y-104564975D01*
X67107103Y-104650729D01*
X66975765Y-104810765D01*
X66815729Y-104942103D01*
X66729975Y-104987939D01*
X66633149Y-105039694D01*
X66633146Y-105039695D01*
X66435032Y-105099793D01*
X66332097Y-105109931D01*
X66280631Y-105115000D01*
X65177369Y-105115000D01*
X65125903Y-105109931D01*
X65022968Y-105099793D01*
X64824854Y-105039695D01*
X64824851Y-105039694D01*
X64728025Y-104987939D01*
X64642271Y-104942103D01*
X64482235Y-104810765D01*
X64350897Y-104650729D01*
X64305061Y-104564975D01*
X64253306Y-104468149D01*
X64253305Y-104468146D01*
X64193207Y-104270032D01*
X64172915Y-104064000D01*
X64193207Y-103857968D01*
X64253305Y-103659854D01*
X64253306Y-103659851D01*
X64305061Y-103563025D01*
X64350897Y-103477271D01*
X64482235Y-103317235D01*
X64642271Y-103185897D01*
X64728025Y-103140061D01*
X64824851Y-103088306D01*
X64824854Y-103088305D01*
X65022968Y-103028207D01*
X65125903Y-103018069D01*
X65177369Y-103013000D01*
X66280631Y-103013000D01*
X66332097Y-103018069D01*
X66332097Y-103018069D01*
G37*
G36*
X84874097Y-103018069D02*
G01*
X84977032Y-103028207D01*
X85175146Y-103088305D01*
X85175149Y-103088306D01*
X85271975Y-103140061D01*
X85357729Y-103185897D01*
X85517765Y-103317235D01*
X85649103Y-103477271D01*
X85694939Y-103563025D01*
X85746694Y-103659851D01*
X85746695Y-103659854D01*
X85806793Y-103857968D01*
X85827085Y-104064000D01*
X85806793Y-104270032D01*
X85746695Y-104468146D01*
X85746694Y-104468149D01*
X85694939Y-104564975D01*
X85649103Y-104650729D01*
X85517765Y-104810765D01*
X85357729Y-104942103D01*
X85271975Y-104987939D01*
X85175149Y-105039694D01*
X85175146Y-105039695D01*
X84977032Y-105099793D01*
X84874097Y-105109931D01*
X84822631Y-105115000D01*
X83719369Y-105115000D01*
X83667903Y-105109931D01*
X83564968Y-105099793D01*
X83366854Y-105039695D01*
X83366851Y-105039694D01*
X83270025Y-104987939D01*
X83184271Y-104942103D01*
X83024235Y-104810765D01*
X82892897Y-104650729D01*
X82847061Y-104564975D01*
X82795306Y-104468149D01*
X82795305Y-104468146D01*
X82735207Y-104270032D01*
X82714915Y-104064000D01*
X82735207Y-103857968D01*
X82795305Y-103659854D01*
X82795306Y-103659851D01*
X82847061Y-103563025D01*
X82892897Y-103477271D01*
X83024235Y-103317235D01*
X83184271Y-103185897D01*
X83270025Y-103140061D01*
X83366851Y-103088306D01*
X83366854Y-103088305D01*
X83564968Y-103028207D01*
X83667903Y-103018069D01*
X83719369Y-103013000D01*
X84822631Y-103013000D01*
X84874097Y-103018069D01*
X84874097Y-103018069D01*
G37*
G36*
X105588674Y-100403465D02*
G01*
X105626367Y-100414899D01*
X105661103Y-100433466D01*
X105691548Y-100458452D01*
X105716534Y-100488897D01*
X105735101Y-100523633D01*
X105746535Y-100561326D01*
X105751000Y-100606661D01*
X105751000Y-101443339D01*
X105746535Y-101488674D01*
X105735101Y-101526367D01*
X105716534Y-101561103D01*
X105691548Y-101591548D01*
X105661103Y-101616534D01*
X105626367Y-101635101D01*
X105588674Y-101646535D01*
X105543339Y-101651000D01*
X104456661Y-101651000D01*
X104411326Y-101646535D01*
X104373633Y-101635101D01*
X104338897Y-101616534D01*
X104308452Y-101591548D01*
X104283466Y-101561103D01*
X104264899Y-101526367D01*
X104253465Y-101488674D01*
X104249000Y-101443339D01*
X104249000Y-100606661D01*
X104253465Y-100561326D01*
X104264899Y-100523633D01*
X104283466Y-100488897D01*
X104308452Y-100458452D01*
X104338897Y-100433466D01*
X104373633Y-100414899D01*
X104411326Y-100403465D01*
X104456661Y-100399000D01*
X105543339Y-100399000D01*
X105588674Y-100403465D01*
X105588674Y-100403465D01*
G37*
G36*
X100584468Y-100403565D02*
G01*
X100623138Y-100415296D01*
X100658777Y-100434346D01*
X100690017Y-100459983D01*
X100715654Y-100491223D01*
X100734704Y-100526862D01*
X100746435Y-100565532D01*
X100751000Y-100611888D01*
X100751000Y-101263112D01*
X100746435Y-101309468D01*
X100734704Y-101348138D01*
X100715654Y-101383777D01*
X100690017Y-101415017D01*
X100658777Y-101440654D01*
X100623138Y-101459704D01*
X100584468Y-101471435D01*
X100538112Y-101476000D01*
X99461888Y-101476000D01*
X99415532Y-101471435D01*
X99376862Y-101459704D01*
X99341223Y-101440654D01*
X99309983Y-101415017D01*
X99284346Y-101383777D01*
X99265296Y-101348138D01*
X99253565Y-101309468D01*
X99249000Y-101263112D01*
X99249000Y-100611888D01*
X99253565Y-100565532D01*
X99265296Y-100526862D01*
X99284346Y-100491223D01*
X99309983Y-100459983D01*
X99341223Y-100434346D01*
X99376862Y-100415296D01*
X99415532Y-100403565D01*
X99461888Y-100399000D01*
X100538112Y-100399000D01*
X100584468Y-100403565D01*
X100584468Y-100403565D01*
G37*
G36*
X105588674Y-98353465D02*
G01*
X105626367Y-98364899D01*
X105661103Y-98383466D01*
X105691548Y-98408452D01*
X105716534Y-98438897D01*
X105735101Y-98473633D01*
X105746535Y-98511326D01*
X105751000Y-98556661D01*
X105751000Y-99393339D01*
X105746535Y-99438674D01*
X105735101Y-99476367D01*
X105716534Y-99511103D01*
X105691548Y-99541548D01*
X105661103Y-99566534D01*
X105626367Y-99585101D01*
X105588674Y-99596535D01*
X105543339Y-99601000D01*
X104456661Y-99601000D01*
X104411326Y-99596535D01*
X104373633Y-99585101D01*
X104338897Y-99566534D01*
X104308452Y-99541548D01*
X104283466Y-99511103D01*
X104264899Y-99476367D01*
X104253465Y-99438674D01*
X104249000Y-99393339D01*
X104249000Y-98556661D01*
X104253465Y-98511326D01*
X104264899Y-98473633D01*
X104283466Y-98438897D01*
X104308452Y-98408452D01*
X104338897Y-98383466D01*
X104373633Y-98364899D01*
X104411326Y-98353465D01*
X104456661Y-98349000D01*
X105543339Y-98349000D01*
X105588674Y-98353465D01*
X105588674Y-98353465D01*
G37*
G36*
X100584468Y-98528565D02*
G01*
X100623138Y-98540296D01*
X100658777Y-98559346D01*
X100690017Y-98584983D01*
X100715654Y-98616223D01*
X100734704Y-98651862D01*
X100746435Y-98690532D01*
X100751000Y-98736888D01*
X100751000Y-99388112D01*
X100746435Y-99434468D01*
X100734704Y-99473138D01*
X100715654Y-99508777D01*
X100690017Y-99540017D01*
X100658777Y-99565654D01*
X100623138Y-99584704D01*
X100584468Y-99596435D01*
X100538112Y-99601000D01*
X99461888Y-99601000D01*
X99415532Y-99596435D01*
X99376862Y-99584704D01*
X99341223Y-99565654D01*
X99309983Y-99540017D01*
X99284346Y-99508777D01*
X99265296Y-99473138D01*
X99253565Y-99434468D01*
X99249000Y-99388112D01*
X99249000Y-98736888D01*
X99253565Y-98690532D01*
X99265296Y-98651862D01*
X99284346Y-98616223D01*
X99309983Y-98584983D01*
X99341223Y-98559346D01*
X99376862Y-98540296D01*
X99415532Y-98528565D01*
X99461888Y-98524000D01*
X100538112Y-98524000D01*
X100584468Y-98528565D01*
X100584468Y-98528565D01*
G37*
G36*
X110110442Y-96645518D02*
G01*
X110176627Y-96652037D01*
X110346466Y-96703557D01*
X110502991Y-96787222D01*
X110538729Y-96816552D01*
X110640186Y-96899814D01*
X110723448Y-97001271D01*
X110752778Y-97037009D01*
X110836443Y-97193534D01*
X110887963Y-97363373D01*
X110905359Y-97540000D01*
X110887963Y-97716627D01*
X110836443Y-97886466D01*
X110752778Y-98042991D01*
X110723448Y-98078729D01*
X110640186Y-98180186D01*
X110538729Y-98263448D01*
X110502991Y-98292778D01*
X110502989Y-98292779D01*
X110359048Y-98369718D01*
X110346466Y-98376443D01*
X110176627Y-98427963D01*
X110110442Y-98434482D01*
X110044260Y-98441000D01*
X109955740Y-98441000D01*
X109889557Y-98434481D01*
X109823373Y-98427963D01*
X109653534Y-98376443D01*
X109640953Y-98369718D01*
X109497011Y-98292779D01*
X109497009Y-98292778D01*
X109461271Y-98263448D01*
X109359814Y-98180186D01*
X109276552Y-98078729D01*
X109247222Y-98042991D01*
X109163557Y-97886466D01*
X109112037Y-97716627D01*
X109094641Y-97540000D01*
X109112037Y-97363373D01*
X109163557Y-97193534D01*
X109247222Y-97037009D01*
X109276552Y-97001271D01*
X109359814Y-96899814D01*
X109461271Y-96816552D01*
X109497009Y-96787222D01*
X109653534Y-96703557D01*
X109823373Y-96652037D01*
X109889558Y-96645518D01*
X109955740Y-96639000D01*
X110044260Y-96639000D01*
X110110442Y-96645518D01*
X110110442Y-96645518D01*
G37*
G36*
X67280000Y-96987000D02*
G01*
X64178000Y-96987000D01*
X64178000Y-94885000D01*
X67280000Y-94885000D01*
X67280000Y-96987000D01*
X67280000Y-96987000D01*
G37*
G36*
X85822000Y-96987000D02*
G01*
X82720000Y-96987000D01*
X82720000Y-94885000D01*
X85822000Y-94885000D01*
X85822000Y-96987000D01*
X85822000Y-96987000D01*
G37*
G36*
X110901000Y-95901000D02*
G01*
X109099000Y-95901000D01*
X109099000Y-94099000D01*
X110901000Y-94099000D01*
X110901000Y-95901000D01*
X110901000Y-95901000D01*
G37*
G36*
X94784999Y-94199737D02*
G01*
X94794608Y-94202652D01*
X94803472Y-94207390D01*
X94811212Y-94213742D01*
X94811213Y-94213743D01*
X94811237Y-94213763D01*
X94817640Y-94221573D01*
X94817677Y-94221628D01*
X94825480Y-94231147D01*
X94825511Y-94231122D01*
X94836853Y-94244972D01*
X94855779Y-94260537D01*
X94877377Y-94272111D01*
X94900819Y-94279249D01*
X94925202Y-94281676D01*
X94949591Y-94279300D01*
X94973047Y-94272211D01*
X94994670Y-94260682D01*
X95013628Y-94245157D01*
X95029193Y-94226231D01*
X95031029Y-94223175D01*
X95032418Y-94221486D01*
X95032419Y-94221484D01*
X95038801Y-94213725D01*
X95046573Y-94207360D01*
X95046575Y-94207358D01*
X95055399Y-94202654D01*
X95055438Y-94202633D01*
X95065055Y-94199727D01*
X95065085Y-94199718D01*
X95081113Y-94198148D01*
X96218860Y-94198148D01*
X96234999Y-94199737D01*
X96244608Y-94202652D01*
X96253472Y-94207390D01*
X96261237Y-94213763D01*
X96267610Y-94221528D01*
X96272348Y-94230392D01*
X96275263Y-94240001D01*
X96276852Y-94256140D01*
X96276852Y-95743860D01*
X96275263Y-95759999D01*
X96272348Y-95769608D01*
X96267610Y-95778472D01*
X96261237Y-95786237D01*
X96253472Y-95792610D01*
X96244608Y-95797348D01*
X96234999Y-95800263D01*
X96218860Y-95801852D01*
X95081140Y-95801852D01*
X95065001Y-95800263D01*
X95055392Y-95797348D01*
X95046528Y-95792610D01*
X95038763Y-95786237D01*
X95028116Y-95773263D01*
X95021947Y-95764032D01*
X95004619Y-95746706D01*
X94984244Y-95733093D01*
X94961605Y-95723717D01*
X94937572Y-95718937D01*
X94913068Y-95718938D01*
X94889035Y-95723720D01*
X94866396Y-95733098D01*
X94846022Y-95746713D01*
X94828696Y-95764041D01*
X94821825Y-95773317D01*
X94817640Y-95778427D01*
X94811275Y-95786199D01*
X94803516Y-95792581D01*
X94794661Y-95797326D01*
X94791623Y-95798251D01*
X94785085Y-95800242D01*
X94785082Y-95800242D01*
X94785050Y-95800252D01*
X94775000Y-95801247D01*
X94774935Y-95801247D01*
X94768825Y-95801852D01*
X93781140Y-95801852D01*
X93765001Y-95800263D01*
X93755392Y-95797348D01*
X93746528Y-95792610D01*
X93738763Y-95786237D01*
X93732390Y-95778472D01*
X93727652Y-95769608D01*
X93724737Y-95759999D01*
X93723148Y-95743860D01*
X93723148Y-94256140D01*
X93724737Y-94240001D01*
X93727652Y-94230392D01*
X93732390Y-94221528D01*
X93738763Y-94213763D01*
X93746528Y-94207390D01*
X93755392Y-94202652D01*
X93765001Y-94199737D01*
X93781140Y-94198148D01*
X94768860Y-94198148D01*
X94784999Y-94199737D01*
X94784999Y-94199737D01*
G37*
G36*
X106309468Y-94253565D02*
G01*
X106348138Y-94265296D01*
X106383777Y-94284346D01*
X106415017Y-94309983D01*
X106440654Y-94341223D01*
X106459704Y-94376862D01*
X106471435Y-94415532D01*
X106476000Y-94461888D01*
X106476000Y-95538112D01*
X106471435Y-95584468D01*
X106459704Y-95623138D01*
X106440654Y-95658777D01*
X106415017Y-95690017D01*
X106383777Y-95715654D01*
X106348138Y-95734704D01*
X106309468Y-95746435D01*
X106263112Y-95751000D01*
X105611888Y-95751000D01*
X105565532Y-95746435D01*
X105526862Y-95734704D01*
X105491223Y-95715654D01*
X105459983Y-95690017D01*
X105434346Y-95658777D01*
X105415296Y-95623138D01*
X105403565Y-95584468D01*
X105399000Y-95538112D01*
X105399000Y-94461888D01*
X105403565Y-94415532D01*
X105415296Y-94376862D01*
X105434346Y-94341223D01*
X105459983Y-94309983D01*
X105491223Y-94284346D01*
X105526862Y-94265296D01*
X105565532Y-94253565D01*
X105611888Y-94249000D01*
X106263112Y-94249000D01*
X106309468Y-94253565D01*
X106309468Y-94253565D01*
G37*
G36*
X104434468Y-94253565D02*
G01*
X104473138Y-94265296D01*
X104508777Y-94284346D01*
X104540017Y-94309983D01*
X104565654Y-94341223D01*
X104584704Y-94376862D01*
X104596435Y-94415532D01*
X104601000Y-94461888D01*
X104601000Y-95538112D01*
X104596435Y-95584468D01*
X104584704Y-95623138D01*
X104565654Y-95658777D01*
X104540017Y-95690017D01*
X104508777Y-95715654D01*
X104473138Y-95734704D01*
X104434468Y-95746435D01*
X104388112Y-95751000D01*
X103736888Y-95751000D01*
X103690532Y-95746435D01*
X103651862Y-95734704D01*
X103616223Y-95715654D01*
X103584983Y-95690017D01*
X103559346Y-95658777D01*
X103540296Y-95623138D01*
X103528565Y-95584468D01*
X103524000Y-95538112D01*
X103524000Y-94461888D01*
X103528565Y-94415532D01*
X103540296Y-94376862D01*
X103559346Y-94341223D01*
X103584983Y-94309983D01*
X103616223Y-94284346D01*
X103651862Y-94265296D01*
X103690532Y-94253565D01*
X103736888Y-94249000D01*
X104388112Y-94249000D01*
X104434468Y-94253565D01*
X104434468Y-94253565D01*
G37*
G36*
X66332097Y-92350069D02*
G01*
X66435032Y-92360207D01*
X66633146Y-92420305D01*
X66633149Y-92420306D01*
X66729975Y-92472061D01*
X66815729Y-92517897D01*
X66975765Y-92649235D01*
X67107103Y-92809271D01*
X67152939Y-92895025D01*
X67204694Y-92991851D01*
X67204695Y-92991854D01*
X67264793Y-93189968D01*
X67285085Y-93396000D01*
X67264793Y-93602032D01*
X67204695Y-93800146D01*
X67204694Y-93800149D01*
X67152939Y-93896975D01*
X67107103Y-93982729D01*
X66975765Y-94142765D01*
X66815729Y-94274103D01*
X66748602Y-94309983D01*
X66633149Y-94371694D01*
X66633146Y-94371695D01*
X66435032Y-94431793D01*
X66332097Y-94441931D01*
X66280631Y-94447000D01*
X65177369Y-94447000D01*
X65125903Y-94441931D01*
X65022968Y-94431793D01*
X64824854Y-94371695D01*
X64824851Y-94371694D01*
X64709398Y-94309983D01*
X64642271Y-94274103D01*
X64482235Y-94142765D01*
X64350897Y-93982729D01*
X64305061Y-93896975D01*
X64253306Y-93800149D01*
X64253305Y-93800146D01*
X64193207Y-93602032D01*
X64172915Y-93396000D01*
X64193207Y-93189968D01*
X64253305Y-92991854D01*
X64253306Y-92991851D01*
X64305061Y-92895025D01*
X64350897Y-92809271D01*
X64482235Y-92649235D01*
X64642271Y-92517897D01*
X64728025Y-92472061D01*
X64824851Y-92420306D01*
X64824854Y-92420305D01*
X65022968Y-92360207D01*
X65125903Y-92350069D01*
X65177369Y-92345000D01*
X66280631Y-92345000D01*
X66332097Y-92350069D01*
X66332097Y-92350069D01*
G37*
G36*
X84874097Y-92350069D02*
G01*
X84977032Y-92360207D01*
X85175146Y-92420305D01*
X85175149Y-92420306D01*
X85271975Y-92472061D01*
X85357729Y-92517897D01*
X85517765Y-92649235D01*
X85649103Y-92809271D01*
X85694939Y-92895025D01*
X85746694Y-92991851D01*
X85746695Y-92991854D01*
X85806793Y-93189968D01*
X85827085Y-93396000D01*
X85806793Y-93602032D01*
X85746695Y-93800146D01*
X85746694Y-93800149D01*
X85694939Y-93896975D01*
X85649103Y-93982729D01*
X85517765Y-94142765D01*
X85357729Y-94274103D01*
X85290602Y-94309983D01*
X85175149Y-94371694D01*
X85175146Y-94371695D01*
X84977032Y-94431793D01*
X84874097Y-94441931D01*
X84822631Y-94447000D01*
X83719369Y-94447000D01*
X83667903Y-94441931D01*
X83564968Y-94431793D01*
X83366854Y-94371695D01*
X83366851Y-94371694D01*
X83251398Y-94309983D01*
X83184271Y-94274103D01*
X83024235Y-94142765D01*
X82892897Y-93982729D01*
X82847061Y-93896975D01*
X82795306Y-93800149D01*
X82795305Y-93800146D01*
X82735207Y-93602032D01*
X82714915Y-93396000D01*
X82735207Y-93189968D01*
X82795305Y-92991854D01*
X82795306Y-92991851D01*
X82847061Y-92895025D01*
X82892897Y-92809271D01*
X83024235Y-92649235D01*
X83184271Y-92517897D01*
X83270025Y-92472061D01*
X83366851Y-92420306D01*
X83366854Y-92420305D01*
X83564968Y-92360207D01*
X83667903Y-92350069D01*
X83719369Y-92345000D01*
X84822631Y-92345000D01*
X84874097Y-92350069D01*
X84874097Y-92350069D01*
G37*
G36*
X90759999Y-88724737D02*
G01*
X90769608Y-88727652D01*
X90778472Y-88732390D01*
X90786237Y-88738763D01*
X90792610Y-88746528D01*
X90797348Y-88755392D01*
X90800263Y-88765001D01*
X90801852Y-88781140D01*
X90801852Y-89768860D01*
X90800263Y-89784999D01*
X90797348Y-89794608D01*
X90792610Y-89803472D01*
X90786258Y-89811212D01*
X90786237Y-89811237D01*
X90778427Y-89817640D01*
X90778372Y-89817677D01*
X90768853Y-89825480D01*
X90768878Y-89825511D01*
X90755028Y-89836853D01*
X90739463Y-89855779D01*
X90727889Y-89877377D01*
X90720751Y-89900819D01*
X90718324Y-89925202D01*
X90720700Y-89949591D01*
X90727789Y-89973047D01*
X90739318Y-89994670D01*
X90754843Y-90013628D01*
X90773769Y-90029193D01*
X90776825Y-90031029D01*
X90778514Y-90032418D01*
X90778516Y-90032419D01*
X90784712Y-90037515D01*
X90786274Y-90038800D01*
X90792642Y-90046575D01*
X90795791Y-90052483D01*
X90797367Y-90055438D01*
X90800257Y-90065001D01*
X90800282Y-90065085D01*
X90801852Y-90081113D01*
X90801852Y-91218860D01*
X90800263Y-91234999D01*
X90797348Y-91244608D01*
X90792610Y-91253472D01*
X90786237Y-91261237D01*
X90778472Y-91267610D01*
X90769608Y-91272348D01*
X90759999Y-91275263D01*
X90743860Y-91276852D01*
X89256140Y-91276852D01*
X89240001Y-91275263D01*
X89230392Y-91272348D01*
X89221528Y-91267610D01*
X89213763Y-91261237D01*
X89207390Y-91253472D01*
X89202652Y-91244608D01*
X89199737Y-91234999D01*
X89198148Y-91218860D01*
X89198148Y-90081140D01*
X89199737Y-90065001D01*
X89202652Y-90055392D01*
X89207390Y-90046528D01*
X89213763Y-90038763D01*
X89226737Y-90028116D01*
X89235968Y-90021947D01*
X89253294Y-90004619D01*
X89266907Y-89984244D01*
X89276283Y-89961605D01*
X89281063Y-89937572D01*
X89281062Y-89913068D01*
X89276280Y-89889035D01*
X89266902Y-89866396D01*
X89253287Y-89846022D01*
X89235959Y-89828696D01*
X89226683Y-89821825D01*
X89213800Y-89811274D01*
X89212668Y-89809897D01*
X89207419Y-89803516D01*
X89202674Y-89794661D01*
X89201749Y-89791623D01*
X89199758Y-89785085D01*
X89199758Y-89785082D01*
X89199748Y-89785050D01*
X89198753Y-89775000D01*
X89198753Y-89774935D01*
X89198148Y-89768825D01*
X89198148Y-88781140D01*
X89199737Y-88765001D01*
X89202652Y-88755392D01*
X89207390Y-88746528D01*
X89213763Y-88738763D01*
X89221528Y-88732390D01*
X89230392Y-88727652D01*
X89240001Y-88724737D01*
X89256140Y-88723148D01*
X90743860Y-88723148D01*
X90759999Y-88724737D01*
X90759999Y-88724737D01*
G37*
G36*
X67280000Y-87655000D02*
G01*
X64178000Y-87655000D01*
X64178000Y-85553000D01*
X67280000Y-85553000D01*
X67280000Y-87655000D01*
X67280000Y-87655000D01*
G37*
G36*
X85822000Y-87655000D02*
G01*
X82720000Y-87655000D01*
X82720000Y-85553000D01*
X85822000Y-85553000D01*
X85822000Y-87655000D01*
X85822000Y-87655000D01*
G37*
G36*
X84874097Y-83018069D02*
G01*
X84977032Y-83028207D01*
X85175146Y-83088305D01*
X85175149Y-83088306D01*
X85271975Y-83140061D01*
X85357729Y-83185897D01*
X85517765Y-83317235D01*
X85649103Y-83477271D01*
X85694939Y-83563025D01*
X85746694Y-83659851D01*
X85746695Y-83659854D01*
X85806793Y-83857968D01*
X85827085Y-84064000D01*
X85806793Y-84270032D01*
X85746695Y-84468146D01*
X85746694Y-84468149D01*
X85694939Y-84564975D01*
X85649103Y-84650729D01*
X85517765Y-84810765D01*
X85357729Y-84942103D01*
X85271975Y-84987939D01*
X85175149Y-85039694D01*
X85175146Y-85039695D01*
X84977032Y-85099793D01*
X84874097Y-85109931D01*
X84822631Y-85115000D01*
X83719369Y-85115000D01*
X83667903Y-85109931D01*
X83564968Y-85099793D01*
X83366854Y-85039695D01*
X83366851Y-85039694D01*
X83270025Y-84987939D01*
X83184271Y-84942103D01*
X83024235Y-84810765D01*
X82892897Y-84650729D01*
X82847061Y-84564975D01*
X82795306Y-84468149D01*
X82795305Y-84468146D01*
X82735207Y-84270032D01*
X82714915Y-84064000D01*
X82735207Y-83857968D01*
X82795305Y-83659854D01*
X82795306Y-83659851D01*
X82847061Y-83563025D01*
X82892897Y-83477271D01*
X83024235Y-83317235D01*
X83184271Y-83185897D01*
X83270025Y-83140061D01*
X83366851Y-83088306D01*
X83366854Y-83088305D01*
X83564968Y-83028207D01*
X83667903Y-83018069D01*
X83719369Y-83013000D01*
X84822631Y-83013000D01*
X84874097Y-83018069D01*
X84874097Y-83018069D01*
G37*
G36*
X66332097Y-83018069D02*
G01*
X66435032Y-83028207D01*
X66633146Y-83088305D01*
X66633149Y-83088306D01*
X66729975Y-83140061D01*
X66815729Y-83185897D01*
X66975765Y-83317235D01*
X67107103Y-83477271D01*
X67152939Y-83563025D01*
X67204694Y-83659851D01*
X67204695Y-83659854D01*
X67264793Y-83857968D01*
X67285085Y-84064000D01*
X67264793Y-84270032D01*
X67204695Y-84468146D01*
X67204694Y-84468149D01*
X67152939Y-84564975D01*
X67107103Y-84650729D01*
X66975765Y-84810765D01*
X66815729Y-84942103D01*
X66729975Y-84987939D01*
X66633149Y-85039694D01*
X66633146Y-85039695D01*
X66435032Y-85099793D01*
X66332097Y-85109931D01*
X66280631Y-85115000D01*
X65177369Y-85115000D01*
X65125903Y-85109931D01*
X65022968Y-85099793D01*
X64824854Y-85039695D01*
X64824851Y-85039694D01*
X64728025Y-84987939D01*
X64642271Y-84942103D01*
X64482235Y-84810765D01*
X64350897Y-84650729D01*
X64305061Y-84564975D01*
X64253306Y-84468149D01*
X64253305Y-84468146D01*
X64193207Y-84270032D01*
X64172915Y-84064000D01*
X64193207Y-83857968D01*
X64253305Y-83659854D01*
X64253306Y-83659851D01*
X64305061Y-83563025D01*
X64350897Y-83477271D01*
X64482235Y-83317235D01*
X64642271Y-83185897D01*
X64728025Y-83140061D01*
X64824851Y-83088306D01*
X64824854Y-83088305D01*
X65022968Y-83028207D01*
X65125903Y-83018069D01*
X65177369Y-83013000D01*
X66280631Y-83013000D01*
X66332097Y-83018069D01*
X66332097Y-83018069D01*
G37*
G36*
X105588674Y-81428465D02*
G01*
X105626367Y-81439899D01*
X105661103Y-81458466D01*
X105691548Y-81483452D01*
X105716534Y-81513897D01*
X105735101Y-81548633D01*
X105746535Y-81586326D01*
X105751000Y-81631661D01*
X105751000Y-82468339D01*
X105746535Y-82513674D01*
X105735101Y-82551367D01*
X105716534Y-82586103D01*
X105691548Y-82616548D01*
X105661103Y-82641534D01*
X105626367Y-82660101D01*
X105588674Y-82671535D01*
X105543339Y-82676000D01*
X104456661Y-82676000D01*
X104411326Y-82671535D01*
X104373633Y-82660101D01*
X104338897Y-82641534D01*
X104308452Y-82616548D01*
X104283466Y-82586103D01*
X104264899Y-82551367D01*
X104253465Y-82513674D01*
X104249000Y-82468339D01*
X104249000Y-81631661D01*
X104253465Y-81586326D01*
X104264899Y-81548633D01*
X104283466Y-81513897D01*
X104308452Y-81483452D01*
X104338897Y-81458466D01*
X104373633Y-81439899D01*
X104411326Y-81428465D01*
X104456661Y-81424000D01*
X105543339Y-81424000D01*
X105588674Y-81428465D01*
X105588674Y-81428465D01*
G37*
G36*
X100584468Y-80403565D02*
G01*
X100623138Y-80415296D01*
X100658777Y-80434346D01*
X100690017Y-80459983D01*
X100715654Y-80491223D01*
X100734704Y-80526862D01*
X100746435Y-80565532D01*
X100751000Y-80611888D01*
X100751000Y-81263112D01*
X100746435Y-81309468D01*
X100734704Y-81348138D01*
X100715654Y-81383777D01*
X100690017Y-81415017D01*
X100658777Y-81440654D01*
X100623138Y-81459704D01*
X100584468Y-81471435D01*
X100538112Y-81476000D01*
X99461888Y-81476000D01*
X99415532Y-81471435D01*
X99376862Y-81459704D01*
X99341223Y-81440654D01*
X99309983Y-81415017D01*
X99284346Y-81383777D01*
X99265296Y-81348138D01*
X99253565Y-81309468D01*
X99249000Y-81263112D01*
X99249000Y-80611888D01*
X99253565Y-80565532D01*
X99265296Y-80526862D01*
X99284346Y-80491223D01*
X99309983Y-80459983D01*
X99341223Y-80434346D01*
X99376862Y-80415296D01*
X99415532Y-80403565D01*
X99461888Y-80399000D01*
X100538112Y-80399000D01*
X100584468Y-80403565D01*
X100584468Y-80403565D01*
G37*
G36*
X105588674Y-79378465D02*
G01*
X105626367Y-79389899D01*
X105661103Y-79408466D01*
X105691548Y-79433452D01*
X105716534Y-79463897D01*
X105735101Y-79498633D01*
X105746535Y-79536326D01*
X105751000Y-79581661D01*
X105751000Y-80418339D01*
X105746535Y-80463674D01*
X105735101Y-80501367D01*
X105716534Y-80536103D01*
X105691548Y-80566548D01*
X105661103Y-80591534D01*
X105626367Y-80610101D01*
X105588674Y-80621535D01*
X105543339Y-80626000D01*
X104456661Y-80626000D01*
X104411326Y-80621535D01*
X104373633Y-80610101D01*
X104338897Y-80591534D01*
X104308452Y-80566548D01*
X104283466Y-80536103D01*
X104264899Y-80501367D01*
X104253465Y-80463674D01*
X104249000Y-80418339D01*
X104249000Y-79581661D01*
X104253465Y-79536326D01*
X104264899Y-79498633D01*
X104283466Y-79463897D01*
X104308452Y-79433452D01*
X104338897Y-79408466D01*
X104373633Y-79389899D01*
X104411326Y-79378465D01*
X104456661Y-79374000D01*
X105543339Y-79374000D01*
X105588674Y-79378465D01*
X105588674Y-79378465D01*
G37*
G36*
X100584468Y-78528565D02*
G01*
X100623138Y-78540296D01*
X100658777Y-78559346D01*
X100690017Y-78584983D01*
X100715654Y-78616223D01*
X100734704Y-78651862D01*
X100746435Y-78690532D01*
X100751000Y-78736888D01*
X100751000Y-79388112D01*
X100746435Y-79434468D01*
X100734704Y-79473138D01*
X100715654Y-79508777D01*
X100690017Y-79540017D01*
X100658777Y-79565654D01*
X100623138Y-79584704D01*
X100584468Y-79596435D01*
X100538112Y-79601000D01*
X99461888Y-79601000D01*
X99415532Y-79596435D01*
X99376862Y-79584704D01*
X99341223Y-79565654D01*
X99309983Y-79540017D01*
X99284346Y-79508777D01*
X99265296Y-79473138D01*
X99253565Y-79434468D01*
X99249000Y-79388112D01*
X99249000Y-78736888D01*
X99253565Y-78690532D01*
X99265296Y-78651862D01*
X99284346Y-78616223D01*
X99309983Y-78584983D01*
X99341223Y-78559346D01*
X99376862Y-78540296D01*
X99415532Y-78528565D01*
X99461888Y-78524000D01*
X100538112Y-78524000D01*
X100584468Y-78528565D01*
X100584468Y-78528565D01*
G37*
G36*
X110110442Y-76645518D02*
G01*
X110176627Y-76652037D01*
X110346466Y-76703557D01*
X110502991Y-76787222D01*
X110538729Y-76816552D01*
X110640186Y-76899814D01*
X110723448Y-77001271D01*
X110752778Y-77037009D01*
X110836443Y-77193534D01*
X110887963Y-77363373D01*
X110905359Y-77540000D01*
X110887963Y-77716627D01*
X110836443Y-77886466D01*
X110752778Y-78042991D01*
X110723448Y-78078729D01*
X110640186Y-78180186D01*
X110538729Y-78263448D01*
X110502991Y-78292778D01*
X110346466Y-78376443D01*
X110176627Y-78427963D01*
X110110442Y-78434482D01*
X110044260Y-78441000D01*
X109955740Y-78441000D01*
X109889558Y-78434482D01*
X109823373Y-78427963D01*
X109653534Y-78376443D01*
X109497009Y-78292778D01*
X109461271Y-78263448D01*
X109359814Y-78180186D01*
X109276552Y-78078729D01*
X109247222Y-78042991D01*
X109163557Y-77886466D01*
X109112037Y-77716627D01*
X109094641Y-77540000D01*
X109112037Y-77363373D01*
X109163557Y-77193534D01*
X109247222Y-77037009D01*
X109276552Y-77001271D01*
X109359814Y-76899814D01*
X109461271Y-76816552D01*
X109497009Y-76787222D01*
X109653534Y-76703557D01*
X109823373Y-76652037D01*
X109889558Y-76645518D01*
X109955740Y-76639000D01*
X110044260Y-76639000D01*
X110110442Y-76645518D01*
X110110442Y-76645518D01*
G37*
G36*
X85822000Y-76987000D02*
G01*
X82720000Y-76987000D01*
X82720000Y-74885000D01*
X85822000Y-74885000D01*
X85822000Y-76987000D01*
X85822000Y-76987000D01*
G37*
G36*
X67280000Y-76987000D02*
G01*
X64178000Y-76987000D01*
X64178000Y-74885000D01*
X67280000Y-74885000D01*
X67280000Y-76987000D01*
X67280000Y-76987000D01*
G37*
G36*
X110901000Y-75901000D02*
G01*
X109099000Y-75901000D01*
X109099000Y-74099000D01*
X110901000Y-74099000D01*
X110901000Y-75901000D01*
X110901000Y-75901000D01*
G37*
G36*
X94784999Y-74199737D02*
G01*
X94794608Y-74202652D01*
X94803472Y-74207390D01*
X94811212Y-74213742D01*
X94811213Y-74213743D01*
X94811237Y-74213763D01*
X94817640Y-74221573D01*
X94817677Y-74221628D01*
X94825480Y-74231147D01*
X94825511Y-74231122D01*
X94836853Y-74244972D01*
X94855779Y-74260537D01*
X94877377Y-74272111D01*
X94900819Y-74279249D01*
X94925202Y-74281676D01*
X94949591Y-74279300D01*
X94973047Y-74272211D01*
X94994670Y-74260682D01*
X95013628Y-74245157D01*
X95029193Y-74226231D01*
X95031029Y-74223175D01*
X95032418Y-74221486D01*
X95032419Y-74221484D01*
X95038801Y-74213725D01*
X95046573Y-74207360D01*
X95046575Y-74207358D01*
X95055399Y-74202654D01*
X95055438Y-74202633D01*
X95065055Y-74199727D01*
X95065085Y-74199718D01*
X95081113Y-74198148D01*
X96218860Y-74198148D01*
X96234999Y-74199737D01*
X96244608Y-74202652D01*
X96253472Y-74207390D01*
X96261237Y-74213763D01*
X96267610Y-74221528D01*
X96272348Y-74230392D01*
X96275263Y-74240001D01*
X96276852Y-74256140D01*
X96276852Y-75743860D01*
X96275263Y-75759999D01*
X96272348Y-75769608D01*
X96267610Y-75778472D01*
X96261237Y-75786237D01*
X96253472Y-75792610D01*
X96244608Y-75797348D01*
X96234999Y-75800263D01*
X96218860Y-75801852D01*
X95081140Y-75801852D01*
X95065001Y-75800263D01*
X95055392Y-75797348D01*
X95046528Y-75792610D01*
X95038763Y-75786237D01*
X95028116Y-75773263D01*
X95021947Y-75764032D01*
X95004619Y-75746706D01*
X94984244Y-75733093D01*
X94961605Y-75723717D01*
X94937572Y-75718937D01*
X94913068Y-75718938D01*
X94889035Y-75723720D01*
X94866396Y-75733098D01*
X94846022Y-75746713D01*
X94828696Y-75764041D01*
X94821825Y-75773317D01*
X94817640Y-75778427D01*
X94811275Y-75786199D01*
X94803516Y-75792581D01*
X94794661Y-75797326D01*
X94791623Y-75798251D01*
X94785085Y-75800242D01*
X94785082Y-75800242D01*
X94785050Y-75800252D01*
X94775000Y-75801247D01*
X94774935Y-75801247D01*
X94768825Y-75801852D01*
X93781140Y-75801852D01*
X93765001Y-75800263D01*
X93755392Y-75797348D01*
X93746528Y-75792610D01*
X93738763Y-75786237D01*
X93732390Y-75778472D01*
X93727652Y-75769608D01*
X93724737Y-75759999D01*
X93723148Y-75743860D01*
X93723148Y-74256140D01*
X93724737Y-74240001D01*
X93727652Y-74230392D01*
X93732390Y-74221528D01*
X93738763Y-74213763D01*
X93746528Y-74207390D01*
X93755392Y-74202652D01*
X93765001Y-74199737D01*
X93781140Y-74198148D01*
X94768860Y-74198148D01*
X94784999Y-74199737D01*
X94784999Y-74199737D01*
G37*
G36*
X106309468Y-74253565D02*
G01*
X106348138Y-74265296D01*
X106383777Y-74284346D01*
X106415017Y-74309983D01*
X106440654Y-74341223D01*
X106459704Y-74376862D01*
X106471435Y-74415532D01*
X106476000Y-74461888D01*
X106476000Y-75538112D01*
X106471435Y-75584468D01*
X106459704Y-75623138D01*
X106440654Y-75658777D01*
X106415017Y-75690017D01*
X106383777Y-75715654D01*
X106348138Y-75734704D01*
X106309468Y-75746435D01*
X106263112Y-75751000D01*
X105611888Y-75751000D01*
X105565532Y-75746435D01*
X105526862Y-75734704D01*
X105491223Y-75715654D01*
X105459983Y-75690017D01*
X105434346Y-75658777D01*
X105415296Y-75623138D01*
X105403565Y-75584468D01*
X105399000Y-75538112D01*
X105399000Y-74461888D01*
X105403565Y-74415532D01*
X105415296Y-74376862D01*
X105434346Y-74341223D01*
X105459983Y-74309983D01*
X105491223Y-74284346D01*
X105526862Y-74265296D01*
X105565532Y-74253565D01*
X105611888Y-74249000D01*
X106263112Y-74249000D01*
X106309468Y-74253565D01*
X106309468Y-74253565D01*
G37*
G36*
X104434468Y-74253565D02*
G01*
X104473138Y-74265296D01*
X104508777Y-74284346D01*
X104540017Y-74309983D01*
X104565654Y-74341223D01*
X104584704Y-74376862D01*
X104596435Y-74415532D01*
X104601000Y-74461888D01*
X104601000Y-75538112D01*
X104596435Y-75584468D01*
X104584704Y-75623138D01*
X104565654Y-75658777D01*
X104540017Y-75690017D01*
X104508777Y-75715654D01*
X104473138Y-75734704D01*
X104434468Y-75746435D01*
X104388112Y-75751000D01*
X103736888Y-75751000D01*
X103690532Y-75746435D01*
X103651862Y-75734704D01*
X103616223Y-75715654D01*
X103584983Y-75690017D01*
X103559346Y-75658777D01*
X103540296Y-75623138D01*
X103528565Y-75584468D01*
X103524000Y-75538112D01*
X103524000Y-74461888D01*
X103528565Y-74415532D01*
X103540296Y-74376862D01*
X103559346Y-74341223D01*
X103584983Y-74309983D01*
X103616223Y-74284346D01*
X103651862Y-74265296D01*
X103690532Y-74253565D01*
X103736888Y-74249000D01*
X104388112Y-74249000D01*
X104434468Y-74253565D01*
X104434468Y-74253565D01*
G37*
G36*
X66332097Y-72350069D02*
G01*
X66435032Y-72360207D01*
X66633146Y-72420305D01*
X66633149Y-72420306D01*
X66729975Y-72472061D01*
X66815729Y-72517897D01*
X66975765Y-72649235D01*
X67107103Y-72809271D01*
X67152939Y-72895025D01*
X67204694Y-72991851D01*
X67204695Y-72991854D01*
X67264793Y-73189968D01*
X67285085Y-73396000D01*
X67264793Y-73602032D01*
X67204695Y-73800146D01*
X67204694Y-73800149D01*
X67152939Y-73896975D01*
X67107103Y-73982729D01*
X66975765Y-74142765D01*
X66815729Y-74274103D01*
X66748602Y-74309983D01*
X66633149Y-74371694D01*
X66633146Y-74371695D01*
X66435032Y-74431793D01*
X66332097Y-74441931D01*
X66280631Y-74447000D01*
X65177369Y-74447000D01*
X65125903Y-74441931D01*
X65022968Y-74431793D01*
X64824854Y-74371695D01*
X64824851Y-74371694D01*
X64709398Y-74309983D01*
X64642271Y-74274103D01*
X64482235Y-74142765D01*
X64350897Y-73982729D01*
X64305061Y-73896975D01*
X64253306Y-73800149D01*
X64253305Y-73800146D01*
X64193207Y-73602032D01*
X64172915Y-73396000D01*
X64193207Y-73189968D01*
X64253305Y-72991854D01*
X64253306Y-72991851D01*
X64305061Y-72895025D01*
X64350897Y-72809271D01*
X64482235Y-72649235D01*
X64642271Y-72517897D01*
X64728025Y-72472061D01*
X64824851Y-72420306D01*
X64824854Y-72420305D01*
X65022968Y-72360207D01*
X65125903Y-72350069D01*
X65177369Y-72345000D01*
X66280631Y-72345000D01*
X66332097Y-72350069D01*
X66332097Y-72350069D01*
G37*
G36*
X84874097Y-72350069D02*
G01*
X84977032Y-72360207D01*
X85175146Y-72420305D01*
X85175149Y-72420306D01*
X85271975Y-72472061D01*
X85357729Y-72517897D01*
X85517765Y-72649235D01*
X85649103Y-72809271D01*
X85694939Y-72895025D01*
X85746694Y-72991851D01*
X85746695Y-72991854D01*
X85806793Y-73189968D01*
X85827085Y-73396000D01*
X85806793Y-73602032D01*
X85746695Y-73800146D01*
X85746694Y-73800149D01*
X85694939Y-73896975D01*
X85649103Y-73982729D01*
X85517765Y-74142765D01*
X85357729Y-74274103D01*
X85290602Y-74309983D01*
X85175149Y-74371694D01*
X85175146Y-74371695D01*
X84977032Y-74431793D01*
X84874097Y-74441931D01*
X84822631Y-74447000D01*
X83719369Y-74447000D01*
X83667903Y-74441931D01*
X83564968Y-74431793D01*
X83366854Y-74371695D01*
X83366851Y-74371694D01*
X83251398Y-74309983D01*
X83184271Y-74274103D01*
X83024235Y-74142765D01*
X82892897Y-73982729D01*
X82847061Y-73896975D01*
X82795306Y-73800149D01*
X82795305Y-73800146D01*
X82735207Y-73602032D01*
X82714915Y-73396000D01*
X82735207Y-73189968D01*
X82795305Y-72991854D01*
X82795306Y-72991851D01*
X82847061Y-72895025D01*
X82892897Y-72809271D01*
X83024235Y-72649235D01*
X83184271Y-72517897D01*
X83270025Y-72472061D01*
X83366851Y-72420306D01*
X83366854Y-72420305D01*
X83564968Y-72360207D01*
X83667903Y-72350069D01*
X83719369Y-72345000D01*
X84822631Y-72345000D01*
X84874097Y-72350069D01*
X84874097Y-72350069D01*
G37*
G36*
X90759999Y-68724737D02*
G01*
X90769608Y-68727652D01*
X90778472Y-68732390D01*
X90786237Y-68738763D01*
X90792610Y-68746528D01*
X90797348Y-68755392D01*
X90800263Y-68765001D01*
X90801852Y-68781140D01*
X90801852Y-69768860D01*
X90800263Y-69784999D01*
X90797348Y-69794608D01*
X90792610Y-69803472D01*
X90786258Y-69811212D01*
X90786237Y-69811237D01*
X90778427Y-69817640D01*
X90778372Y-69817677D01*
X90768853Y-69825480D01*
X90768878Y-69825511D01*
X90755028Y-69836853D01*
X90739463Y-69855779D01*
X90727889Y-69877377D01*
X90720751Y-69900819D01*
X90718324Y-69925202D01*
X90720700Y-69949591D01*
X90727789Y-69973047D01*
X90739318Y-69994670D01*
X90754843Y-70013628D01*
X90773769Y-70029193D01*
X90776825Y-70031029D01*
X90778514Y-70032418D01*
X90778516Y-70032419D01*
X90784712Y-70037515D01*
X90786274Y-70038800D01*
X90792642Y-70046575D01*
X90795791Y-70052483D01*
X90797367Y-70055438D01*
X90800257Y-70065001D01*
X90800282Y-70065085D01*
X90801852Y-70081113D01*
X90801852Y-71218860D01*
X90800263Y-71234999D01*
X90797348Y-71244608D01*
X90792610Y-71253472D01*
X90786237Y-71261237D01*
X90778472Y-71267610D01*
X90769608Y-71272348D01*
X90759999Y-71275263D01*
X90743860Y-71276852D01*
X89256140Y-71276852D01*
X89240001Y-71275263D01*
X89230392Y-71272348D01*
X89221528Y-71267610D01*
X89213763Y-71261237D01*
X89207390Y-71253472D01*
X89202652Y-71244608D01*
X89199737Y-71234999D01*
X89198148Y-71218860D01*
X89198148Y-70081140D01*
X89199737Y-70065001D01*
X89202652Y-70055392D01*
X89207390Y-70046528D01*
X89213763Y-70038763D01*
X89226737Y-70028116D01*
X89235968Y-70021947D01*
X89253294Y-70004619D01*
X89266907Y-69984244D01*
X89276283Y-69961605D01*
X89281063Y-69937572D01*
X89281062Y-69913068D01*
X89276280Y-69889035D01*
X89266902Y-69866396D01*
X89253287Y-69846022D01*
X89235959Y-69828696D01*
X89226683Y-69821825D01*
X89213800Y-69811274D01*
X89212668Y-69809897D01*
X89207419Y-69803516D01*
X89202674Y-69794661D01*
X89201749Y-69791623D01*
X89199758Y-69785085D01*
X89199758Y-69785082D01*
X89199748Y-69785050D01*
X89198753Y-69775000D01*
X89198753Y-69774935D01*
X89198148Y-69768825D01*
X89198148Y-68781140D01*
X89199737Y-68765001D01*
X89202652Y-68755392D01*
X89207390Y-68746528D01*
X89213763Y-68738763D01*
X89221528Y-68732390D01*
X89230392Y-68727652D01*
X89240001Y-68724737D01*
X89256140Y-68723148D01*
X90743860Y-68723148D01*
X90759999Y-68724737D01*
X90759999Y-68724737D01*
G37*
G36*
X55110443Y-66725519D02*
G01*
X55176627Y-66732037D01*
X55346466Y-66783557D01*
X55502991Y-66867222D01*
X55538729Y-66896552D01*
X55640186Y-66979814D01*
X55723448Y-67081271D01*
X55752778Y-67117009D01*
X55836443Y-67273534D01*
X55887963Y-67443373D01*
X55905359Y-67620000D01*
X55887963Y-67796627D01*
X55836443Y-67966466D01*
X55752778Y-68122991D01*
X55723448Y-68158729D01*
X55640186Y-68260186D01*
X55538729Y-68343448D01*
X55502991Y-68372778D01*
X55346466Y-68456443D01*
X55176627Y-68507963D01*
X55110442Y-68514482D01*
X55044260Y-68521000D01*
X54955740Y-68521000D01*
X54889558Y-68514482D01*
X54823373Y-68507963D01*
X54653534Y-68456443D01*
X54497009Y-68372778D01*
X54461271Y-68343448D01*
X54359814Y-68260186D01*
X54276552Y-68158729D01*
X54247222Y-68122991D01*
X54163557Y-67966466D01*
X54112037Y-67796627D01*
X54094641Y-67620000D01*
X54112037Y-67443373D01*
X54163557Y-67273534D01*
X54247222Y-67117009D01*
X54276552Y-67081271D01*
X54359814Y-66979814D01*
X54461271Y-66896552D01*
X54497009Y-66867222D01*
X54653534Y-66783557D01*
X54823373Y-66732037D01*
X54889557Y-66725519D01*
X54955740Y-66719000D01*
X55044260Y-66719000D01*
X55110443Y-66725519D01*
X55110443Y-66725519D01*
G37*
G36*
X85822000Y-67655000D02*
G01*
X82720000Y-67655000D01*
X82720000Y-65553000D01*
X85822000Y-65553000D01*
X85822000Y-67655000D01*
X85822000Y-67655000D01*
G37*
G36*
X67280000Y-67655000D02*
G01*
X64178000Y-67655000D01*
X64178000Y-65553000D01*
X67280000Y-65553000D01*
X67280000Y-67655000D01*
X67280000Y-67655000D01*
G37*
G36*
X55110442Y-64185518D02*
G01*
X55176627Y-64192037D01*
X55346466Y-64243557D01*
X55502991Y-64327222D01*
X55538729Y-64356552D01*
X55640186Y-64439814D01*
X55723448Y-64541271D01*
X55752778Y-64577009D01*
X55836443Y-64733534D01*
X55887963Y-64903373D01*
X55905359Y-65080000D01*
X55887963Y-65256627D01*
X55836443Y-65426466D01*
X55752778Y-65582991D01*
X55723448Y-65618729D01*
X55640186Y-65720186D01*
X55538729Y-65803448D01*
X55502991Y-65832778D01*
X55346466Y-65916443D01*
X55176627Y-65967963D01*
X55110443Y-65974481D01*
X55044260Y-65981000D01*
X54955740Y-65981000D01*
X54889557Y-65974481D01*
X54823373Y-65967963D01*
X54653534Y-65916443D01*
X54497009Y-65832778D01*
X54461271Y-65803448D01*
X54359814Y-65720186D01*
X54276552Y-65618729D01*
X54247222Y-65582991D01*
X54163557Y-65426466D01*
X54112037Y-65256627D01*
X54094641Y-65080000D01*
X54112037Y-64903373D01*
X54163557Y-64733534D01*
X54247222Y-64577009D01*
X54276552Y-64541271D01*
X54359814Y-64439814D01*
X54461271Y-64356552D01*
X54497009Y-64327222D01*
X54653534Y-64243557D01*
X54823373Y-64192037D01*
X54889558Y-64185518D01*
X54955740Y-64179000D01*
X55044260Y-64179000D01*
X55110442Y-64185518D01*
X55110442Y-64185518D01*
G37*
G36*
X84874097Y-63018069D02*
G01*
X84977032Y-63028207D01*
X85175146Y-63088305D01*
X85175149Y-63088306D01*
X85271975Y-63140061D01*
X85357729Y-63185897D01*
X85517765Y-63317235D01*
X85649103Y-63477271D01*
X85694939Y-63563025D01*
X85746694Y-63659851D01*
X85746695Y-63659854D01*
X85806793Y-63857968D01*
X85827085Y-64064000D01*
X85806793Y-64270032D01*
X85755289Y-64439815D01*
X85746694Y-64468149D01*
X85694939Y-64564975D01*
X85649103Y-64650729D01*
X85517765Y-64810765D01*
X85357729Y-64942103D01*
X85271975Y-64987939D01*
X85175149Y-65039694D01*
X85175146Y-65039695D01*
X84977032Y-65099793D01*
X84874097Y-65109931D01*
X84822631Y-65115000D01*
X83719369Y-65115000D01*
X83667903Y-65109931D01*
X83564968Y-65099793D01*
X83366854Y-65039695D01*
X83366851Y-65039694D01*
X83270025Y-64987939D01*
X83184271Y-64942103D01*
X83024235Y-64810765D01*
X82892897Y-64650729D01*
X82847061Y-64564975D01*
X82795306Y-64468149D01*
X82786711Y-64439815D01*
X82735207Y-64270032D01*
X82714915Y-64064000D01*
X82735207Y-63857968D01*
X82795305Y-63659854D01*
X82795306Y-63659851D01*
X82847061Y-63563025D01*
X82892897Y-63477271D01*
X83024235Y-63317235D01*
X83184271Y-63185897D01*
X83270025Y-63140061D01*
X83366851Y-63088306D01*
X83366854Y-63088305D01*
X83564968Y-63028207D01*
X83667903Y-63018069D01*
X83719369Y-63013000D01*
X84822631Y-63013000D01*
X84874097Y-63018069D01*
X84874097Y-63018069D01*
G37*
G36*
X66332097Y-63018069D02*
G01*
X66435032Y-63028207D01*
X66633146Y-63088305D01*
X66633149Y-63088306D01*
X66729975Y-63140061D01*
X66815729Y-63185897D01*
X66975765Y-63317235D01*
X67107103Y-63477271D01*
X67152939Y-63563025D01*
X67204694Y-63659851D01*
X67204695Y-63659854D01*
X67264793Y-63857968D01*
X67285085Y-64064000D01*
X67264793Y-64270032D01*
X67213289Y-64439815D01*
X67204694Y-64468149D01*
X67152939Y-64564975D01*
X67107103Y-64650729D01*
X66975765Y-64810765D01*
X66815729Y-64942103D01*
X66729975Y-64987939D01*
X66633149Y-65039694D01*
X66633146Y-65039695D01*
X66435032Y-65099793D01*
X66332097Y-65109931D01*
X66280631Y-65115000D01*
X65177369Y-65115000D01*
X65125903Y-65109931D01*
X65022968Y-65099793D01*
X64824854Y-65039695D01*
X64824851Y-65039694D01*
X64728025Y-64987939D01*
X64642271Y-64942103D01*
X64482235Y-64810765D01*
X64350897Y-64650729D01*
X64305061Y-64564975D01*
X64253306Y-64468149D01*
X64244711Y-64439815D01*
X64193207Y-64270032D01*
X64172915Y-64064000D01*
X64193207Y-63857968D01*
X64253305Y-63659854D01*
X64253306Y-63659851D01*
X64305061Y-63563025D01*
X64350897Y-63477271D01*
X64482235Y-63317235D01*
X64642271Y-63185897D01*
X64728025Y-63140061D01*
X64824851Y-63088306D01*
X64824854Y-63088305D01*
X65022968Y-63028207D01*
X65125903Y-63018069D01*
X65177369Y-63013000D01*
X66280631Y-63013000D01*
X66332097Y-63018069D01*
X66332097Y-63018069D01*
G37*
G36*
X55110443Y-61645519D02*
G01*
X55176627Y-61652037D01*
X55346466Y-61703557D01*
X55502991Y-61787222D01*
X55538729Y-61816552D01*
X55640186Y-61899814D01*
X55723448Y-62001271D01*
X55752778Y-62037009D01*
X55836443Y-62193534D01*
X55887963Y-62363373D01*
X55905359Y-62540000D01*
X55887963Y-62716627D01*
X55836443Y-62886466D01*
X55752778Y-63042991D01*
X55723448Y-63078729D01*
X55640186Y-63180186D01*
X55538729Y-63263448D01*
X55502991Y-63292778D01*
X55346466Y-63376443D01*
X55176627Y-63427963D01*
X55110443Y-63434481D01*
X55044260Y-63441000D01*
X54955740Y-63441000D01*
X54889557Y-63434481D01*
X54823373Y-63427963D01*
X54653534Y-63376443D01*
X54497009Y-63292778D01*
X54461271Y-63263448D01*
X54359814Y-63180186D01*
X54276552Y-63078729D01*
X54247222Y-63042991D01*
X54163557Y-62886466D01*
X54112037Y-62716627D01*
X54094641Y-62540000D01*
X54112037Y-62363373D01*
X54163557Y-62193534D01*
X54247222Y-62037009D01*
X54276552Y-62001271D01*
X54359814Y-61899814D01*
X54461271Y-61816552D01*
X54497009Y-61787222D01*
X54653534Y-61703557D01*
X54823373Y-61652037D01*
X54889557Y-61645519D01*
X54955740Y-61639000D01*
X55044260Y-61639000D01*
X55110443Y-61645519D01*
X55110443Y-61645519D01*
G37*
G36*
X105588674Y-61428465D02*
G01*
X105626367Y-61439899D01*
X105661103Y-61458466D01*
X105691548Y-61483452D01*
X105716534Y-61513897D01*
X105735101Y-61548633D01*
X105746535Y-61586326D01*
X105751000Y-61631661D01*
X105751000Y-62468339D01*
X105746535Y-62513674D01*
X105735101Y-62551367D01*
X105716534Y-62586103D01*
X105691548Y-62616548D01*
X105661103Y-62641534D01*
X105626367Y-62660101D01*
X105588674Y-62671535D01*
X105543339Y-62676000D01*
X104456661Y-62676000D01*
X104411326Y-62671535D01*
X104373633Y-62660101D01*
X104338897Y-62641534D01*
X104308452Y-62616548D01*
X104283466Y-62586103D01*
X104264899Y-62551367D01*
X104253465Y-62513674D01*
X104249000Y-62468339D01*
X104249000Y-61631661D01*
X104253465Y-61586326D01*
X104264899Y-61548633D01*
X104283466Y-61513897D01*
X104308452Y-61483452D01*
X104338897Y-61458466D01*
X104373633Y-61439899D01*
X104411326Y-61428465D01*
X104456661Y-61424000D01*
X105543339Y-61424000D01*
X105588674Y-61428465D01*
X105588674Y-61428465D01*
G37*
G36*
X100584468Y-60403565D02*
G01*
X100623138Y-60415296D01*
X100658777Y-60434346D01*
X100690017Y-60459983D01*
X100715654Y-60491223D01*
X100734704Y-60526862D01*
X100746435Y-60565532D01*
X100751000Y-60611888D01*
X100751000Y-61263112D01*
X100746435Y-61309468D01*
X100734704Y-61348138D01*
X100715654Y-61383777D01*
X100690017Y-61415017D01*
X100658777Y-61440654D01*
X100623138Y-61459704D01*
X100584468Y-61471435D01*
X100538112Y-61476000D01*
X99461888Y-61476000D01*
X99415532Y-61471435D01*
X99376862Y-61459704D01*
X99341223Y-61440654D01*
X99309983Y-61415017D01*
X99284346Y-61383777D01*
X99265296Y-61348138D01*
X99253565Y-61309468D01*
X99249000Y-61263112D01*
X99249000Y-60611888D01*
X99253565Y-60565532D01*
X99265296Y-60526862D01*
X99284346Y-60491223D01*
X99309983Y-60459983D01*
X99341223Y-60434346D01*
X99376862Y-60415296D01*
X99415532Y-60403565D01*
X99461888Y-60399000D01*
X100538112Y-60399000D01*
X100584468Y-60403565D01*
X100584468Y-60403565D01*
G37*
G36*
X55901000Y-60901000D02*
G01*
X54099000Y-60901000D01*
X54099000Y-59099000D01*
X55901000Y-59099000D01*
X55901000Y-60901000D01*
X55901000Y-60901000D01*
G37*
G36*
X105588674Y-59378465D02*
G01*
X105626367Y-59389899D01*
X105661103Y-59408466D01*
X105691548Y-59433452D01*
X105716534Y-59463897D01*
X105735101Y-59498633D01*
X105746535Y-59536326D01*
X105751000Y-59581661D01*
X105751000Y-60418339D01*
X105746535Y-60463674D01*
X105735101Y-60501367D01*
X105716534Y-60536103D01*
X105691548Y-60566548D01*
X105661103Y-60591534D01*
X105626367Y-60610101D01*
X105588674Y-60621535D01*
X105543339Y-60626000D01*
X104456661Y-60626000D01*
X104411326Y-60621535D01*
X104373633Y-60610101D01*
X104338897Y-60591534D01*
X104308452Y-60566548D01*
X104283466Y-60536103D01*
X104264899Y-60501367D01*
X104253465Y-60463674D01*
X104249000Y-60418339D01*
X104249000Y-59581661D01*
X104253465Y-59536326D01*
X104264899Y-59498633D01*
X104283466Y-59463897D01*
X104308452Y-59433452D01*
X104338897Y-59408466D01*
X104373633Y-59389899D01*
X104411326Y-59378465D01*
X104456661Y-59374000D01*
X105543339Y-59374000D01*
X105588674Y-59378465D01*
X105588674Y-59378465D01*
G37*
G36*
X100584468Y-58528565D02*
G01*
X100623138Y-58540296D01*
X100658777Y-58559346D01*
X100690017Y-58584983D01*
X100715654Y-58616223D01*
X100734704Y-58651862D01*
X100746435Y-58690532D01*
X100751000Y-58736888D01*
X100751000Y-59388112D01*
X100746435Y-59434468D01*
X100734704Y-59473138D01*
X100715654Y-59508777D01*
X100690017Y-59540017D01*
X100658777Y-59565654D01*
X100623138Y-59584704D01*
X100584468Y-59596435D01*
X100538112Y-59601000D01*
X99461888Y-59601000D01*
X99415532Y-59596435D01*
X99376862Y-59584704D01*
X99341223Y-59565654D01*
X99309983Y-59540017D01*
X99284346Y-59508777D01*
X99265296Y-59473138D01*
X99253565Y-59434468D01*
X99249000Y-59388112D01*
X99249000Y-58736888D01*
X99253565Y-58690532D01*
X99265296Y-58651862D01*
X99284346Y-58616223D01*
X99309983Y-58584983D01*
X99341223Y-58559346D01*
X99376862Y-58540296D01*
X99415532Y-58528565D01*
X99461888Y-58524000D01*
X100538112Y-58524000D01*
X100584468Y-58528565D01*
X100584468Y-58528565D01*
G37*
G36*
X110110443Y-56645519D02*
G01*
X110176627Y-56652037D01*
X110346466Y-56703557D01*
X110502991Y-56787222D01*
X110538729Y-56816552D01*
X110640186Y-56899814D01*
X110723448Y-57001271D01*
X110752778Y-57037009D01*
X110836443Y-57193534D01*
X110887963Y-57363373D01*
X110905359Y-57540000D01*
X110887963Y-57716627D01*
X110836443Y-57886466D01*
X110752778Y-58042991D01*
X110723448Y-58078729D01*
X110640186Y-58180186D01*
X110538729Y-58263448D01*
X110502991Y-58292778D01*
X110346466Y-58376443D01*
X110176627Y-58427963D01*
X110110443Y-58434481D01*
X110044260Y-58441000D01*
X109955740Y-58441000D01*
X109889557Y-58434481D01*
X109823373Y-58427963D01*
X109653534Y-58376443D01*
X109497009Y-58292778D01*
X109461271Y-58263448D01*
X109359814Y-58180186D01*
X109276552Y-58078729D01*
X109247222Y-58042991D01*
X109163557Y-57886466D01*
X109112037Y-57716627D01*
X109094641Y-57540000D01*
X109112037Y-57363373D01*
X109163557Y-57193534D01*
X109247222Y-57037009D01*
X109276552Y-57001271D01*
X109359814Y-56899814D01*
X109461271Y-56816552D01*
X109497009Y-56787222D01*
X109653534Y-56703557D01*
X109823373Y-56652037D01*
X109889557Y-56645519D01*
X109955740Y-56639000D01*
X110044260Y-56639000D01*
X110110443Y-56645519D01*
X110110443Y-56645519D01*
G37*
G36*
X145831313Y-52259523D02*
G01*
X146349980Y-52474362D01*
X146504871Y-52577857D01*
X146816769Y-52786260D01*
X147213740Y-53183231D01*
X147355907Y-53396000D01*
X147525638Y-53650020D01*
X147740477Y-54168687D01*
X147850000Y-54719298D01*
X147850000Y-55280702D01*
X147740477Y-55831313D01*
X147525638Y-56349980D01*
X147525637Y-56349981D01*
X147213740Y-56816769D01*
X146816769Y-57213740D01*
X146592827Y-57363373D01*
X146349980Y-57525638D01*
X145831313Y-57740477D01*
X145280702Y-57850000D01*
X144719298Y-57850000D01*
X144168687Y-57740477D01*
X143650020Y-57525638D01*
X143407173Y-57363373D01*
X143183231Y-57213740D01*
X142786260Y-56816769D01*
X142474363Y-56349981D01*
X142474362Y-56349980D01*
X142259523Y-55831313D01*
X142150000Y-55280702D01*
X142150000Y-54719298D01*
X142259523Y-54168687D01*
X142474362Y-53650020D01*
X142644093Y-53396000D01*
X142786260Y-53183231D01*
X143183231Y-52786260D01*
X143495129Y-52577857D01*
X143650020Y-52474362D01*
X144168687Y-52259523D01*
X144719298Y-52150000D01*
X145280702Y-52150000D01*
X145831313Y-52259523D01*
X145831313Y-52259523D01*
G37*
G36*
X55831313Y-52259523D02*
G01*
X56349980Y-52474362D01*
X56504871Y-52577857D01*
X56816769Y-52786260D01*
X57213740Y-53183231D01*
X57355907Y-53396000D01*
X57525638Y-53650020D01*
X57740477Y-54168687D01*
X57850000Y-54719298D01*
X57850000Y-55280702D01*
X57740477Y-55831313D01*
X57525638Y-56349980D01*
X57525637Y-56349981D01*
X57213740Y-56816769D01*
X56816769Y-57213740D01*
X56592827Y-57363373D01*
X56349980Y-57525638D01*
X55831313Y-57740477D01*
X55280702Y-57850000D01*
X54719298Y-57850000D01*
X54168687Y-57740477D01*
X53650020Y-57525638D01*
X53407173Y-57363373D01*
X53183231Y-57213740D01*
X52786260Y-56816769D01*
X52474363Y-56349981D01*
X52474362Y-56349980D01*
X52259523Y-55831313D01*
X52150000Y-55280702D01*
X52150000Y-54719298D01*
X52259523Y-54168687D01*
X52474362Y-53650020D01*
X52644093Y-53396000D01*
X52786260Y-53183231D01*
X53183231Y-52786260D01*
X53495129Y-52577857D01*
X53650020Y-52474362D01*
X54168687Y-52259523D01*
X54719298Y-52150000D01*
X55280702Y-52150000D01*
X55831313Y-52259523D01*
X55831313Y-52259523D01*
G37*
G36*
X85822000Y-56987000D02*
G01*
X82720000Y-56987000D01*
X82720000Y-54885000D01*
X85822000Y-54885000D01*
X85822000Y-56987000D01*
X85822000Y-56987000D01*
G37*
G36*
X67280000Y-56987000D02*
G01*
X64178000Y-56987000D01*
X64178000Y-54885000D01*
X67280000Y-54885000D01*
X67280000Y-56987000D01*
X67280000Y-56987000D01*
G37*
G36*
X110901000Y-55901000D02*
G01*
X109099000Y-55901000D01*
X109099000Y-54099000D01*
X110901000Y-54099000D01*
X110901000Y-55901000D01*
X110901000Y-55901000D01*
G37*
G36*
X94784999Y-54199737D02*
G01*
X94794608Y-54202652D01*
X94803472Y-54207390D01*
X94811212Y-54213742D01*
X94811213Y-54213743D01*
X94811237Y-54213763D01*
X94817640Y-54221573D01*
X94817677Y-54221628D01*
X94825480Y-54231147D01*
X94825511Y-54231122D01*
X94836853Y-54244972D01*
X94855779Y-54260537D01*
X94877377Y-54272111D01*
X94900819Y-54279249D01*
X94925202Y-54281676D01*
X94949591Y-54279300D01*
X94973047Y-54272211D01*
X94994670Y-54260682D01*
X95013628Y-54245157D01*
X95029193Y-54226231D01*
X95031029Y-54223175D01*
X95032418Y-54221486D01*
X95032419Y-54221484D01*
X95038801Y-54213725D01*
X95046573Y-54207360D01*
X95046575Y-54207358D01*
X95055399Y-54202654D01*
X95055438Y-54202633D01*
X95065055Y-54199727D01*
X95065085Y-54199718D01*
X95081113Y-54198148D01*
X96218860Y-54198148D01*
X96234999Y-54199737D01*
X96244608Y-54202652D01*
X96253472Y-54207390D01*
X96261237Y-54213763D01*
X96267610Y-54221528D01*
X96272348Y-54230392D01*
X96275263Y-54240001D01*
X96276852Y-54256140D01*
X96276852Y-55743860D01*
X96275263Y-55759999D01*
X96272348Y-55769608D01*
X96267610Y-55778472D01*
X96261237Y-55786237D01*
X96253472Y-55792610D01*
X96244608Y-55797348D01*
X96234999Y-55800263D01*
X96218860Y-55801852D01*
X95081140Y-55801852D01*
X95065001Y-55800263D01*
X95055392Y-55797348D01*
X95046528Y-55792610D01*
X95038763Y-55786237D01*
X95028116Y-55773263D01*
X95021947Y-55764032D01*
X95004619Y-55746706D01*
X94984244Y-55733093D01*
X94961605Y-55723717D01*
X94937572Y-55718937D01*
X94913068Y-55718938D01*
X94889035Y-55723720D01*
X94866396Y-55733098D01*
X94846022Y-55746713D01*
X94828696Y-55764041D01*
X94821825Y-55773317D01*
X94817640Y-55778427D01*
X94811275Y-55786199D01*
X94803516Y-55792581D01*
X94794661Y-55797326D01*
X94791623Y-55798251D01*
X94785085Y-55800242D01*
X94785082Y-55800242D01*
X94785050Y-55800252D01*
X94775000Y-55801247D01*
X94774935Y-55801247D01*
X94768825Y-55801852D01*
X93781140Y-55801852D01*
X93765001Y-55800263D01*
X93755392Y-55797348D01*
X93746528Y-55792610D01*
X93738763Y-55786237D01*
X93732390Y-55778472D01*
X93727652Y-55769608D01*
X93724737Y-55759999D01*
X93723148Y-55743860D01*
X93723148Y-54256140D01*
X93724737Y-54240001D01*
X93727652Y-54230392D01*
X93732390Y-54221528D01*
X93738763Y-54213763D01*
X93746528Y-54207390D01*
X93755392Y-54202652D01*
X93765001Y-54199737D01*
X93781140Y-54198148D01*
X94768860Y-54198148D01*
X94784999Y-54199737D01*
X94784999Y-54199737D01*
G37*
G36*
X104434468Y-54253565D02*
G01*
X104473138Y-54265296D01*
X104508777Y-54284346D01*
X104540017Y-54309983D01*
X104565654Y-54341223D01*
X104584704Y-54376862D01*
X104596435Y-54415532D01*
X104601000Y-54461888D01*
X104601000Y-55538112D01*
X104596435Y-55584468D01*
X104584704Y-55623138D01*
X104565654Y-55658777D01*
X104540017Y-55690017D01*
X104508777Y-55715654D01*
X104473138Y-55734704D01*
X104434468Y-55746435D01*
X104388112Y-55751000D01*
X103736888Y-55751000D01*
X103690532Y-55746435D01*
X103651862Y-55734704D01*
X103616223Y-55715654D01*
X103584983Y-55690017D01*
X103559346Y-55658777D01*
X103540296Y-55623138D01*
X103528565Y-55584468D01*
X103524000Y-55538112D01*
X103524000Y-54461888D01*
X103528565Y-54415532D01*
X103540296Y-54376862D01*
X103559346Y-54341223D01*
X103584983Y-54309983D01*
X103616223Y-54284346D01*
X103651862Y-54265296D01*
X103690532Y-54253565D01*
X103736888Y-54249000D01*
X104388112Y-54249000D01*
X104434468Y-54253565D01*
X104434468Y-54253565D01*
G37*
G36*
X106309468Y-54253565D02*
G01*
X106348138Y-54265296D01*
X106383777Y-54284346D01*
X106415017Y-54309983D01*
X106440654Y-54341223D01*
X106459704Y-54376862D01*
X106471435Y-54415532D01*
X106476000Y-54461888D01*
X106476000Y-55538112D01*
X106471435Y-55584468D01*
X106459704Y-55623138D01*
X106440654Y-55658777D01*
X106415017Y-55690017D01*
X106383777Y-55715654D01*
X106348138Y-55734704D01*
X106309468Y-55746435D01*
X106263112Y-55751000D01*
X105611888Y-55751000D01*
X105565532Y-55746435D01*
X105526862Y-55734704D01*
X105491223Y-55715654D01*
X105459983Y-55690017D01*
X105434346Y-55658777D01*
X105415296Y-55623138D01*
X105403565Y-55584468D01*
X105399000Y-55538112D01*
X105399000Y-54461888D01*
X105403565Y-54415532D01*
X105415296Y-54376862D01*
X105434346Y-54341223D01*
X105459983Y-54309983D01*
X105491223Y-54284346D01*
X105526862Y-54265296D01*
X105565532Y-54253565D01*
X105611888Y-54249000D01*
X106263112Y-54249000D01*
X106309468Y-54253565D01*
X106309468Y-54253565D01*
G37*
G36*
X84874097Y-52350069D02*
G01*
X84977032Y-52360207D01*
X85175146Y-52420305D01*
X85175149Y-52420306D01*
X85271975Y-52472061D01*
X85357729Y-52517897D01*
X85517765Y-52649235D01*
X85649103Y-52809271D01*
X85694939Y-52895025D01*
X85746694Y-52991851D01*
X85746695Y-52991854D01*
X85806793Y-53189968D01*
X85827085Y-53396000D01*
X85806793Y-53602032D01*
X85746695Y-53800146D01*
X85746694Y-53800149D01*
X85694939Y-53896975D01*
X85649103Y-53982729D01*
X85517765Y-54142765D01*
X85357729Y-54274103D01*
X85290602Y-54309983D01*
X85175149Y-54371694D01*
X85175146Y-54371695D01*
X84977032Y-54431793D01*
X84874097Y-54441931D01*
X84822631Y-54447000D01*
X83719369Y-54447000D01*
X83667903Y-54441931D01*
X83564968Y-54431793D01*
X83366854Y-54371695D01*
X83366851Y-54371694D01*
X83251398Y-54309983D01*
X83184271Y-54274103D01*
X83024235Y-54142765D01*
X82892897Y-53982729D01*
X82847061Y-53896975D01*
X82795306Y-53800149D01*
X82795305Y-53800146D01*
X82735207Y-53602032D01*
X82714915Y-53396000D01*
X82735207Y-53189968D01*
X82795305Y-52991854D01*
X82795306Y-52991851D01*
X82847061Y-52895025D01*
X82892897Y-52809271D01*
X83024235Y-52649235D01*
X83184271Y-52517897D01*
X83270025Y-52472061D01*
X83366851Y-52420306D01*
X83366854Y-52420305D01*
X83564968Y-52360207D01*
X83667903Y-52350069D01*
X83719369Y-52345000D01*
X84822631Y-52345000D01*
X84874097Y-52350069D01*
X84874097Y-52350069D01*
G37*
G36*
X66332097Y-52350069D02*
G01*
X66435032Y-52360207D01*
X66633146Y-52420305D01*
X66633149Y-52420306D01*
X66729975Y-52472061D01*
X66815729Y-52517897D01*
X66975765Y-52649235D01*
X67107103Y-52809271D01*
X67152939Y-52895025D01*
X67204694Y-52991851D01*
X67204695Y-52991854D01*
X67264793Y-53189968D01*
X67285085Y-53396000D01*
X67264793Y-53602032D01*
X67204695Y-53800146D01*
X67204694Y-53800149D01*
X67152939Y-53896975D01*
X67107103Y-53982729D01*
X66975765Y-54142765D01*
X66815729Y-54274103D01*
X66748602Y-54309983D01*
X66633149Y-54371694D01*
X66633146Y-54371695D01*
X66435032Y-54431793D01*
X66332097Y-54441931D01*
X66280631Y-54447000D01*
X65177369Y-54447000D01*
X65125903Y-54441931D01*
X65022968Y-54431793D01*
X64824854Y-54371695D01*
X64824851Y-54371694D01*
X64709398Y-54309983D01*
X64642271Y-54274103D01*
X64482235Y-54142765D01*
X64350897Y-53982729D01*
X64305061Y-53896975D01*
X64253306Y-53800149D01*
X64253305Y-53800146D01*
X64193207Y-53602032D01*
X64172915Y-53396000D01*
X64193207Y-53189968D01*
X64253305Y-52991854D01*
X64253306Y-52991851D01*
X64305061Y-52895025D01*
X64350897Y-52809271D01*
X64482235Y-52649235D01*
X64642271Y-52517897D01*
X64728025Y-52472061D01*
X64824851Y-52420306D01*
X64824854Y-52420305D01*
X65022968Y-52360207D01*
X65125903Y-52350069D01*
X65177369Y-52345000D01*
X66280631Y-52345000D01*
X66332097Y-52350069D01*
X66332097Y-52350069D01*
G37*
M02*
