M48
; DRILL file {KiCad 5.1.2-f72e74a~84~ubuntu18.04.1} date Saturday, May 25, 2019 PM03:58:01 HKT
; FORMAT={-:-/ absolute / inch / decimal}
; #@! TF.CreationDate,2019-05-25T15:58:01+08:00
; #@! TF.GenerationSoftware,Kicad,Pcbnew,5.1.2-f72e74a~84~ubuntu18.04.1
; #@! TF.FileFunction,Plated,1,2,PTH
FMAT,2
INCH
T1C0.0157
T2C0.0394
%
G90
G05
T1
X2.5878Y-5.2731
X2.9459Y-5.2874
X3.1732Y-5.626
X3.2923Y-5.2638
X3.5433Y-2.7274
X3.5433Y-2.7972
X3.5433Y-3.5148
X3.5433Y-3.5846
X3.5433Y-4.3022
X3.5433Y-4.372
X3.5433Y-5.0896
X3.7402Y-3.3465
X3.7402Y-4.2323
X3.7402Y-5.0197
X3.7736Y-3.7402
X3.7815Y-2.9528
X3.7815Y-4.5276
X3.7835Y-2.1654
X3.8125Y-5.3622
X3.9355Y-3.9739
X3.937Y-2.3253
X3.937Y-2.3991
X3.937Y-3.1127
X3.937Y-3.1865
X3.937Y-3.9001
X3.937Y-4.7244
X3.937Y-4.7982
X4.0935Y-2.9528
X4.0935Y-3.7402
X4.0935Y-4.5276
X4.094Y-2.1649
X4.1334Y-3.9769
X4.1339Y-2.4429
X4.1339Y-3.2303
X4.1339Y-3.8967
X4.1339Y-4.6437
X4.1339Y-4.7244
X4.1348Y-3.1486
X4.1358Y-2.3602
X4.1742Y-2.1654
X4.1742Y-2.9528
X4.1742Y-3.7402
X4.1742Y-4.5276
X3.2786Y-5.4493
X3.2786Y-5.4843
X3.2786Y-5.5193
X3.3186Y-5.4493
X3.3186Y-5.4843
X3.3186Y-5.5193
X3.3586Y-5.4493
X3.3586Y-5.4843
X3.3586Y-5.5193
X3.3986Y-5.4493
X3.3986Y-5.4843
X3.3986Y-5.5193
T2
X2.5878Y-2.1022
X2.5878Y-2.2022
X2.5878Y-2.5222
X2.5878Y-2.6222
X3.3178Y-2.1022
X3.3178Y-2.2022
X3.3178Y-2.5222
X3.3178Y-2.6222
X2.2598Y-5.2598
X2.2598Y-5.3598
X4.3307Y-2.9528
X4.3307Y-3.0528
X2.5878Y-2.8896
X2.5878Y-2.9896
X2.5878Y-3.3096
X2.5878Y-3.4096
X3.3178Y-2.8896
X3.3178Y-2.9896
X3.3178Y-3.3096
X3.3178Y-3.4096
X2.1654Y-2.3622
X2.1654Y-2.4622
X2.1654Y-2.5622
X2.1654Y-2.6622
X2.5878Y-3.677
X2.5878Y-3.777
X2.5878Y-4.097
X2.5878Y-4.197
X3.3178Y-3.677
X3.3178Y-3.777
X3.3178Y-4.097
X3.3178Y-4.197
X2.5878Y-4.4644
X2.5878Y-4.5644
X2.5878Y-4.8844
X2.5878Y-4.9844
X3.3178Y-4.4644
X3.3178Y-4.5644
X3.3178Y-4.8844
X3.3178Y-4.9844
X4.3307Y-4.5276
X4.3307Y-4.6276
X3.9528Y-5.3622
X3.9528Y-5.4622
X4.3307Y-3.7402
X4.3307Y-3.8402
X4.3307Y-2.1654
X4.3307Y-2.2654
T0
M30
