G04 #@! TF.GenerationSoftware,KiCad,Pcbnew,5.1.2-f72e74a~84~ubuntu18.04.1*
G04 #@! TF.CreationDate,2019-05-25T15:58:10+08:00*
G04 #@! TF.ProjectId,power-board-tryout,706f7765-722d-4626-9f61-72642d747279,rev?*
G04 #@! TF.SameCoordinates,Original*
G04 #@! TF.FileFunction,Soldermask,Bot*
G04 #@! TF.FilePolarity,Negative*
%FSLAX46Y46*%
G04 Gerber Fmt 4.6, Leading zero omitted, Abs format (unit mm)*
G04 Created by KiCad (PCBNEW 5.1.2-f72e74a~84~ubuntu18.04.1) date 2019-05-25 15:58:10*
%MOMM*%
%LPD*%
G04 APERTURE LIST*
%ADD10C,1.200000*%
%ADD11C,0.100000*%
G04 APERTURE END LIST*
D10*
X56905000Y-55000000D02*
G75*
G03X56905000Y-55000000I-1905000J0D01*
G01*
X146905000Y-55000000D02*
G75*
G03X146905000Y-55000000I-1905000J0D01*
G01*
X56905000Y-145000000D02*
G75*
G03X56905000Y-145000000I-1905000J0D01*
G01*
X146905000Y-145000000D02*
G75*
G03X146905000Y-145000000I-1905000J0D01*
G01*
D11*
G36*
X145831313Y-142259523D02*
G01*
X146349980Y-142474362D01*
X146349981Y-142474363D01*
X146816769Y-142786260D01*
X147213740Y-143183231D01*
X147422143Y-143495129D01*
X147525638Y-143650020D01*
X147740477Y-144168687D01*
X147850000Y-144719298D01*
X147850000Y-145280702D01*
X147740477Y-145831313D01*
X147525638Y-146349980D01*
X147525637Y-146349981D01*
X147213740Y-146816769D01*
X146816769Y-147213740D01*
X146504871Y-147422143D01*
X146349980Y-147525638D01*
X145831313Y-147740477D01*
X145280702Y-147850000D01*
X144719298Y-147850000D01*
X144168687Y-147740477D01*
X143650020Y-147525638D01*
X143495129Y-147422143D01*
X143183231Y-147213740D01*
X142786260Y-146816769D01*
X142474363Y-146349981D01*
X142474362Y-146349980D01*
X142259523Y-145831313D01*
X142150000Y-145280702D01*
X142150000Y-144719298D01*
X142259523Y-144168687D01*
X142474362Y-143650020D01*
X142577857Y-143495129D01*
X142786260Y-143183231D01*
X143183231Y-142786260D01*
X143650019Y-142474363D01*
X143650020Y-142474362D01*
X144168687Y-142259523D01*
X144719298Y-142150000D01*
X145280702Y-142150000D01*
X145831313Y-142259523D01*
X145831313Y-142259523D01*
G37*
G36*
X55831313Y-142259523D02*
G01*
X56349980Y-142474362D01*
X56349981Y-142474363D01*
X56816769Y-142786260D01*
X57213740Y-143183231D01*
X57422143Y-143495129D01*
X57525638Y-143650020D01*
X57740477Y-144168687D01*
X57850000Y-144719298D01*
X57850000Y-145280702D01*
X57740477Y-145831313D01*
X57525638Y-146349980D01*
X57525637Y-146349981D01*
X57213740Y-146816769D01*
X56816769Y-147213740D01*
X56504871Y-147422143D01*
X56349980Y-147525638D01*
X55831313Y-147740477D01*
X55280702Y-147850000D01*
X54719298Y-147850000D01*
X54168687Y-147740477D01*
X53650020Y-147525638D01*
X53495129Y-147422143D01*
X53183231Y-147213740D01*
X52786260Y-146816769D01*
X52474363Y-146349981D01*
X52474362Y-146349980D01*
X52259523Y-145831313D01*
X52150000Y-145280702D01*
X52150000Y-144719298D01*
X52259523Y-144168687D01*
X52474362Y-143650020D01*
X52577857Y-143495129D01*
X52786260Y-143183231D01*
X53183231Y-142786260D01*
X53650019Y-142474363D01*
X53650020Y-142474362D01*
X54168687Y-142259523D01*
X54719298Y-142150000D01*
X55280702Y-142150000D01*
X55831313Y-142259523D01*
X55831313Y-142259523D01*
G37*
G36*
X100510442Y-137845518D02*
G01*
X100576627Y-137852037D01*
X100746466Y-137903557D01*
X100902991Y-137987222D01*
X100938729Y-138016552D01*
X101040186Y-138099814D01*
X101123448Y-138201271D01*
X101152778Y-138237009D01*
X101236443Y-138393534D01*
X101287963Y-138563373D01*
X101305359Y-138740000D01*
X101287963Y-138916627D01*
X101236443Y-139086466D01*
X101152778Y-139242991D01*
X101123448Y-139278729D01*
X101040186Y-139380186D01*
X100938729Y-139463448D01*
X100902991Y-139492778D01*
X100746466Y-139576443D01*
X100576627Y-139627963D01*
X100510442Y-139634482D01*
X100444260Y-139641000D01*
X100355740Y-139641000D01*
X100289558Y-139634482D01*
X100223373Y-139627963D01*
X100053534Y-139576443D01*
X99897009Y-139492778D01*
X99861271Y-139463448D01*
X99759814Y-139380186D01*
X99676552Y-139278729D01*
X99647222Y-139242991D01*
X99563557Y-139086466D01*
X99512037Y-138916627D01*
X99494641Y-138740000D01*
X99512037Y-138563373D01*
X99563557Y-138393534D01*
X99647222Y-138237009D01*
X99676552Y-138201271D01*
X99759814Y-138099814D01*
X99861271Y-138016552D01*
X99897009Y-137987222D01*
X100053534Y-137903557D01*
X100223373Y-137852037D01*
X100289558Y-137845518D01*
X100355740Y-137839000D01*
X100444260Y-137839000D01*
X100510442Y-137845518D01*
X100510442Y-137845518D01*
G37*
G36*
X101301000Y-137101000D02*
G01*
X99499000Y-137101000D01*
X99499000Y-135299000D01*
X101301000Y-135299000D01*
X101301000Y-137101000D01*
X101301000Y-137101000D01*
G37*
G36*
X57510443Y-135245519D02*
G01*
X57576627Y-135252037D01*
X57746466Y-135303557D01*
X57902991Y-135387222D01*
X57938729Y-135416552D01*
X58040186Y-135499814D01*
X58123448Y-135601271D01*
X58152778Y-135637009D01*
X58236443Y-135793534D01*
X58287963Y-135963373D01*
X58305359Y-136140000D01*
X58287963Y-136316627D01*
X58236443Y-136486466D01*
X58152778Y-136642991D01*
X58123448Y-136678729D01*
X58040186Y-136780186D01*
X57938729Y-136863448D01*
X57902991Y-136892778D01*
X57746466Y-136976443D01*
X57576627Y-137027963D01*
X57510442Y-137034482D01*
X57444260Y-137041000D01*
X57355740Y-137041000D01*
X57289558Y-137034482D01*
X57223373Y-137027963D01*
X57053534Y-136976443D01*
X56897009Y-136892778D01*
X56861271Y-136863448D01*
X56759814Y-136780186D01*
X56676552Y-136678729D01*
X56647222Y-136642991D01*
X56563557Y-136486466D01*
X56512037Y-136316627D01*
X56494641Y-136140000D01*
X56512037Y-135963373D01*
X56563557Y-135793534D01*
X56647222Y-135637009D01*
X56676552Y-135601271D01*
X56759814Y-135499814D01*
X56861271Y-135416552D01*
X56897009Y-135387222D01*
X57053534Y-135303557D01*
X57223373Y-135252037D01*
X57289557Y-135245519D01*
X57355740Y-135239000D01*
X57444260Y-135239000D01*
X57510443Y-135245519D01*
X57510443Y-135245519D01*
G37*
G36*
X58301000Y-134501000D02*
G01*
X56499000Y-134501000D01*
X56499000Y-132699000D01*
X58301000Y-132699000D01*
X58301000Y-134501000D01*
X58301000Y-134501000D01*
G37*
G36*
X67280000Y-127655000D02*
G01*
X64178000Y-127655000D01*
X64178000Y-125553000D01*
X67280000Y-125553000D01*
X67280000Y-127655000D01*
X67280000Y-127655000D01*
G37*
G36*
X85822000Y-127655000D02*
G01*
X82720000Y-127655000D01*
X82720000Y-125553000D01*
X85822000Y-125553000D01*
X85822000Y-127655000D01*
X85822000Y-127655000D01*
G37*
G36*
X66332097Y-123018069D02*
G01*
X66435032Y-123028207D01*
X66633146Y-123088305D01*
X66633149Y-123088306D01*
X66729975Y-123140061D01*
X66815729Y-123185897D01*
X66975765Y-123317235D01*
X67107103Y-123477271D01*
X67152939Y-123563025D01*
X67204694Y-123659851D01*
X67204695Y-123659854D01*
X67264793Y-123857968D01*
X67285085Y-124064000D01*
X67264793Y-124270032D01*
X67204695Y-124468146D01*
X67204694Y-124468149D01*
X67152939Y-124564975D01*
X67107103Y-124650729D01*
X66975765Y-124810765D01*
X66815729Y-124942103D01*
X66729975Y-124987939D01*
X66633149Y-125039694D01*
X66633146Y-125039695D01*
X66435032Y-125099793D01*
X66332097Y-125109931D01*
X66280631Y-125115000D01*
X65177369Y-125115000D01*
X65125903Y-125109931D01*
X65022968Y-125099793D01*
X64824854Y-125039695D01*
X64824851Y-125039694D01*
X64728025Y-124987939D01*
X64642271Y-124942103D01*
X64482235Y-124810765D01*
X64350897Y-124650729D01*
X64305061Y-124564975D01*
X64253306Y-124468149D01*
X64253305Y-124468146D01*
X64193207Y-124270032D01*
X64172915Y-124064000D01*
X64193207Y-123857968D01*
X64253305Y-123659854D01*
X64253306Y-123659851D01*
X64305061Y-123563025D01*
X64350897Y-123477271D01*
X64482235Y-123317235D01*
X64642271Y-123185897D01*
X64728025Y-123140061D01*
X64824851Y-123088306D01*
X64824854Y-123088305D01*
X65022968Y-123028207D01*
X65125903Y-123018069D01*
X65177369Y-123013000D01*
X66280631Y-123013000D01*
X66332097Y-123018069D01*
X66332097Y-123018069D01*
G37*
G36*
X84874097Y-123018069D02*
G01*
X84977032Y-123028207D01*
X85175146Y-123088305D01*
X85175149Y-123088306D01*
X85271975Y-123140061D01*
X85357729Y-123185897D01*
X85517765Y-123317235D01*
X85649103Y-123477271D01*
X85694939Y-123563025D01*
X85746694Y-123659851D01*
X85746695Y-123659854D01*
X85806793Y-123857968D01*
X85827085Y-124064000D01*
X85806793Y-124270032D01*
X85746695Y-124468146D01*
X85746694Y-124468149D01*
X85694939Y-124564975D01*
X85649103Y-124650729D01*
X85517765Y-124810765D01*
X85357729Y-124942103D01*
X85271975Y-124987939D01*
X85175149Y-125039694D01*
X85175146Y-125039695D01*
X84977032Y-125099793D01*
X84874097Y-125109931D01*
X84822631Y-125115000D01*
X83719369Y-125115000D01*
X83667903Y-125109931D01*
X83564968Y-125099793D01*
X83366854Y-125039695D01*
X83366851Y-125039694D01*
X83270025Y-124987939D01*
X83184271Y-124942103D01*
X83024235Y-124810765D01*
X82892897Y-124650729D01*
X82847061Y-124564975D01*
X82795306Y-124468149D01*
X82795305Y-124468146D01*
X82735207Y-124270032D01*
X82714915Y-124064000D01*
X82735207Y-123857968D01*
X82795305Y-123659854D01*
X82795306Y-123659851D01*
X82847061Y-123563025D01*
X82892897Y-123477271D01*
X83024235Y-123317235D01*
X83184271Y-123185897D01*
X83270025Y-123140061D01*
X83366851Y-123088306D01*
X83366854Y-123088305D01*
X83564968Y-123028207D01*
X83667903Y-123018069D01*
X83719369Y-123013000D01*
X84822631Y-123013000D01*
X84874097Y-123018069D01*
X84874097Y-123018069D01*
G37*
G36*
X110110442Y-116645518D02*
G01*
X110176627Y-116652037D01*
X110346466Y-116703557D01*
X110502991Y-116787222D01*
X110538729Y-116816552D01*
X110640186Y-116899814D01*
X110723448Y-117001271D01*
X110752778Y-117037009D01*
X110836443Y-117193534D01*
X110887963Y-117363373D01*
X110905359Y-117540000D01*
X110887963Y-117716627D01*
X110836443Y-117886466D01*
X110752778Y-118042991D01*
X110723448Y-118078729D01*
X110640186Y-118180186D01*
X110538729Y-118263448D01*
X110502991Y-118292778D01*
X110346466Y-118376443D01*
X110176627Y-118427963D01*
X110110442Y-118434482D01*
X110044260Y-118441000D01*
X109955740Y-118441000D01*
X109889558Y-118434482D01*
X109823373Y-118427963D01*
X109653534Y-118376443D01*
X109497009Y-118292778D01*
X109461271Y-118263448D01*
X109359814Y-118180186D01*
X109276552Y-118078729D01*
X109247222Y-118042991D01*
X109163557Y-117886466D01*
X109112037Y-117716627D01*
X109094641Y-117540000D01*
X109112037Y-117363373D01*
X109163557Y-117193534D01*
X109247222Y-117037009D01*
X109276552Y-117001271D01*
X109359814Y-116899814D01*
X109461271Y-116816552D01*
X109497009Y-116787222D01*
X109653534Y-116703557D01*
X109823373Y-116652037D01*
X109889558Y-116645518D01*
X109955740Y-116639000D01*
X110044260Y-116639000D01*
X110110442Y-116645518D01*
X110110442Y-116645518D01*
G37*
G36*
X67280000Y-116987000D02*
G01*
X64178000Y-116987000D01*
X64178000Y-114885000D01*
X67280000Y-114885000D01*
X67280000Y-116987000D01*
X67280000Y-116987000D01*
G37*
G36*
X85822000Y-116987000D02*
G01*
X82720000Y-116987000D01*
X82720000Y-114885000D01*
X85822000Y-114885000D01*
X85822000Y-116987000D01*
X85822000Y-116987000D01*
G37*
G36*
X110901000Y-115901000D02*
G01*
X109099000Y-115901000D01*
X109099000Y-114099000D01*
X110901000Y-114099000D01*
X110901000Y-115901000D01*
X110901000Y-115901000D01*
G37*
G36*
X84874097Y-112350069D02*
G01*
X84977032Y-112360207D01*
X85175146Y-112420305D01*
X85175149Y-112420306D01*
X85271975Y-112472061D01*
X85357729Y-112517897D01*
X85517765Y-112649235D01*
X85649103Y-112809271D01*
X85694939Y-112895025D01*
X85746694Y-112991851D01*
X85746695Y-112991854D01*
X85806793Y-113189968D01*
X85827085Y-113396000D01*
X85806793Y-113602032D01*
X85746695Y-113800146D01*
X85746694Y-113800149D01*
X85694939Y-113896975D01*
X85649103Y-113982729D01*
X85517765Y-114142765D01*
X85357729Y-114274103D01*
X85271975Y-114319939D01*
X85175149Y-114371694D01*
X85175146Y-114371695D01*
X84977032Y-114431793D01*
X84874097Y-114441931D01*
X84822631Y-114447000D01*
X83719369Y-114447000D01*
X83667903Y-114441931D01*
X83564968Y-114431793D01*
X83366854Y-114371695D01*
X83366851Y-114371694D01*
X83270025Y-114319939D01*
X83184271Y-114274103D01*
X83024235Y-114142765D01*
X82892897Y-113982729D01*
X82847061Y-113896975D01*
X82795306Y-113800149D01*
X82795305Y-113800146D01*
X82735207Y-113602032D01*
X82714915Y-113396000D01*
X82735207Y-113189968D01*
X82795305Y-112991854D01*
X82795306Y-112991851D01*
X82847061Y-112895025D01*
X82892897Y-112809271D01*
X83024235Y-112649235D01*
X83184271Y-112517897D01*
X83270025Y-112472061D01*
X83366851Y-112420306D01*
X83366854Y-112420305D01*
X83564968Y-112360207D01*
X83667903Y-112350069D01*
X83719369Y-112345000D01*
X84822631Y-112345000D01*
X84874097Y-112350069D01*
X84874097Y-112350069D01*
G37*
G36*
X66332097Y-112350069D02*
G01*
X66435032Y-112360207D01*
X66633146Y-112420305D01*
X66633149Y-112420306D01*
X66729975Y-112472061D01*
X66815729Y-112517897D01*
X66975765Y-112649235D01*
X67107103Y-112809271D01*
X67152939Y-112895025D01*
X67204694Y-112991851D01*
X67204695Y-112991854D01*
X67264793Y-113189968D01*
X67285085Y-113396000D01*
X67264793Y-113602032D01*
X67204695Y-113800146D01*
X67204694Y-113800149D01*
X67152939Y-113896975D01*
X67107103Y-113982729D01*
X66975765Y-114142765D01*
X66815729Y-114274103D01*
X66729975Y-114319939D01*
X66633149Y-114371694D01*
X66633146Y-114371695D01*
X66435032Y-114431793D01*
X66332097Y-114441931D01*
X66280631Y-114447000D01*
X65177369Y-114447000D01*
X65125903Y-114441931D01*
X65022968Y-114431793D01*
X64824854Y-114371695D01*
X64824851Y-114371694D01*
X64728025Y-114319939D01*
X64642271Y-114274103D01*
X64482235Y-114142765D01*
X64350897Y-113982729D01*
X64305061Y-113896975D01*
X64253306Y-113800149D01*
X64253305Y-113800146D01*
X64193207Y-113602032D01*
X64172915Y-113396000D01*
X64193207Y-113189968D01*
X64253305Y-112991854D01*
X64253306Y-112991851D01*
X64305061Y-112895025D01*
X64350897Y-112809271D01*
X64482235Y-112649235D01*
X64642271Y-112517897D01*
X64728025Y-112472061D01*
X64824851Y-112420306D01*
X64824854Y-112420305D01*
X65022968Y-112360207D01*
X65125903Y-112350069D01*
X65177369Y-112345000D01*
X66280631Y-112345000D01*
X66332097Y-112350069D01*
X66332097Y-112350069D01*
G37*
G36*
X85822000Y-107655000D02*
G01*
X82720000Y-107655000D01*
X82720000Y-105553000D01*
X85822000Y-105553000D01*
X85822000Y-107655000D01*
X85822000Y-107655000D01*
G37*
G36*
X67280000Y-107655000D02*
G01*
X64178000Y-107655000D01*
X64178000Y-105553000D01*
X67280000Y-105553000D01*
X67280000Y-107655000D01*
X67280000Y-107655000D01*
G37*
G36*
X66332097Y-103018069D02*
G01*
X66435032Y-103028207D01*
X66633146Y-103088305D01*
X66633149Y-103088306D01*
X66729975Y-103140061D01*
X66815729Y-103185897D01*
X66975765Y-103317235D01*
X67107103Y-103477271D01*
X67152939Y-103563025D01*
X67204694Y-103659851D01*
X67204695Y-103659854D01*
X67264793Y-103857968D01*
X67285085Y-104064000D01*
X67264793Y-104270032D01*
X67204695Y-104468146D01*
X67204694Y-104468149D01*
X67152939Y-104564975D01*
X67107103Y-104650729D01*
X66975765Y-104810765D01*
X66815729Y-104942103D01*
X66729975Y-104987939D01*
X66633149Y-105039694D01*
X66633146Y-105039695D01*
X66435032Y-105099793D01*
X66332097Y-105109931D01*
X66280631Y-105115000D01*
X65177369Y-105115000D01*
X65125903Y-105109931D01*
X65022968Y-105099793D01*
X64824854Y-105039695D01*
X64824851Y-105039694D01*
X64728025Y-104987939D01*
X64642271Y-104942103D01*
X64482235Y-104810765D01*
X64350897Y-104650729D01*
X64305061Y-104564975D01*
X64253306Y-104468149D01*
X64253305Y-104468146D01*
X64193207Y-104270032D01*
X64172915Y-104064000D01*
X64193207Y-103857968D01*
X64253305Y-103659854D01*
X64253306Y-103659851D01*
X64305061Y-103563025D01*
X64350897Y-103477271D01*
X64482235Y-103317235D01*
X64642271Y-103185897D01*
X64728025Y-103140061D01*
X64824851Y-103088306D01*
X64824854Y-103088305D01*
X65022968Y-103028207D01*
X65125903Y-103018069D01*
X65177369Y-103013000D01*
X66280631Y-103013000D01*
X66332097Y-103018069D01*
X66332097Y-103018069D01*
G37*
G36*
X84874097Y-103018069D02*
G01*
X84977032Y-103028207D01*
X85175146Y-103088305D01*
X85175149Y-103088306D01*
X85271975Y-103140061D01*
X85357729Y-103185897D01*
X85517765Y-103317235D01*
X85649103Y-103477271D01*
X85694939Y-103563025D01*
X85746694Y-103659851D01*
X85746695Y-103659854D01*
X85806793Y-103857968D01*
X85827085Y-104064000D01*
X85806793Y-104270032D01*
X85746695Y-104468146D01*
X85746694Y-104468149D01*
X85694939Y-104564975D01*
X85649103Y-104650729D01*
X85517765Y-104810765D01*
X85357729Y-104942103D01*
X85271975Y-104987939D01*
X85175149Y-105039694D01*
X85175146Y-105039695D01*
X84977032Y-105099793D01*
X84874097Y-105109931D01*
X84822631Y-105115000D01*
X83719369Y-105115000D01*
X83667903Y-105109931D01*
X83564968Y-105099793D01*
X83366854Y-105039695D01*
X83366851Y-105039694D01*
X83270025Y-104987939D01*
X83184271Y-104942103D01*
X83024235Y-104810765D01*
X82892897Y-104650729D01*
X82847061Y-104564975D01*
X82795306Y-104468149D01*
X82795305Y-104468146D01*
X82735207Y-104270032D01*
X82714915Y-104064000D01*
X82735207Y-103857968D01*
X82795305Y-103659854D01*
X82795306Y-103659851D01*
X82847061Y-103563025D01*
X82892897Y-103477271D01*
X83024235Y-103317235D01*
X83184271Y-103185897D01*
X83270025Y-103140061D01*
X83366851Y-103088306D01*
X83366854Y-103088305D01*
X83564968Y-103028207D01*
X83667903Y-103018069D01*
X83719369Y-103013000D01*
X84822631Y-103013000D01*
X84874097Y-103018069D01*
X84874097Y-103018069D01*
G37*
G36*
X110110442Y-96645518D02*
G01*
X110176627Y-96652037D01*
X110346466Y-96703557D01*
X110502991Y-96787222D01*
X110538729Y-96816552D01*
X110640186Y-96899814D01*
X110723448Y-97001271D01*
X110752778Y-97037009D01*
X110836443Y-97193534D01*
X110887963Y-97363373D01*
X110905359Y-97540000D01*
X110887963Y-97716627D01*
X110836443Y-97886466D01*
X110752778Y-98042991D01*
X110723448Y-98078729D01*
X110640186Y-98180186D01*
X110538729Y-98263448D01*
X110502991Y-98292778D01*
X110346466Y-98376443D01*
X110176627Y-98427963D01*
X110110442Y-98434482D01*
X110044260Y-98441000D01*
X109955740Y-98441000D01*
X109889557Y-98434481D01*
X109823373Y-98427963D01*
X109653534Y-98376443D01*
X109497009Y-98292778D01*
X109461271Y-98263448D01*
X109359814Y-98180186D01*
X109276552Y-98078729D01*
X109247222Y-98042991D01*
X109163557Y-97886466D01*
X109112037Y-97716627D01*
X109094641Y-97540000D01*
X109112037Y-97363373D01*
X109163557Y-97193534D01*
X109247222Y-97037009D01*
X109276552Y-97001271D01*
X109359814Y-96899814D01*
X109461271Y-96816552D01*
X109497009Y-96787222D01*
X109653534Y-96703557D01*
X109823373Y-96652037D01*
X109889558Y-96645518D01*
X109955740Y-96639000D01*
X110044260Y-96639000D01*
X110110442Y-96645518D01*
X110110442Y-96645518D01*
G37*
G36*
X85822000Y-96987000D02*
G01*
X82720000Y-96987000D01*
X82720000Y-94885000D01*
X85822000Y-94885000D01*
X85822000Y-96987000D01*
X85822000Y-96987000D01*
G37*
G36*
X67280000Y-96987000D02*
G01*
X64178000Y-96987000D01*
X64178000Y-94885000D01*
X67280000Y-94885000D01*
X67280000Y-96987000D01*
X67280000Y-96987000D01*
G37*
G36*
X110901000Y-95901000D02*
G01*
X109099000Y-95901000D01*
X109099000Y-94099000D01*
X110901000Y-94099000D01*
X110901000Y-95901000D01*
X110901000Y-95901000D01*
G37*
G36*
X66332097Y-92350069D02*
G01*
X66435032Y-92360207D01*
X66633146Y-92420305D01*
X66633149Y-92420306D01*
X66729975Y-92472061D01*
X66815729Y-92517897D01*
X66975765Y-92649235D01*
X67107103Y-92809271D01*
X67152939Y-92895025D01*
X67204694Y-92991851D01*
X67204695Y-92991854D01*
X67264793Y-93189968D01*
X67285085Y-93396000D01*
X67264793Y-93602032D01*
X67204695Y-93800146D01*
X67204694Y-93800149D01*
X67152939Y-93896975D01*
X67107103Y-93982729D01*
X66975765Y-94142765D01*
X66815729Y-94274103D01*
X66729975Y-94319939D01*
X66633149Y-94371694D01*
X66633146Y-94371695D01*
X66435032Y-94431793D01*
X66332097Y-94441931D01*
X66280631Y-94447000D01*
X65177369Y-94447000D01*
X65125903Y-94441931D01*
X65022968Y-94431793D01*
X64824854Y-94371695D01*
X64824851Y-94371694D01*
X64728025Y-94319939D01*
X64642271Y-94274103D01*
X64482235Y-94142765D01*
X64350897Y-93982729D01*
X64305061Y-93896975D01*
X64253306Y-93800149D01*
X64253305Y-93800146D01*
X64193207Y-93602032D01*
X64172915Y-93396000D01*
X64193207Y-93189968D01*
X64253305Y-92991854D01*
X64253306Y-92991851D01*
X64305061Y-92895025D01*
X64350897Y-92809271D01*
X64482235Y-92649235D01*
X64642271Y-92517897D01*
X64728025Y-92472061D01*
X64824851Y-92420306D01*
X64824854Y-92420305D01*
X65022968Y-92360207D01*
X65125903Y-92350069D01*
X65177369Y-92345000D01*
X66280631Y-92345000D01*
X66332097Y-92350069D01*
X66332097Y-92350069D01*
G37*
G36*
X84874097Y-92350069D02*
G01*
X84977032Y-92360207D01*
X85175146Y-92420305D01*
X85175149Y-92420306D01*
X85271975Y-92472061D01*
X85357729Y-92517897D01*
X85517765Y-92649235D01*
X85649103Y-92809271D01*
X85694939Y-92895025D01*
X85746694Y-92991851D01*
X85746695Y-92991854D01*
X85806793Y-93189968D01*
X85827085Y-93396000D01*
X85806793Y-93602032D01*
X85746695Y-93800146D01*
X85746694Y-93800149D01*
X85694939Y-93896975D01*
X85649103Y-93982729D01*
X85517765Y-94142765D01*
X85357729Y-94274103D01*
X85271975Y-94319939D01*
X85175149Y-94371694D01*
X85175146Y-94371695D01*
X84977032Y-94431793D01*
X84874097Y-94441931D01*
X84822631Y-94447000D01*
X83719369Y-94447000D01*
X83667903Y-94441931D01*
X83564968Y-94431793D01*
X83366854Y-94371695D01*
X83366851Y-94371694D01*
X83270025Y-94319939D01*
X83184271Y-94274103D01*
X83024235Y-94142765D01*
X82892897Y-93982729D01*
X82847061Y-93896975D01*
X82795306Y-93800149D01*
X82795305Y-93800146D01*
X82735207Y-93602032D01*
X82714915Y-93396000D01*
X82735207Y-93189968D01*
X82795305Y-92991854D01*
X82795306Y-92991851D01*
X82847061Y-92895025D01*
X82892897Y-92809271D01*
X83024235Y-92649235D01*
X83184271Y-92517897D01*
X83270025Y-92472061D01*
X83366851Y-92420306D01*
X83366854Y-92420305D01*
X83564968Y-92360207D01*
X83667903Y-92350069D01*
X83719369Y-92345000D01*
X84822631Y-92345000D01*
X84874097Y-92350069D01*
X84874097Y-92350069D01*
G37*
G36*
X85822000Y-87655000D02*
G01*
X82720000Y-87655000D01*
X82720000Y-85553000D01*
X85822000Y-85553000D01*
X85822000Y-87655000D01*
X85822000Y-87655000D01*
G37*
G36*
X67280000Y-87655000D02*
G01*
X64178000Y-87655000D01*
X64178000Y-85553000D01*
X67280000Y-85553000D01*
X67280000Y-87655000D01*
X67280000Y-87655000D01*
G37*
G36*
X84874097Y-83018069D02*
G01*
X84977032Y-83028207D01*
X85175146Y-83088305D01*
X85175149Y-83088306D01*
X85271975Y-83140061D01*
X85357729Y-83185897D01*
X85517765Y-83317235D01*
X85649103Y-83477271D01*
X85694939Y-83563025D01*
X85746694Y-83659851D01*
X85746695Y-83659854D01*
X85806793Y-83857968D01*
X85827085Y-84064000D01*
X85806793Y-84270032D01*
X85746695Y-84468146D01*
X85746694Y-84468149D01*
X85694939Y-84564975D01*
X85649103Y-84650729D01*
X85517765Y-84810765D01*
X85357729Y-84942103D01*
X85271975Y-84987939D01*
X85175149Y-85039694D01*
X85175146Y-85039695D01*
X84977032Y-85099793D01*
X84874097Y-85109931D01*
X84822631Y-85115000D01*
X83719369Y-85115000D01*
X83667903Y-85109931D01*
X83564968Y-85099793D01*
X83366854Y-85039695D01*
X83366851Y-85039694D01*
X83270025Y-84987939D01*
X83184271Y-84942103D01*
X83024235Y-84810765D01*
X82892897Y-84650729D01*
X82847061Y-84564975D01*
X82795306Y-84468149D01*
X82795305Y-84468146D01*
X82735207Y-84270032D01*
X82714915Y-84064000D01*
X82735207Y-83857968D01*
X82795305Y-83659854D01*
X82795306Y-83659851D01*
X82847061Y-83563025D01*
X82892897Y-83477271D01*
X83024235Y-83317235D01*
X83184271Y-83185897D01*
X83270025Y-83140061D01*
X83366851Y-83088306D01*
X83366854Y-83088305D01*
X83564968Y-83028207D01*
X83667903Y-83018069D01*
X83719369Y-83013000D01*
X84822631Y-83013000D01*
X84874097Y-83018069D01*
X84874097Y-83018069D01*
G37*
G36*
X66332097Y-83018069D02*
G01*
X66435032Y-83028207D01*
X66633146Y-83088305D01*
X66633149Y-83088306D01*
X66729975Y-83140061D01*
X66815729Y-83185897D01*
X66975765Y-83317235D01*
X67107103Y-83477271D01*
X67152939Y-83563025D01*
X67204694Y-83659851D01*
X67204695Y-83659854D01*
X67264793Y-83857968D01*
X67285085Y-84064000D01*
X67264793Y-84270032D01*
X67204695Y-84468146D01*
X67204694Y-84468149D01*
X67152939Y-84564975D01*
X67107103Y-84650729D01*
X66975765Y-84810765D01*
X66815729Y-84942103D01*
X66729975Y-84987939D01*
X66633149Y-85039694D01*
X66633146Y-85039695D01*
X66435032Y-85099793D01*
X66332097Y-85109931D01*
X66280631Y-85115000D01*
X65177369Y-85115000D01*
X65125903Y-85109931D01*
X65022968Y-85099793D01*
X64824854Y-85039695D01*
X64824851Y-85039694D01*
X64728025Y-84987939D01*
X64642271Y-84942103D01*
X64482235Y-84810765D01*
X64350897Y-84650729D01*
X64305061Y-84564975D01*
X64253306Y-84468149D01*
X64253305Y-84468146D01*
X64193207Y-84270032D01*
X64172915Y-84064000D01*
X64193207Y-83857968D01*
X64253305Y-83659854D01*
X64253306Y-83659851D01*
X64305061Y-83563025D01*
X64350897Y-83477271D01*
X64482235Y-83317235D01*
X64642271Y-83185897D01*
X64728025Y-83140061D01*
X64824851Y-83088306D01*
X64824854Y-83088305D01*
X65022968Y-83028207D01*
X65125903Y-83018069D01*
X65177369Y-83013000D01*
X66280631Y-83013000D01*
X66332097Y-83018069D01*
X66332097Y-83018069D01*
G37*
G36*
X110110442Y-76645518D02*
G01*
X110176627Y-76652037D01*
X110346466Y-76703557D01*
X110502991Y-76787222D01*
X110538729Y-76816552D01*
X110640186Y-76899814D01*
X110723448Y-77001271D01*
X110752778Y-77037009D01*
X110836443Y-77193534D01*
X110887963Y-77363373D01*
X110905359Y-77540000D01*
X110887963Y-77716627D01*
X110836443Y-77886466D01*
X110752778Y-78042991D01*
X110723448Y-78078729D01*
X110640186Y-78180186D01*
X110538729Y-78263448D01*
X110502991Y-78292778D01*
X110346466Y-78376443D01*
X110176627Y-78427963D01*
X110110442Y-78434482D01*
X110044260Y-78441000D01*
X109955740Y-78441000D01*
X109889558Y-78434482D01*
X109823373Y-78427963D01*
X109653534Y-78376443D01*
X109497009Y-78292778D01*
X109461271Y-78263448D01*
X109359814Y-78180186D01*
X109276552Y-78078729D01*
X109247222Y-78042991D01*
X109163557Y-77886466D01*
X109112037Y-77716627D01*
X109094641Y-77540000D01*
X109112037Y-77363373D01*
X109163557Y-77193534D01*
X109247222Y-77037009D01*
X109276552Y-77001271D01*
X109359814Y-76899814D01*
X109461271Y-76816552D01*
X109497009Y-76787222D01*
X109653534Y-76703557D01*
X109823373Y-76652037D01*
X109889558Y-76645518D01*
X109955740Y-76639000D01*
X110044260Y-76639000D01*
X110110442Y-76645518D01*
X110110442Y-76645518D01*
G37*
G36*
X85822000Y-76987000D02*
G01*
X82720000Y-76987000D01*
X82720000Y-74885000D01*
X85822000Y-74885000D01*
X85822000Y-76987000D01*
X85822000Y-76987000D01*
G37*
G36*
X67280000Y-76987000D02*
G01*
X64178000Y-76987000D01*
X64178000Y-74885000D01*
X67280000Y-74885000D01*
X67280000Y-76987000D01*
X67280000Y-76987000D01*
G37*
G36*
X110901000Y-75901000D02*
G01*
X109099000Y-75901000D01*
X109099000Y-74099000D01*
X110901000Y-74099000D01*
X110901000Y-75901000D01*
X110901000Y-75901000D01*
G37*
G36*
X66332097Y-72350069D02*
G01*
X66435032Y-72360207D01*
X66633146Y-72420305D01*
X66633149Y-72420306D01*
X66729975Y-72472061D01*
X66815729Y-72517897D01*
X66975765Y-72649235D01*
X67107103Y-72809271D01*
X67152939Y-72895025D01*
X67204694Y-72991851D01*
X67204695Y-72991854D01*
X67264793Y-73189968D01*
X67285085Y-73396000D01*
X67264793Y-73602032D01*
X67204695Y-73800146D01*
X67204694Y-73800149D01*
X67152939Y-73896975D01*
X67107103Y-73982729D01*
X66975765Y-74142765D01*
X66815729Y-74274103D01*
X66729975Y-74319939D01*
X66633149Y-74371694D01*
X66633146Y-74371695D01*
X66435032Y-74431793D01*
X66332097Y-74441931D01*
X66280631Y-74447000D01*
X65177369Y-74447000D01*
X65125903Y-74441931D01*
X65022968Y-74431793D01*
X64824854Y-74371695D01*
X64824851Y-74371694D01*
X64728025Y-74319939D01*
X64642271Y-74274103D01*
X64482235Y-74142765D01*
X64350897Y-73982729D01*
X64305061Y-73896975D01*
X64253306Y-73800149D01*
X64253305Y-73800146D01*
X64193207Y-73602032D01*
X64172915Y-73396000D01*
X64193207Y-73189968D01*
X64253305Y-72991854D01*
X64253306Y-72991851D01*
X64305061Y-72895025D01*
X64350897Y-72809271D01*
X64482235Y-72649235D01*
X64642271Y-72517897D01*
X64728025Y-72472061D01*
X64824851Y-72420306D01*
X64824854Y-72420305D01*
X65022968Y-72360207D01*
X65125903Y-72350069D01*
X65177369Y-72345000D01*
X66280631Y-72345000D01*
X66332097Y-72350069D01*
X66332097Y-72350069D01*
G37*
G36*
X84874097Y-72350069D02*
G01*
X84977032Y-72360207D01*
X85175146Y-72420305D01*
X85175149Y-72420306D01*
X85271975Y-72472061D01*
X85357729Y-72517897D01*
X85517765Y-72649235D01*
X85649103Y-72809271D01*
X85694939Y-72895025D01*
X85746694Y-72991851D01*
X85746695Y-72991854D01*
X85806793Y-73189968D01*
X85827085Y-73396000D01*
X85806793Y-73602032D01*
X85746695Y-73800146D01*
X85746694Y-73800149D01*
X85694939Y-73896975D01*
X85649103Y-73982729D01*
X85517765Y-74142765D01*
X85357729Y-74274103D01*
X85271975Y-74319939D01*
X85175149Y-74371694D01*
X85175146Y-74371695D01*
X84977032Y-74431793D01*
X84874097Y-74441931D01*
X84822631Y-74447000D01*
X83719369Y-74447000D01*
X83667903Y-74441931D01*
X83564968Y-74431793D01*
X83366854Y-74371695D01*
X83366851Y-74371694D01*
X83270025Y-74319939D01*
X83184271Y-74274103D01*
X83024235Y-74142765D01*
X82892897Y-73982729D01*
X82847061Y-73896975D01*
X82795306Y-73800149D01*
X82795305Y-73800146D01*
X82735207Y-73602032D01*
X82714915Y-73396000D01*
X82735207Y-73189968D01*
X82795305Y-72991854D01*
X82795306Y-72991851D01*
X82847061Y-72895025D01*
X82892897Y-72809271D01*
X83024235Y-72649235D01*
X83184271Y-72517897D01*
X83270025Y-72472061D01*
X83366851Y-72420306D01*
X83366854Y-72420305D01*
X83564968Y-72360207D01*
X83667903Y-72350069D01*
X83719369Y-72345000D01*
X84822631Y-72345000D01*
X84874097Y-72350069D01*
X84874097Y-72350069D01*
G37*
G36*
X55110443Y-66725519D02*
G01*
X55176627Y-66732037D01*
X55346466Y-66783557D01*
X55502991Y-66867222D01*
X55538729Y-66896552D01*
X55640186Y-66979814D01*
X55723448Y-67081271D01*
X55752778Y-67117009D01*
X55836443Y-67273534D01*
X55887963Y-67443373D01*
X55905359Y-67620000D01*
X55887963Y-67796627D01*
X55836443Y-67966466D01*
X55752778Y-68122991D01*
X55723448Y-68158729D01*
X55640186Y-68260186D01*
X55538729Y-68343448D01*
X55502991Y-68372778D01*
X55346466Y-68456443D01*
X55176627Y-68507963D01*
X55110442Y-68514482D01*
X55044260Y-68521000D01*
X54955740Y-68521000D01*
X54889558Y-68514482D01*
X54823373Y-68507963D01*
X54653534Y-68456443D01*
X54497009Y-68372778D01*
X54461271Y-68343448D01*
X54359814Y-68260186D01*
X54276552Y-68158729D01*
X54247222Y-68122991D01*
X54163557Y-67966466D01*
X54112037Y-67796627D01*
X54094641Y-67620000D01*
X54112037Y-67443373D01*
X54163557Y-67273534D01*
X54247222Y-67117009D01*
X54276552Y-67081271D01*
X54359814Y-66979814D01*
X54461271Y-66896552D01*
X54497009Y-66867222D01*
X54653534Y-66783557D01*
X54823373Y-66732037D01*
X54889557Y-66725519D01*
X54955740Y-66719000D01*
X55044260Y-66719000D01*
X55110443Y-66725519D01*
X55110443Y-66725519D01*
G37*
G36*
X67280000Y-67655000D02*
G01*
X64178000Y-67655000D01*
X64178000Y-65553000D01*
X67280000Y-65553000D01*
X67280000Y-67655000D01*
X67280000Y-67655000D01*
G37*
G36*
X85822000Y-67655000D02*
G01*
X82720000Y-67655000D01*
X82720000Y-65553000D01*
X85822000Y-65553000D01*
X85822000Y-67655000D01*
X85822000Y-67655000D01*
G37*
G36*
X55110442Y-64185518D02*
G01*
X55176627Y-64192037D01*
X55346466Y-64243557D01*
X55502991Y-64327222D01*
X55538729Y-64356552D01*
X55640186Y-64439814D01*
X55723448Y-64541271D01*
X55752778Y-64577009D01*
X55836443Y-64733534D01*
X55887963Y-64903373D01*
X55905359Y-65080000D01*
X55887963Y-65256627D01*
X55836443Y-65426466D01*
X55752778Y-65582991D01*
X55723448Y-65618729D01*
X55640186Y-65720186D01*
X55538729Y-65803448D01*
X55502991Y-65832778D01*
X55346466Y-65916443D01*
X55176627Y-65967963D01*
X55110443Y-65974481D01*
X55044260Y-65981000D01*
X54955740Y-65981000D01*
X54889557Y-65974481D01*
X54823373Y-65967963D01*
X54653534Y-65916443D01*
X54497009Y-65832778D01*
X54461271Y-65803448D01*
X54359814Y-65720186D01*
X54276552Y-65618729D01*
X54247222Y-65582991D01*
X54163557Y-65426466D01*
X54112037Y-65256627D01*
X54094641Y-65080000D01*
X54112037Y-64903373D01*
X54163557Y-64733534D01*
X54247222Y-64577009D01*
X54276552Y-64541271D01*
X54359814Y-64439814D01*
X54461271Y-64356552D01*
X54497009Y-64327222D01*
X54653534Y-64243557D01*
X54823373Y-64192037D01*
X54889558Y-64185518D01*
X54955740Y-64179000D01*
X55044260Y-64179000D01*
X55110442Y-64185518D01*
X55110442Y-64185518D01*
G37*
G36*
X84874097Y-63018069D02*
G01*
X84977032Y-63028207D01*
X85175146Y-63088305D01*
X85175149Y-63088306D01*
X85271975Y-63140061D01*
X85357729Y-63185897D01*
X85517765Y-63317235D01*
X85649103Y-63477271D01*
X85694939Y-63563025D01*
X85746694Y-63659851D01*
X85746695Y-63659854D01*
X85806793Y-63857968D01*
X85827085Y-64064000D01*
X85806793Y-64270032D01*
X85755289Y-64439815D01*
X85746694Y-64468149D01*
X85694939Y-64564975D01*
X85649103Y-64650729D01*
X85517765Y-64810765D01*
X85357729Y-64942103D01*
X85271975Y-64987939D01*
X85175149Y-65039694D01*
X85175146Y-65039695D01*
X84977032Y-65099793D01*
X84874097Y-65109931D01*
X84822631Y-65115000D01*
X83719369Y-65115000D01*
X83667903Y-65109931D01*
X83564968Y-65099793D01*
X83366854Y-65039695D01*
X83366851Y-65039694D01*
X83270025Y-64987939D01*
X83184271Y-64942103D01*
X83024235Y-64810765D01*
X82892897Y-64650729D01*
X82847061Y-64564975D01*
X82795306Y-64468149D01*
X82786711Y-64439815D01*
X82735207Y-64270032D01*
X82714915Y-64064000D01*
X82735207Y-63857968D01*
X82795305Y-63659854D01*
X82795306Y-63659851D01*
X82847061Y-63563025D01*
X82892897Y-63477271D01*
X83024235Y-63317235D01*
X83184271Y-63185897D01*
X83270025Y-63140061D01*
X83366851Y-63088306D01*
X83366854Y-63088305D01*
X83564968Y-63028207D01*
X83667903Y-63018069D01*
X83719369Y-63013000D01*
X84822631Y-63013000D01*
X84874097Y-63018069D01*
X84874097Y-63018069D01*
G37*
G36*
X66332097Y-63018069D02*
G01*
X66435032Y-63028207D01*
X66633146Y-63088305D01*
X66633149Y-63088306D01*
X66729975Y-63140061D01*
X66815729Y-63185897D01*
X66975765Y-63317235D01*
X67107103Y-63477271D01*
X67152939Y-63563025D01*
X67204694Y-63659851D01*
X67204695Y-63659854D01*
X67264793Y-63857968D01*
X67285085Y-64064000D01*
X67264793Y-64270032D01*
X67213289Y-64439815D01*
X67204694Y-64468149D01*
X67152939Y-64564975D01*
X67107103Y-64650729D01*
X66975765Y-64810765D01*
X66815729Y-64942103D01*
X66729975Y-64987939D01*
X66633149Y-65039694D01*
X66633146Y-65039695D01*
X66435032Y-65099793D01*
X66332097Y-65109931D01*
X66280631Y-65115000D01*
X65177369Y-65115000D01*
X65125903Y-65109931D01*
X65022968Y-65099793D01*
X64824854Y-65039695D01*
X64824851Y-65039694D01*
X64728025Y-64987939D01*
X64642271Y-64942103D01*
X64482235Y-64810765D01*
X64350897Y-64650729D01*
X64305061Y-64564975D01*
X64253306Y-64468149D01*
X64244711Y-64439815D01*
X64193207Y-64270032D01*
X64172915Y-64064000D01*
X64193207Y-63857968D01*
X64253305Y-63659854D01*
X64253306Y-63659851D01*
X64305061Y-63563025D01*
X64350897Y-63477271D01*
X64482235Y-63317235D01*
X64642271Y-63185897D01*
X64728025Y-63140061D01*
X64824851Y-63088306D01*
X64824854Y-63088305D01*
X65022968Y-63028207D01*
X65125903Y-63018069D01*
X65177369Y-63013000D01*
X66280631Y-63013000D01*
X66332097Y-63018069D01*
X66332097Y-63018069D01*
G37*
G36*
X55110443Y-61645519D02*
G01*
X55176627Y-61652037D01*
X55346466Y-61703557D01*
X55502991Y-61787222D01*
X55538729Y-61816552D01*
X55640186Y-61899814D01*
X55723448Y-62001271D01*
X55752778Y-62037009D01*
X55836443Y-62193534D01*
X55887963Y-62363373D01*
X55905359Y-62540000D01*
X55887963Y-62716627D01*
X55836443Y-62886466D01*
X55752778Y-63042991D01*
X55723448Y-63078729D01*
X55640186Y-63180186D01*
X55538729Y-63263448D01*
X55502991Y-63292778D01*
X55346466Y-63376443D01*
X55176627Y-63427963D01*
X55110443Y-63434481D01*
X55044260Y-63441000D01*
X54955740Y-63441000D01*
X54889557Y-63434481D01*
X54823373Y-63427963D01*
X54653534Y-63376443D01*
X54497009Y-63292778D01*
X54461271Y-63263448D01*
X54359814Y-63180186D01*
X54276552Y-63078729D01*
X54247222Y-63042991D01*
X54163557Y-62886466D01*
X54112037Y-62716627D01*
X54094641Y-62540000D01*
X54112037Y-62363373D01*
X54163557Y-62193534D01*
X54247222Y-62037009D01*
X54276552Y-62001271D01*
X54359814Y-61899814D01*
X54461271Y-61816552D01*
X54497009Y-61787222D01*
X54653534Y-61703557D01*
X54823373Y-61652037D01*
X54889557Y-61645519D01*
X54955740Y-61639000D01*
X55044260Y-61639000D01*
X55110443Y-61645519D01*
X55110443Y-61645519D01*
G37*
G36*
X55901000Y-60901000D02*
G01*
X54099000Y-60901000D01*
X54099000Y-59099000D01*
X55901000Y-59099000D01*
X55901000Y-60901000D01*
X55901000Y-60901000D01*
G37*
G36*
X110110443Y-56645519D02*
G01*
X110176627Y-56652037D01*
X110346466Y-56703557D01*
X110502991Y-56787222D01*
X110538729Y-56816552D01*
X110640186Y-56899814D01*
X110723448Y-57001271D01*
X110752778Y-57037009D01*
X110836443Y-57193534D01*
X110887963Y-57363373D01*
X110905359Y-57540000D01*
X110887963Y-57716627D01*
X110836443Y-57886466D01*
X110752778Y-58042991D01*
X110723448Y-58078729D01*
X110640186Y-58180186D01*
X110538729Y-58263448D01*
X110502991Y-58292778D01*
X110346466Y-58376443D01*
X110176627Y-58427963D01*
X110110443Y-58434481D01*
X110044260Y-58441000D01*
X109955740Y-58441000D01*
X109889557Y-58434481D01*
X109823373Y-58427963D01*
X109653534Y-58376443D01*
X109497009Y-58292778D01*
X109461271Y-58263448D01*
X109359814Y-58180186D01*
X109276552Y-58078729D01*
X109247222Y-58042991D01*
X109163557Y-57886466D01*
X109112037Y-57716627D01*
X109094641Y-57540000D01*
X109112037Y-57363373D01*
X109163557Y-57193534D01*
X109247222Y-57037009D01*
X109276552Y-57001271D01*
X109359814Y-56899814D01*
X109461271Y-56816552D01*
X109497009Y-56787222D01*
X109653534Y-56703557D01*
X109823373Y-56652037D01*
X109889557Y-56645519D01*
X109955740Y-56639000D01*
X110044260Y-56639000D01*
X110110443Y-56645519D01*
X110110443Y-56645519D01*
G37*
G36*
X55831313Y-52259523D02*
G01*
X56349980Y-52474362D01*
X56504871Y-52577857D01*
X56816769Y-52786260D01*
X57213740Y-53183231D01*
X57355907Y-53396000D01*
X57525638Y-53650020D01*
X57740477Y-54168687D01*
X57850000Y-54719298D01*
X57850000Y-55280702D01*
X57740477Y-55831313D01*
X57525638Y-56349980D01*
X57525637Y-56349981D01*
X57213740Y-56816769D01*
X56816769Y-57213740D01*
X56592827Y-57363373D01*
X56349980Y-57525638D01*
X55831313Y-57740477D01*
X55280702Y-57850000D01*
X54719298Y-57850000D01*
X54168687Y-57740477D01*
X53650020Y-57525638D01*
X53407173Y-57363373D01*
X53183231Y-57213740D01*
X52786260Y-56816769D01*
X52474363Y-56349981D01*
X52474362Y-56349980D01*
X52259523Y-55831313D01*
X52150000Y-55280702D01*
X52150000Y-54719298D01*
X52259523Y-54168687D01*
X52474362Y-53650020D01*
X52644093Y-53396000D01*
X52786260Y-53183231D01*
X53183231Y-52786260D01*
X53495129Y-52577857D01*
X53650020Y-52474362D01*
X54168687Y-52259523D01*
X54719298Y-52150000D01*
X55280702Y-52150000D01*
X55831313Y-52259523D01*
X55831313Y-52259523D01*
G37*
G36*
X145831313Y-52259523D02*
G01*
X146349980Y-52474362D01*
X146504871Y-52577857D01*
X146816769Y-52786260D01*
X147213740Y-53183231D01*
X147355907Y-53396000D01*
X147525638Y-53650020D01*
X147740477Y-54168687D01*
X147850000Y-54719298D01*
X147850000Y-55280702D01*
X147740477Y-55831313D01*
X147525638Y-56349980D01*
X147525637Y-56349981D01*
X147213740Y-56816769D01*
X146816769Y-57213740D01*
X146592827Y-57363373D01*
X146349980Y-57525638D01*
X145831313Y-57740477D01*
X145280702Y-57850000D01*
X144719298Y-57850000D01*
X144168687Y-57740477D01*
X143650020Y-57525638D01*
X143407173Y-57363373D01*
X143183231Y-57213740D01*
X142786260Y-56816769D01*
X142474363Y-56349981D01*
X142474362Y-56349980D01*
X142259523Y-55831313D01*
X142150000Y-55280702D01*
X142150000Y-54719298D01*
X142259523Y-54168687D01*
X142474362Y-53650020D01*
X142644093Y-53396000D01*
X142786260Y-53183231D01*
X143183231Y-52786260D01*
X143495129Y-52577857D01*
X143650020Y-52474362D01*
X144168687Y-52259523D01*
X144719298Y-52150000D01*
X145280702Y-52150000D01*
X145831313Y-52259523D01*
X145831313Y-52259523D01*
G37*
G36*
X85822000Y-56987000D02*
G01*
X82720000Y-56987000D01*
X82720000Y-54885000D01*
X85822000Y-54885000D01*
X85822000Y-56987000D01*
X85822000Y-56987000D01*
G37*
G36*
X67280000Y-56987000D02*
G01*
X64178000Y-56987000D01*
X64178000Y-54885000D01*
X67280000Y-54885000D01*
X67280000Y-56987000D01*
X67280000Y-56987000D01*
G37*
G36*
X110901000Y-55901000D02*
G01*
X109099000Y-55901000D01*
X109099000Y-54099000D01*
X110901000Y-54099000D01*
X110901000Y-55901000D01*
X110901000Y-55901000D01*
G37*
G36*
X66332097Y-52350069D02*
G01*
X66435032Y-52360207D01*
X66633146Y-52420305D01*
X66633149Y-52420306D01*
X66729975Y-52472061D01*
X66815729Y-52517897D01*
X66975765Y-52649235D01*
X67107103Y-52809271D01*
X67152939Y-52895025D01*
X67204694Y-52991851D01*
X67204695Y-52991854D01*
X67264793Y-53189968D01*
X67285085Y-53396000D01*
X67264793Y-53602032D01*
X67204695Y-53800146D01*
X67204694Y-53800149D01*
X67152939Y-53896975D01*
X67107103Y-53982729D01*
X66975765Y-54142765D01*
X66815729Y-54274103D01*
X66729975Y-54319939D01*
X66633149Y-54371694D01*
X66633146Y-54371695D01*
X66435032Y-54431793D01*
X66332097Y-54441931D01*
X66280631Y-54447000D01*
X65177369Y-54447000D01*
X65125903Y-54441931D01*
X65022968Y-54431793D01*
X64824854Y-54371695D01*
X64824851Y-54371694D01*
X64728025Y-54319939D01*
X64642271Y-54274103D01*
X64482235Y-54142765D01*
X64350897Y-53982729D01*
X64305061Y-53896975D01*
X64253306Y-53800149D01*
X64253305Y-53800146D01*
X64193207Y-53602032D01*
X64172915Y-53396000D01*
X64193207Y-53189968D01*
X64253305Y-52991854D01*
X64253306Y-52991851D01*
X64305061Y-52895025D01*
X64350897Y-52809271D01*
X64482235Y-52649235D01*
X64642271Y-52517897D01*
X64728025Y-52472061D01*
X64824851Y-52420306D01*
X64824854Y-52420305D01*
X65022968Y-52360207D01*
X65125903Y-52350069D01*
X65177369Y-52345000D01*
X66280631Y-52345000D01*
X66332097Y-52350069D01*
X66332097Y-52350069D01*
G37*
G36*
X84874097Y-52350069D02*
G01*
X84977032Y-52360207D01*
X85175146Y-52420305D01*
X85175149Y-52420306D01*
X85271975Y-52472061D01*
X85357729Y-52517897D01*
X85517765Y-52649235D01*
X85649103Y-52809271D01*
X85694939Y-52895025D01*
X85746694Y-52991851D01*
X85746695Y-52991854D01*
X85806793Y-53189968D01*
X85827085Y-53396000D01*
X85806793Y-53602032D01*
X85746695Y-53800146D01*
X85746694Y-53800149D01*
X85694939Y-53896975D01*
X85649103Y-53982729D01*
X85517765Y-54142765D01*
X85357729Y-54274103D01*
X85271975Y-54319939D01*
X85175149Y-54371694D01*
X85175146Y-54371695D01*
X84977032Y-54431793D01*
X84874097Y-54441931D01*
X84822631Y-54447000D01*
X83719369Y-54447000D01*
X83667903Y-54441931D01*
X83564968Y-54431793D01*
X83366854Y-54371695D01*
X83366851Y-54371694D01*
X83270025Y-54319939D01*
X83184271Y-54274103D01*
X83024235Y-54142765D01*
X82892897Y-53982729D01*
X82847061Y-53896975D01*
X82795306Y-53800149D01*
X82795305Y-53800146D01*
X82735207Y-53602032D01*
X82714915Y-53396000D01*
X82735207Y-53189968D01*
X82795305Y-52991854D01*
X82795306Y-52991851D01*
X82847061Y-52895025D01*
X82892897Y-52809271D01*
X83024235Y-52649235D01*
X83184271Y-52517897D01*
X83270025Y-52472061D01*
X83366851Y-52420306D01*
X83366854Y-52420305D01*
X83564968Y-52360207D01*
X83667903Y-52350069D01*
X83719369Y-52345000D01*
X84822631Y-52345000D01*
X84874097Y-52350069D01*
X84874097Y-52350069D01*
G37*
M02*
